<svg width="766" height="1054" viewBox="0 0 766 1054" fill="none" xmlns="http://www.w3.org/2000/svg">
<g opacity="0.739">
<g opacity="0.739">
<path opacity="0.739" fill-rule="evenodd" clip-rule="evenodd" d="M534.145 278.824C557.724 278.824 578.727 289.852 592.278 307.031L567.138 332.172C560.256 321.2 548.052 313.906 534.145 313.906C512.651 313.906 495.227 331.33 495.227 352.824C495.227 366.731 502.521 378.935 513.493 385.817L488.352 410.957C471.173 397.406 460.145 376.403 460.145 352.824C460.145 311.955 493.276 278.824 534.145 278.824Z" fill="#BE6FFB"/>
</g>
</g>
<path fill-rule="evenodd" clip-rule="evenodd" d="M128.471 749.15C199.164 749.15 256.471 806.458 256.471 877.15C256.471 947.842 199.164 1005.15 128.471 1005.15C57.7787 1005.15 0.47113 947.842 0.47113 877.15C0.47113 806.458 57.7787 749.15 128.471 749.15ZM128.471 809.832C91.2921 809.832 61.1526 839.971 61.1526 877.15C61.1526 914.329 91.2921 944.469 128.471 944.469C165.65 944.469 195.79 914.329 195.79 877.15C195.79 839.971 165.65 809.832 128.471 809.832Z" fill="#FFB748"/>
<path fill-rule="evenodd" clip-rule="evenodd" d="M566.237 595.316C581.167 590.432 592.745 582.891 603.079 573.23C604.876 571.551 605.086 570.117 604.371 567.95C600.104 555.027 593.71 543.336 584.471 533.295C575.013 523.013 563.722 515.598 550.019 512.356C536.32 509.111 523.538 511.3 512.141 519.84C494.43 533.111 489.552 556.84 500.698 575.506C506.534 585.277 515.272 591.496 525.896 595.102C539.814 599.827 553.76 599.285 566.237 595.316ZM658.884 485.416C656.938 489.656 655.077 493.937 653.034 498.131C646.408 511.716 639.949 525.389 632.978 538.797C626.868 550.551 619.177 561.296 609.968 570.874C608.739 572.153 608.857 573.294 609.176 574.714L609.22 574.91C612.859 590.616 613.003 606.31 608.992 621.993C603.993 641.53 593.363 657.479 578.152 670.518C564.774 681.985 549.545 690.091 532.636 694.899C500.573 704.017 468.383 704.515 436.233 695.428C418.326 690.368 401.48 682.681 385.176 673.767C369.625 665.261 355.149 655.158 341.15 644.341C340.23 643.629 339.362 642.82 338.616 641.934C338.392 641.67 338.533 640.918 338.751 640.527C338.886 640.287 339.574 640.119 339.863 640.25C340.627 640.592 341.344 641.066 342.016 641.572C356.137 652.22 370.584 662.371 386.127 670.884C403.742 680.535 421.994 688.633 441.457 693.799C457.43 698.039 473.716 699.27 490.183 698.661C501.057 698.26 511.821 696.958 522.415 694.493C548.316 688.467 570.867 676.508 588.11 655.9C603.724 637.239 610.246 615.434 608.65 591.228C608.336 586.467 607.372 581.752 606.679 577.018C606.604 576.521 606.322 576.053 605.985 575.178L604.171 576.71C603.949 576.899 603.734 577.085 603.522 577.272L603.206 577.554C592.216 587.48 579.804 594.93 565.43 598.784C548.446 603.338 531.801 602.6 516.136 594.087C500.814 585.76 492.244 572.65 491.933 555.125C491.619 537.381 499.743 523.745 514.983 514.771C528.201 506.989 542.305 506.672 556.586 511.67C572.644 517.289 584.948 527.753 594.526 541.611C599.324 548.554 603.163 555.986 605.916 563.961L606.241 564.921C606.57 565.913 606.975 566.879 607.549 568.392C608.849 567.113 609.942 566.187 610.864 565.111C617.465 557.414 623.235 549.131 628.342 540.371C635.811 527.564 641.913 514.079 648.21 500.688L655.298 485.673C655.779 484.653 656.198 483.603 656.93 481.912C652.915 482.941 649.692 484.148 646.469 485.394C644.071 486.32 641.637 487.157 639.191 487.951L637.12 488.617C636.155 488.911 635.06 489.106 634.63 487.93C634.099 486.48 635.517 486.109 636.589 485.728L636.707 485.686C643.005 483.382 649.306 481.085 655.612 478.803C656.411 478.514 657.236 478.275 658.069 478.107L658.452 478.034C660.225 477.731 660.837 478.112 661.339 480.044C662.382 484.055 663.293 488.104 664.194 492.151C664.932 495.466 665.635 498.788 666.346 502.108L667.424 507.088C667.671 508.215 667.801 509.332 666.424 509.674C665.035 510.018 664.641 508.931 664.411 507.91L664.384 507.788C663.376 503.109 662.409 498.422 661.442 493.734C660.871 490.963 660.328 488.188 659.771 485.414L658.884 485.416Z" fill="#55B0EB"/>
<path fill-rule="evenodd" clip-rule="evenodd" d="M119.766 159.464L445.228 148.082C458.638 147.611 469.91 157.992 470.594 171.342L470.611 171.748C470.612 171.749 470.612 171.75 470.609 171.75L495.785 893.701C496.255 907.245 485.658 918.608 472.114 919.084L146.652 930.465C133.242 930.937 121.97 920.556 121.286 907.205L121.269 906.8C121.269 906.799 121.269 906.798 121.271 906.797L96.0955 184.847C95.6256 171.303 106.222 159.94 119.766 159.464Z" fill="#3F8FD4"/>
<path fill-rule="evenodd" clip-rule="evenodd" d="M129.015 152.738L454.477 141.356C467.887 140.885 479.159 151.266 479.843 164.616L479.86 165.022C479.86 165.023 479.861 165.023 479.858 165.024L505.034 886.974C505.504 900.519 494.907 911.882 481.363 912.358L155.901 923.739C142.491 924.21 131.219 913.83 130.535 900.479L130.518 900.074C130.518 900.073 130.518 900.072 130.52 900.071L105.345 178.121C104.875 164.577 115.471 153.214 129.015 152.738Z" fill="#0A1B45"/>
<path fill-rule="evenodd" clip-rule="evenodd" d="M201.65 185.646C201.798 189.873 205.281 193.195 209.478 193.168L209.704 193.164L377.41 187.302C381.633 187.154 384.952 183.668 384.925 179.466L384.92 179.24L384.263 160.404L448.496 158.159C456.08 157.893 462.443 163.833 462.708 171.424L487.463 880.983C487.727 888.575 481.794 894.944 474.21 895.209L161.446 906.141C153.862 906.407 147.499 900.467 147.234 892.876L122.48 183.317C122.215 175.725 128.148 169.356 135.733 169.091L200.993 166.81L201.65 185.646Z" fill="#281883"/>
<mask id="mask0_2_271" style="mask-type:alpha" maskUnits="userSpaceOnUse" x="122" y="0" width="644" height="1054">
<path d="M765.415 0.150024V1053.15H253.497V902.868L161.713 906.284C154.127 906.549 147.763 900.609 147.498 893.015L122.737 183.273C122.472 175.679 128.407 169.309 135.993 169.043L148.27 0.150024H765.415Z" fill="white"/>
</mask>
<g mask="url(#mask0_2_271)">
<path fill-rule="evenodd" clip-rule="evenodd" d="M621.733 953.405L557.742 986.789C554.299 988.584 550.103 987.22 548.37 983.741C507.995 903.089 456.922 802.634 415.873 721.676C410.732 711.544 414.195 699.245 423.617 694.206L465.559 671.769C474.979 666.73 486.79 670.859 491.935 680.997C513.985 724.458 558.348 811.939 580.345 855.451C595.184 884.82 609.992 914.12 624.759 943.713C626.531 947.271 625.176 951.61 621.733 953.405Z" fill="#543629"/>
<path fill-rule="evenodd" clip-rule="evenodd" d="M334.749 351.18L245.264 399.124C242.384 400.666 241.696 405.145 243.725 409.128C292.392 505.335 468.724 854.195 513.854 944.32L616.883 889.694C573.267 803.756 392.341 450.707 344.98 358.213C343.429 353.896 338.609 348.824 334.749 351.18Z" fill="#051026"/>
<path fill-rule="evenodd" clip-rule="evenodd" d="M621.21 935.188L544.611 975.683L530.334 947.162L606.833 906.468L621.21 935.188Z" fill="white"/>
<path fill-rule="evenodd" clip-rule="evenodd" d="M613.239 919.446C607.959 922.253 588.922 932.373 571.173 941.811C580.23 957.02 547.228 974.507 540.489 958.124C538.166 959.36 536.825 960.074 536.825 960.074L554.269 995.15L665.566 936.973L659.8 925.333C655.176 915.985 623.739 929.788 613.239 919.446Z" fill="#0A1B45"/>
<path fill-rule="evenodd" clip-rule="evenodd" d="M135.456 350.582C135.456 410.311 185.83 458.731 247.969 458.731C310.108 458.731 360.482 410.311 360.482 350.582" fill="#0A1B45"/>
<path fill-rule="evenodd" clip-rule="evenodd" d="M-78.4931 953.147L-104.194 881.692C-105.567 877.844 -104.144 873.637 -101.014 872.305C-91.9776 868.747 -83.4684 864.173 -74.7582 859.998C-47.0222 845.324 -20.9403 826.762 2.31101 805.014C35.5603 773.201 62.5886 735.675 83.7169 692.926C86.0398 688.378 89.9962 685.166 94.5609 683.59C105.697 677.217 141.584 703.561 151.818 706.577C156.609 709.024 159.936 713.475 161.388 718.793C163.209 757.228 87.7036 846.873 59.2805 873.399C42.3322 889.239 23.0234 904.716 4.02561 917.643C-9.10772 926.281 -23.0622 934.636 -36.8362 942.015C-45.8953 944.588 -73.8366 966.181 -78.4931 953.147Z" fill="#694D3D"/>
<path fill-rule="evenodd" clip-rule="evenodd" d="M243.198 350.582L142.233 353.285C136.72 353.467 136.016 361.258 136.507 366.276C138.463 544.374 89.8946 750.478 -67.9337 840.143L-12.3853 948.646C134.379 865.557 216.318 695.362 239.176 525.174C242.397 503.379 259.489 351.678 243.198 350.582Z" fill="#0A1B45"/>
<path fill-rule="evenodd" clip-rule="evenodd" d="M193.476 352.745L191.315 352.801C197.187 555.892 139.094 790.455 -40.8872 892.552L-39.853 894.571C140.87 792.053 199.378 556.719 193.476 352.745Z" fill="white"/>
<path fill-rule="evenodd" clip-rule="evenodd" d="M693.202 76.7521C699.23 77.8574 702.106 87.6935 696.113 90.5022C691.633 92.0469 684.641 93.8009 677.787 95.8397C682.026 97.7685 685.205 100.436 687.501 102.953C692.673 108.589 686.034 118.327 677.874 115.984C669.183 111.983 659.372 107.827 649.037 109.258C649.004 109.286 648.972 109.313 648.939 109.34C644.094 113.418 641.087 118.333 641.602 124.307C642.493 134.909 649.489 137.185 656.662 137.205L656.945 137.205C659.117 137.193 661.297 136.982 663.323 136.74C663.744 136.691 664.156 136.669 664.557 136.67L664.857 136.676C674.279 137.003 678.023 150.813 669.779 154.034C653.509 160.347 632.158 160.801 616.742 169.242L616.72 169.246C586.086 187.854 554.948 205.253 522.341 221.082C483.778 239.687 442.49 256.108 400.307 266.528C388.294 269.673 374.494 273.177 362.006 273.338L361.094 273.344C343.521 273.337 328.726 266.46 325.484 242.233C324.546 223.684 336.821 206.153 354.933 203.025C373.946 199.919 393.035 195.082 411.458 189.206C466.354 171.555 518.798 144.404 568.851 114.731C573.239 111.399 577.9 108.547 582.676 106.37C609.165 89.918 635.875 77.0863 662.355 74.2614C680.008 72.4445 690.181 76.1702 693.202 76.7521Z" fill="#694D3D"/>
<path fill-rule="evenodd" clip-rule="evenodd" d="M693.202 76.7521C699.23 77.8574 702.106 87.6935 696.113 90.5022C691.633 92.0469 684.641 93.8009 677.787 95.8397C682.026 97.7685 685.205 100.436 687.501 102.953C692.673 108.589 686.034 118.327 677.874 115.984C669.183 111.983 659.372 107.827 649.037 109.258C649.004 109.286 648.972 109.313 648.939 109.34C644.094 113.418 641.087 118.333 641.602 124.307C642.493 134.909 649.489 137.185 656.662 137.205L656.945 137.205C659.117 137.193 661.297 136.982 663.323 136.74C663.744 136.691 664.156 136.669 664.557 136.67L664.857 136.676C674.279 137.003 678.023 150.813 669.779 154.034C653.509 160.347 632.158 160.801 616.742 169.242L616.72 169.246C586.086 187.854 554.948 205.253 522.341 221.082C483.778 239.687 442.49 256.108 400.307 266.528C388.294 269.673 374.494 273.177 362.006 273.338L361.094 273.344C343.521 273.337 328.726 266.46 325.484 242.233C324.546 223.684 336.821 206.153 354.933 203.025C373.946 199.919 393.035 195.082 411.458 189.206C466.354 171.555 518.798 144.404 568.851 114.731C573.239 111.399 577.9 108.547 582.676 106.37C609.165 89.918 635.875 77.0863 662.355 74.2614C680.008 72.4445 690.181 76.1702 693.202 76.7521Z" fill="#543629"/>
<path fill-rule="evenodd" clip-rule="evenodd" d="M405.372 179.774C390.972 184.324 380.402 188.328 358.076 191.161C335.751 193.994 308.044 193.766 308.044 193.766C286.199 218.571 304.677 277.952 338.995 286.258C367.935 292.007 405.314 277.977 433.734 270.623L405.372 179.774Z" fill="#051026"/>
<path d="M345.336 302.996H150.602V354.908H345.336V302.996Z" fill="#694D3D"/>
<path fill-rule="evenodd" clip-rule="evenodd" d="M174.403 193.766H321.535C345.435 193.766 364.81 213.134 364.81 237.025V320.3H131.128V237.025C131.128 213.134 150.503 193.766 174.403 193.766Z" fill="#0A1B45"/>
<path fill-rule="evenodd" clip-rule="evenodd" d="M284.939 472.07C288.402 522.216 225.734 510.689 193.753 501.831C152.078 490.423 112.977 463.526 90.7786 425.199C68.0109 387.498 63.6694 339.263 74.5724 297.589C85.1054 262.69 108.957 186.949 155.858 219.31C169.767 231.147 174.322 252.003 164.966 267.156C141.665 303.38 129.7 350.732 152.321 389.004C165.309 411.233 187.906 426.127 213.1 433.123C243.485 442.566 275.594 429.372 284.939 472.07Z" fill="#694D3D"/>
<path fill-rule="evenodd" clip-rule="evenodd" d="M295.521 496.736C296.421 502.479 291.811 507.217 286.055 507.928C265.644 509.076 229.595 514.377 211.614 503.109C205.496 495.897 213.811 486.272 222.127 488.051C242.7 491.172 263.453 491.053 283.691 488.604C289.126 487.893 294.572 491.269 295.521 496.736Z" fill="#694D3D"/>
<path fill-rule="evenodd" clip-rule="evenodd" d="M294.952 479.286C295.889 484.55 292.043 489.734 286.26 490.443C276.292 490.671 256.569 497.975 255.059 482.856C256.048 468.598 274.082 473.769 283.725 471.141C289.004 470.501 294.005 473.965 294.952 479.286Z" fill="#694D3D"/>
<path fill-rule="evenodd" clip-rule="evenodd" d="M294.093 461.885C295.938 472.368 284.327 473.856 276.591 474.144C268.827 475.305 257.393 476.391 257.072 465.557C256.972 455.316 267.025 455.154 274.657 454.775C282.198 453.643 292.227 451.79 294.093 461.885Z" fill="#694D3D"/>
<path fill-rule="evenodd" clip-rule="evenodd" d="M281.052 436.584C282.309 452.457 260.827 447.062 250.892 448.233C246.146 448.098 242.638 443.553 243.048 438.157C243.441 432.832 247.099 428.646 251.245 428.767C261.021 430.56 278.597 421.986 281.052 436.584Z" fill="#694D3D"/>
<path fill-rule="evenodd" clip-rule="evenodd" d="M314.868 439.327C322.144 457.447 265.599 457.039 254.709 457.982C249.692 458.02 245.885 453.42 246.17 448.065C246.459 442.684 250.229 438.555 254.665 438.512C270.877 438.458 287.494 436.206 303.975 432.139C308.491 430.976 313.367 434.153 314.868 439.327Z" fill="#694D3D"/>
<path fill-rule="evenodd" clip-rule="evenodd" d="M64.053 290.664C76.1493 255.484 92.7144 212.982 131.128 200.007C149.606 193.766 172.488 193.766 172.488 193.766C204.638 233.831 172.488 284.499 155.945 315.546L64.053 290.664Z" fill="#0A1B45"/>
<path fill-rule="evenodd" clip-rule="evenodd" d="M198.203 193.766C198.203 213.476 220.484 229.455 247.969 229.455C275.454 229.455 297.734 213.476 297.734 193.766" fill="#694D3D"/>
<path d="M215.513 102.921C230.451 102.921 242.56 90.8157 242.56 75.8834C242.56 60.9512 230.451 48.8462 215.513 48.8462C200.576 48.8462 188.467 60.9512 188.467 75.8834C188.467 90.8157 200.576 102.921 215.513 102.921Z" fill="black"/>
<path fill-rule="evenodd" clip-rule="evenodd" d="M222.004 145.099H270.688V200.939C270.688 215.978 259.789 228.168 246.346 228.168C232.903 228.168 222.004 215.978 222.004 200.939V145.099Z" fill="#694D3D"/>
<path fill-rule="evenodd" clip-rule="evenodd" d="M272.909 179.707H267.513C242.38 179.707 222.005 159.339 222.005 134.214V112.874C222.005 93.6394 237.602 78.0464 256.844 78.0464H262.895C282.137 78.0464 297.735 93.6394 297.735 112.874V154.888C297.735 168.595 286.62 179.707 272.909 179.707Z" fill="#694D3D"/>
<path fill-rule="evenodd" clip-rule="evenodd" d="M234.987 141.314C234.987 148.779 228.933 154.832 221.463 154.832C213.994 154.832 207.94 148.779 207.94 141.314C207.94 133.848 213.994 127.795 221.463 127.795C228.933 127.795 234.987 133.848 234.987 141.314Z" fill="#694D3D"/>
<path fill-rule="evenodd" clip-rule="evenodd" d="M218.831 135.548C219.81 135.548 221.165 135.773 222.555 136.468C224.877 137.629 226.346 139.751 226.444 142.83L226.45 143.164H223.204C223.204 141.179 222.445 140.041 221.103 139.37C220.605 139.121 220.055 138.956 219.501 138.864C219.229 138.818 219.017 138.799 218.894 138.794L218.831 138.792V135.548Z" fill="black"/>
<path opacity="0.12" fill-rule="evenodd" clip-rule="evenodd" d="M245.536 182.228C235.48 178.672 230.463 169.691 228.476 157.61C236.342 170.698 250.609 179.505 266.949 179.703L267.513 179.707H270.688C262.102 184.281 253.717 185.122 245.536 182.228Z" fill="black"/>
<path fill-rule="evenodd" clip-rule="evenodd" d="M262.908 78.0464C281.062 78.0464 295.987 91.801 297.734 109.409L231.712 109.408L226.868 127.715L224.831 127.766C223.198 127.799 221.147 127.822 220.94 127.731L220.923 127.715L220.937 126.644C221.024 122.273 221.462 112.818 221.462 112.818C221.462 93.8064 236.742 78.3582 255.706 78.0511L256.282 78.0464H262.908Z" fill="black"/>
<path fill-rule="evenodd" clip-rule="evenodd" d="M257.23 126.713C257.23 124.921 255.778 123.469 253.985 123.469C252.192 123.469 250.739 124.921 250.739 126.713C250.739 128.505 252.192 129.958 253.985 129.958C255.778 129.958 257.23 128.505 257.23 126.713Z" fill="black"/>
<path fill-rule="evenodd" clip-rule="evenodd" d="M285.359 126.713C285.359 124.921 283.906 123.469 282.113 123.469C280.321 123.469 278.868 124.921 278.868 126.713C278.868 128.505 280.321 129.958 282.113 129.958C283.906 129.958 285.359 128.505 285.359 126.713Z" fill="black"/>
<path fill-rule="evenodd" clip-rule="evenodd" d="M270.902 123.898L274.093 123.307L278.732 148.343H268.049V145.098L274.829 145.098L270.902 123.898Z" fill="black"/>
<path fill-rule="evenodd" clip-rule="evenodd" d="M258.703 147.896C258.703 151.869 262.751 155.544 267.098 155.687L267.359 155.691V158.935C261.303 158.935 255.646 153.997 255.462 148.187L255.458 147.896H258.703Z" fill="black"/>
<path fill-rule="evenodd" clip-rule="evenodd" d="M259.935 112.654V115.899C256.445 115.899 253.261 116.835 250.446 118.398C249.601 118.867 248.844 119.364 248.181 119.863L247.857 120.112C247.481 120.409 247.217 120.64 247.073 120.778L247.018 120.831L244.723 118.537C245.499 117.761 246.9 116.656 248.869 115.562C251.997 113.825 255.531 112.75 259.405 112.66L259.935 112.654Z" fill="black"/>
<path fill-rule="evenodd" clip-rule="evenodd" d="M275.081 112.654C279.164 112.654 282.877 113.746 286.147 115.562C287.993 116.587 289.34 117.623 290.14 118.388L290.293 118.537L287.998 120.831L287.791 120.638C287.669 120.53 287.51 120.394 287.314 120.235L287.159 120.112C286.422 119.531 285.556 118.945 284.571 118.398C281.896 116.913 278.889 115.994 275.602 115.906L275.081 115.899V112.654Z" fill="black"/>
</g>
</svg>
