<svg width="765" height="1053" viewBox="0 0 765 1053" fill="none" xmlns="http://www.w3.org/2000/svg">
<path fill-rule="evenodd" clip-rule="evenodd" d="M430.474 265.339H482.957C491.667 265.339 494.825 266.309 498.009 268.13C501.193 269.951 503.692 272.623 505.395 276.028C507.098 279.432 508.004 282.81 508.004 292.123V388.984C508.004 398.298 507.098 401.675 505.395 405.08C503.692 408.484 501.193 411.156 498.009 412.977C494.825 414.798 491.667 415.768 482.957 415.768H430.474C421.765 415.768 418.606 414.798 415.422 412.977C412.238 411.156 409.739 408.484 408.036 405.08C406.333 401.675 405.427 398.298 405.427 388.984V292.123C405.427 282.81 406.333 279.432 408.036 276.028C409.739 272.623 412.238 269.951 415.422 268.13C418.606 266.309 421.765 265.339 430.474 265.339Z" fill="#BAEBFF"/>
<path fill-rule="evenodd" clip-rule="evenodd" d="M430.474 786.616H482.957C491.667 786.616 494.825 787.586 498.009 789.407C501.193 791.228 503.692 793.9 505.395 797.304C507.098 800.709 508.004 804.086 508.004 813.4V957.27C508.004 966.583 507.098 969.96 505.395 973.365C503.692 976.77 501.193 979.442 498.009 981.263C494.825 983.084 491.667 984.054 482.957 984.054H430.474C421.765 984.054 418.606 983.084 415.422 981.263C412.238 979.442 409.739 976.77 408.036 973.365C406.333 969.96 405.427 966.583 405.427 957.27V813.4C405.427 804.086 406.333 800.709 408.036 797.304C409.739 793.9 412.238 791.228 415.422 789.407C418.606 787.586 421.765 786.616 430.474 786.616Z" fill="#B8DBE9"/>
<path fill-rule="evenodd" clip-rule="evenodd" d="M668.846 601.714H721.329C730.038 601.714 733.196 602.684 736.38 604.505C739.564 606.326 742.063 608.998 743.766 612.403C745.469 615.807 746.376 619.185 746.376 628.498V725.359C746.376 734.673 745.469 738.05 743.766 741.455C742.063 744.859 739.564 747.531 736.38 749.352C733.196 751.173 730.038 752.143 721.329 752.143H668.846C660.136 752.143 656.978 751.173 653.794 749.352C650.61 747.531 648.111 744.859 646.408 741.455C644.705 738.05 643.798 734.673 643.798 725.359V628.498C643.798 619.185 644.705 615.807 646.408 612.403C648.111 608.998 650.61 606.326 653.794 604.505C656.978 602.684 660.136 601.714 668.846 601.714Z" fill="#B8DBE9"/>
<path fill-rule="evenodd" clip-rule="evenodd" d="M549.66 265.339H602.143C610.852 265.339 614.011 266.309 617.195 268.13C620.379 269.951 622.878 272.623 624.58 276.028C626.283 279.432 627.19 282.81 627.19 292.123V458.976C627.19 468.289 626.283 471.666 624.58 475.071C622.878 478.475 620.379 481.147 617.195 482.968C614.011 484.789 610.852 485.759 602.143 485.759H549.66C540.95 485.759 537.792 484.789 534.608 482.968C531.424 481.147 528.925 478.475 527.222 475.071C525.519 471.666 524.612 468.289 524.612 458.976V292.123C524.612 282.81 525.519 279.432 527.222 276.028C528.925 272.623 531.424 269.951 534.608 268.13C537.792 266.309 540.95 265.339 549.66 265.339Z" fill="#8AB8F1"/>
<path fill-rule="evenodd" clip-rule="evenodd" d="M668.846 404.277H721.329C730.038 404.277 733.196 405.246 736.38 407.067C739.564 408.888 742.063 411.56 743.766 414.965C745.469 418.37 746.376 421.747 746.376 431.06V550.904C746.376 560.217 745.469 563.594 743.766 566.999C742.063 570.404 739.564 573.076 736.38 574.897C733.196 576.718 730.038 577.688 721.329 577.688H668.846C660.136 577.688 656.978 576.718 653.794 574.897C650.61 573.076 648.111 570.404 646.408 566.999C644.705 563.594 643.798 560.217 643.798 550.904V431.06C643.798 421.747 644.705 418.37 646.408 414.965C648.111 411.56 650.61 408.888 653.794 407.067C656.978 405.246 660.136 404.277 668.846 404.277Z" fill="#B8DBE9"/>
<path fill-rule="evenodd" clip-rule="evenodd" d="M549.66 508.741H602.143C610.852 508.741 614.011 509.711 617.195 511.532C620.379 513.353 622.878 516.025 624.58 519.429C626.283 522.834 627.19 526.211 627.19 535.525V597.913C627.19 607.226 626.283 610.603 624.58 614.008C622.878 617.413 620.379 620.085 617.195 621.906C614.011 623.727 610.852 624.696 602.143 624.696H549.66C540.95 624.696 537.792 623.727 534.608 621.906C531.424 620.085 528.925 617.413 527.222 614.008C525.519 610.603 524.612 607.226 524.612 597.913V535.525C524.612 526.211 525.519 522.834 527.222 519.429C528.925 516.025 531.424 513.353 534.608 511.532C537.792 509.711 540.95 508.741 549.66 508.741Z" fill="#B8DBE9"/>
<path fill-rule="evenodd" clip-rule="evenodd" d="M668.846 265.339H721.329C730.038 265.339 733.196 266.309 736.38 268.13C739.564 269.951 742.063 272.623 743.766 276.028C745.469 279.432 746.376 282.81 746.376 292.123V354.511C746.376 363.824 745.469 367.202 743.766 370.606C742.063 374.011 739.564 376.683 736.38 378.504C733.196 380.325 730.038 381.295 721.329 381.295H668.846C660.136 381.295 656.978 380.325 653.794 378.504C650.61 376.683 648.111 374.011 646.408 370.606C644.705 367.202 643.798 363.824 643.798 354.511V292.123C643.798 282.81 644.705 279.432 646.408 276.028C648.111 272.623 650.61 269.951 653.794 268.13C656.978 266.309 660.136 265.339 668.846 265.339Z" fill="#B8DBE9"/>
<path fill-rule="evenodd" clip-rule="evenodd" d="M430.474 578.732H482.957C491.667 578.732 494.825 579.702 498.009 581.523C501.193 583.344 503.692 586.016 505.395 589.42C507.098 592.825 508.004 596.202 508.004 605.516V736.85C508.004 746.164 507.098 749.541 505.395 752.946C503.692 756.35 501.193 759.022 498.009 760.843C494.825 762.664 491.667 763.634 482.957 763.634H430.474C421.765 763.634 418.606 762.664 415.422 760.843C412.238 759.022 409.739 756.35 408.036 752.946C406.333 749.541 405.427 746.164 405.427 736.85V605.516C405.427 596.202 406.333 592.825 408.036 589.42C409.739 586.016 412.238 583.344 415.422 581.523C418.606 579.702 421.765 578.732 430.474 578.732Z" fill="#8AB8F1"/>
<path fill-rule="evenodd" clip-rule="evenodd" d="M430.474 438.75H482.957C491.667 438.75 494.825 439.72 498.009 441.541C501.193 443.361 503.692 446.034 505.395 449.438C507.098 452.843 508.004 456.22 508.004 465.533V527.922C508.004 537.235 507.098 540.612 505.395 544.017C503.692 547.422 501.193 550.094 498.009 551.915C494.825 553.736 491.667 554.705 482.957 554.705H430.474C421.765 554.705 418.606 553.736 415.422 551.915C412.238 550.094 409.739 547.422 408.036 544.017C406.333 540.612 405.427 537.235 405.427 527.922V465.533C405.427 456.22 406.333 452.843 408.036 449.438C409.739 446.034 412.238 443.361 415.422 441.541C418.606 439.72 421.765 438.75 430.474 438.75Z" fill="#B8DBE9"/>
<path fill-rule="evenodd" clip-rule="evenodd" d="M668.846 914.062H721.329C730.038 914.062 733.196 915.032 736.38 916.853C739.564 918.674 742.063 921.346 743.766 924.751C745.469 928.156 746.376 931.533 746.376 940.846V1003.23C746.376 1012.55 745.469 1015.92 743.766 1019.33C742.063 1022.73 739.564 1025.41 736.38 1027.23C733.196 1029.05 730.038 1030.02 721.329 1030.02H668.846C660.136 1030.02 656.978 1029.05 653.794 1027.23C650.61 1025.41 648.111 1022.73 646.408 1019.33C644.705 1015.92 643.798 1012.55 643.798 1003.23V940.846C643.798 931.533 644.705 928.156 646.408 924.751C648.111 921.346 650.61 918.674 653.794 916.853C656.978 915.032 660.136 914.062 668.846 914.062Z" fill="#8AB8F1"/>
<path fill-rule="evenodd" clip-rule="evenodd" d="M410.311 218.33H442.55C445.787 218.33 448.412 221.137 448.412 224.598C448.412 228.06 445.787 230.866 442.55 230.866H410.311C407.074 230.866 404.45 228.06 404.45 224.598C404.45 221.137 407.074 218.33 410.311 218.33Z" fill="#B8DBE9"/>
<path opacity="0.3" fill-rule="evenodd" clip-rule="evenodd" d="M475.766 218.33H508.005C511.242 218.33 513.866 221.137 513.866 224.598C513.866 228.06 511.242 230.866 508.005 230.866H475.766C472.528 230.866 469.904 228.06 469.904 224.598C469.904 221.137 472.528 218.33 475.766 218.33Z" fill="#B8DBE9"/>
<path opacity="0.3" fill-rule="evenodd" clip-rule="evenodd" d="M540.243 218.33H572.482C575.719 218.33 578.344 221.137 578.344 224.598C578.344 228.06 575.719 230.866 572.482 230.866H540.243C537.006 230.866 534.382 228.06 534.382 224.598C534.382 221.137 537.006 218.33 540.243 218.33Z" fill="#B8DBE9"/>
<path opacity="0.3" fill-rule="evenodd" clip-rule="evenodd" d="M605.698 218.33H637.937C641.174 218.33 643.798 221.137 643.798 224.598C643.798 228.06 641.174 230.866 637.937 230.866H605.698C602.461 230.866 599.836 228.06 599.836 224.598C599.836 221.137 602.461 218.33 605.698 218.33Z" fill="#B8DBE9"/>
<path opacity="0.3" fill-rule="evenodd" clip-rule="evenodd" d="M670.175 218.33H702.414C705.651 218.33 708.275 221.137 708.275 224.598C708.275 228.06 705.651 230.866 702.414 230.866H670.175C666.938 230.866 664.313 228.06 664.313 224.598C664.313 221.137 666.938 218.33 670.175 218.33Z" fill="#B8DBE9"/>
<path fill-rule="evenodd" clip-rule="evenodd" d="M166.078 0H176.825C203.802 0 225.671 23.3851 225.671 52.2321V63.7232C225.671 92.5702 203.802 115.955 176.825 115.955H166.078C139.101 115.955 117.232 92.5702 117.232 63.7232V52.2321C117.232 23.3851 139.101 0 166.078 0Z" fill="#B8DBE9"/>
<path d="M167.602 44.063C165.984 44.063 164.674 45.4468 164.674 47.1552V48.7013H160.282C158.665 48.7013 157.354 50.085 157.354 51.7934V68.8002C157.354 70.5086 158.665 71.8923 160.282 71.8923H183.705C185.323 71.8923 186.633 70.5086 186.633 68.8002V51.7934C186.633 50.085 185.323 48.7013 183.705 48.7013H179.313V47.1552C179.313 45.4468 178.003 44.063 176.386 44.063H167.602ZM172.536 52.1799C176.722 52.1799 180.127 55.5611 180.127 59.717C180.127 63.873 176.722 67.2541 172.536 67.2541C168.35 67.2541 164.945 63.873 164.945 59.717C164.945 55.5611 168.35 52.1799 172.536 52.1799ZM181.753 52.1799C182.651 52.1799 183.38 52.9591 183.38 53.9193C183.38 54.8794 182.651 55.6586 181.753 55.6586C180.855 55.6586 180.127 54.8794 180.127 53.9193C180.127 52.9591 180.855 52.1799 181.753 52.1799ZM172.536 54.499C170.14 54.499 168.198 56.5756 168.198 59.1372C168.198 61.6989 170.14 63.7755 172.536 63.7755C174.932 63.7755 176.874 61.6989 176.874 59.1372C176.874 56.5756 174.932 54.499 172.536 54.499Z" fill="#70A2DE"/>
<path fill-rule="evenodd" clip-rule="evenodd" d="M90.3662 150.429H122.849C125.817 150.429 128.222 153.001 128.222 156.174C128.222 159.347 125.817 161.92 122.849 161.92H90.3662C87.3987 161.92 84.993 159.347 84.993 156.174C84.993 153.001 87.3987 150.429 90.3662 150.429Z" fill="#8AB8F1"/>
<path opacity="0.3" fill-rule="evenodd" clip-rule="evenodd" d="M155.21 150.429H187.693C190.661 150.429 193.066 153.001 193.066 156.174C193.066 159.347 190.661 161.92 187.693 161.92H155.21C152.243 161.92 149.837 159.347 149.837 156.174C149.837 153.001 152.243 150.429 155.21 150.429Z" fill="#B8DBE9"/>
<path opacity="0.3" fill-rule="evenodd" clip-rule="evenodd" d="M220.054 150.429H252.537C255.504 150.429 257.91 153.001 257.91 156.174C257.91 159.347 255.504 161.92 252.537 161.92H220.054C217.086 161.92 214.681 159.347 214.681 156.174C214.681 153.001 217.086 150.429 220.054 150.429Z" fill="#B8DBE9"/>
<path fill-rule="evenodd" clip-rule="evenodd" d="M313.898 277.875H335.529C338.522 277.875 340.949 280.47 340.949 283.671C340.949 286.872 338.522 289.467 335.529 289.467H313.898C310.905 289.467 308.478 286.872 308.478 283.671C308.478 280.47 310.905 277.875 313.898 277.875Z" fill="#B8DBE9"/>
<path fill-rule="evenodd" clip-rule="evenodd" d="M303.074 312.651H335.529C338.522 312.651 340.949 315.246 340.949 318.448C340.949 321.649 338.522 324.244 335.529 324.244H303.074C300.081 324.244 297.654 321.649 297.654 318.448C297.654 315.246 300.081 312.651 303.074 312.651Z" fill="#B8DBE9"/>
<path fill-rule="evenodd" clip-rule="evenodd" d="M324.722 347.428H335.529C338.522 347.428 340.949 350.023 340.949 353.224C340.949 356.425 338.522 359.02 335.529 359.02H324.722C321.728 359.02 319.302 356.425 319.302 353.224C319.302 350.023 321.728 347.428 324.722 347.428Z" fill="#B8DBE9"/>
<path fill-rule="evenodd" clip-rule="evenodd" d="M335.537 382.204C338.526 382.204 340.949 384.795 340.949 387.991V388.01C340.949 391.206 338.526 393.797 335.537 393.797C332.548 393.797 330.125 391.206 330.125 388.01V387.991C330.125 384.795 332.548 382.204 335.537 382.204Z" fill="#B8DBE9"/>
<path fill-rule="evenodd" clip-rule="evenodd" d="M313.898 416.981H335.529C338.522 416.981 340.949 419.576 340.949 422.777C340.949 425.978 338.522 428.573 335.529 428.573H313.898C310.905 428.573 308.478 425.978 308.478 422.777C308.478 419.576 310.905 416.981 313.898 416.981Z" fill="#B8DBE9"/>
<path fill-rule="evenodd" clip-rule="evenodd" d="M324.722 451.757H335.529C338.522 451.757 340.949 454.352 340.949 457.554C340.949 460.755 338.522 463.35 335.529 463.35H324.722C321.728 463.35 319.302 460.755 319.302 457.554C319.302 454.352 321.728 451.757 324.722 451.757Z" fill="#B8DBE9"/>
<path fill-rule="evenodd" clip-rule="evenodd" d="M335.537 486.534C338.526 486.534 340.949 489.125 340.949 492.321V492.339C340.949 495.535 338.526 498.126 335.537 498.126C332.548 498.126 330.125 495.535 330.125 492.339V492.321C330.125 489.125 332.548 486.534 335.537 486.534Z" fill="#8AB8F1"/>
<path fill-rule="evenodd" clip-rule="evenodd" d="M5.4204 625.64H189.408C192.401 625.64 194.828 628.235 194.828 631.436C194.828 634.637 192.401 637.232 189.408 637.232H5.4204C2.42679 637.232 0 634.637 0 631.436C0 628.235 2.42679 625.64 5.4204 625.64Z" fill="#B8DBE9"/>
<path fill-rule="evenodd" clip-rule="evenodd" d="M324.722 521.31H335.529C338.522 521.31 340.949 523.905 340.949 527.107C340.949 530.308 338.522 532.903 335.529 532.903H324.722C321.728 532.903 319.302 530.308 319.302 527.107C319.302 523.905 321.728 521.31 324.722 521.31Z" fill="#8AB8F1"/>
<path fill-rule="evenodd" clip-rule="evenodd" d="M313.898 556.087H335.529C338.522 556.087 340.949 558.682 340.949 561.883C340.949 565.084 338.522 567.679 335.529 567.679H313.898C310.905 567.679 308.478 565.084 308.478 561.883C308.478 558.682 310.905 556.087 313.898 556.087Z" fill="#B8DBE9"/>
<path fill-rule="evenodd" clip-rule="evenodd" d="M5.4204 590.863H81.1699C84.1635 590.863 86.5903 593.458 86.5903 596.66C86.5903 599.861 84.1635 602.456 81.1699 602.456H5.4204C2.42679 602.456 0 599.861 0 596.66C0 593.458 2.42679 590.863 5.4204 590.863Z" fill="#BAEBFF"/>
<path fill-rule="evenodd" clip-rule="evenodd" d="M5.4204 556.087H48.6985C51.6921 556.087 54.1189 558.682 54.1189 561.883C54.1189 565.084 51.6921 567.679 48.6985 567.679H5.4204C2.42679 567.679 0 565.084 0 561.883C0 558.682 2.42679 556.087 5.4204 556.087Z" fill="#8AB8F1"/>
<path fill-rule="evenodd" clip-rule="evenodd" d="M5.4204 521.31H37.8747C40.8683 521.31 43.2951 523.905 43.2951 527.107C43.2951 530.308 40.8683 532.903 37.8747 532.903H5.4204C2.42679 532.903 0 530.308 0 527.107C0 523.905 2.42679 521.31 5.4204 521.31Z" fill="#B8DBE9"/>
<path fill-rule="evenodd" clip-rule="evenodd" d="M5.4204 347.428H81.1699C84.1635 347.428 86.5903 350.023 86.5903 353.224C86.5903 356.425 84.1635 359.02 81.1699 359.02H5.4204C2.42679 359.02 0 356.425 0 353.224C0 350.023 2.42679 347.428 5.4204 347.428Z" fill="#B8DBE9"/>
<path fill-rule="evenodd" clip-rule="evenodd" d="M5.4204 312.651H124.465C127.459 312.651 129.885 315.246 129.885 318.448C129.885 321.649 127.459 324.244 124.465 324.244H5.4204C2.42679 324.244 0 321.649 0 318.448C0 315.246 2.42679 312.651 5.4204 312.651Z" fill="#BAEBFF"/>
<path fill-rule="evenodd" clip-rule="evenodd" d="M5.4204 277.875H48.6985C51.6921 277.875 54.1189 280.47 54.1189 283.671C54.1189 286.872 51.6921 289.467 48.6985 289.467H5.4204C2.42679 289.467 0 286.872 0 283.671C0 280.47 2.42679 277.875 5.4204 277.875Z" fill="#B8DBE9"/>
<path fill-rule="evenodd" clip-rule="evenodd" d="M21.4925 208.929H319.457C331.327 208.929 340.949 219.218 340.949 231.911C340.949 244.603 331.327 254.893 319.457 254.893H21.4925C9.62252 254.893 0 244.603 0 231.911C0 219.218 9.62252 208.929 21.4925 208.929Z" fill="#8AB8F1"/>
<path d="M129.932 732.295H27.3541C12.2468 732.295 0 745.39 0 761.545C0 777.699 12.2468 790.795 27.3541 790.795H129.932C145.039 790.795 157.286 777.699 157.286 761.545C157.286 745.39 145.039 732.295 129.932 732.295Z" fill="#B8DBE9"/>
<path fill-rule="evenodd" clip-rule="evenodd" d="M695.071 1007.45L637.286 1039.7C634.177 1041.43 630.388 1040.12 628.823 1036.76C592.364 958.852 546.244 861.82 509.177 783.62C504.534 773.833 507.662 761.954 516.17 757.086L554.044 735.414C562.55 730.547 573.216 734.535 577.861 744.327C597.773 786.308 637.834 870.808 657.697 912.838C671.096 941.206 684.468 969.507 697.803 998.092C699.403 1001.53 698.18 1005.72 695.071 1007.45Z" fill="#22C024"/>
<path fill-rule="evenodd" clip-rule="evenodd" d="M435.921 425.747L355.114 472.058C352.514 473.548 351.892 477.874 353.725 481.721C397.672 574.65 556.902 911.624 597.655 998.679L690.691 945.914C651.305 862.904 487.927 521.883 445.159 432.54C443.758 428.371 439.406 423.472 435.921 425.747Z" fill="#051026"/>
<path fill-rule="evenodd" clip-rule="evenodd" d="M694.598 989.858L625.429 1028.97L612.536 1001.42L681.616 962.116L694.598 989.858Z" fill="white"/>
<path fill-rule="evenodd" clip-rule="evenodd" d="M687.4 974.652C682.632 977.364 665.442 987.139 649.414 996.255C657.593 1010.95 627.791 1027.84 621.706 1012.01C619.608 1013.21 618.398 1013.9 618.398 1013.9L634.15 1047.78L734.653 991.582L729.445 980.339C725.27 971.309 696.882 984.641 687.4 974.652Z" fill="#0A1B45"/>
<path fill-rule="evenodd" clip-rule="evenodd" d="M255.956 425.17C255.956 482.864 301.444 529.634 357.557 529.634C413.67 529.634 459.158 482.864 459.158 425.17" fill="#0A1B45"/>
<path fill-rule="evenodd" clip-rule="evenodd" d="M62.7576 1007.2L39.5497 938.185C38.3097 934.467 39.5946 930.404 42.421 929.117C50.581 925.681 58.2649 921.262 66.1303 917.23C91.1763 903.055 114.729 885.126 135.725 864.119C165.749 833.389 190.156 797.143 209.235 755.85C211.333 751.457 214.906 748.354 219.028 746.832C229.083 740.676 261.49 766.123 270.731 769.035C275.058 771.4 278.062 775.699 279.373 780.836C281.018 817.961 212.835 904.551 187.169 930.174C171.864 945.474 154.428 960.423 137.273 972.911C125.414 981.254 112.812 989.324 100.374 996.452C92.1939 998.937 66.9625 1019.8 62.7576 1007.2Z" fill="#8152FF"/>
<path fill-rule="evenodd" clip-rule="evenodd" d="M353.248 425.17L262.076 427.78C257.098 427.956 256.462 435.482 256.906 440.329C258.671 612.359 214.814 811.44 72.293 898.051L122.454 1002.86C254.984 922.599 328.976 758.203 349.617 593.813C352.526 572.76 367.96 426.228 353.248 425.17Z" fill="#0A1B45"/>
<path fill-rule="evenodd" clip-rule="evenodd" d="M77.0657 1008.08L46.8927 925.781C54.6898 922.039 63.3128 917.534 70.7888 913.018L106.486 992.371C97.2675 997.912 86.6677 1003.47 77.0657 1008.08Z" fill="white"/>
<path fill-rule="evenodd" clip-rule="evenodd" d="M94.7624 999.066C92.4534 993.555 84.1293 973.68 76.3667 955.146C64.0872 963.32 49.4545 930.407 62.9484 923.111C61.9323 920.684 61.3452 919.286 61.3452 919.286C53.5552 923.644 41.4004 929.195 33.2157 932.821L72.5301 1053L84.6565 1047.53C94.7712 1040.94 84.9068 1007.46 94.7624 999.066Z" fill="#0A1B45"/>
<path fill-rule="evenodd" clip-rule="evenodd" d="M308.349 427.259L306.397 427.313C311.7 623.485 259.242 850.056 96.7162 948.675L97.65 950.625C260.845 851.599 313.679 624.283 308.349 427.259Z" fill="white"/>
<path fill-rule="evenodd" clip-rule="evenodd" d="M716.736 287.277L716.989 287.283C718.344 287.331 719.728 287.672 721.015 288.262L721.255 288.376C724.145 289.806 725.566 291.934 725.9 294.517C725.911 294.604 725.921 294.691 725.93 294.778L726.052 294.517C726.395 293.788 726.732 293.055 727.062 292.319C729.075 288.039 733.926 286.419 738.149 288.063L738.401 288.166C741.932 289.641 744.025 293.383 743.755 297.198C743.752 297.247 743.748 297.295 743.744 297.343C746.172 295.674 749.242 295.197 752.09 296.435C756.894 298.593 758.424 304.83 756.042 309.797C755.032 311.547 754 313.538 752.93 315.659C755.467 314.202 758.476 313.826 761.139 315.285C773.855 323.72 752.19 350.618 732.698 369.83C728.596 374.477 723.647 378.924 718.209 383.111C714.377 386.333 711.259 388.682 709.383 389.78C708.465 390.442 707.472 390.966 706.446 391.34L706.446 391.34L706.297 391.435C687.181 403.646 665.563 412.739 653.244 416.716C629.077 424.509 604.214 428.443 579.27 428.594L578.023 428.599C561.808 428.615 545.563 427.032 529.458 423.872C497.195 417.493 464.88 403.815 438.22 382.004C425.178 370.237 409.188 357.336 403.718 339.101C399.781 324.851 405.509 308.563 418.718 302.727C423.804 300.435 429.419 299.251 435.018 299.247L435.527 299.25C443.33 299.344 451.071 301.736 457.281 306.625C463.999 313.45 469.586 321.302 477.452 327.289C496.009 342.312 517.987 351.419 541.31 356.1C553.058 358.397 565.165 359.592 577.329 359.627L578.732 359.626C612.894 359.472 647.404 350.148 675.546 330.341C675.905 330.106 676.26 329.865 676.612 329.62C669.438 317.833 687.333 311.602 691.89 302.714C694.634 299.565 699.33 300.423 702.648 302.889L702.853 303.043C705.558 299.133 708.013 295.057 710.198 290.828C711.637 288.336 714.118 287.254 716.736 287.277Z" fill="#8152FF"/>
<path fill-rule="evenodd" clip-rule="evenodd" d="M716.736 287.277L716.989 287.283C718.344 287.331 719.728 287.672 721.015 288.262L721.255 288.376C724.145 289.806 725.566 291.934 725.9 294.517C725.911 294.604 725.921 294.691 725.93 294.778L726.052 294.517C726.395 293.788 726.732 293.055 727.062 292.319C729.075 288.039 733.926 286.419 738.149 288.063L738.401 288.166C741.932 289.641 744.025 293.383 743.755 297.198C743.752 297.247 743.748 297.295 743.744 297.343C746.172 295.674 749.242 295.197 752.09 296.435C756.894 298.593 758.424 304.83 756.042 309.797C755.032 311.547 754 313.538 752.93 315.659C755.467 314.202 758.476 313.826 761.139 315.285C773.855 323.72 752.19 350.618 732.698 369.83C728.596 374.477 723.647 378.924 718.209 383.111C714.377 386.333 711.259 388.682 709.383 389.78C708.465 390.442 707.472 390.966 706.446 391.34L706.446 391.34L706.297 391.435C687.181 403.646 665.563 412.739 653.244 416.716C629.077 424.509 604.214 428.443 579.27 428.594L578.023 428.599C561.808 428.615 545.563 427.032 529.458 423.872C497.195 417.493 464.88 403.815 438.22 382.004C425.178 370.237 409.188 357.336 403.718 339.101C399.781 324.851 405.509 308.563 418.718 302.727C423.804 300.435 429.419 299.251 435.018 299.247L435.527 299.25C443.33 299.344 451.071 301.736 457.281 306.625C463.999 313.45 469.586 321.302 477.452 327.289C496.009 342.312 517.987 351.419 541.31 356.1C553.058 358.397 565.165 359.592 577.329 359.627L578.732 359.626C612.894 359.472 647.404 350.148 675.546 330.341C675.905 330.106 676.26 329.865 676.612 329.62C669.438 317.833 687.333 311.602 691.89 302.714C694.634 299.565 699.33 300.423 702.648 302.889L702.853 303.043C705.558 299.133 708.013 295.057 710.198 290.828C711.637 288.336 714.118 287.254 716.736 287.277Z" fill="#22C024"/>
<path fill-rule="evenodd" clip-rule="evenodd" d="M420.229 368.27C394.769 362.979 387.853 343.339 388.4 309.37C388.977 295.085 371.098 273.696 407.869 273.696C444.64 273.696 460.136 314.153 482.179 328.858L420.229 368.27Z" fill="#051026"/>
<path d="M445.481 379.205H269.633V429.348H445.481V379.205Z" fill="#8152FF"/>
<path fill-rule="evenodd" clip-rule="evenodd" d="M287.77 273.696C311.31 273.696 350.183 273.696 404.39 273.696C433.665 273.696 458.452 296.793 462.455 327.803C472.157 402.943 492.176 460.727 522.513 501.156C532.692 514.722 540.578 536.649 523.584 542.74C457.172 566.541 298.336 597.191 238.272 567.29C232.23 564.282 229.194 557.666 227.798 546.643C219.162 478.43 240.136 386.911 252.637 325.675C258.339 297.74 264.998 273.696 287.77 273.696Z" fill="#0A1B45"/>
<path fill-rule="evenodd" clip-rule="evenodd" d="M312.618 273.696C312.618 292.735 332.738 308.17 357.557 308.17C382.376 308.17 402.496 292.735 402.496 273.696" fill="#8152FF"/>
<path fill-rule="evenodd" clip-rule="evenodd" d="M170.322 636.752C182.065 646.993 192.547 645.286 198.931 642.563C205.549 639.542 203.815 628.883 196.752 627.584C185.656 626.587 176.283 627.255 166.646 615.014C163.602 611.32 161.637 610.102 160.482 610.608C156.502 617.422 164.09 630.708 170.322 636.752Z" fill="#8152FF"/>
<path opacity="0.12" fill-rule="evenodd" clip-rule="evenodd" d="M170.322 636.752C182.065 646.993 192.547 645.286 198.931 642.563C205.549 639.542 203.815 628.883 196.752 627.584C185.656 626.587 176.283 627.255 166.646 615.014C163.602 611.32 161.637 610.102 160.482 610.608C156.502 617.422 164.09 630.708 170.322 636.752Z" fill="black"/>
<path fill-rule="evenodd" clip-rule="evenodd" d="M161.616 603.569C135.602 615.097 119.104 592.614 113.639 567.29C109.14 552.813 105.168 537.318 102.428 522.174C92.182 471.085 97.4193 412.698 129.479 371.265C150.578 342.426 179.773 321.027 209.954 305.187C235.596 291.934 273.406 270.479 286.66 311.185C291.016 328.846 282.532 347.806 266.731 354.159C222.691 372.328 172.259 400.496 163.579 453.802C160.207 476.096 163.313 499.203 168.193 521.153C174.204 551.168 196.762 583.402 161.616 603.569Z" fill="#8152FF"/>
<path fill-rule="evenodd" clip-rule="evenodd" d="M242.088 366.384L201.736 307.091C223.136 292.821 247.203 273.696 289.063 273.696C300.681 273.696 303.083 289.75 305.875 311.188C309.063 329.323 299.443 347.982 283.069 353.695C269.205 358.404 255.545 362.633 242.088 366.384Z" fill="#0A1B45"/>
<path fill-rule="evenodd" clip-rule="evenodd" d="M178.412 556.623C169.341 547.023 128.909 573.256 118.216 581.323C127.347 609.908 145.102 641.356 167.073 656.594C176.364 664.163 207.131 676.747 201.037 656.672C194.12 650.9 159.512 619.643 172.548 603.936C179.607 593.942 188.05 598.742 194.965 604.248C201.302 609.642 212.945 600.749 208.141 593.419C199.542 582.242 183.122 569.602 178.412 556.623Z" fill="#8152FF"/>
<path fill-rule="evenodd" clip-rule="evenodd" d="M285.753 331.152H293.568C315.959 331.152 334.111 311.742 334.111 287.799V236.089H285.043C263.044 236.089 245.21 255.159 245.21 278.684V287.799C245.21 311.742 263.361 331.152 285.753 331.152Z" fill="black"/>
<path fill-rule="evenodd" clip-rule="evenodd" d="M349.742 225.121C349.742 200.601 331.153 180.723 308.222 180.723C285.291 180.723 266.702 200.601 266.702 225.121C266.702 249.64 285.291 269.518 308.222 269.518C331.153 269.518 349.742 249.64 349.742 225.121Z" fill="black"/>
<path fill-rule="evenodd" clip-rule="evenodd" d="M423.988 192.737C423.988 168.217 405.399 148.339 382.469 148.339C359.538 148.339 340.949 168.217 340.949 192.737C340.949 217.256 359.538 237.134 382.469 237.134C405.399 237.134 423.988 217.256 423.988 192.737Z" fill="black"/>
<path fill-rule="evenodd" clip-rule="evenodd" d="M419.104 248.625C419.104 231.317 405.983 217.286 389.796 217.286C373.609 217.286 360.488 231.317 360.488 248.625C360.488 265.933 373.609 279.964 389.796 279.964C405.983 279.964 419.104 265.933 419.104 248.625Z" fill="black"/>
<path fill-rule="evenodd" clip-rule="evenodd" d="M351.501 265.339H370.257V148.339H351.501C324.091 148.339 301.872 172.099 301.872 201.408V212.27C301.872 241.58 324.091 265.339 351.501 265.339Z" fill="black"/>
<path fill-rule="evenodd" clip-rule="evenodd" d="M334.111 226.688H378.073V280.626C378.073 295.151 368.231 306.927 356.092 306.927C343.952 306.927 334.111 295.151 334.111 280.626V226.688Z" fill="#8152FF"/>
<path fill-rule="evenodd" clip-rule="evenodd" d="M380.078 260.116H375.206C352.51 260.116 334.111 240.442 334.111 216.173V195.56C334.111 176.981 348.196 161.92 365.571 161.92H371.035C388.411 161.92 402.496 176.981 402.496 195.56V236.144C402.496 249.383 392.459 260.116 380.078 260.116Z" fill="#8152FF"/>
<path fill-rule="evenodd" clip-rule="evenodd" d="M345.834 223.031C345.834 230.242 340.367 236.089 333.622 236.089C326.877 236.089 321.411 230.242 321.411 223.031C321.411 215.82 326.877 209.973 333.622 209.973C340.367 209.973 345.834 215.82 345.834 223.031Z" fill="#8152FF"/>
<path fill-rule="evenodd" clip-rule="evenodd" d="M331.245 217.462C332.129 217.462 333.353 217.68 334.608 218.351C336.705 219.472 338.031 221.522 338.12 224.496L338.125 224.818H335.194C335.194 222.901 334.509 221.802 333.297 221.154C332.847 220.913 332.35 220.754 331.85 220.665C331.605 220.621 331.413 220.602 331.302 220.597L331.245 220.596V217.462Z" fill="black"/>
<path opacity="0.12" fill-rule="evenodd" clip-rule="evenodd" d="M355.36 262.552C346.279 259.117 341.749 250.441 339.955 238.772C347.058 251.414 359.941 259.921 374.696 260.113L375.206 260.116H378.073C370.319 264.535 362.748 265.347 355.36 262.552Z" fill="black"/>
<path fill-rule="evenodd" clip-rule="evenodd" d="M333.465 209.973C324.674 209.973 319.165 187.637 318.503 176.495C317.595 161.224 343.764 148.339 358.863 148.339H384.253L399.565 180.998H358.563C351.947 198.89 342.257 209.973 333.465 209.973Z" fill="black"/>
<path fill-rule="evenodd" clip-rule="evenodd" d="M365.92 208.929C365.92 207.198 364.608 205.795 362.989 205.795C361.371 205.795 360.059 207.198 360.059 208.929C360.059 210.66 361.371 212.062 362.989 212.062C364.608 212.062 365.92 210.66 365.92 208.929Z" fill="black"/>
<path fill-rule="evenodd" clip-rule="evenodd" d="M391.32 208.929C391.32 207.198 390.008 205.795 388.39 205.795C386.771 205.795 385.459 207.198 385.459 208.929C385.459 210.66 386.771 212.062 388.39 212.062C390.008 212.062 391.32 210.66 391.32 208.929Z" fill="black"/>
<path fill-rule="evenodd" clip-rule="evenodd" d="M378.266 206.209L381.148 205.638L385.336 229.821H375.69V226.687L381.812 226.686L378.266 206.209Z" fill="black"/>
<path fill-rule="evenodd" clip-rule="evenodd" d="M367.25 229.389C367.25 233.227 370.906 236.777 374.831 236.915L375.066 236.919V240.053C369.598 240.053 364.489 235.283 364.323 229.67L364.319 229.389H367.25Z" fill="black"/>
<path fill-rule="evenodd" clip-rule="evenodd" d="M368.363 195.348V198.482C365.211 198.482 362.336 199.386 359.793 200.897C359.031 201.35 358.347 201.83 357.748 202.311L357.456 202.552C357.116 202.839 356.878 203.062 356.748 203.195L356.699 203.246L354.626 201.03C355.327 200.281 356.592 199.213 358.37 198.157C361.195 196.479 364.385 195.441 367.884 195.354L368.363 195.348Z" fill="black"/>
<path fill-rule="evenodd" clip-rule="evenodd" d="M382.04 195.348C385.726 195.348 389.079 196.403 392.032 198.157C393.699 199.147 394.915 200.148 395.638 200.886L395.776 201.03L393.703 203.246L393.516 203.06C393.407 202.956 393.263 202.824 393.086 202.671L392.946 202.552C392.281 201.99 391.499 201.425 390.609 200.897C388.194 199.462 385.478 198.574 382.51 198.489L382.04 198.482V195.348Z" fill="black"/>
<path opacity="0.906" fill-rule="evenodd" clip-rule="evenodd" d="M549.66 647.679H602.143C610.852 647.679 614.011 648.648 617.195 650.469C620.379 652.29 622.878 654.962 624.58 658.367C626.283 661.772 627.19 665.149 627.19 674.462V771.324C627.19 780.637 626.283 784.014 624.58 787.419C622.878 790.824 620.379 793.496 617.195 795.317C614.011 797.137 610.852 798.107 602.143 798.107H549.66C540.95 798.107 537.792 797.137 534.608 795.317C531.424 793.496 528.925 790.824 527.222 787.419C525.519 784.014 524.612 780.637 524.612 771.324V674.462C524.612 665.149 525.519 661.772 527.222 658.367C528.925 654.962 531.424 652.29 534.608 650.469C537.792 648.648 540.95 647.679 549.66 647.679Z" fill="#B8DBE9"/>
<path opacity="0.866" fill-rule="evenodd" clip-rule="evenodd" d="M549.66 821.089H602.143C610.852 821.089 614.011 822.059 617.195 823.88C620.379 825.701 622.878 828.373 624.58 831.778C626.283 835.182 627.19 838.56 627.19 847.873V944.734C627.19 954.048 626.283 957.425 624.58 960.83C622.878 964.234 620.379 966.906 617.195 968.727C614.011 970.548 610.852 971.518 602.143 971.518H549.66C540.95 971.518 537.792 970.548 534.608 968.727C531.424 966.906 528.925 964.234 527.222 960.83C525.519 957.425 524.612 954.048 524.612 944.734V847.873C524.612 838.56 525.519 835.182 527.222 831.778C528.925 828.373 531.424 825.701 534.608 823.88C537.792 822.059 540.95 821.089 549.66 821.089Z" fill="#B8DBE9"/>
<path fill-rule="evenodd" clip-rule="evenodd" d="M668.846 775.125H721.329C730.038 775.125 733.196 776.095 736.38 777.916C739.564 779.736 742.063 782.409 743.766 785.813C745.469 789.218 746.376 792.595 746.376 801.908V864.297C746.376 873.61 745.469 876.987 743.766 880.392C742.063 883.797 739.564 886.469 736.38 888.29C733.196 890.111 730.038 891.08 721.329 891.08H668.846C660.136 891.08 656.978 890.111 653.794 888.29C650.61 886.469 648.111 883.797 646.408 880.392C644.705 876.987 643.798 873.61 643.798 864.297V801.908C643.798 792.595 644.705 789.218 646.408 785.813C648.111 782.409 650.61 779.736 653.794 777.916C656.978 776.095 660.136 775.125 668.846 775.125Z" fill="#BAEBFF"/>
<path fill-rule="evenodd" clip-rule="evenodd" d="M335.537 625.64C338.526 625.64 340.949 628.231 340.949 631.427V631.445C340.949 634.641 338.526 637.232 335.537 637.232C332.548 637.232 330.125 634.641 330.125 631.445V631.427C330.125 628.231 332.548 625.64 335.537 625.64Z" fill="#B8DBE9"/>
<path fill-rule="evenodd" clip-rule="evenodd" d="M313.898 590.863H335.529C338.522 590.863 340.949 593.458 340.949 596.66C340.949 599.861 338.522 602.456 335.529 602.456H313.898C310.905 602.456 308.478 599.861 308.478 596.66C308.478 593.458 310.905 590.863 313.898 590.863Z" fill="#B8DBE9"/>
<path opacity="0.89" fill-rule="evenodd" clip-rule="evenodd" d="M5.4204 486.534H189.408C192.401 486.534 194.828 489.129 194.828 492.33C194.828 495.531 192.401 498.126 189.408 498.126H5.4204C2.42679 498.126 0 495.531 0 492.33C0 489.129 2.42679 486.534 5.4204 486.534Z" fill="#B8DBE9"/>
<path fill-rule="evenodd" clip-rule="evenodd" d="M5.4204 451.757H70.3461C73.3397 451.757 75.7665 454.352 75.7665 457.554C75.7665 460.755 73.3397 463.35 70.3461 463.35H5.4204C2.42679 463.35 0 460.755 0 457.554C0 454.352 2.42679 451.757 5.4204 451.757Z" fill="#B8DBE9"/>
<path fill-rule="evenodd" clip-rule="evenodd" d="M5.4204 416.981H37.8747C40.8683 416.981 43.2951 419.576 43.2951 422.777C43.2951 425.978 40.8683 428.573 37.8747 428.573H5.4204C2.42679 428.573 0 425.978 0 422.777C0 419.576 2.42679 416.981 5.4204 416.981Z" fill="#B8DBE9"/>
<path opacity="0.89" fill-rule="evenodd" clip-rule="evenodd" d="M5.4204 382.204H156.936C159.93 382.204 162.357 384.799 162.357 388.001C162.357 391.202 159.93 393.797 156.936 393.797H5.4204C2.42679 393.797 0 391.202 0 388.001C0 384.799 2.42679 382.204 5.4204 382.204Z" fill="#8AB8F1"/>
<path opacity="0.908" d="M313.595 732.295H211.017C195.91 732.295 183.663 745.39 183.663 761.545C183.663 777.699 195.91 790.795 211.017 790.795H313.595C328.702 790.795 340.949 777.699 340.949 761.545C340.949 745.39 328.702 732.295 313.595 732.295Z" fill="#BAEBFF"/>
</svg>
