<svg width="765" height="1053" viewBox="0 0 765 1053" fill="none" xmlns="http://www.w3.org/2000/svg">
<g opacity="0.151">
<g opacity="0.151">
<path opacity="0.151" fill-rule="evenodd" clip-rule="evenodd" d="M594.241 278.282C649.758 381.361 658.846 508.735 632.965 619.361C607.083 729.752 545.837 823.395 448.04 913.501C350.046 1003.61 215.107 1089.94 158.602 1036.63C102.097 983.321 124.225 789.901 93.0093 614.644C61.7935 439.387 -22.5684 282.056 8.84504 185.346C40.2585 88.8723 187.645 52.783 312.113 74.4837C436.779 95.9486 538.724 174.968 594.241 278.282Z" fill="#FFB749"/>
</g>
</g>
<g opacity="0.825">
<g opacity="0.825">
<path opacity="0.825" d="M557.106 0H443.404V135.626H557.106V0Z" fill="#902EE9"/>
<path opacity="0.825" d="M670.808 135.626H557.106V271.252H670.808V135.626Z" fill="#FF9F00"/>
</g>
</g>
<path fill-rule="evenodd" clip-rule="evenodd" d="M181.225 689.467L227.443 624.675C229.928 621.192 233.921 620.374 236.492 622.891C244.27 630.485 252.513 637.93 260.828 644.921C269.16 651.916 277.636 658.485 286.132 664.472C294.628 670.477 303.159 675.815 311.524 680.376C319.874 684.886 328.082 688.557 335.634 691.009C341.806 692.996 347.551 694.197 352.261 694.491C357.019 694.842 360.608 694.297 363.09 693.527C364.315 693.093 365.346 692.671 366.264 692.146C367.156 691.556 368.022 690.955 368.949 690.14C370.74 688.361 373.013 685.795 375.406 681.269C375.667 680.771 376.04 680.377 376.519 680.073C376.639 679.997 376.764 679.926 376.896 679.86L377.32 679.566C377.613 679.375 377.93 679.208 378.269 679.061C379.626 678.478 381.339 678.234 383.293 678.297C385.246 678.358 387.441 678.725 389.742 679.416C392.033 680.105 394.37 681.101 396.747 682.5L438.859 707.364C441.216 708.751 443.304 710.608 444.937 712.755C446.56 714.894 447.776 717.358 448.525 720.017C449.274 722.672 449.554 725.52 449.327 728.374C449.188 729.809 449.038 731.205 448.536 732.652C448.077 734.084 447.484 735.491 446.756 736.839C440.172 749.063 431.51 760.848 420.965 770.649C415.648 775.505 409.872 779.778 403.821 783.384C397.741 786.936 391.393 789.682 385.007 791.751C372.196 795.796 359.377 796.814 347.381 795.967C335.335 795.149 324.02 792.541 313.274 789.089C300.193 784.829 287.971 779.221 276.294 772.927C264.648 766.583 253.523 759.56 242.826 752.01C232.121 744.467 221.8 736.451 211.776 728.036C201.752 719.604 192.035 710.832 182.49 701.516C179.3 698.398 178.733 692.948 181.225 689.467Z" fill="#22C024"/>
<path fill-rule="evenodd" clip-rule="evenodd" d="M312.793 444.019C312.907 445.156 313.085 446.063 313.235 447.082L313.717 450.062L314.728 456.01C315.064 458.064 315.466 459.802 315.863 461.605L317.078 466.997C317.887 470.722 318.795 473.824 319.693 477.127L321.059 482.021L322.471 486.534L323.9 491.021L324.62 493.261L325.345 495.339L328.269 503.625L331.198 511.36C332.186 514.002 333.145 516.329 334.116 518.764C335.082 521.164 336.066 523.653 337.004 525.881L339.855 532.735L342.627 539.27L347.984 551.831L352.969 563.65C359.442 579.063 364.586 592.876 368.218 605.306C371.632 617.573 373.56 628.204 373.63 636.603L373.683 638.197C373.712 638.729 373.748 639.264 373.688 639.748C373.622 640.74 373.584 641.733 373.573 642.728L373.57 643.475C373.559 643.72 373.509 643.947 373.482 644.185L373.316 645.599L373.194 647.019L373.149 647.73C373.122 647.966 373.056 648.191 373.014 648.42C372.617 650.242 372.512 652.116 371.925 653.938C371.675 654.856 371.558 655.787 371.276 656.725C370.943 657.657 370.637 658.598 370.356 659.552L369.953 660.988L369.342 662.447C368.941 663.426 368.562 664.414 368.204 665.417C368.106 665.666 368.047 665.916 367.92 666.17L367.534 666.933L366.784 668.472C366.294 669.497 365.819 670.559 365.368 671.588C363.816 674.605 362.48 676.363 361.701 677.193C361.6 677.284 361.512 677.389 361.434 677.507C361.357 677.633 361.267 677.609 361.202 677.691C361.132 677.737 361.085 677.866 361.024 677.889C360.962 677.899 360.914 677.928 360.874 677.974C360.855 677.997 360.839 678.029 360.824 678.057C360.798 678.052 360.777 678.05 360.757 678.054C360.719 678.061 360.692 678.089 360.675 678.136C360.646 678.154 360.6 678.118 360.578 678.146C360.549 678.153 360.556 678.233 360.5 678.196C360.24 678.221 359.879 678.564 358.318 678.726C355.46 679.283 348.155 678.791 339.12 675.724C330.552 672.89 320.601 668.127 310.428 662.05C300.226 655.983 289.729 648.582 279.347 640.417L216.28 755.218C229.949 765.821 244.193 775.805 259.461 784.769C274.738 793.701 290.989 801.722 309.058 807.585C318.628 810.674 328.792 813.062 339.578 814.35C350.333 815.653 361.879 815.681 373.86 813.702C385.802 811.815 398.257 807.488 409.91 800.807C421.603 794.158 432.219 784.892 441.067 774.606C449.944 764.287 457.056 752.954 462.75 741.61L466.54 733.463L468.405 729.375C469.031 728.018 469.646 726.652 470.182 725.187L473.481 716.531L475.091 712.182L476.494 707.649L479.22 698.548C480.069 695.482 480.731 692.3 481.465 689.171C483.023 682.934 483.931 676.461 484.925 670.036C485.041 669.231 485.179 668.429 485.272 667.621L485.511 665.194L485.966 660.332L486.391 655.467C486.454 654.658 486.538 653.846 486.581 653.036L486.663 650.616L486.924 640.926C486.986 639.302 486.938 637.714 486.889 636.124L486.743 631.35C486.642 624.923 485.971 618.779 485.414 612.555C485.092 609.471 484.616 606.5 484.205 603.471L483.553 598.95C483.331 597.449 483.026 596.022 482.763 594.556L481.096 585.823C480.468 582.992 479.802 580.2 479.145 577.392L478.149 573.191L477.044 569.138L474.803 561.058C468.516 540.01 460.983 520.94 453.55 503.491C449.827 494.692 446.146 486.338 442.652 478.253C439.112 470.122 435.891 462.469 432.976 455.097L430.872 449.665L429.008 444.474L428.541 443.181L428.149 441.957L427.357 439.515L426.565 437.086L425.938 434.829C424.199 428.8 312.291 439.658 312.793 444.019Z" fill="#3E36B9"/>
<path fill-rule="evenodd" clip-rule="evenodd" d="M204.696 721.981C208.166 716.308 220.681 695.854 232.349 676.783C232.136 676.63 231.917 676.484 231.713 676.306C226.369 671.637 226.852 660.478 232.679 651.562C238.505 642.641 247.104 639.003 251.992 643.271C252.182 643.437 252.347 643.63 252.519 643.815C254.048 641.318 254.929 639.876 254.929 639.876C250.368 635.896 245.843 631.809 241.44 627.642C239.238 625.56 237.058 623.459 234.944 621.369L231.847 618.266L229.337 615.677L146.665 725.403L150.059 728.948L152.933 731.871C154.821 733.774 156.67 735.599 158.524 737.41C162.975 741.735 171.018 736.467 179.649 730.835C188.302 725.202 197.512 719.178 204.696 721.981Z" fill="#D7DBE2"/>
<path fill-rule="evenodd" clip-rule="evenodd" d="M216.135 755.261L279.362 640.219C287.94 646.926 296.588 653.098 305.087 658.424L251.328 780.124C239.032 772.405 227.382 764.049 216.135 755.261Z" fill="#D7DBE2"/>
<path fill-rule="evenodd" clip-rule="evenodd" d="M64.9691 710.263L111.25 645.537C113.743 642.058 117.747 641.26 120.341 643.805C128.166 651.477 136.443 659.031 144.811 666.163C153.189 673.316 161.724 680.061 170.305 686.329C178.889 692.563 187.536 698.333 196.112 703.326C200.398 705.844 204.668 708.177 208.882 710.263C213.095 712.362 217.272 714.298 221.333 715.896C225.031 717.366 228.67 718.695 232.143 719.686C233.021 719.962 233.89 720.219 234.731 720.418L237.268 721.074C238.911 721.417 240.566 721.821 242.115 722.046C245.255 722.584 248.211 722.911 250.825 722.915C253.442 722.93 255.861 722.85 257.844 722.442C259.856 722.069 261.575 721.579 263.07 721.006C264.523 720.359 265.791 719.634 267.043 718.794C268.288 717.961 269.472 716.768 270.796 715.431C271.112 715.044 271.441 714.674 271.786 714.319C272.126 713.947 272.442 713.433 272.791 713.018L273.318 712.377C273.492 712.153 273.655 711.86 273.829 711.611C274.174 711.09 274.529 710.583 274.898 710.088C275.5 709.026 276.542 708.454 277.92 708.133C279.268 707.71 280.972 707.641 282.92 707.868C286.854 708.051 291.734 709.318 296.33 712.43L337.267 739.952C341.853 743.038 345.043 747.95 346.15 753.766C346.638 756.699 346.61 759.857 346.045 763.021C345.402 766.163 344.141 769.303 342.364 772.177L339.092 776.966C338.536 777.758 338.007 778.561 337.426 779.338L335.643 781.653C334.436 783.182 333.284 784.741 332.013 786.224L328.137 790.619C322.797 796.317 317.01 801.652 310.675 806.1C304.358 810.551 297.659 814.257 290.789 817.122C283.907 819.907 276.91 821.834 269.978 823.048C263.031 824.306 256.208 824.631 249.529 824.546C242.836 824.466 236.35 823.74 230.034 822.664C223.698 821.613 217.576 820.104 211.607 818.333C205.615 816.594 199.833 814.495 194.158 812.233C187.915 809.757 181.881 806.965 175.959 804.014C170.03 801.072 164.257 797.911 158.603 794.592C147.272 787.985 136.429 780.728 125.897 773.079C115.384 765.402 105.184 757.324 95.2662 748.861C85.3377 740.394 75.6935 731.6 66.1983 722.293C63.0254 719.185 62.4719 713.737 64.9691 710.263Z" fill="#8152FF"/>
<path fill-rule="evenodd" clip-rule="evenodd" d="M211.136 421.923C210.073 424.944 209.601 428.932 209.863 433.302C210.517 443.085 211.823 452.001 213.404 460.179C214.994 468.363 216.864 475.84 218.84 482.813C220.82 489.789 222.913 496.261 225.035 502.326C227.155 508.401 229.308 514.172 231.449 519.645C233.589 525.106 235.723 530.347 237.822 535.401L243.997 550.012C248.018 559.424 251.846 568.312 255.348 576.791C262.36 593.723 268.107 609.234 271.813 623.05C273.645 629.933 275.039 636.393 275.869 642.285C276.12 643.783 276.235 645.187 276.437 646.626C276.539 648.009 276.737 649.431 276.792 650.755C277.016 653.471 277.037 656.015 277.036 658.501C277.031 660.981 276.846 663.337 276.665 665.671C276.373 667.973 276.144 670.261 275.664 672.506C274.861 677.022 273.493 681.52 271.74 686.258C271.321 687.441 270.76 688.633 270.309 689.841C269.73 691.049 269.242 692.267 268.638 693.499L267.724 695.357L267.282 696.272L266.913 696.904C266.426 697.716 266 698.733 265.532 699.341C263.737 702.297 262.294 703.881 261.358 704.788C260.841 705.1 260.505 705.527 260.087 705.676C259.727 705.968 259.273 706.075 258.739 706.332C257.594 706.683 255.817 707.255 252.773 707.268C252.391 707.262 252.037 707.305 251.632 707.3C251.209 707.268 250.786 707.248 250.362 707.239L249.723 707.229L249.019 707.155C248.552 707.109 248.083 707.072 247.613 707.046C245.608 706.756 243.501 706.49 241.135 705.913C236.47 704.871 231.185 703.209 225.568 700.885C216.017 697.002 205.635 691.454 195.154 684.811C184.656 678.164 174.014 670.418 163.513 661.972L99.4793 776.011C112.928 786.683 126.893 796.767 141.674 805.999C156.465 815.209 172.055 823.613 189.032 830.398C199 834.389 209.505 837.764 220.656 840.154C226.198 841.39 231.996 842.246 237.872 842.895C243.838 843.4 249.867 843.756 256.167 843.45C268.639 843.057 281.921 840.521 294.953 835.334C307.984 830.137 320.586 821.955 331.405 811.889C342.181 801.75 351.123 789.924 358.295 777.784C360.185 774.748 361.727 771.682 363.384 768.605L364.602 766.297L365.67 764.105L367.772 759.729C369.158 756.795 370.451 753.739 371.771 750.734C373.006 747.629 374.29 744.58 375.443 741.399C380.097 728.748 383.949 715.326 386.411 701.418C387.721 694.491 388.575 687.446 389.271 680.41C389.858 673.369 390.232 666.31 390.232 659.321C390.229 652.344 390.007 645.394 389.444 638.61C389.217 635.184 388.821 631.856 388.48 628.488C388.052 625.182 387.665 621.836 387.139 618.596C385.171 605.515 382.342 593.109 379.103 581.285C372.559 557.675 364.286 536.573 356.089 517.011C347.887 497.494 339.592 479.386 332.994 462.785C329.727 454.535 326.848 446.626 324.838 439.636C322.799 432.659 321.6 426.523 321.327 422.428C321.308 421.571 320.57 420.827 319.545 420.354C318.491 419.855 212.17 418.947 211.136 421.923Z" fill="#694FD9"/>
<path fill-rule="evenodd" clip-rule="evenodd" d="M88.2532 742.781C91.7512 737.133 104.363 716.765 116.122 697.772C115.907 697.618 115.689 697.474 115.485 697.293C110.15 692.581 110.661 681.411 116.512 672.521C122.366 663.625 131.004 660.056 135.919 664.395C136.109 664.561 136.277 664.757 136.451 664.943C137.99 662.457 138.878 661.021 138.878 661.021C134.284 656.982 129.752 652.821 125.314 648.61C123.102 646.503 120.91 644.38 118.782 642.268L115.659 639.132L113.103 636.493L30.4317 746.217L33.7816 749.721L36.6284 752.621L42.1655 758.127C46.5762 762.44 54.6051 757.171 63.2378 751.554C71.8877 745.942 81.1007 739.959 88.2532 742.781Z" fill="#D7DBE2"/>
<path fill-rule="evenodd" clip-rule="evenodd" d="M99.336 776.054L163.53 661.776C172.204 668.721 180.971 675.153 189.673 680.908L133.774 801.228C121.833 793.326 110.396 784.904 99.336 776.054Z" fill="#D7DBE2"/>
<path fill-rule="evenodd" clip-rule="evenodd" d="M321.29 544.237H310.563C251.915 544.237 204.37 487.525 204.37 417.567H427.483C427.483 487.525 379.939 544.237 321.29 544.237Z" fill="#694FD9"/>
<path fill-rule="evenodd" clip-rule="evenodd" d="M735.071 186.582C718.779 193.944 697.63 194.372 682.002 204.1C640.581 233.264 598.193 259.307 552.626 280.476C534.519 289.131 513.84 296.995 495.043 303.331C480.864 307.921 464.527 312.172 450.002 315.259C436.61 318.381 420.806 321.68 409.999 309.162C386.876 289.379 397.81 239.948 425.121 234.325C437.478 232.445 451.587 229.249 463.669 225.635C484.841 219.703 506.839 211.217 527.072 201.724C582.624 178.043 633.505 136.815 686.579 105.867C706.638 93.2777 744.916 87.5802 758.778 95.1074C764.771 96.4317 767.611 108.053 761.633 111.354C759.665 112.441 752.159 114.406 743.387 117.63C747.598 119.918 750.758 123.091 753.026 126.069C758.139 132.735 751.541 144.336 743.437 141.536C736.337 139.037 729.06 130.827 714.568 133.635C698.627 150.521 710.55 171.62 728.792 166.033C739.247 164.597 743.72 182.554 735.071 186.582Z" fill="#8152FF"/>
<path opacity="0.12" fill-rule="evenodd" clip-rule="evenodd" d="M735.071 186.582C718.779 193.944 697.63 194.372 682.002 204.1C640.581 233.264 598.193 259.307 552.626 280.476C534.519 289.131 513.84 296.995 495.043 303.331C480.864 307.921 464.527 312.172 450.002 315.259C436.61 318.381 420.806 321.68 409.999 309.162C386.876 289.379 397.81 239.948 425.121 234.325C437.478 232.445 451.587 229.249 463.669 225.635C484.841 219.703 506.839 211.217 527.072 201.724C582.624 178.043 633.505 136.815 686.579 105.867C706.638 93.2777 744.916 87.5802 758.778 95.1074C764.771 96.4317 767.611 108.053 761.633 111.354C759.665 112.441 752.159 114.406 743.387 117.63C747.598 119.918 750.758 123.091 753.026 126.069C758.139 132.735 751.541 144.336 743.437 141.536C736.337 139.037 729.06 130.827 714.568 133.635C698.627 150.521 710.55 171.62 728.792 166.033C739.247 164.597 743.72 182.554 735.071 186.582Z" fill="black"/>
<path fill-rule="evenodd" clip-rule="evenodd" d="M649.965 119.698C642.282 125.042 630.573 133.487 622.829 138.454C598.281 136.536 440.358 231.587 361.094 231.588C347.91 255.256 376.282 309.997 397.727 325.385C412.769 337.765 431.034 334.411 448.364 333.67C500.531 328.812 551.366 307.82 597.238 278.471C619.751 262.749 645.877 245.773 662.183 222.152C670.648 216.774 682.924 207.806 691.265 202.048L649.965 119.698Z" fill="#2DB386"/>
<path fill-rule="evenodd" clip-rule="evenodd" d="M623.916 139.933L663.293 223.613C671.479 218.342 683.971 209.354 692.093 203.698L650.793 121.346C643.182 126.64 631.584 135.003 623.916 139.933Z" fill="#25996F"/>
<path fill-rule="evenodd" clip-rule="evenodd" d="M461.754 477.632C383.914 484.133 164.987 454.398 167.465 437.849C172.379 405.026 180.887 353.736 192.989 283.981C192.989 255.045 214.611 231.587 241.282 231.587H390.732C417.404 231.587 439.025 255.045 439.025 283.981C449.702 350.881 457.459 400.49 462.298 432.807C464.026 444.346 463.844 459.288 461.754 477.632Z" fill="#34D1A1"/>
<path fill-rule="evenodd" clip-rule="evenodd" d="M163.441 481.331C271.405 526.951 388.46 483.797 468.572 481.331L463.434 431.574C384.956 434.921 272.658 475.795 167.383 432.618L163.441 481.331Z" fill="#2DB386"/>
<path fill-rule="evenodd" clip-rule="evenodd" d="M311.011 521.291C257.818 519.66 205.738 472.656 209.096 405.622C209.879 374.787 219.29 346.296 233.474 319.217C242.948 301.372 238.105 275.766 224.562 262.381C170.268 215.779 138.476 357.544 138.321 403.488C137.513 435.82 143.579 469.298 156.373 498.107C181.824 557.087 233.863 594.109 287.366 603.088C299.59 606.118 387.645 614.393 357.157 581.966C360.988 579.738 363.193 574.881 362.473 569.95C361.898 565.994 359.666 562.86 356.83 561.339C363.408 557.562 363.142 545.246 356.975 541.21C361.546 540.33 366.785 539.113 371.302 537.855C377.92 537.193 384.518 531.787 382.22 522.675C376.968 505.164 359.41 520.088 348.691 519.431C346.251 502.156 328.84 512.309 319.138 510.181C315.027 510.039 311.4 514.992 311.011 521.291Z" fill="#8152FF"/>
<path fill-rule="evenodd" clip-rule="evenodd" d="M286.399 610.68C273.228 608.272 260.021 604.545 247.093 598.966C212.933 599.766 179.078 569.368 156.81 537.74C121.064 485.978 111.898 411.433 128.597 348.205C136.205 316.609 152.472 281.916 169.436 258.366C186.4 234.815 215.769 231.588 253.478 231.588C291.187 231.588 257.14 283.991 253.478 305.241C248.981 322.207 240.101 337.69 235.96 354.789C216.225 421.679 229.942 464.691 274.161 508.6C281.84 511.943 290.042 514.259 298.489 515.808L286.399 610.68Z" fill="#34D1A1"/>
<path fill-rule="evenodd" clip-rule="evenodd" d="M248.055 597.34L274.95 506.899C282.448 510.147 290.474 512.385 298.73 513.909L286.642 608.78C273.708 606.406 260.743 602.78 248.055 597.34Z" fill="#2DB386"/>
<path fill-rule="evenodd" clip-rule="evenodd" d="M236.918 301.96H245.499C270.085 301.96 290.015 278.187 290.015 248.861V185.526H236.139C211.984 185.526 192.403 208.883 192.403 237.696V248.861C192.403 278.187 212.333 301.96 236.918 301.96Z" fill="black"/>
<path fill-rule="evenodd" clip-rule="evenodd" d="M307.177 172.092C307.177 142.059 286.767 117.713 261.589 117.713C236.412 117.713 216.001 142.059 216.001 172.092C216.001 202.124 236.412 226.47 261.589 226.47C286.767 226.47 307.177 202.124 307.177 172.092Z" fill="black"/>
<path fill-rule="evenodd" clip-rule="evenodd" d="M388.699 132.427C388.699 102.395 368.288 78.049 343.111 78.049C317.934 78.049 297.523 102.395 297.523 132.427C297.523 162.46 317.934 186.806 343.111 186.806C368.288 186.806 388.699 162.46 388.699 132.427Z" fill="black"/>
<path fill-rule="evenodd" clip-rule="evenodd" d="M383.336 200.88C383.336 179.682 368.929 162.495 351.156 162.495C333.383 162.495 318.976 179.682 318.976 200.88C318.976 222.079 333.383 239.265 351.156 239.265C368.929 239.265 383.336 222.079 383.336 200.88Z" fill="black"/>
<path fill-rule="evenodd" clip-rule="evenodd" d="M309.109 221.352H329.703V78.049H309.109C279.013 78.049 254.617 107.15 254.617 143.048V156.353C254.617 192.251 279.013 221.352 309.109 221.352Z" fill="black"/>
<path fill-rule="evenodd" clip-rule="evenodd" d="M290.015 174.011H338.284V240.075C338.284 257.866 327.478 272.289 314.149 272.289C300.821 272.289 290.015 257.866 290.015 240.075V174.011Z" fill="#8152FF"/>
<path fill-rule="evenodd" clip-rule="evenodd" d="M340.486 214.955H335.136C310.216 214.955 290.015 190.858 290.015 161.133V135.886C290.015 113.13 305.48 94.6824 324.558 94.6824H330.557C349.635 94.6824 365.101 113.13 365.101 135.886V185.593C365.101 201.809 354.081 214.955 340.486 214.955Z" fill="#8152FF"/>
<path fill-rule="evenodd" clip-rule="evenodd" d="M302.886 169.533C302.886 178.365 296.884 185.526 289.478 185.526C282.073 185.526 276.07 178.365 276.07 169.533C276.07 160.7 282.073 153.539 289.478 153.539C296.884 153.539 302.886 160.7 302.886 169.533Z" fill="#8152FF"/>
<path fill-rule="evenodd" clip-rule="evenodd" d="M286.868 162.711C287.839 162.711 289.182 162.978 290.56 163.8C292.863 165.173 294.319 167.684 294.417 171.327L294.422 171.721H291.204C291.204 169.373 290.452 168.027 289.121 167.233C288.627 166.939 288.081 166.743 287.533 166.634C287.263 166.581 287.052 166.558 286.931 166.551L286.868 166.55V162.711Z" fill="black"/>
<path opacity="0.12" fill-rule="evenodd" clip-rule="evenodd" d="M313.346 217.938C303.375 213.731 298.401 203.105 296.431 188.812C304.231 204.297 318.376 214.716 334.577 214.95L335.136 214.954H338.284C329.771 220.367 321.458 221.361 313.346 217.938Z" fill="black"/>
<path fill-rule="evenodd" clip-rule="evenodd" d="M289.306 153.539C279.653 153.539 273.604 126.181 272.877 112.534C271.881 93.8303 300.613 78.049 317.192 78.049H345.07L361.882 118.05H316.863C309.598 139.964 298.959 153.539 289.306 153.539Z" fill="black"/>
<path fill-rule="evenodd" clip-rule="evenodd" d="M352.965 152.34C352.965 150.22 351.524 148.501 349.747 148.501C347.969 148.501 346.529 150.22 346.529 152.34C346.529 154.46 347.969 156.178 349.747 156.178C351.524 156.178 352.965 154.46 352.965 152.34Z" fill="black"/>
<path d="M326.536 177.4C326.536 182.101 330.55 186.449 334.859 186.617L335.118 186.622V190.461C329.114 190.461 323.505 184.619 323.322 177.744L323.318 177.4H326.536Z" fill="black"/>
<path d="M315.303 139.735C319.257 138.272 323.646 137.949 328.167 139.464L328.67 139.64L327.729 143.311C323.712 141.846 319.784 142.096 316.257 143.401C315.626 143.635 315.065 143.884 314.585 144.13L314.34 144.258L314.051 144.424L312.54 141.035C313.083 140.691 314.024 140.208 315.303 139.735Z" fill="black"/>
<path d="M341.966 130.01C346.575 128.64 350.997 129.135 354.959 130.791C356.157 131.291 357.086 131.799 357.705 132.202L358.012 132.411L356.354 135.702L356.179 135.585C356.074 135.518 355.932 135.431 355.756 135.329C355.22 135.019 354.597 134.706 353.895 134.413C350.627 133.048 347.002 132.6 343.237 133.596L342.745 133.735L341.966 130.01Z" fill="black"/>
<path d="M315 155.465C317.671 147.502 329.249 147.404 330.888 155.498L330.944 155.802L327.789 156.555C327.064 152.235 319.836 152.16 318.077 156.646L317.988 156.891L315 155.465Z" fill="black"/>
<path d="M338.496 148.929L341.66 148.23L346.259 177.849H335.668V174.01L342.39 174.01L338.496 148.929Z" fill="black"/>
<path fill-rule="evenodd" clip-rule="evenodd" d="M348.15 153.24C355.304 153.24 359.301 161.112 362.225 164.64C362.458 164.887 362.687 165.141 362.912 165.4C363.036 165.525 363.159 165.639 363.28 165.74L363.268 165.819C367.472 170.867 370.052 177.693 370.052 185.206C370.052 200.752 359.007 213.355 345.381 213.355C331.756 213.355 320.71 200.752 320.71 185.206C320.71 174.821 325.64 165.749 332.975 160.87L332.968 160.822C338.803 157.564 340.098 153.24 348.15 153.24Z" fill="#D8D8D8"/>
<path opacity="0.12" fill-rule="evenodd" clip-rule="evenodd" d="M323.928 178.788C323.928 194.334 334.974 206.936 348.599 206.936C356.599 206.936 363.709 202.593 368.217 195.86C364.531 206.112 355.695 213.334 345.381 213.334C331.756 213.334 320.71 200.731 320.71 185.185C320.71 178.766 322.593 172.849 325.763 168.114C324.581 171.406 323.928 175.01 323.928 178.788Z" fill="black"/>
<path d="M288.942 152.259L326.392 170.465" stroke="#22252B" stroke-width="2"/>
<path d="M325.061 188.307H288.942" stroke="#22252B" stroke-width="2"/>
<path d="M92.6457 788.972H0V899.482H92.6457V788.972Z" fill="#902EE9"/>
<path d="M185.291 899.483H92.6457V1009.99H185.291V899.483Z" fill="#FF9F00"/>
</svg>
