<?xml version="1.0" encoding="UTF-8" standalone="no"?>
<!DOCTYPE svg PUBLIC "-//W3C//DTD SVG 1.1//EN" "http://www.w3.org/Graphics/SVG/1.1/DTD/svg11.dtd">

<!-- Created with Vectornator (http://vectornator.io/) -->
<svg height="100%" stroke-miterlimit="10" style="fill-rule:nonzero;clip-rule:evenodd;stroke-linecap:round;stroke-linejoin:round;" version="1.1" viewBox="0 0 766 1054" width="100%" xml:space="preserve" xmlns="http://www.w3.org/2000/svg" xmlns:vectornator="http://vectornator.io" xmlns:xlink="http://www.w3.org/1999/xlink">
<metadata>
<vectornator:setting key="IsTimeLapseWatermarkDisabled" value="false"/>
<vectornator:setting key="UndoHistoryDisabled" value="true"/>
<vectornator:setting key="VNDimensionsVisible" value="true"/>
<vectornator:setting key="VNSnapToGuides" value="true"/>
<vectornator:setting key="WDCMYKEnabledKey" value="false"/>
<vectornator:setting key="WDDisplayWhiteBackground" value="false"/>
<vectornator:setting key="WDDynamicGuides" value="false"/>
<vectornator:setting key="WDGuidesVisible" value="true"/>
<vectornator:setting key="WDIsolateActiveLayer" value="false"/>
<vectornator:setting key="WDOutlineMode" value="false"/>
<vectornator:setting key="WDRulersVisible" value="true"/>
<vectornator:setting key="WDSnapToEdges" value="false"/>
<vectornator:setting key="WDSnapToGrid" value="false"/>
<vectornator:setting key="WDSnapToPoints" value="false"/>
<vectornator:setting key="WDUnits" value="Points"/>
</metadata>
<defs>
<path d="M0.47113 0.150024L0.47113 1053.15L512.389 1053.15L512.389 902.868L604.173 906.284C611.759 906.549 618.123 900.609 618.388 893.015L643.149 183.273C643.414 175.679 637.479 169.309 629.893 169.043L617.616 0.150024L0.47113 0.150024Z" fill-rule="evenodd" id="Fill"/>
</defs>
<g id="Untitled" vectornator:layerName="Untitled">
<path d="M231.741 278.824C208.162 278.824 187.159 289.852 173.608 307.031L198.748 332.172C205.63 321.2 217.834 313.906 231.741 313.906C253.235 313.906 270.659 331.33 270.659 352.824C270.659 366.731 263.365 378.935 252.393 385.817L277.534 410.957C294.713 397.406 305.741 376.403 305.741 352.824C305.741 311.955 272.61 278.824 231.741 278.824Z" fill="#be6ffb" fill-rule="evenodd" opacity="0.403583" stroke="none"/>
<path d="M637.415 749.15C566.722 749.15 509.415 806.458 509.415 877.15C509.415 947.842 566.722 1005.15 637.415 1005.15C708.107 1005.15 765.415 947.842 765.415 877.15C765.415 806.458 708.107 749.15 637.415 749.15ZM637.415 809.832C674.594 809.832 704.734 839.971 704.734 877.15C704.734 914.329 674.594 944.469 637.415 944.469C600.236 944.469 570.096 914.329 570.096 877.15C570.096 839.971 600.236 809.832 637.415 809.832Z" fill="#ffb748" fill-rule="evenodd" opacity="1" stroke="none"/>
<path d="M199.649 595.316C184.719 590.432 173.141 582.891 162.807 573.23C161.01 571.551 160.8 570.117 161.515 567.95C165.782 555.027 172.176 543.336 181.415 533.295C190.873 523.013 202.164 515.598 215.867 512.356C229.566 509.111 242.348 511.3 253.745 519.84C271.456 533.111 276.334 556.84 265.188 575.506C259.352 585.277 250.614 591.496 239.99 595.102C226.072 599.827 212.126 599.285 199.649 595.316ZM107.002 485.416C108.948 489.656 110.809 493.937 112.852 498.131C119.478 511.716 125.937 525.389 132.908 538.797C139.018 550.551 146.709 561.296 155.918 570.874C157.147 572.153 157.029 573.294 156.71 574.714L156.666 574.91C153.027 590.616 152.883 606.31 156.894 621.993C161.893 641.53 172.523 657.479 187.734 670.518C201.112 681.985 216.341 690.091 233.25 694.899C265.313 704.017 297.503 704.515 329.653 695.428C347.56 690.368 364.406 682.681 380.71 673.767C396.261 665.261 410.737 655.158 424.736 644.341C425.656 643.629 426.524 642.82 427.27 641.934C427.494 641.67 427.353 640.918 427.135 640.527C427 640.287 426.312 640.119 426.023 640.25C425.259 640.592 424.542 641.066 423.87 641.572C409.749 652.22 395.302 662.371 379.759 670.884C362.144 680.535 343.892 688.633 324.429 693.799C308.456 698.039 292.17 699.27 275.703 698.661C264.829 698.26 254.065 696.958 243.471 694.493C217.57 688.467 195.019 676.508 177.776 655.9C162.162 637.239 155.64 615.434 157.236 591.228C157.55 586.467 158.514 581.752 159.207 577.018C159.282 576.521 159.564 576.053 159.901 575.178L161.715 576.71C161.937 576.899 162.152 577.085 162.364 577.272L162.68 577.554C173.67 587.48 186.082 594.93 200.456 598.784C217.44 603.338 234.085 602.6 249.75 594.087C265.072 585.76 273.642 572.65 273.953 555.125C274.267 537.381 266.143 523.745 250.903 514.771C237.685 506.989 223.581 506.672 209.3 511.67C193.242 517.289 180.938 527.753 171.36 541.611C166.562 548.554 162.723 555.986 159.97 563.961L159.645 564.921C159.316 565.913 158.911 566.879 158.337 568.392C157.037 567.113 155.944 566.187 155.022 565.111C148.421 557.414 142.651 549.131 137.544 540.371C130.075 527.564 123.973 514.079 117.676 500.688L110.588 485.673C110.107 484.653 109.688 483.603 108.956 481.912C112.971 482.941 116.194 484.148 119.417 485.394C121.815 486.32 124.249 487.157 126.695 487.951L128.766 488.617C129.731 488.911 130.826 489.106 131.256 487.93C131.787 486.48 130.369 486.109 129.297 485.728L129.179 485.686C122.881 483.382 116.58 481.085 110.274 478.803C109.475 478.514 108.65 478.275 107.817 478.107L107.434 478.034C105.661 477.731 105.049 478.112 104.547 480.044C103.504 484.055 102.593 488.104 101.692 492.151C100.954 495.466 100.251 498.788 99.5401 502.108L98.4621 507.088C98.2151 508.215 98.0851 509.332 99.4621 509.674C100.851 510.018 101.245 508.931 101.475 507.91L101.502 507.788C102.51 503.109 103.477 498.422 104.444 493.734C105.015 490.963 105.558 488.188 106.115 485.414L107.002 485.416Z" fill="#55b0eb" fill-rule="evenodd" opacity="1" stroke="none"/>
<path d="M646.12 159.464L320.658 148.082C307.248 147.611 295.976 157.992 295.292 171.342L295.275 171.748C295.274 171.749 295.274 171.75 295.277 171.75L270.101 893.701C269.631 907.245 280.228 918.608 293.772 919.084L619.234 930.465C632.644 930.937 643.916 920.556 644.6 907.205L644.617 906.8C644.617 906.799 644.617 906.798 644.615 906.797L669.791 184.847C670.261 171.303 659.664 159.94 646.12 159.464Z" fill="#3f8fd4" fill-rule="evenodd" opacity="1" stroke="none"/>
<path d="M636.871 152.738L311.409 141.356C297.999 140.885 286.727 151.266 286.043 164.616L286.026 165.022C286.026 165.023 286.025 165.023 286.028 165.024L260.852 886.974C260.382 900.519 270.979 911.882 284.523 912.358L609.985 923.739C623.395 924.21 634.667 913.83 635.351 900.479L635.368 900.074C635.368 900.073 635.368 900.072 635.366 900.071L660.541 178.121C661.011 164.577 650.415 153.214 636.871 152.738Z" fill="#0a1b45" fill-rule="evenodd" opacity="1" stroke="none"/>
<path d="M564.236 185.646C564.088 189.873 560.605 193.195 556.408 193.168L556.182 193.164L388.476 187.302C384.253 187.154 380.934 183.668 380.961 179.466L380.966 179.24L381.623 160.404L317.39 158.159C309.806 157.893 303.443 163.833 303.178 171.424L278.423 880.983C278.159 888.575 284.092 894.944 291.676 895.209L604.44 906.141C612.024 906.407 618.387 900.467 618.652 892.876L643.406 183.317C643.671 175.725 637.738 169.356 630.153 169.091L564.893 166.81L564.236 185.646Z" fill="#281883" fill-rule="evenodd" opacity="1" stroke="none"/>
<g opacity="1" vectornator:mask="#Fill">
<clipPath id="ClipPath">
<use overflow="#visible" xlink:href="#Fill"/>
</clipPath>
<g clip-path="url(#ClipPath)">
<path d="M144.153 953.405L208.144 986.789C211.587 988.584 215.783 987.22 217.516 983.741C257.891 903.089 308.964 802.634 350.013 721.676C355.154 711.544 351.691 699.245 342.269 694.206L300.327 671.769C290.907 666.73 279.096 670.859 273.951 680.997C251.901 724.458 207.538 811.939 185.541 855.451C170.702 884.82 155.894 914.12 141.127 943.713C139.355 947.271 140.71 951.61 144.153 953.405Z" fill="#543629" fill-rule="evenodd" opacity="1" stroke="none"/>
<path d="M431.137 351.18L520.622 399.124C523.502 400.666 524.19 405.145 522.161 409.128C473.494 505.335 297.162 854.195 252.032 944.32L149.003 889.694C192.619 803.756 373.545 450.707 420.906 358.213C422.457 353.896 427.277 348.824 431.137 351.18Z" fill="#051026" fill-rule="evenodd" opacity="1" stroke="none"/>
<path d="M144.676 935.188L221.275 975.683L235.552 947.162L159.053 906.468L144.676 935.188Z" fill="#ffffff" fill-rule="evenodd" opacity="1" stroke="none"/>
<path d="M152.647 919.446C157.927 922.253 176.964 932.373 194.713 941.811C185.656 957.02 218.658 974.507 225.397 958.124C227.72 959.36 229.061 960.074 229.061 960.074L211.617 995.15L100.32 936.973L106.086 925.333C110.71 915.985 142.147 929.788 152.647 919.446Z" fill="#0a1b45" fill-rule="evenodd" opacity="1" stroke="none"/>
<path d="M630.43 350.582C630.43 410.311 580.056 458.731 517.917 458.731C455.778 458.731 405.404 410.311 405.404 350.582" fill="#0a1b45" fill-rule="evenodd" opacity="1" stroke="none"/>
<path d="M844.379 953.147L870.08 881.692C871.453 877.844 870.03 873.637 866.9 872.305C857.864 868.747 849.355 864.173 840.644 859.998C812.908 845.324 786.826 826.762 763.575 805.014C730.326 773.201 703.298 735.675 682.169 692.926C679.846 688.378 675.89 685.166 671.325 683.59C660.189 677.217 624.302 703.561 614.068 706.577C609.277 709.024 605.95 713.475 604.498 718.793C602.677 757.228 678.183 846.873 706.606 873.399C723.554 889.239 742.863 904.716 761.86 917.643C774.994 926.281 788.948 934.636 802.722 942.015C811.781 944.588 839.723 966.181 844.379 953.147Z" fill="#694d3d" fill-rule="evenodd" opacity="1" stroke="none"/>
<path d="M522.688 350.582L623.653 353.285C629.166 353.467 629.87 361.258 629.379 366.276C627.423 544.374 675.992 750.478 833.82 840.143L778.271 948.646C631.507 865.557 549.568 695.362 526.71 525.174C523.489 503.379 506.397 351.678 522.688 350.582Z" fill="#0a1b45" fill-rule="evenodd" opacity="1" stroke="none"/>
<path d="M572.41 352.745L574.571 352.801C568.699 555.892 626.792 790.455 806.773 892.552L805.739 894.571C625.016 792.053 566.508 556.719 572.41 352.745Z" fill="#ffffff" fill-rule="evenodd" opacity="1" stroke="none"/>
<path d="M72.6841 76.7521C66.6561 77.8574 63.7801 87.6935 69.7731 90.5022C74.2531 92.0469 81.2451 93.8009 88.0991 95.8397C83.8601 97.7685 80.6811 100.436 78.3851 102.953C73.2131 108.589 79.8521 118.327 88.0121 115.984C96.7031 111.983 106.514 107.827 116.849 109.258C116.882 109.286 116.914 109.313 116.947 109.34C121.792 113.418 124.799 118.333 124.284 124.307C123.393 134.909 116.397 137.185 109.224 137.205L108.941 137.205C106.769 137.193 104.589 136.982 102.563 136.74C102.142 136.691 101.73 136.669 101.329 136.67L101.029 136.676C91.6071 137.003 87.8631 150.813 96.1071 154.034C112.377 160.347 133.728 160.801 149.144 169.242L149.166 169.246C179.8 187.854 210.938 205.253 243.545 221.082C282.108 239.687 323.396 256.108 365.579 266.528C377.592 269.673 391.392 273.177 403.88 273.338L404.792 273.344C422.365 273.337 437.16 266.46 440.402 242.233C441.34 223.684 429.065 206.153 410.953 203.025C391.94 199.919 372.851 195.082 354.428 189.206C299.532 171.555 247.088 144.404 197.035 114.731C192.647 111.399 187.986 108.547 183.21 106.37C156.721 89.918 130.011 77.0863 103.531 74.2614C85.8781 72.4445 75.7051 76.1702 72.6841 76.7521Z" fill="#694d3d" fill-rule="evenodd" opacity="1" stroke="none"/>
<path d="M72.6841 76.7521C66.6561 77.8574 63.7801 87.6935 69.7731 90.5022C74.2531 92.0469 81.2451 93.8009 88.0991 95.8397C83.8601 97.7685 80.6811 100.436 78.3851 102.953C73.2131 108.589 79.8521 118.327 88.0121 115.984C96.7031 111.983 106.514 107.827 116.849 109.258C116.882 109.286 116.914 109.313 116.947 109.34C121.792 113.418 124.799 118.333 124.284 124.307C123.393 134.909 116.397 137.185 109.224 137.205L108.941 137.205C106.769 137.193 104.589 136.982 102.563 136.74C102.142 136.691 101.73 136.669 101.329 136.67L101.029 136.676C91.6071 137.003 87.8631 150.813 96.1071 154.034C112.377 160.347 133.728 160.801 149.144 169.242L149.166 169.246C179.8 187.854 210.938 205.253 243.545 221.082C282.108 239.687 323.396 256.108 365.579 266.528C377.592 269.673 391.392 273.177 403.88 273.338L404.792 273.344C422.365 273.337 437.16 266.46 440.402 242.233C441.34 223.684 429.065 206.153 410.953 203.025C391.94 199.919 372.851 195.082 354.428 189.206C299.532 171.555 247.088 144.404 197.035 114.731C192.647 111.399 187.986 108.547 183.21 106.37C156.721 89.918 130.011 77.0863 103.531 74.2614C85.8781 72.4445 75.7051 76.1702 72.6841 76.7521Z" fill="#543629" fill-rule="evenodd" opacity="1" stroke="none"/>
<path d="M360.514 179.774C374.914 184.324 385.484 188.328 407.81 191.161C430.135 193.994 457.842 193.766 457.842 193.766C479.687 218.571 461.209 277.952 426.891 286.258C397.951 292.007 360.572 277.977 332.152 270.623L360.514 179.774Z" fill="#051026" fill-rule="evenodd" opacity="1" stroke="none"/>
<path d="M420.55 302.996L615.284 302.996L615.284 354.908L420.55 354.908L420.55 302.996Z" fill="#694d3d" fill-rule="evenodd" opacity="1" stroke="none"/>
<path d="M591.483 193.766L444.351 193.766C420.451 193.766 401.076 213.134 401.076 237.025L401.076 320.3L634.758 320.3L634.758 237.025C634.758 213.134 615.383 193.766 591.483 193.766Z" fill="#0a1b45" fill-rule="evenodd" opacity="1" stroke="none"/>
<path d="M480.947 472.07C477.484 522.216 540.152 510.689 572.133 501.831C613.808 490.423 652.909 463.526 675.108 425.199C697.875 387.498 702.217 339.263 691.314 297.589C680.781 262.69 656.929 186.949 610.028 219.31C596.119 231.147 591.564 252.003 600.92 267.156C624.221 303.38 636.186 350.732 613.565 389.004C600.577 411.233 577.98 426.127 552.786 433.123C522.401 442.566 490.292 429.372 480.947 472.07Z" fill="#694d3d" fill-rule="evenodd" opacity="1" stroke="none"/>
<path d="M470.365 496.736C469.465 502.479 474.075 507.217 479.831 507.928C500.242 509.076 536.291 514.377 554.272 503.109C560.39 495.897 552.075 486.272 543.759 488.051C523.186 491.172 502.433 491.053 482.195 488.604C476.76 487.893 471.314 491.269 470.365 496.736Z" fill="#694d3d" fill-rule="evenodd" opacity="1" stroke="none"/>
<path d="M470.934 479.286C469.997 484.55 473.843 489.734 479.626 490.443C489.594 490.671 509.317 497.975 510.827 482.856C509.838 468.598 491.804 473.769 482.161 471.141C476.882 470.501 471.881 473.965 470.934 479.286Z" fill="#694d3d" fill-rule="evenodd" opacity="1" stroke="none"/>
<path d="M471.793 461.885C469.948 472.368 481.559 473.856 489.295 474.144C497.059 475.305 508.493 476.391 508.814 465.557C508.914 455.316 498.861 455.154 491.229 454.775C483.688 453.643 473.659 451.79 471.793 461.885Z" fill="#694d3d" fill-rule="evenodd" opacity="1" stroke="none"/>
<path d="M484.834 436.584C483.577 452.457 505.059 447.062 514.994 448.233C519.74 448.098 523.248 443.553 522.838 438.157C522.445 432.832 518.787 428.646 514.641 428.767C504.865 430.56 487.289 421.986 484.834 436.584Z" fill="#694d3d" fill-rule="evenodd" opacity="1" stroke="none"/>
<path d="M451.018 439.327C443.742 457.447 500.287 457.039 511.177 457.982C516.194 458.02 520.001 453.42 519.716 448.065C519.427 442.684 515.657 438.555 511.221 438.512C495.009 438.458 478.392 436.206 461.911 432.139C457.395 430.976 452.519 434.153 451.018 439.327Z" fill="#694d3d" fill-rule="evenodd" opacity="1" stroke="none"/>
<path d="M701.833 290.664C689.737 255.484 673.172 212.982 634.758 200.007C616.28 193.766 593.398 193.766 593.398 193.766C561.248 233.831 593.398 284.499 609.941 315.546L701.833 290.664Z" fill="#0a1b45" fill-rule="evenodd" opacity="1" stroke="none"/>
<path d="M567.683 193.766C567.683 213.476 545.402 229.455 517.917 229.455C490.432 229.455 468.152 213.476 468.152 193.766" fill="#694d3d" fill-rule="evenodd" opacity="1" stroke="none"/>
<path d="M550.373 102.921C535.435 102.921 523.326 90.8157 523.326 75.8834C523.326 60.9512 535.435 48.8462 550.373 48.8462C565.31 48.8462 577.419 60.9512 577.419 75.8834C577.419 90.8157 565.31 102.921 550.373 102.921Z" fill="#000000" fill-rule="evenodd" opacity="1" stroke="none"/>
<path d="M543.882 145.099L495.198 145.099L495.198 200.939C495.198 215.978 506.097 228.168 519.54 228.168C532.983 228.168 543.882 215.978 543.882 200.939L543.882 145.099Z" fill="#694d3d" fill-rule="evenodd" opacity="1" stroke="none"/>
<path d="M492.977 179.707L498.373 179.707C523.506 179.707 543.881 159.339 543.881 134.214L543.881 112.874C543.881 93.6394 528.284 78.0464 509.042 78.0464L502.991 78.0464C483.749 78.0464 468.151 93.6394 468.151 112.874L468.151 154.888C468.151 168.595 479.266 179.707 492.977 179.707Z" fill="#694d3d" fill-rule="evenodd" opacity="1" stroke="none"/>
<path d="M530.899 141.314C530.899 148.779 536.953 154.832 544.423 154.832C551.892 154.832 557.946 148.779 557.946 141.314C557.946 133.848 551.892 127.795 544.423 127.795C536.953 127.795 530.899 133.848 530.899 141.314Z" fill="#694d3d" fill-rule="evenodd" opacity="1" stroke="none"/>
<path d="M547.055 135.548C546.076 135.548 544.721 135.773 543.331 136.468C541.009 137.629 539.54 139.751 539.442 142.83L539.436 143.164L542.682 143.164C542.682 141.179 543.441 140.041 544.783 139.37C545.281 139.121 545.831 138.956 546.385 138.864C546.657 138.818 546.869 138.799 546.992 138.794L547.055 138.792L547.055 135.548Z" fill="#000000" fill-rule="evenodd" opacity="1" stroke="none"/>
<path d="M520.35 182.228C530.406 178.672 535.423 169.691 537.41 157.61C529.544 170.698 515.277 179.505 498.937 179.703L498.373 179.707L495.198 179.707C503.784 184.281 512.169 185.122 520.35 182.228Z" fill="#000000" fill-rule="evenodd" opacity="0.12" stroke="none"/>
<path d="M502.978 78.0464C484.824 78.0464 469.899 91.801 468.152 109.409L534.174 109.408L539.018 127.715L541.055 127.766C542.688 127.799 544.739 127.822 544.946 127.731L544.963 127.715L544.949 126.644C544.862 122.273 544.424 112.818 544.424 112.818C544.424 93.8064 529.144 78.3582 510.18 78.0511L509.604 78.0464L502.978 78.0464Z" fill="#000000" fill-rule="evenodd" opacity="1" stroke="none"/>
<path d="M508.656 126.713C508.656 124.921 510.108 123.469 511.901 123.469C513.694 123.469 515.147 124.921 515.147 126.713C515.147 128.505 513.694 129.958 511.901 129.958C510.108 129.958 508.656 128.505 508.656 126.713Z" fill="#000000" fill-rule="evenodd" opacity="1" stroke="none"/>
<path d="M480.527 126.713C480.527 124.921 481.98 123.469 483.773 123.469C485.565 123.469 487.018 124.921 487.018 126.713C487.018 128.505 485.565 129.958 483.773 129.958C481.98 129.958 480.527 128.505 480.527 126.713Z" fill="#000000" fill-rule="evenodd" opacity="1" stroke="none"/>
<path d="M494.984 123.898L491.793 123.307L487.154 148.343L497.837 148.343L497.837 145.098L491.057 145.098L494.984 123.898Z" fill="#000000" fill-rule="evenodd" opacity="1" stroke="none"/>
<path d="M507.183 147.896C507.183 151.869 503.135 155.544 498.788 155.687L498.527 155.691L498.527 158.935C504.583 158.935 510.24 153.997 510.424 148.187L510.428 147.896L507.183 147.896Z" fill="#000000" fill-rule="evenodd" opacity="1" stroke="none"/>
<path d="M505.951 112.654L505.951 115.899C509.441 115.899 512.625 116.835 515.44 118.398C516.285 118.867 517.042 119.364 517.705 119.863L518.029 120.112C518.405 120.409 518.669 120.64 518.813 120.778L518.868 120.831L521.163 118.537C520.387 117.761 518.986 116.656 517.017 115.562C513.889 113.825 510.355 112.75 506.481 112.66L505.951 112.654Z" fill="#000000" fill-rule="evenodd" opacity="1" stroke="none"/>
<path d="M490.805 112.654C486.722 112.654 483.009 113.746 479.739 115.562C477.893 116.587 476.546 117.623 475.746 118.388L475.593 118.537L477.888 120.831L478.095 120.638C478.217 120.53 478.376 120.394 478.572 120.235L478.727 120.112C479.464 119.531 480.33 118.945 481.315 118.398C483.99 116.913 486.997 115.994 490.284 115.906L490.805 115.899L490.805 112.654Z" fill="#000000" fill-rule="evenodd" opacity="1" stroke="none"/>
</g>
</g>
</g>
</svg>
