<svg viewBox="68.75 39.637500000000045 1031.25 1255.1875000000002" xmlns="http://www.w3.org/2000/svg" overflow="visible" xmlns:xlink="http://www.w3.org/1999/xlink" width="1031.25px" height="1255.1875000000002px"><g id="Master/Comps/Chat" stroke="none" stroke-width="1" fill="none" fill-rule="evenodd"><g id="Blob" opacity=".288" transform="translate(2.000000, 147.891534) scale(1.5335892514395393 1.532934131736527)"><g id="Blob/5" stroke="none" stroke-width="1" fill="none" fill-rule="evenodd"><path d="M424.246417,106.725225 C457.994937,159.279427 463.519606,224.220548 447.78631,280.623113 C432.053015,336.905417 394.821552,384.649167 335.371312,430.588996 C275.800972,476.528826 193.771652,520.544474 159.422625,493.365412 C125.073597,466.186351 138.524965,367.572057 119.548929,278.217886 C100.572893,188.863715 49.2895551,108.649406 68.3856925,59.3422591 C87.48183,10.1553736 177.077544,-8.24461047 252.741485,2.81943223 C328.525527,13.7632136 390.497898,54.0507604 424.246417,106.725225 Z" id="blobs-burgers" fill="#FFB749"/></g></g><g id="Small Elements" transform="translate(88.000000, 691.000000) scale(1 1)"><g id="Small Elements/Circle" stroke="none" stroke-width="1" fill="none" fill-rule="evenodd"><circle id="Oval" fill="#FFD799" cx="135" cy="135" r="116"/></g></g><g id="Small Elements" transform="translate(514.000000, 128.000000) scale(0.5481481481481482 0.5481481481481482)"><g id="Small Elements/Big Graph" stroke="none" stroke-width="1" fill="none" fill-rule="evenodd"><g id="Pie-Chart" transform="translate(29.000000, 29.000000)"><path d="M212,107.648233 C212,48.4524698 164.2894,0 106,0 L106,107.648233 L178.4404,186 C199.0468,166.843997 212,138.742426 212,107.648233 Z" id="Value" fill="#F2F2F2"/><path d="M108.926458,106 L2,106 C2,133.6713 13.275395,159.5989 31.1000356,178.4404 C50.7050018,199.0468 78.6235001,212 108.926458,212 C136.83961,212 162.389688,200.8223 182,183.1521 L108.926458,106 Z" id="Value" fill="#AFB9C5"/><path d="M0,106 C0,47.7106 47.7106,0 106,0 L106,106 L0,106 Z M159,0 L116.6,95.4 L212,53 C202.566,28.2702 181.3819,9.434 159,0 Z" id="Value" fill="#902EE9"/></g></g></g><g id="Character" transform="translate(300.500000, 202.378906) rotate(-9.000000) translate(-300.500000, -202.378906) translate(25.000000, 20.378906)"><path d="M176.98248,211.288638 C178.702347,231.829347 181.758469,246.927654 186.150847,256.583559 C204.748401,297.467153 229.832827,313.54465 235.244766,346.693427 C242.573995,391.585843 265.581758,348.337452 304.268054,216.948252 L280.862948,195.187504 L176.98248,211.288638 Z" id="Path-15" fill="#0A1B45"/><g id="Body" transform="translate(0.050544, 19.705400) scale(0.6373117033603708 0.6382575757575758)"><g id="Body/Bomber Jacket Open Arms" stroke="none" stroke-width="1" fill="none" fill-rule="evenodd"><g id="Group" transform="translate(608.066024, 229.666178) rotate(-11.000000) translate(-608.066024, -229.666178) translate(420.066024, 115.166178)"><path d="M335.476139,131.1262 C350.494139,129.9812 358.966139,136.5402 363.328139,142.1492 C365.509139,144.9402 364.830139,148.4802 362.633139,150.9912 C360.440139,153.4992 356.740139,154.9402 353.034139,153.5142 C349.322139,152.0702 345.758139,149.1922 340.798139,147.0872 C335.843139,144.9902 329.559139,143.7582 320.362139,145.3782 C315.772139,146.2092 313.486139,145.7002 312.902139,144.5872 C312.310139,143.4552 313.414139,141.7122 315.510139,139.8012 C319.736139,136.0212 327.953139,131.6752 335.476139,131.1262" id="SKIN-DARKER" fill="#8C6345"/><path d="M309.483939,150.4426 C305.727939,142.1326 299.014939,136.0976 291.454939,132.8686 C283.852939,129.5806 275.413939,129.1316 267.532939,131.9916 L264.612939,133.0796 L261.684939,134.0926 C259.733939,134.7616 257.784939,135.4656 255.832939,136.1096 C251.923939,137.3436 248.019939,138.6576 244.114939,139.7356 C234.567939,142.4936 225.016939,144.8416 215.617939,146.4276 C206.224939,148.0106 196.973939,148.9346 188.127939,149.0036 C179.284939,149.0756 170.859939,148.2736 163.245939,146.4806 C161.400939,145.9426 159.541939,145.4486 157.685939,144.9596 L155.022939,144.0486 L152.386939,143.0256 C148.889939,141.5886 145.456939,139.8596 142.087939,137.8406 C128.604939,129.8056 116.225939,116.9356 105.727939,101.5326 C95.2009387,86.1166 86.4589387,68.3216 79.3089387,49.6706 C76.0109387,41.0736 69.9039387,34.3116 62.3619387,30.0626 C54.8329387,25.8476 45.8419387,24.1386 37.0449387,26.5326 C28.2569387,28.9216 21.3759387,35.1756 17.7279387,43.6956 C14.0729387,52.1776 13.6959387,62.9036 17.6749387,73.2776 C26.2999387,95.6956 36.9409387,117.7746 51.2329387,138.7646 C58.3949387,149.2366 66.5059387,159.4166 75.9079387,168.9116 C85.2989387,178.3896 96.0309387,187.1906 108.193939,194.4726 C114.266939,198.1116 120.685939,201.3586 127.372939,204.1006 L132.432939,206.0626 L137.581939,207.8226 C141.024939,208.8196 144.479939,209.7576 147.940939,210.6806 C161.768939,213.9446 175.424939,215.0936 188.576939,215.0026 C201.743939,214.8976 214.456939,213.5566 226.766939,211.4796 C239.078939,209.3906 250.939939,206.4636 262.535939,203.1126 C267.302939,201.7836 271.936939,200.2416 276.607939,198.7556 C278.928939,197.9896 281.213939,197.1696 283.518939,196.3776 L286.967939,195.1776 L290.375939,193.9126 C299.626939,190.5476 306.397939,183.6866 309.806939,175.7766 C313.204939,167.7966 313.233939,158.7396 309.483939,150.4426" id="Fill-3" fill="#8C6345"/><path d="M287.348239,195.0383 C281.686239,197.0223 276.744239,185.1023 273.013239,170.8563 C271.138239,163.7353 269.531239,156.0413 268.278239,149.2063 C267.029239,142.3713 266.137239,136.3993 265.802239,132.6373 L271.229239,130.6143 C279.296239,127.5083 286.764239,124.9423 293.666239,122.7203 C300.581239,120.5523 306.941239,118.7963 312.820239,117.4793 C324.562239,114.8073 334.351239,113.7913 342.403239,113.7543 C358.484239,113.6453 367.654239,117.5243 370.425239,118.1843 C373.160239,118.8273 375.230239,121.3503 375.708239,124.1633 C376.230239,126.9423 375.282239,129.8933 372.372239,131.0713 C369.607239,132.2123 356.199239,134.0773 343.556239,137.6383 C330.900239,141.2833 318.891239,146.7173 318.218239,157.4323 C317.823239,163.9133 320.298239,167.4303 324.012239,169.3073 C327.730239,171.2083 332.610239,171.3923 336.846239,171.3953 C341.885239,171.3753 345.023239,174.9313 345.800239,178.8353 C346.583239,182.7353 344.945239,186.9773 340.532239,188.0943 C336.845239,189.0653 332.437239,189.6683 327.789239,190.1903 C323.091239,190.6433 318.168239,191.0303 313.245239,191.3293 C303.466239,192.0403 293.909239,192.6193 287.348239,195.0383" id="SKIN-DARKER" fill="#8C6345"/><path d="M269.716839,124.7722 C261.106839,128.0832 252.465839,130.9872 243.858839,133.5612 C243.208839,133.2612 242.538839,132.9832 241.609839,132.8002 C240.690839,132.6122 239.659839,132.4762 238.524839,132.3872 C236.253839,132.2102 233.580839,132.0742 230.542839,132.1782 C229.039839,132.2192 227.439839,132.2632 225.747839,132.3092 C224.069839,132.3642 222.309839,132.4602 220.475839,132.5882 C216.860839,132.6452 212.889839,133.0222 208.823839,133.0802 C200.642839,133.3932 191.687839,133.5122 183.133839,132.7282 C178.889839,132.2982 174.673839,131.7742 170.825839,130.8922 C169.868839,130.6662 168.902839,130.4582 167.927839,130.2662 C167.417839,130.1962 167.014839,130.0042 166.561839,129.8732 L165.225839,129.4602 C164.345839,129.1782 163.393839,128.9882 162.543839,128.6842 C161.704839,128.3572 160.840839,128.1142 159.999839,127.7382 C156.604839,126.3912 153.155839,124.7452 149.648839,122.5822 C146.139839,120.4492 142.551839,117.9092 138.971839,114.8802 C135.383839,111.8842 131.793839,108.4602 128.295839,104.6772 C124.788839,100.9172 121.362839,96.8292 118.087839,92.5242 C111.507839,83.9482 105.521839,74.5812 100.210839,65.4812 C94.8988387,56.3652 89.5932594,46.4320397 84.9158387,38.6076823 C80.2384181,30.7833248 73.8929146,19.604165 60.1410854,10.1052942 C46.3892562,0.606423435 36.2389387,4.26325641e-14 36.2389387,4.26325641e-14 C24.2979387,2.25 9.76983872,17.6282 4.48183872,29.0232 C-0.824161279,40.3852 -1.72016128,55.0342 3.42383872,69.3532 C7.04683872,83.7192 12.0808387,98.6722 18.8128387,113.7752 C25.5778387,128.8632 34.0658387,144.1282 44.8898387,158.7722 C55.7058387,173.3782 68.9568387,187.4292 84.9158387,199.0872 C92.8928387,204.8892 101.449839,210.1172 110.502839,214.3642 C112.776839,215.4092 115.019839,216.4682 117.343839,217.3882 C118.497839,217.8552 119.647839,218.3212 120.796839,218.7862 C121.964839,219.2112 123.131839,219.6362 124.294839,220.0582 C128.946839,221.7432 133.694839,223.1292 138.297839,224.1882 C140.609839,224.7472 142.910839,225.2842 145.194839,225.7972 C147.448839,226.1862 149.682839,226.5352 151.903839,226.8772 C154.115839,227.1922 156.346839,227.5872 158.493839,227.7862 C160.633839,227.9562 162.757839,228.1262 164.862839,228.2922 C165.914839,228.3662 166.962839,228.4402 168.005839,228.5132 C169.051839,228.5932 170.084839,228.6502 171.084839,228.6442 C173.098839,228.6572 175.094839,228.6712 177.073839,228.6842 C178.060839,228.6842 179.043839,228.6812 180.020839,228.6812 C181.001839,228.6842 181.971839,228.6752 182.905839,228.6062 C184.787839,228.4942 186.650839,228.3832 188.495839,228.2722 C190.331839,228.1452 192.164839,228.0482 193.936839,227.8782 C195.683839,227.6672 197.411839,227.4572 199.118839,227.2502 C200.819839,227.0292 202.499839,226.8112 204.157839,226.5972 C205.816839,226.3802 207.378839,226.0462 208.955839,225.7742 C210.518839,225.4812 212.061839,225.1922 213.583839,224.9082 C215.101839,224.6192 216.601839,224.3402 218.020839,223.9782 C220.886839,223.2952 223.651839,222.6132 226.308839,221.9362 C236.803839,219.0302 245.385839,215.9192 251.891839,212.9792 C255.134839,211.4932 257.954839,210.1862 260.174839,208.8702 C261.290839,208.2232 262.283839,207.6102 263.146839,207.0342 C264.011839,206.4572 264.590839,205.9632 265.142839,205.4772 C275.825839,202.2892 286.285839,198.7502 296.488839,194.8322 L269.716839,124.7722 Z" id="Fill-7" fill="#CC2935"/><path d="M244.142139,133.4807 L265.922139,206.8147 C276.521139,203.6367 286.902139,200.1217 297.025139,196.2347 L269.717139,124.7747 C261.201139,128.0467 252.656139,130.9227 244.142139,133.4807" id="Fill-10" fill="#B52935"/></g><g id="Group-37" transform="translate(94.000000, 107.000000)"><path d="M17.4421,346.2537 C17.7861,350.0787 18.5701,353.3537 19.6541,356.1547 C20.7441,358.9587 22.0951,361.2787 23.7281,363.2477 C26.9301,367.1637 30.6941,369.5097 33.9291,370.9447 C37.1671,372.3747 40.3841,371.0367 42.2211,368.5857 C43.1101,367.3477 43.7981,365.8687 43.9221,364.2797 C44.0571,362.6927 43.6801,361.0097 42.6191,359.4167 C40.4941,356.2287 36.9631,353.3277 34.0571,348.8947 C32.6041,346.6757 31.3091,344.0707 30.4271,340.8427 C30.0071,339.2357 29.6051,337.4427 29.4941,335.5197 C29.3641,333.5887 29.3801,331.4767 29.5721,329.1547 C30.3451,319.8617 27.0321,320.1717 23.5691,324.8467 C21.8641,327.1867 20.0261,330.5737 18.8501,334.3907 C17.7291,338.2267 17.0971,342.4297 17.4421,346.2537" id="SKIN-DARKER" fill="#8C6345"/><path d="M33.736,317.9002 L33.736,317.9002 C29.48,316.2732 25.748,313.8552 22.659,310.8282 C21.114,309.3152 19.73,307.6502 18.522,305.8612 C17.319,304.0742 16.367,302.1932 15.57,300.2032 C13.996,296.2302 13.196,291.8792 13.259,287.4022 C13.292,285.1662 13.539,282.8982 14.011,280.6342 C14.507,278.3822 15.125,276.0872 16.181,273.9302 L22.21,261.0382 C24.252,256.7572 26.147,252.4002 28.398,248.2282 C45.095,214.9722 64.62,183.2602 86.304,153.3192 C107.996,123.3752 131.8,95.1572 157.15,68.6722 C163.07,62.6332 171.079,59.7502 179.128,60.0742 C187.224,60.4342 195.423,64.0592 201.778,70.5652 C208.158,77.0962 211.531,85.2362 212.067,93.1352 C212.636,101.0832 210.311,108.7282 204.818,114.3202 C157.873,163.3852 117.402,218.0122 87.403,277.8002 C85.365,281.5462 83.685,285.4602 81.852,289.3002 L76.436,300.8632 C75.48,302.7962 74.541,304.6752 73.33,306.3662 C72.143,308.0662 70.791,309.6222 69.298,311.0262 C66.312,313.8342 62.766,316.0422 58.884,317.5772 C56.954,318.3472 54.9,318.9352 52.862,319.3692 C50.831,319.8042 48.738,320.0562 46.614,320.1092 C42.366,320.2142 37.992,319.5272 33.736,317.9002" id="Fill-14" fill="#B18058"/><path d="M77.6413,298.2938 C79.8353,293.6108 68.5063,287.4548 54.7263,282.2578 C40.9503,277.0508 24.6383,272.9788 17.0733,272.0208 C16.1383,274.0158 15.1893,276.0058 14.3683,278.0548 C12.4603,282.5978 10.7493,286.9758 9.2183,291.1868 C8.4533,293.2918 7.7343,295.3558 7.0573,297.3768 C6.7263,298.3898 6.3993,299.3908 6.0753,300.3788 C5.8033,301.3848 5.5363,302.3808 5.2703,303.3628 C3.2033,311.2378 1.7703,318.4278 0.8423,324.9568 C0.5843,326.5798 0.4703,328.2008 0.3563,329.7718 C0.2443,331.3418 0.1603,332.8708 0.1023,334.3608 C-0.0147,337.3398 -0.0277,340.1548 0.0453,342.8148 C0.1193,345.4748 0.2793,347.9788 0.5093,350.3328 C0.7473,352.6898 1.0073,354.8828 1.4733,356.9788 C4.9233,373.6558 11.4193,381.1748 12.8223,383.6128 C15.6433,388.4398 25.1673,387.7338 25.7493,381.8498 C25.8893,380.4518 25.4873,376.5258 25.1473,371.2928 C24.9773,368.6768 24.8233,365.7338 24.7573,362.6248 C24.7593,359.5358 24.9573,356.3128 25.2623,353.0748 C25.5803,349.8418 26.0613,346.6128 26.7663,343.5628 C27.1193,342.0378 27.5273,340.5588 27.9983,339.1468 C28.4743,337.7338 28.9873,336.3828 29.6753,335.1558 C32.3293,330.2168 36.0783,326.7248 41.3703,326.0838 C47.7573,325.3128 51.4263,327.5858 53.6593,330.9398 C55.8883,334.3028 56.6733,338.7678 57.2123,342.5848 C57.8243,347.1388 61.9263,349.6498 65.8183,350.0368 C69.6963,350.4118 73.6223,348.7988 74.0873,344.9668 C74.4953,341.7358 74.5603,337.9278 74.5023,333.8268 C74.4533,331.7698 74.4023,329.6458 74.3503,327.4958 C74.3733,325.3608 74.3963,323.2008 74.4193,321.0548 C74.4973,316.7458 74.6633,312.4608 75.1093,308.5348 C75.3313,306.5738 75.6223,304.7028 76.0063,302.9678 C76.4323,301.2498 76.9953,299.6878 77.6413,298.2938" id="SKIN" fill="#B18058"/><path d="M8.5706,276.3594 C9.1026,275.1234 9.5896,273.8654 10.1576,272.6464 L11.8636,268.9914 L15.2806,261.6814 L18.7036,254.3734 C19.8576,251.9454 20.9446,249.4804 22.2186,247.1154 C22.1106,246.5094 22.0546,245.8294 22.0596,245.0524 C21.8656,241.6664 22.7636,236.7144 24.5746,230.5134 C25.0266,228.9634 25.5366,227.3354 26.1016,225.6354 C26.3896,224.7874 26.6856,223.9184 26.9866,223.0314 C27.3306,222.1654 27.6816,221.2794 28.0396,220.3754 C29.4986,216.7684 31.1726,212.8984 33.0356,208.8084 C40.3726,192.3734 51.7966,173.0984 65.1306,153.5904 C72.0396,144.0374 79.1026,134.1444 86.8396,124.9254 C88.7496,122.6014 90.6586,120.2784 92.5626,117.9624 C93.5196,116.8104 94.4756,115.6604 95.4296,114.5124 C96.4186,113.3994 97.4056,112.2884 98.3916,111.1794 C102.3406,106.7554 106.2796,102.4084 110.1756,98.1734 C112.0996,96.0334 114.1106,94.0214 116.0876,92.0234 C118.0716,90.0344 120.0326,88.0684 121.9676,86.1294 C125.8686,82.2924 141.8966,63.7285072 168.2056,48.0644 C185.744933,37.6216618 205.4766,37.6216618 227.4006,48.0644 C234.673275,68.601 234.002942,87.763 225.3896,105.5504 C223.8176,110.3334 221.2596,114.7014 217.6476,118.3804 C216.1746,120.3534 214.6866,122.3474 213.1836,124.3614 C211.7146,126.3994 210.2156,128.4394 208.6886,130.4814 C205.6496,134.5764 202.4316,138.6244 199.2446,142.7544 C193.0056,151.1114 186.2466,159.3194 179.8236,167.7354 C173.1476,175.9804 166.8376,184.4354 160.3176,192.4894 C157.1626,196.5784 154.0396,200.6244 150.9666,204.6084 C149.4036,206.5824 147.8546,208.5414 146.3186,210.4824 C144.7816,212.4204 143.3696,214.4064 141.8966,216.3234 C138.9796,220.1754 136.0826,223.9164 133.2276,227.5264 C131.7626,229.3104 130.4906,231.1644 129.1416,232.9324 C127.8006,234.7064 126.4816,236.4494 125.1886,238.1604 C122.5996,241.5804 119.9806,244.8034 117.5886,247.9324 C115.2486,251.0884 112.9766,254.0674 110.7916,256.8464 C108.6056,259.6254 106.5076,262.2054 104.5176,264.5624 C102.6026,266.9574 100.8486,269.1564 99.1776,271.0874 C95.8506,274.9574 92.9906,277.8224 90.7556,279.4804 C90.2456,279.9194 89.7866,280.2594 89.3586,280.5394 C88.2206,282.6324 87.2726,284.8144 86.2536,286.9624 L83.2316,293.4254 L80.2056,299.8864 L78.6896,303.1154 C78.1856,304.1914 77.7626,305.3024 77.2936,306.3944 L8.5706,276.3594 Z" id="Fill-19" fill="#FA3239"/><path d="M22.0583,247.4295 L90.5603,281.4845 C89.4343,283.5485 88.5233,285.7125 87.5073,287.8265 L84.5273,294.2015 L81.5403,300.5755 L80.0463,303.7605 C79.5503,304.8245 79.1313,305.9175 78.6693,306.9955 L8.5723,276.3595 C9.0973,275.1365 9.5803,273.8945 10.1413,272.6875 L11.8293,269.0725 L15.2083,261.8415 L18.5933,254.6145 C19.7453,252.2175 20.7963,249.7675 22.0583,247.4295" id="Fill-21" fill="#CC2935"/><path d="M394.821,190.869 L180.34,190.869 L180.34,83.807 C180.34,60.339 199.365,41.313 222.834,41.313 L352.327,41.313 C375.796,41.313 394.821,60.339 394.821,83.807 L394.821,190.869 Z" id="Fill-23" fill="#D7DBE2"/><path d="M326.3395,41.3133 C326.3395,57.8693 318.3395,78.8693 291.8395,78.8693 C260.3395,78.8693 247.3395,60.9503 247.3395,41.3133 L326.3395,41.3133 Z" id="SKIN" fill="#B18058"/><path d="M333.4743,253.2791 C359.3393,253.8691 381.3393,251.8691 404.7853,244.0251 C406.9493,243.3001 408.7893,241.9221 408.5903,239.6471 L405.4343,203.5601 C381.3533,204.6071 356.2053,209.2841 329.7363,213.4331 C329.2383,226.3531 328.7303,238.2791 328.2633,248.6261 C328.1353,251.4761 330.6213,253.2141 333.4743,253.2791" id="Fill-27" fill="#CC2935"/><path d="M167.8913,204.7118 L165.0293,237.4348 C164.6923,241.2808 167.0223,244.8868 170.6903,246.0918 C195.2773,254.1698 230.4913,258.3158 253.6073,259.9358 C257.2683,260.1918 260.4893,257.5898 261.0413,253.9608 C262.6083,243.6738 263.7383,232.2488 264.5133,220.0978 C239.8063,219.1358 194.9823,214.8268 167.8913,204.7118" id="Fill-29" fill="#CC2935"/><path d="M208.7028,43.1161 C191.2108,48.3791 178.4668,64.6011 178.4668,83.8071 L167.8908,204.7121 C194.9818,214.8271 239.8068,219.1361 264.5138,220.0971 C267.5658,172.1921 271.3398,75.8691 242.3398,60.8691 C242.3398,60.8691 221.3398,38.8691 208.7028,43.1161" id="Fill-31" fill="#FA3239"/><path d="M329.736,213.4334 C357.34,214.8694 380.34,212.8694 405.434,203.5604 L394.96,83.8074 C394.96,62.4134 379.146,44.7184 358.571,41.7564 C355.904,52.1214 346.235,55.3724 332.34,61.8694 C332.993,106.2704 331.461,168.7464 329.736,213.4334" id="Fill-33" fill="#FA3239"/><path d="M236.3395,0.869 C195.3395,5.869 191.4425,40.633 208.7025,44.116 C222.3395,46.869 231.0835,62.877 243.0435,69.026 C245.7115,70.398 248.8535,68.297 248.6445,65.304 C248.5855,64.456 248.5265,63.613 248.4675,62.777 C247.8105,53.506 249.1965,41.648 258.4905,41.719 C275.1535,41.843 300.1045,41.824 316.1355,41.683 C324.8315,41.606 331.9945,49.511 332.2055,58.205 C332.2405,59.632 332.2735,61.076 332.3025,62.534 C332.3605,65.473 335.5475,67.279 338.0985,65.818 C348.9075,59.627 356.2845,51.64 358.5705,42.757 C359.0665,40.832 359.3395,38.868 359.3395,36.869 C359.3395,13.673 278.0075,-4.212 236.3395,0.869" id="Fill-35" fill="#CC2935"/></g></g></g><g id="Head" transform="translate(204.559406, 0.528013) scale(0.6377952755905512 0.6350710900473934)"><g id="Head/Astronaut" stroke="none" stroke-width="1" fill="none" fill-rule="evenodd"><g id="Group-31" transform="translate(-12.000000, 35.000000)"><path d="M10.5,116.1899 C10.5,116.1899 20.5,129.1899 20.5,149.1899 L115.5,149.1899 C115.5,149.1899 115.5,134.1899 125.5,120.1899 C125.5,120.1899 81.241,59.1899 10.5,116.1899" id="Fill-1" fill="#D7DBE2"/><path d="M50.5,71.3471 L50.5,110.8151 C50.5,110.8151 102.761,146.7581 132.05,110.8151 C161.339,74.8701 127.456,-21.6829 50.5,71.3471" id="Fill-3" fill="#0A1B45"/><g id="Head" transform="translate(34.000000, 36.689900)"><g id="head" transform="translate(0.000000, 0.000100)" fill="#B18058"><path d="M60.0525,94 L55.0655,94 C31.8335,94 13.0005,75.167 13.0005,51.935 L13.0005,32.203 C13.0005,14.418 27.4175,0 45.2035,0 L50.7965,0 C68.5825,0 83.0005,14.418 83.0005,32.203 L83.0005,71.052 C83.0005,83.726 72.7265,94 60.0525,94" id="SKIN"/><path d="M25,58.5 C25,65.403 19.404,71 12.5,71 C5.596,71 0,65.403 0,58.5 C0,51.597 5.596,46 12.5,46 C19.404,46 25,51.597 25,58.5" id="SKIN"/></g><path d="M10.067,53.1685 C10.9718309,53.1685 12.2239875,53.3771928 13.5088204,54.0196092 C15.6553998,55.0928989 17.0130325,57.055328 17.10411,59.9021045 L17.109,60.2105 L14.109,60.2105 C14.109,58.3751144 13.4076866,57.3231443 12.1671796,56.7028908 C11.7065142,56.4725581 11.1976823,56.3199085 10.686339,56.2346846 C10.4347302,56.1927498 10.2385731,56.1747448 10.1250097,56.169908 L10.067,56.1685 L10.067,53.1685 Z" id="ear-line" fill="#000"/><path d="M34.7507501,96.3317762 C25.4557924,93.0436693 20.8185822,84.7387742 18.9822222,73.5681961 C26.2532122,85.6702724 39.4406226,93.8133264 54.5439426,93.9968331 L55.0655,94 L58,94 C50.0632106,98.2298391 42.3134606,99.0070978 34.7507501,96.3317762 Z" id="SHADOW" fill="#000" opacity=".12"/></g><path d="M58.5,94.6899 C58.5,101.5929 52.904,107.1899 46,107.1899 C39.096,107.1899 33.5,101.5929 33.5,94.6899 C33.5,87.7869 39.096,82.1899 46,82.1899 C52.904,82.1899 58.5,87.7869 58.5,94.6899" id="Fill-11" fill="#B18058"/><path d="M43.5669,89.3589 C44.4717309,89.3589 45.7238875,89.5675928 47.0087204,90.2100092 C49.1552998,91.2832989 50.5129325,93.245728 50.60401,96.0925045 L50.6089,96.4009 L47.6089,96.4009 C47.6089,94.5655144 46.9075866,93.5135443 45.6670796,92.8932908 C45.2064142,92.6629581 44.6975823,92.5103085 44.186239,92.4250846 C43.9849519,92.3915368 43.819154,92.373304 43.7027418,92.3648764 L43.5669,92.3589 L43.5669,89.3589 Z" id="Stroke-13" fill="#000" fill-rule="nonzero"/><path d="M111.334,49.8872 L111.5,49.8882 C105.713,41.3222 95.913,35.6902 84.797,35.6902 L79.203,35.6902 C61.418,35.6902 47,50.1082 47,67.8932 C47,67.8932 46.516,78.3462 46.501,81.6902 C46.501,81.8562 52,81.6902 52,81.6902 L62,56.6902 L59.5,50.1902 L111.5,50.1902 C111.5,50.1902 111.448,50.0792 111.334,49.8872" id="Fill-10" fill="#000"/><path d="M50.5,103.8198 L50.5,75.8828 C50.5,72.9238 51.556,70.0498 53.486,67.8068 C128.328,-19.1772 160.957,75.3398 132.05,110.8148 C108.997,139.1038 71.715,122.8618 56.882,114.6628 C52.938,112.4818 50.5,108.3278 50.5,103.8198 M72,0.6898 C32.235,0.6898 0,32.9248 0,72.6898 C0,126.1898 32.235,144.6898 72,144.6898 C111.765,144.6898 144,112.4548 144,72.6898 C144,32.9248 111.765,0.6898 72,0.6898" id="Fill-22" fill="#D7DBE2"/><path d="M43.5,92.6899 C43.5,101.8019 36.113,109.1899 27,109.1899 C17.887,109.1899 10.5,101.8019 10.5,92.6899 C10.5,83.5779 17.887,76.1899 27,76.1899 C36.113,76.1899 43.5,83.5779 43.5,92.6899" id="Fill-25" fill="#FFF"/><path d="M29.5,92.6899 C29.5,97.3699 26.693,101.1629 23.23,101.1629 C19.767,101.1629 16.959,97.3699 16.959,92.6899 C16.959,88.0099 19.767,84.2169 23.23,84.2169 C26.693,84.2169 29.5,88.0099 29.5,92.6899" id="Fill-27" fill="#D7DBE2"/><path d="M117.8433,161.1899 L20.1563,161.1899 C18.1373,161.1899 16.5003,159.5529 16.5003,157.5339 L16.5003,140.8459 C16.5003,138.8269 18.1373,137.1899 20.1563,137.1899 L117.8433,137.1899 C119.8633,137.1899 121.5003,138.8269 121.5003,140.8459 L121.5003,157.5339 C121.5003,159.5529 119.8633,161.1899 117.8433,161.1899" id="Fill-29" fill="#000"/></g></g></g><g id="Expression" transform="translate(235.697043, 61.191581) scale(0.6229508196721312 0.6229508196721312)" fill="#000"><g id="Expression/Confident" stroke="none" stroke-width="1" fill="none" fill-rule="evenodd"><polygon id="Stroke-5" fill="#000" fill-rule="nonzero" points="33.1977829 19.396766 36.1476171 18.850434 40.4350211 41.9996 30.5607 41.9996 30.5607 38.9996 36.828 38.999"/><g id="Group-19" transform="translate(7.500000, 6.500000)" fill="#000" fill-rule="nonzero"><path d="M15.1954,35.0725 C15.1954,38.7467625 18.9374817,42.1446933 22.9550435,42.2765329 L23.1964,42.2805 L23.1964,45.2805 C17.5987295,45.2805 12.3696019,40.7145163 12.1996594,35.3417911 L12.1954,35.0725 L15.1954,35.0725 Z" id="Stroke-1"/><polygon id="Stroke-3" points="25.4714706 12.8831993 28.4213294 12.3370007 32.7076381 35.4861 22.8344 35.4861 22.8344 32.4861 29.101 32.486"/><polygon id="Stroke-5" points="25.4714706 12.8831993 28.4213294 12.3370007 32.7076381 35.4861 22.8344 35.4861 22.8344 32.4861 29.101 32.486"/><polygon id="Stroke-7" points="25.4714706 12.8831993 28.4213294 12.3370007 32.7076381 35.4861 22.8344 35.4861 22.8344 32.4861 29.101 32.486"/><path d="M16.8347,0.0006 L16.8347,3.0006 C12.8614229,3.0006 9.23835727,4.06604738 6.03595274,5.84488405 C4.91508362,6.46749218 3.9293314,7.13343565 3.08971515,7.7961842 L2.78614068,8.04060103 C2.50740693,8.26977369 2.30354376,8.45165644 2.17768642,8.57223303 L2.12127275,8.62734759 L0.000127251271,6.50585241 C0.850658012,5.65546184 2.39872067,4.43350326 4.57919726,3.22231595 C8.05718891,1.29039915 11.9861553,0.0986291869 16.2942223,0.0063786563 L16.8347,0.0006 Z" id="Stroke-9"/><path d="M28.8944,0.3444 C32.8871281,0.3444 36.5186416,1.41233258 39.717187,3.18913498 C41.5297756,4.19603386 42.8489265,5.21247949 43.6282704,5.95899887 L43.7680602,6.09573983 L41.6467398,8.21706017 C41.5206868,8.09100715 41.2403525,7.83943052 40.815131,7.5037443 C40.087555,6.92936785 39.2326886,6.35179507 38.260363,5.81166502 C35.6146324,4.34195302 32.6384875,3.43381034 29.3845651,3.35065325 L28.8944,3.3444 L28.8944,0.3444 Z" id="Stroke-11"/><path d="M7.22711504,13.179414 C8.68074249,16.8134826 15.4334605,16.8772382 16.3216227,13.6199964 L16.363529,13.4423258 L19.305271,14.0306742 C18.0084908,20.5145751 7.22968836,20.5936471 4.53765904,14.5213 L4.44168496,14.293586 L7.22711504,13.179414 Z" id="Stroke-13"/><path d="M32.227115,13.179414 C33.6807425,16.8134826 40.4334605,16.8772382 41.3216227,13.6199964 L41.363529,13.4423258 L44.305271,14.0306742 C43.0084908,20.5145751 32.2296884,20.5936471 29.537659,14.5213 L29.441685,14.293586 L32.227115,13.179414 Z" id="Stroke-15"/></g></g></g><g id="Accessories" transform="translate(226.007043, 75.665067) scale(0.6447368421052632 0.625)" fill="#000"><g id="Accessories/N65" stroke="none" stroke-width="1" fill="none" fill-rule="evenodd"><path d="M55.1977784,0.766509801 C61.8672688,0.766509801 65.5931791,6.91877559 68.3190852,9.67622448 C68.5366389,9.86933778 68.7500465,10.0676638 68.9593821,10.2698541 C69.0753941,10.3682311 69.1897807,10.4565674 69.3026336,10.535583 L69.2915753,10.5973925 C73.2112403,14.5427001 75.6165684,19.8776287 75.6165684,25.7499259 C75.6165684,37.9001904 65.3191176,47.7499259 52.6165684,47.7499259 C39.9140192,47.7499259 29.6165684,37.9001904 29.6165684,25.7499259 C29.6165684,17.6330728 34.2120776,10.5428914 41.0501479,6.73002773 L41.0440543,6.69219525 L41.0440543,6.69219525 C46.4836096,4.14573474 47.6906867,0.766509801 55.1977784,0.766509801 Z" id="Clothe" fill="#D8D8D8"/><path d="M32.6165684,20.7333421 C32.6165684,32.8836066 42.9140192,42.7333421 55.6165684,42.7333421 C63.0741024,42.7333421 69.702661,39.3383929 73.9051908,34.0761112 C70.4693708,42.0893844 62.2320375,47.7333421 52.6165684,47.7333421 C39.9140192,47.7333421 29.6165684,37.8836066 29.6165684,25.7333421 C29.6165684,20.7166936 31.3720069,16.0922234 34.3273758,12.3912869 C33.2246542,14.9640107 32.6165684,17.7807509 32.6165684,20.7333421 Z" id="SHADOW" fill="#000" opacity=".12"/><line x1="0" y1="0" x2="34.913" y2="14.229" id="Path-4" stroke="#22252B" stroke-width="2"/><line x1="33.673" y1="28.173" x2="0" y2="28.173" id="Path-5" stroke="#22252B" stroke-width="2"/></g></g><g id="Glasses" transform="translate(221.137375, 66.596623) scale(0.631578947368421 0.65625)" fill="#000"><g id="Glasses/None" stroke="none" stroke-width="1" fill="none" fill-rule="evenodd" fill-opacity="0"/></g></g><g id="Phone-Message" transform="translate(213.000000, 234.000000)"><rect id="Phone" fill="#902EE9" x="0" y="21" width="388" height="688" rx="35"/><rect id="Phone" fill="#BE6FFB" x="0" y="0" width="388" height="688" rx="35"/><rect id="Screen" fill="#FFF" x="15" y="15" width="356" height="579" rx="18"/><circle id="Button" fill="#902EE9" cx="194.5" cy="640.5" r="24.5"/><g id="Group-8" transform="translate(38.000000, 38.000000)"><rect id="Rectangle" fill="#E6D3FF" x="0" y="0" width="221.47" height="131.852" rx="11"/><rect id="Rectangle" fill="#BE6FFB" x="22.618" y="26.37" width="175.291" height="10.36" rx="4"/><rect id="Rectangle-Copy-24" fill="#BE6FFB" x="22.618" y="48.032" width="175.291" height="10.36" rx="4"/><rect id="Rectangle-Copy-25" fill="#BE6FFB" x="22.618" y="69.693" width="175.291" height="10.36" rx="4"/><rect id="Rectangle-Copy-31" fill="#BE6FFB" x="22.618" y="91.354" width="100.839" height="10.36" rx="4"/><rect id="Rectangle" fill="#E6D3FF" x="0" y="327.746" width="221.47" height="131.852" rx="11"/><rect id="Rectangle" fill="#BE6FFB" x="22.618" y="354.116" width="175.291" height="10.36" rx="4"/><rect id="Rectangle-Copy-24" fill="#BE6FFB" x="22.618" y="375.778" width="175.291" height="10.36" rx="4"/><rect id="Rectangle-Copy-25" fill="#BE6FFB" x="22.618" y="397.439" width="175.291" height="10.36" rx="4"/><rect id="Rectangle-Copy-31" fill="#BE6FFB" x="22.618" y="419.101" width="100.839" height="10.36" rx="4"/><g id="Group-9" transform="translate(89.530303, 163.873016)"><rect id="Rectangle" fill="#F4ECFF" x="0" y="0" width="221.47" height="131.852" rx="11"/><rect id="Rectangle" fill="#CCA4FF" x="22.618" y="26.37" width="175.291" height="10.36" rx="4"/><rect id="Rectangle-Copy-24" fill="#CCA4FF" x="22.618" y="48.032" width="175.291" height="10.36" rx="4"/><rect id="Rectangle-Copy-25" fill="#CCA4FF" x="22.618" y="69.693" width="175.291" height="10.36" rx="4"/><rect id="Rectangle-Copy-31" fill="#CCA4FF" x="22.618" y="91.354" width="100.839" height="10.36" rx="4"/></g><g id="Group-10" transform="translate(0.000000, 498.211640)"><rect id="Rectangle" fill="#F4ECFF" x="0" y="0" width="243.145" height="35.788" rx="8"/><rect id="Rectangle-Copy-32" fill="#BE6FFB" x="250.685" y="0" width="60.315" height="35.788" rx="8"/></g></g></g><g transform="translate(711.000000, 848.500000) scale(-1, 1) translate(-711.000000, -848.500000) translate(259.000000, 419.000000) scale(1 1)" id="Master/Character/Standing"><g id="Master/Character/Standing" stroke="none" stroke-width="1" fill="none" fill-rule="evenodd"><g id="Legs" transform="translate(50.000000, 263.000000) scale(1 1)"><g id="Legs/Shorts Jump" stroke="none" stroke-width="1" fill="none" fill-rule="evenodd"><g id="Group" transform="translate(183.461298, -0.136100)"><path d="M70.5387017,181.1361 C101.890754,142.833061 76.3594361,171.383516 170.478102,210.346 C185.567102,215.178 205.472102,223.035 216.973102,208.915 C227.521102,194.6 231.269102,176.513 227.563102,159.312 C221.520102,131.434 206.946102,107.786 194.371102,82.189 L265.012102,46.82 C286.940102,89.398 312.907102,136.716 307.252102,187.137 C301.901102,240.654 263.549102,294.012 206.236102,295.602 C159.388102,297.472 115.815102,274.871 77.8231017,250.346 C64.4931017,241.531 51.7681017,232.175 39.3881017,222.075 C36.4161017,219.651 35.8871017,215.388 38.2091017,212.669 C51.6392216,197.285704 63.7967376,189.372809 70.5387017,181.1361 Z" id="SKIN-DARKER" fill="#543629"/><path d="M158.036302,1.669 C150.244302,1.557 152.187302,5.542 152.283302,10.532 C155.306302,63.756 193.167302,109.326 206.820302,157.188 L253.988302,144.44 C256.323302,138.99 258.427302,132.884 260.004302,127.173 C264.873302,130.705 269.985302,134.854 274.433302,138.915 L322.355302,125.965 C311.177302,82.861 284.110302,47.626 269.720302,7.883 C269.050302,5.68 267.250302,0.136 267.250302,0.136 L158.036302,1.669 Z" id="Fill-3" fill="#CC2935"/><path d="M52.0519017,241.0693 C87.2809017,266.8593 126.126902,290.2423 169.795902,299.7363 L188.535902,209.4583 C151.258902,200.4093 116.078902,175.2953 86.4599017,150.5923 C85.8039017,151.3233 66.8389017,172.4243 65.6249017,173.7763 C66.4839017,175.1623 68.3559017,177.4493 69.3719017,178.7993 C64.0479017,181.8053 58.6169017,184.6973 53.2299017,187.5683 C40.2469017,202.0143 13.7869017,231.4543 0.899901698,245.7953 C4.4859017,248.9643 8.6269017,252.4853 12.2939017,255.4653 C22.4169017,260.8793 41.0929017,241.2373 52.0519017,241.0693" id="Fill-6" fill="#0A1B45"/></g><path d="M243,0 C243,55.228475 289.562386,100 347,100 C404.437614,100 451,55.228475 451,0" id="Waist" fill="#FA3239"/><g id="Group-2" transform="translate(76.000000, 0.023847)"><path d="M37.2876,228.762953 C108.6606,148.116953 80,184.976153 154.0926,220.967953 C178.5346,232.403953 220.1316,253.546953 236.0066,223.498953 C264.1876,175.842953 226.8366,128.063953 206.1646,83.0319531 L277.0536,48.1629531 C309.6546,109.010953 345.8826,181.152953 311.2266,250.113953 C294.6466,287.777953 259.9066,316.203953 217.7826,317.563953 C165.8606,319.567953 118.2396,293.911953 76.5406,266.517953 C63.3756,257.628953 50.7466,248.246953 38.4326,238.156953 C35.4766,235.729953 34.9636,231.483953 37.2876,228.762953 L37.2876,228.762953 Z" id="SKIN" fill="#694d3d"/><path d="M274.8735,1.2502531 L170.7095,4.40536496e-13 C164.4055,-0.0377469012 164.2475,4.2092531 164.7895,8.6632531 C166.9475,64.5842531 204.7105,111.787253 221.5885,161.830253 L267.9005,146.261253 C269.8385,140.538253 271.4975,134.550253 272.9345,128.399253 C278.0295,131.874253 283.0555,135.544253 287.9765,139.512253 L335.0285,123.693253 C321.5735,81.8122531 294.5985,47.7672531 281.7325,7.1332531 C280.4185,1.8952531 282.8115,1.2902531 274.8735,1.2502531" id="Fill-10" fill="#FA3239"/><path d="M50.9575,257.137953 C85.3265,282.695953 123.4395,306.002953 165.1895,318.112953 L190.3895,229.418953 C152.0955,217.663953 116.3635,192.608953 85.5615,166.700953 C84.9035,167.431953 65.9385,188.533953 64.7255,189.883953 C65.6035,191.282953 67.4695,193.572953 68.4975,194.936953 C63.1625,197.928953 57.7255,200.811953 52.3305,203.675953 C39.3485,218.122953 12.8875,247.561953 0.0005,261.902953 C1.4785,263.204953 4.4815,265.827953 5.9785,267.082953 C17.3595,282.186953 32.8005,260.227953 50.9575,257.137953" id="Fill-12" fill="#0A1B45"/></g></g></g><g id="Body" transform="translate(17.000000, -31.000000) scale(1 1)"><g id="Body/Tank Top Open Arms" stroke="none" stroke-width="1" fill="none" fill-rule="evenodd"><g id="Group" transform="translate(608.894732, 221.560042) rotate(-12.000000) translate(-608.894732, -221.560042) translate(428.394732, 117.060042)" fill="#543629"><path d="M320.746294,125.1924 C335.606294,124.1304 344.031294,130.7174 348.380294,136.3334 C350.557294,139.1284 349.903294,142.6534 347.741294,145.1454 C345.583294,147.6314 341.925294,149.0514 338.247294,147.6094 C334.563294,146.1514 331.019294,143.2624 326.098294,141.1374 C321.182294,139.0204 314.952294,137.7594 305.862294,139.3294 C301.325294,140.1344 299.063294,139.6144 298.480294,138.5024 C297.890294,137.3684 298.970294,135.6364 301.034294,133.7414 C305.193294,129.9914 313.301294,125.7004 320.746294,125.1924" id="SKIN-DARKER"/><path d="M277.228094,126.6952 C269.707094,123.3732 261.380094,122.8792 253.644094,125.6842 C251.310094,126.5812 248.970094,127.3822 246.632094,128.1882 L242.617094,129.5812 L238.491094,130.8972 L234.367094,132.2112 L230.250094,133.4022 L226.137094,134.5892 L222.038094,135.6452 C211.120094,138.4512 200.303094,140.5052 189.930094,141.5282 C179.566094,142.5572 169.654094,142.5262 160.821094,141.2792 C159.666094,141.2012 158.652094,140.9212 157.586094,140.7232 L154.409094,140.1302 C153.860094,140.0602 153.397094,139.8772 152.898094,139.7432 L151.419094,139.3272 L148.453094,138.5392 C144.690094,137.3202 141.001094,135.7412 137.357094,133.7882 C122.783094,126.0952 108.900094,111.5832 97.3980935,93.5772 C85.8550935,75.5692 76.4900935,54.4092 69.2550935,32.4132 C66.2580935,23.3092 59.4140935,13.9892 52.0830935,9.2312 C44.7570935,4.4952 32.883949,-1.42108547e-14 22.7442031,-1.42108547e-14 C12.6044572,-1.42108547e-14 5.41907935,8.06435281 1.39907935,16.6723528 C-2.62892065,25.2583528 2.96409353,42.1162 6.55109353,53.0092 C10.8630935,66.1412 15.8520935,79.0952 21.6450935,91.8412 C27.4640935,104.5772 34.0700935,117.1162 41.8610935,129.2392 C49.6620935,141.3432 58.5720935,153.0912 69.1870935,163.8522 C79.7630935,174.5962 92.0540935,184.4132 106.152094,191.9462 C113.179094,195.7172 120.617094,198.9152 128.320094,201.3932 C130.242094,201.9602 132.171094,202.4802 134.100094,203.0142 C136.028094,203.5142 137.963094,204.1222 139.892094,204.5132 L145.681094,205.6412 C147.610094,205.9972 149.551094,206.4272 151.461094,206.6122 C166.857094,208.7802 181.903094,208.6302 196.392094,207.2112 C210.893094,205.7732 224.884094,203.0522 238.462094,199.5692 L243.550094,198.2512 L248.571094,196.8072 L253.585094,195.3502 L258.536094,193.7792 L263.482094,192.1962 L268.233094,190.5542 C271.000094,189.5982 273.769094,188.6432 276.486094,187.6042 C285.592094,184.2942 292.252094,177.4792 295.580094,169.6042 C298.898094,161.6572 298.881094,152.6222 295.131094,144.3262 C291.375094,136.0152 284.709094,129.9592 277.228094,126.6952 Z" id="SKIN-DARKER"/><path d="M273.506994,188.7139 C267.936994,190.6649 263.008994,178.7409 259.259994,164.5009 C257.374994,157.3839 255.749994,149.6949 254.477994,142.8669 C253.209994,136.0379 252.295994,130.0749 251.944994,126.3179 L257.273994,124.3309 C265.199994,121.2799 272.549994,118.7649 279.354994,116.5849 C286.170994,114.4599 292.447994,112.7419 298.255994,111.4619 C309.854994,108.8599 319.539994,107.8999 327.506994,107.909823 C343.420994,107.8939 352.491994,111.8349 355.208994,112.5299 C356.554994,112.8629 357.716994,113.6829 358.611994,114.7579 C359.516994,115.8299 360.171994,117.1549 360.448994,118.5339 C361.013994,121.2879 360.111994,124.2079 357.251994,125.3569 C354.537994,126.4659 341.280994,128.2409 328.779994,131.7289 C316.266994,135.2979 304.412994,140.6569 303.803994,151.3429 C303.443994,157.8069 305.909994,161.3279 309.593994,163.2199 C313.279994,165.1359 318.110994,165.3429 322.305994,165.3659 C327.294994,165.3699 330.419994,168.9329 331.207994,172.8309 C332.000994,176.7269 330.398994,180.9499 326.034994,182.0439 C322.388994,182.9959 318.027994,183.5749 313.432994,184.0749 C308.787994,184.5049 303.917994,184.8679 299.055994,185.1409 C289.390994,185.8039 279.964994,186.3319 273.506994,188.7139" id="SKIN-DARKER"/></g><g id="Group-30" transform="translate(106.000000, 149.000000)"><path d="M381.6668,149.5558 L157.1858,149.5558 L157.1858,42.4938 C157.1858,33.6938 159.8608,25.5178 164.4428,18.7358 C172.0788,7.4318 185.0118,-0.0002 199.6798,-0.0002 L329.1728,-0.0002 C352.6418,-0.0002 371.6668,19.0258 371.6668,42.4938 L381.6668,149.5558 Z" id="Fill-8" fill="#0A1B45"/><path d="M359.1854,12.0557 C360.013827,12.0557 360.6854,12.7272729 360.6854,13.5557 C360.6854,14.3353961 360.090512,14.9761487 359.32986,15.0488334 L359.1854,15.0557 L169.6854,15.0557 C168.856973,15.0557 168.1854,14.3841271 168.1854,13.5557 C168.1854,12.7760039 168.780288,12.1352513 169.54094,12.0625666 L169.6854,12.0557 L359.1854,12.0557 Z" id="Stroke-11" fill="#FFF" fill-rule="nonzero"/><path d="M370.1854,42.0557 C371.013827,42.0557 371.6854,42.7272729 371.6854,43.5557 C371.6854,44.3353961 371.090512,44.9761487 370.32986,45.0488334 L370.1854,45.0557 L158.6854,45.0557 C157.856973,45.0557 157.1854,44.3841271 157.1854,43.5557 C157.1854,42.7760039 157.780288,42.1352513 158.54094,42.0625666 L158.6854,42.0557 L370.1854,42.0557 Z" id="Stroke-13" fill="#FFF" fill-rule="nonzero"/><path d="M373.499611,72 C374.328038,71.9997852 375,72.671184 375,73.4996111 C375,74.2793072 374.40548,74.9202139 373.644847,74.9930959 L373.500389,75 L158.685789,75.0557 C157.857362,75.0559148 157.1854,74.384516 157.1854,73.5560889 C157.1854,72.7763928 157.77992,72.1354861 158.540553,72.0626041 L158.685011,72.0557001 L373.499611,72 Z" id="Stroke-15" fill="#FFF" fill-rule="nonzero"/><path d="M376.499616,102 C377.328043,101.999788 378,102.671189 378,103.499616 C378,104.279312 377.405476,104.920217 376.644843,104.993096 L376.500384,105 L158.685784,105.0558 C157.857357,105.056012 157.1854,104.384611 157.1854,103.556184 C157.1854,102.776488 157.779924,102.135583 158.540557,102.062704 L158.685016,102.0558 L376.499616,102 Z" id="Stroke-17" fill="#FFF" fill-rule="nonzero"/><path d="M379.499621,132 C380.328048,131.999791 381,132.671194 381,133.499621 C381,134.279317 380.405471,134.92022 379.644837,134.993097 L379.500379,135 L158.685779,135.0558 C157.857352,135.056009 157.1854,134.384606 157.1854,133.556179 C157.1854,132.776483 157.779929,132.13558 158.540563,132.062703 L158.685021,132.0558 L379.499621,132 Z" id="Stroke-19" fill="#FFF" fill-rule="nonzero"/><path d="M19.6193,312.7384 C20.7003,315.5694 22.0453,317.9114 23.6733,319.8954 C26.8663,323.8444 30.6263,326.2064 33.8593,327.6464 C37.0943,329.0824 40.3203,327.7184 42.1673,325.2314 C43.0613,323.9774 43.7543,322.4794 43.8853,320.8714 C44.0253,319.2654 43.6553,317.5634 42.5963,315.9564 C40.4823,312.7394 36.9573,309.8194 34.0633,305.3464 C32.6173,303.1084 31.3303,300.4794 30.4593,297.2184 C30.0443,295.5944 29.6493,293.7844 29.5433,291.8404 C29.4213,289.8894 29.4453,287.7554 29.6473,285.4074 C30.4573,276.0124 27.1373,276.3394 23.6523,281.0764 C21.9353,283.4484 20.0833,286.8784 18.8913,290.7394 C17.7543,294.6204 17.1073,298.8704 17.4383,302.7354 C17.7693,306.6014 18.5433,309.9094 19.6193,312.7384 Z" id="SKIN-DARKER" fill="#543629"/><path d="M22.7961,266.9147 C21.2551,265.3937 19.8761,263.7177 18.6721,261.9147 C17.4731,260.1147 16.5281,258.2177 15.7381,256.2107 C14.1761,252.2047 13.3931,247.8137 13.4751,243.2937 C13.5161,241.0357 13.7741,238.7457 14.2571,236.4577 C14.7621,234.1827 15.3901,231.8637 16.4581,229.6807 L20.5191,220.9887 C22.8371,216.0927 25.0661,211.1497 27.4661,206.2967 L34.9251,191.8777 L38.6641,184.6727 L42.6531,177.6167 L50.6661,163.5247 C51.3191,162.3407 52.0191,161.1877 52.7371,160.0457 L54.8641,156.6047 L59.1221,149.7237 C61.9901,145.1577 64.7221,140.4937 67.7871,136.0687 L76.7811,122.6517 L79.0321,119.2987 L81.3801,116.0227 L86.0941,109.4867 C98.5181,91.9237 112.0321,75.2877 125.7541,58.8897 L136.3131,46.8537 L141.6011,40.8447 L147.0371,34.9937 L157.9161,23.2957 L169.0701,11.9127 C175.4001,5.3347 183.9971,2.3257 192.3571,2.5057 C200.7441,2.6987 208.9891,6.1987 215.2431,12.8267 C221.4981,19.4547 224.6271,27.9077 224.7431,36.1087 C224.8691,44.3367 221.8661,52.2097 216.0101,58.3077 L205.6471,68.8777 L195.5861,79.7037 L190.5521,85.1147 L185.6821,90.6557 L175.9481,101.7447 C163.3551,116.8197 150.9481,132.0587 139.6561,148.0497 L135.3561,154.0027 L133.2151,156.9837 L131.1751,160.0307 L123.0101,172.2117 C120.2141,176.2267 117.7641,180.4497 115.1651,184.5817 L111.3101,190.8077 L109.3821,193.9187 C108.7291,194.9527 108.0951,195.9937 107.5081,197.0617 L100.2851,209.7807 L96.6781,216.1427 L93.3231,222.6317 L86.6001,235.6067 C84.4441,239.9697 82.4551,244.4117 80.3691,248.8097 L76.7131,256.6137 C75.7461,258.5717 74.7961,260.4757 73.5751,262.1897 C72.3781,263.9127 71.0151,265.4917 69.5131,266.9177 C66.5091,269.7697 62.9471,272.0167 59.0521,273.5847 C57.1151,274.3717 55.0541,274.9757 53.0121,275.4217 C50.9751,275.8707 48.8781,276.1337 46.7511,276.1967 C42.4961,276.3217 38.1181,275.6447 33.8621,274.0167 C29.6051,272.3897 25.8771,269.9607 22.7961,266.9147 Z" id="SKIN" fill="#694d3d"/><path d="M55.0434,237.9188 C41.2614,232.7248 24.9354,228.6848 17.3604,227.7488 C16.4144,229.7678 15.4554,231.7798 14.6234,233.8508 C12.6944,238.4468 10.9614,242.8738 9.4124,247.1318 C8.6374,249.2608 7.9084,251.3468 7.2234,253.3918 C6.8874,254.4148 6.5554,255.4268 6.2274,256.4258 C5.9524,257.4448 5.6794,258.4498 5.4104,259.4428 C3.3094,267.4038 1.8474,274.6728 0.8954,281.2728 C0.6304,282.9128 0.5114,284.5508 0.3904,286.1378 C0.2734,287.7258 0.1834,289.2718 0.1194,290.7768 C-0.0066,293.7858 -0.0296,296.6318 0.0354,299.3198 C0.0994,302.0068 0.2514,304.5368 0.4744,306.9158 C0.7054,309.2968 0.9574,311.5128 1.4174,313.6298 C4.8184,330.4768 11.2984,338.0638 12.6954,340.5248 C15.5044,345.3978 25.0374,344.6588 25.6384,338.7018 C25.7824,337.2888 25.3914,333.3198 25.0684,328.0278 C24.9064,325.3818 24.7604,322.4078 24.7054,319.2628 C24.7184,316.1398 24.9274,312.8778 25.2444,309.6048 C25.5744,306.3348 26.0664,303.0678 26.7834,299.9818 C27.1414,298.4388 27.5564,296.9418 28.0344,295.5128 C28.5144,294.0838 29.0344,292.7148 29.7274,291.4738 C32.4044,286.4708 36.1724,282.9268 41.4754,282.2568 C47.8734,281.4518 51.5394,283.7338 53.7614,287.1168 C55.9814,290.5068 56.7484,295.0188 57.2734,298.8758 C57.8674,303.4798 61.9654,306.0048 65.8604,306.3798 C69.7434,306.7438 73.6814,305.0958 74.1634,301.2168 C74.5844,297.9478 74.6654,294.0948 74.6254,289.9478 C74.5854,287.8668 74.5434,285.7188 74.5014,283.5458 C74.5344,281.3868 74.5674,279.2018 74.5994,277.0318 C74.6974,272.6768 74.8834,268.3428 75.3474,264.3738 C75.5784,262.3898 75.8794,260.4968 76.2734,258.7428 C76.7064,257.0048 77.2784,255.4238 77.9324,254.0128 C80.1544,249.2708 68.8284,243.1068 55.0434,237.9188 Z" id="SKIN" fill="#694d3d"/><path d="M313.1854,0.0001 C313.1854,16.5561 305.1854,37.5561 278.6854,37.5561 C247.1854,37.5561 234.1854,19.6371 234.1854,0.0001 L313.1854,0.0001 Z" id="SKIN" fill="#694d3d"/></g></g></g><g id="Head" transform="translate(338.000000, -61.000000) scale(1 1)"><g id="Head/Braid" stroke="none" stroke-width="1" fill="none" fill-rule="evenodd"><g id="Group-24" transform="translate(-14.000000, 61.000000)"><path d="M36.7634,119.9999 L12.0004,119.9999 L12.0004,105.5959 C12.0004,96.9819 18.9824,89.9999 27.5964,89.9999 L44.9824,89.9999 C47.2014,89.9999 49.0004,91.7989 49.0004,94.0179 L49.0004,107.7639 C49.0004,114.5209 43.5214,119.9999 36.7634,119.9999" id="Fill-1" fill="#000"/><path d="M16.9163,145.9999 L16.9163,145.9999 C26.3513,145.9999 34.0003,138.3519 34.0003,128.9169 L34.0003,119.9999 L4.6793,119.9999 C2.0953,119.9999 0.0003,122.0949 0.0003,124.6799 L0.0003,129.0829 C0.0003,138.4259 7.5733,145.9999 16.9163,145.9999" id="Fill-3" fill="#000"/><path d="M45,99.9999 L45,99.9999 C29.536,99.9999 17,87.4639 17,71.9999 L17,47.9999 L45,47.9999 L45,99.9999 Z" id="Fill-5" fill="#000"/><path d="M67.8008,104.9999 L81.9998,104.9999 L81.9998,-0.0001 L67.8008,-0.0001 C39.7448,-0.0001 16.9998,22.7439 16.9998,50.8009 L16.9998,54.1989 C16.9998,82.2559 39.7448,104.9999 67.8008,104.9999" id="Fill-7" fill="#000"/><path d="M83.1992,92.9999 L74.0002,92.9999 L74.0002,-0.0001 L83.1992,-0.0001 C111.2552,-0.0001 134.0002,15.8029 134.0002,50.5929 L134.0002,67.2069 C134.0002,92.9999 111.2552,92.9999 83.1992,92.9999" id="Fill-10" fill="#000"/><path d="M49,72.9999 L94,72.9999 L94,124.6329 C94,138.5379 83.927,149.8099 71.5,149.8099 C59.073,149.8099 49,138.5379 49,124.6329 L49,72.9999 Z" id="SKIN" fill="#694d3d"/><path d="M96.0525,104.9999 L91.0655,104.9999 C67.8335,104.9999 49.0005,86.1669 49.0005,62.9349 L49.0005,43.2029 C49.0005,25.4179 63.4175,10.9999 81.2035,10.9999 L86.7965,10.9999 C104.5825,10.9999 119.0005,25.4179 119.0005,43.2029 L119.0005,82.0519 C119.0005,94.7259 108.7265,104.9999 96.0525,104.9999" id="SKIN" fill="#694d3d"/><path d="M70.7507501,107.331676 C61.4557924,104.043569 56.8185822,95.7386742 54.9822222,84.5680961 C62.2532122,96.6701724 75.4406226,104.813226 90.5439426,104.996733 L91.0655,104.9999 L94,104.9999 C86.0632106,109.229739 78.3134606,110.006998 70.7507501,107.331676 Z" id="SHADOW" fill="#000" opacity=".12"/><path d="M61,69.4999 C61,76.4029 55.404,81.9999 48.5,81.9999 C41.596,81.9999 36,76.4029 36,69.4999 C36,62.5969 41.596,56.9999 48.5,56.9999 C55.404,56.9999 61,62.5969 61,69.4999" id="SKIN" fill="#694d3d"/><path d="M46.0669,64.1684 C46.9717309,64.1684 48.2238875,64.3770928 49.5087204,65.0195092 C51.6552998,66.0927989 53.0129325,68.055228 53.10401,70.9020045 L53.1089,71.2104 L50.1089,71.2104 C50.1089,69.3750144 49.4075866,68.3230443 48.1670796,67.7027908 C47.7064142,67.4724581 47.1975823,67.3198085 46.686239,67.2345846 C46.4346302,67.1926498 46.2384731,67.1746448 46.1249097,67.169808 L46.0669,67.1684 L46.0669,64.1684 Z" id="Stroke-19" fill="#000" fill-rule="nonzero"/><path d="M48,56.9999 L46.464,56.9999 C40.61,51.3079 38.361,39.7079 37.683,28.4489 C36.754,13.0199 63.542,-0.0001 78.999,-0.0001 L78.999,-0.0001 C90.89,-0.0001 102.025,5.8309 108.797,15.6049 L116,25.9999 L74.697,25.9999 C74.697,42.9999 60,56.9999 48,56.9999" id="Fill-21" fill="#000"/></g></g></g><g id="Expression" transform="translate(385.000000, 34.000000) scale(1 1)" fill="#000"><defs><filter id="expressionwink-filter-1"><feColorMatrix in="SourceGraphic" values="0 0 0 0 0.000000 0 0 0 0 0.000000 0 0 0 0 0.000000 0 0 0 1.000000 0"/></filter></defs><g id="Expression/Wink" stroke="none" stroke-width="1" fill="none" fill-rule="evenodd"><g filter="url(#expressionwink-filter-1)" id="Group-17"><g transform="translate(9.000000, 3.000000)"><path d="M37.6862,19.0627 C37.6862,17.4057 36.3432,16.0627 34.6862,16.0627 C33.0292,16.0627 31.6862,17.4057 31.6862,19.0627 C31.6862,20.7197 33.0292,22.0627 34.6862,22.0627 C36.3432,22.0627 37.6862,20.7197 37.6862,19.0627" id="Fill-1" fill="#000"/><path d="M13.0473,38.6487 C13.0473,42.3229625 16.7893817,45.7208933 20.8069435,45.8527329 L21.0483,45.8567 L21.0483,48.8567 C15.4506295,48.8567 10.2215019,44.2907163 10.0515594,38.9179911 L10.0473,38.6487 L13.0473,38.6487 Z" id="Stroke-5" fill="#000" fill-rule="nonzero"/><path d="M2.57564697,9.21147847 C6.2616177,8.06796663 10.3535814,7.81561498 14.5680667,8.99954871 L15.0368326,9.13703524 L14.1597674,12.0059648 C10.4145271,10.8610011 6.75307649,11.056551 3.46455381,12.0767611 C2.87639473,12.2592278 2.35407493,12.4536573 1.90571976,12.6462124 L1.67798076,12.7466018 L1.40843093,12.875962 L0.000169065366,10.227038 C0.505632486,9.95831572 1.38329457,9.5813862 2.57564697,9.21147847 Z" id="Stroke-7" fill="#000" fill-rule="nonzero"/><path d="M27.4327673,1.61074391 C31.7294847,0.539609121 35.85137,0.927023851 39.5454285,2.22070874 C40.6627133,2.61198958 41.5287224,3.00892816 42.1054952,3.32415386 L42.3911858,3.48746626 L40.8460142,6.05893374 L40.6830708,5.96779273 C40.5848397,5.91521377 40.4526078,5.84736079 40.2880352,5.76752086 C39.7889686,5.52540617 39.2078998,5.28115198 38.5538553,5.05210108 C35.5067759,3.98499275 32.1271224,3.6348104 28.6169983,4.41363387 L28.1584327,4.52165609 L27.4327673,1.61074391 Z" id="Stroke-9" fill="#000" fill-rule="nonzero"/><path d="M2.29348496,21.505614 C4.78316311,15.2814186 15.5765131,15.2055138 17.1047395,21.5313094 L17.157071,21.7685258 L14.215329,22.3568742 C13.5401751,18.9811049 6.8011145,18.9218809 5.16179365,22.4285178 L5.07891504,22.619786 L2.29348496,21.505614 Z" id="Stroke-15" fill="#000" fill-rule="nonzero"/></g></g><polygon id="Stroke-5" fill="#000" fill-rule="nonzero" points="33.1977829 19.396766 36.1476171 18.850434 40.4350211 41.9996 30.5607 41.9996 30.5607 38.9996 36.828 38.999"/></g></g><g id="Accessories" transform="translate(372.000000, 56.000000) scale(1 1)" fill="#000"><g id="Accessories/None" stroke="none" stroke-width="1" fill="none" fill-rule="evenodd" fill-opacity="0"/></g><g id="Glasses" transform="translate(364.000000, 42.000000) scale(1 1)" fill="#000"><g id="Glasses/None" stroke="none" stroke-width="1" fill="none" fill-rule="evenodd" fill-opacity="0"/></g></g></g></g></svg>