<svg viewBox="2.6442307692307168 105.70000000000005 1137.019230769231 1215.55" xmlns="http://www.w3.org/2000/svg" overflow="visible" xmlns:xlink="http://www.w3.org/1999/xlink" width="1137.019230769231px" height="1215.55px"><g id="Master/Comps/Mail" stroke="none" stroke-width="1" fill="none" fill-rule="evenodd"><g id="Blob" opacity=".288" transform="translate(2.000000, 147.891534) scale(1.5335892514395393 1.532934131736527)"><g id="Blob/1" stroke="none" stroke-width="1" fill="none" fill-rule="evenodd"><path d="M421.532241,44.5681909 C463.077658,70.8943232 491.70403,118.895328 499.790051,167.826584 C507.969014,216.850866 495.607626,266.898425 478.5991,314.248253 C461.683517,361.691106 440.120795,406.343203 404.709601,437.22757 C369.391349,468.018912 320.224625,484.949499 272.266158,483.368071 C224.214747,481.693617 177.464536,461.507148 134.153206,433.320512 C90.841877,405.04085 50.96943,368.761021 31.82322,322.620521 C12.6770101,276.573046 14.1640943,220.664899 35.0762169,175.733726 C55.9883394,130.802554 96.3255002,96.8483546 138.893287,70.801298 C181.461075,44.8472665 226.259488,26.8003772 275.890926,20.1955878 C325.522363,13.4977733 379.986825,18.2420586 421.532241,44.5681909 Z" id="blobs-burgers" fill="#FFB23C"/></g></g><g id="body" transform="translate(127.639202, 114.000000)"><path d="M208.763746,19.357908 L208.763746,19.357908 C211.351413,18.3945578 214.00998,18.0066924 216.618821,18.1765168 C217.923051,18.260229 219.214449,18.4837348 220.476529,18.8398049 C221.728813,19.1998865 222.942678,19.697049 224.11134,20.3194519 C228.793693,22.7918529 232.605063,27.3929731 234.169671,33.2890571 C237.601567,46.1981036 239.961306,59.5395698 240.667122,73.3361032 C241.019309,80.5029335 240.984073,87.7766357 240.258608,95.1707298 C239.550653,102.555285 238.257977,110.048442 236.022787,117.545122 C235.505704,119.417297 234.827806,121.289113 234.200064,123.156061 L233.127673,125.950134 L232.5784,127.344015 L231.971778,128.732218 C230.398074,132.436563 228.470968,136.086795 226.303598,139.637936 C221.954453,146.734503 216.300567,153.399347 209.573948,158.86202 C206.243993,161.635429 202.598499,164.004941 198.866559,166.123078 L196.031924,167.638457 C195.075748,168.109703 194.108265,168.548299 193.143405,168.995705 C192.659758,169.215603 192.177537,169.444501 191.691582,169.653695 L190.224765,170.240258 C189.245262,170.622333 188.265589,171.026574 187.280955,171.376252 C179.391406,174.137514 171.351021,175.717873 163.588976,176.24308 C155.809821,176.803593 148.251128,176.501391 140.960553,175.656726 C133.666224,174.807735 126.629553,173.416091 119.802439,171.6856 C116.631855,170.917172 113.853298,169.482104 111.481352,167.751393 C109.153517,165.946661 107.246923,163.822443 105.908925,161.445193 C104.574289,159.058185 103.763281,156.486767 103.534145,153.86624 C103.30328,151.250292 103.670133,148.545824 104.622083,145.955943 C105.578812,143.353619 107.031769,141.110584 108.813841,139.190575 C110.59538,137.274955 112.694472,135.721708 114.954197,134.593818 C117.217884,133.456074 119.647904,132.663449 122.117051,132.392915 C124.589559,132.035134 127.106544,132.229347 129.586778,132.822983 C140.328129,135.562052 151.024882,136.96194 160.603981,136.263945 C161.212817,136.245621 161.792332,136.166134 162.377311,136.101773 L164.132189,135.916078 L165.83157,135.639543 C166.400178,135.553174 166.969546,135.471605 167.507834,135.337148 L169.14997,134.989729 C169.694511,134.871502 170.205958,134.703166 170.736874,134.568647 C171.81369,134.320605 172.79057,133.929721 173.813267,133.618911 C177.770225,132.16993 181.277117,130.254103 184.320393,127.754881 C187.373418,125.27072 190.018037,122.214715 192.257671,118.569718 C193.365492,116.73928 194.416172,114.811496 195.296153,112.704722 L195.643286,111.928956 L195.954599,111.120734 L196.582232,109.501036 C196.942934,108.373183 197.365394,107.286595 197.675427,106.113878 C198.3837,103.829503 198.908135,101.403274 199.391619,98.9509358 C199.595219,97.7028251 199.841118,96.4738452 199.989459,95.1945113 C200.070879,94.5580013 200.172061,93.9300462 200.242165,93.2879484 L200.437598,91.3529413 C200.954326,86.1856287 200.985564,80.8043129 200.720178,75.3709621 C200.193794,64.8922482 198.338531,54.1664449 195.524254,43.6072945 C194.250269,38.8023235 195.029629,33.8443357 197.3442,29.4599201 C197.92624,28.365892 198.617105,27.3081329 199.395011,26.3079286 C200.163625,25.3110409 201.030272,24.3675068 201.986715,23.498926 C203.900988,21.7627748 206.175385,20.320753 208.763746,19.357908" id="SKIN-DARKER" fill="#8C6345"/><path d="M217.822265,2.87715938 C219.202679,2.27968057 220.722241,2.33605275 222.049399,2.93642733 C223.366067,3.54030822 224.498332,4.68446444 225.124019,6.20590193 C230.480124,19.5063686 234.685482,33.339648 237.480942,47.6656054 C237.81607,49.3050183 237.450295,50.9238324 236.67495,52.1610229 C235.89419,53.4027611 234.656706,54.2789541 233.165939,54.5206035 C230.194818,54.9844178 227.359866,52.8368816 226.771115,49.7394881 C224.125987,36.180616 220.123918,22.9916436 215.007328,10.2891559 C214.409301,8.8377532 214.433058,7.29094445 214.94658,5.94639158 C215.450687,4.60825001 216.437756,3.47590178 217.822265,2.87715938" id="SKIN-DARKER" fill="#8C6345"/><path d="M206.129646,0.498534798 C207.493736,-0.140023908 208.991568,-0.147245461 210.318534,0.374438918 C211.651011,0.892175493 212.798732,1.94409305 213.420769,3.39599812 C215.879838,9.02003246 218.123824,14.742708 220.135645,20.5568904 C221.181994,23.5565925 219.615206,26.7506182 216.740767,27.6505328 C213.865729,28.5505421 210.816456,26.9597049 209.829074,24.1308596 C207.913933,18.5977968 205.774901,13.1426302 203.429318,7.77798834 C202.836546,6.39463371 202.831963,4.90520402 203.307671,3.59308541 C203.789869,2.27932401 204.764957,1.13718831 206.129646,0.498534798" id="SKIN-DARKER" fill="#8C6345"/><path d="M196.847046,3.52606822 C199.557564,2.22653316 202.812422,3.39920128 204.052701,6.17446137 C206.441211,11.5544445 208.623549,17.0273523 210.581179,22.5807457 C211.569892,25.4567355 210.025192,28.5384071 207.141319,29.460111 C204.286015,30.3723699 201.223434,28.9183264 200.294192,26.2124987 C198.434846,20.9387406 196.359761,15.7323625 194.085147,10.6104772 C192.914409,7.99148399 194.124025,4.83188863 196.847046,3.52606822" id="SKIN-DARKER" fill="#8C6345"/><path d="M190.584281,27.8863749 C191.999927,27.3718765 193.473618,27.4330539 194.719208,27.963937 C195.948228,28.4986745 196.933461,29.5086772 197.390016,30.841651 C199.119575,36.0320295 200.63197,41.2807885 201.902983,46.5628588 C202.243358,47.9216136 201.255557,49.8744938 200.218341,51.4379075 C199.158352,53.0086182 197.998898,54.2070149 197.998898,54.2070149 C197.68416,52.6111128 196.23933,52.3602481 194.71075,51.8053056 C193.176119,51.2470167 191.632607,50.3924722 190.91554,47.5773936 C189.800809,43.1309618 188.504134,38.6979721 187.042797,34.2984424 C186.610975,33.0402718 186.804607,31.7021043 187.447746,30.5405885 C188.075104,29.3840323 189.169139,28.4001784 190.584281,27.8863749" id="SKIN-DARKER" fill="#8C6345"/><path d="M189.98189,11.8144881 C192.716466,10.5738731 195.911372,11.7166765 197.036477,14.4000925 C200.791809,23.3581692 203.912504,32.5668235 206.367653,41.9122551 C207.073214,44.7205459 205.241291,47.5383619 202.287855,48.2029416 C199.365041,48.8632862 196.467861,47.2797251 195.811044,44.6629753 C193.495259,35.8526646 190.542049,27.1242469 186.975827,18.6202267 C185.91765,16.0959513 187.22873,13.0617366 189.98189,11.8144881" id="SKIN-DARKER" fill="#8C6345"/><path d="M241.791384,51.0300577 C242.970859,57.8881222 243.83778,64.8608808 244.242288,71.9745289 C244.546672,72.3777323 244.843894,72.8441856 245.138031,73.4654936 C245.432701,74.0824122 245.720836,74.7975366 246.003756,75.6075824 C246.53794,77.2369931 247.051487,79.2435951 247.461993,81.6146097 L247.628915,82.6154239 C248.356997,87.2117399 248.762866,93.0546334 248.409908,99.9730309 C248.007954,107.395221 246.806352,116.079362 243.768803,125.591801 C242.239482,130.339544 240.265279,135.28075 237.682164,140.263047 C235.110231,145.242344 231.883097,150.257149 227.983349,155.019322 C224.091573,159.781463 219.506974,164.275724 214.40027,168.173714 C209.299495,172.078144 203.693393,175.36827 197.936855,177.917773 C192.177552,180.476939 186.285874,182.30492 180.53154,183.531814 C174.768104,184.763225 169.175568,185.318739 163.821824,185.530159 C158.447587,185.763275 153.402245,185.454141 148.579834,185.010682 L145.5419,184.651211 C144.536737,184.529122 143.543042,184.399132 142.572772,184.244341 L138.276185,183.516553 L138.276185,183.516553 C137.189631,183.307958 136.129869,183.074825 135.074905,182.852617 C126.653066,181.044448 119.415863,178.650128 113.363594,176.252635 C109.092474,175.059501 105.336057,173.06775 102.237834,170.586759 C100.700195,169.331532 99.3082232,167.973282 98.0958292,166.520785 C96.9026647,165.042487 95.8772111,163.484121 95.0326279,161.870662 C94.6108873,161.063538 94.2335924,160.242609 93.9038025,159.411697 C93.5807772,158.569258 93.3055703,157.71494 93.0759494,156.854017 C92.6173062,155.132076 92.3474007,153.381472 92.2723332,151.625224 C92.1200225,148.110613 102.509612,121.762245 104.130365,121.616858 C113.090997,120.197634 139.993622,126.281679 146.510621,126.595359 L146.720251,126.60366 C152.860264,126.843351 158.638086,126.539548 163.493067,125.650669 C164.084828,125.520658 164.717064,125.452502 165.278877,125.303864 C165.844035,125.160846 166.413554,125.033743 166.980242,124.912008 C167.509903,124.746323 168.041939,124.595636 168.577169,124.457359 C169.103315,124.30822 169.578126,124.110016 170.086629,123.961827 C172.043337,123.276147 173.766716,122.496427 175.332129,121.61811 C178.441434,119.861196 181.065274,117.692858 183.545346,114.69428 C185.976287,111.683803 188.20715,107.94856 189.950866,103.86489 C191.74112,99.8193604 193.096714,95.5320965 194.175389,91.5845095 C196.335559,83.6722834 197.484903,77.118185 198.865229,74.6025216 C198.571344,69.376636 197.915278,64.0721984 197.00236,58.7653917 L241.791384,51.0300577 Z" id="Fill-13" fill="#CC2935"/><path d="M244.229279,71.7409197 L197.948587,74.4862036 C197.644538,69.3511035 197.004996,64.1393744 196.105447,58.9208558 L241.790228,51.0301178 C242.958927,57.8123985 243.811576,64.710542 244.229279,71.7409197" id="Fill-16" fill="#B52935"/><path d="M139.997498,207.6409 L11.6168259,227.974401 L1.44343075,163.742112 C-0.786578389,149.662388 8.79319247,136.444029 22.8408983,134.219091 L100.350787,121.94273 C114.398493,119.717792 127.594094,129.328887 129.824103,143.408611 L139.997498,207.6409 Z" id="Fill-18" fill="#D7DBE2"/><path d="M84.7956253,124.40661 C86.3688327,134.339451 83.5758096,147.696914 67.7138553,150.209201 C48.8590795,153.195504 39.3750191,143.677368 37.5090446,131.896069 L84.7956253,124.40661 Z" id="SKIN" fill="#B18058"/><path d="M109.207982,250.900026 C124.745912,248.801912 137.72428,245.516332 151.012856,238.587534 C152.239257,237.947413 153.209673,236.946238 152.87438,235.600208 L147.556202,214.248863 C133.241664,217.159972 118.633393,222.35007 103.184247,227.348628 C104.113864,235.147247 104.943042,242.35046 105.64672,248.602459 C105.84092,250.324463 107.494102,251.131502 109.207982,250.900026" id="Fill-22" fill="#CC2935"/><path d="M5.48086829,237.459624 L6.87722793,257.36325 C7.04097175,259.702622 8.77828098,261.645165 11.0883181,262.020371 C26.5728179,264.535873 48.0446286,263.68488 62.0349792,262.465333 C64.2506491,262.271847 65.9313739,260.405405 65.9170337,258.17584 C65.877386,251.855555 65.4681214,244.893951 64.7773794,237.530436 C49.8972384,239.295585 22.6577358,240.959844 5.48086829,237.459624" id="Fill-24" fill="#CC2935"/><path d="M14.553803,136.640552 C4.58382419,141.456409 -1.50280983,152.397038 0.322209581,163.919757 L5.48059752,237.459851 C22.657465,240.960072 49.8975662,239.295717 64.7776121,237.529969 C62.0523345,208.499827 55.1583773,150.352657 36.3746612,144.10264 C36.3746612,144.10264 21.7142958,132.894518 14.553803,136.640552" id="Fill-26" fill="#FA3239"/><path d="M103.184096,227.348836 C119.843318,225.593421 133.420251,222.213037 147.556051,214.249071 L129.907351,143.395733 C127.874325,130.559715 116.727285,121.443345 104.130365,121.616858 C103.518817,128.087623 98.0403146,130.955327 90.3406305,136.170521 C94.950627,162.747177 99.9703083,200.37515 103.184096,227.348836" id="Fill-28" fill="#FA3239"/><path d="M27.0816823,108.67418 C3.01566246,115.560885 3.98645079,136.787139 14.6486373,137.240475 C23.0728583,137.599316 29.8278392,146.374422 37.5709673,148.929693 C39.298309,149.499895 40.9793539,147.941519 40.5698489,146.16567 C40.4539538,145.662503 40.3385338,145.162335 40.2237789,144.666366 C38.9495602,139.166477 38.6523829,131.920824 44.2221863,131.082319 C54.2078463,129.577007 69.140819,127.200171 78.7230052,125.595786 C83.9208037,124.72518 88.9594798,128.788742 89.9119104,133.98474 C90.0684585,134.837556 90.2254249,135.700761 90.3813274,136.572745 C90.6953179,138.330512 92.7745546,139.111891 94.162663,137.993515 C100.044255,133.25447 103.700912,127.763273 104.225137,122.21716 C104.339105,121.015226 104.315887,119.811035 104.125935,118.611726 C101.921772,104.69519 51.5398462,101.67555 27.0816823,108.67418" id="Fill-30" fill="#CC2935"/><g id="Head" transform="translate(56.270269, 84.560049) rotate(-9.000000) translate(-56.270269, -84.560049) translate(17.770269, 21.060049) scale(0.6062992125984252 0.6018957345971564)"><g id="Head/Layered" stroke="none" stroke-width="1" fill="none" fill-rule="evenodd"><path d="M130,125.5 L130,108.367 C130,104.576 127.538,101.504 124.5,101.504 C121.462,101.504 119,98.431 119,94.641 L119,86.457 C119,72.397 101.84,61 90.715,61 L79,61 L79,173 L121.072,173 C133.182,173 143,160.162 143,144.324 L143,138.5 C143,134.91 140.775,132 138.029,132 L134.971,132 C132.225,132 130,129.09 130,125.5" id="Fill-1" fill="#000"/><path d="M57.801,173 L77,173 L77,61 L57.801,61 C29.744,61 7,83.744 7,111.801 L7,122.199 C7,150.256 29.744,173 57.801,173" id="Fill-4" fill="#000"/><g id="head" transform="translate(22.000000, 72.000000)"><g fill="#B18058" id="SKIN"><path d="M13,62 L58,62 L58,113.633 C58,127.538 47.926,138.81 35.5,138.81 C23.074,138.81 13,127.538 13,113.633 L13,62 Z"/><path d="M60.0525,94 L55.0655,94 C31.8335,94 13.0005,75.167 13.0005,51.935 L13.0005,32.203 C13.0005,14.418 27.4175,0 45.2035,0 L50.7965,0 C68.5825,0 83.0005,14.418 83.0005,32.203 L83.0005,71.052 C83.0005,83.726 72.7265,94 60.0525,94"/><path d="M25,58.5 C25,65.403 19.404,71 12.5,71 C5.596,71 0,65.403 0,58.5 C0,51.597 5.596,46 12.5,46 C19.404,46 25,51.597 25,58.5"/></g><path d="M10.067,53.1685 C10.9718309,53.1685 12.2239875,53.3771928 13.5088204,54.0196092 C15.6553998,55.0928989 17.0130325,57.055328 17.10411,59.9021045 L17.109,60.2105 L14.109,60.2105 C14.109,58.3751144 13.4076866,57.3231443 12.1671796,56.7028908 C11.7065142,56.4725581 11.1976823,56.3199085 10.686339,56.2346846 C10.4347302,56.1927498 10.2385731,56.1747448 10.1250097,56.169908 L10.067,56.1685 L10.067,53.1685 Z" id="ear-line" fill="#000"/><path d="M34.7507501,96.3317762 C25.4557924,93.0436693 20.8185822,84.7387742 18.9822222,73.5681961 C26.2532122,85.6702724 39.4406226,93.8133264 54.5439426,93.9968331 L55.0655,94 L58,94 C50.0632106,98.2298391 42.3134606,99.0070978 34.7507501,96.3317762 Z" id="SHADOW" fill="#000" opacity=".12"/></g><path d="M34.3390489,118 L32.8032704,118 C26.9501148,112.308 24.7014391,100.708 24.0235369,89.449 C23.0946709,74.02 49.8788072,61 65.3335778,61 L83.3159838,61 L104,87 L66.0314771,87 C59.2564544,105.085 46.3373181,118 34.3390489,118" id="Fill-15" fill="#000"/></g></g><g id="Expression" transform="translate(67.770269, 95.060049) rotate(-9.000000) translate(-67.770269, -95.060049) translate(49.770269, 77.060049)" fill="#000"><path d="M12.1341836,12.9836066 C12.1341836,12.0057049 11.3415934,11.2131148 10.3636918,11.2131148 C9.38579016,11.2131148 8.5932,12.0057049 8.5932,12.9836066 C8.5932,13.9615082 9.38579016,14.7540984 10.3636918,14.7540984 C11.3415934,14.7540984 12.1341836,13.9615082 12.1341836,12.9836066" id="Fill-1"/><path d="M27.4784459,12.9836066 C27.4784459,12.0057049 26.6858557,11.2131148 25.7079541,11.2131148 C24.7300525,11.2131148 23.9374623,12.0057049 23.9374623,12.9836066 C23.9374623,13.9615082 24.7300525,14.7540984 25.7079541,14.7540984 C26.6858557,14.7540984 27.4784459,13.9615082 27.4784459,12.9836066" id="Fill-3"/><polygon id="Stroke-5" points="19.5921342 11.4472717 21.3330199 11.1248463 23.8632911 24.7866492 18.035823 24.7866492 18.035823 23.0161574 21.7345574 23.0158033"/><path d="M12.9375148,24.5425574 C12.9375148,26.7109746 15.1459564,28.7163108 17.5169765,28.7941178 L17.6594164,28.796459 L17.6594164,30.5669508 C14.3558732,30.5669508 11.2698306,27.8722719 11.1695367,24.7014833 L11.167023,24.5425574 L12.9375148,24.5425574 Z" id="Stroke-7"/><path d="M13.6095934,5.31147541 L13.6095934,7.08196721 C11.705473,7.08196721 9.96869146,7.5927853 8.43294948,8.44597529 C7.97221124,8.70194098 7.55921616,8.97308544 7.19743979,9.24521091 L7.02083593,9.38128966 C6.81560969,9.54331038 6.67187894,9.66952992 6.5931679,9.74453825 L6.56342568,9.77350436 L5.31149892,8.5215776 C5.73473678,8.09833974 6.49879578,7.49513526 7.57312265,6.898287 C9.27949062,5.9503048 11.2068914,5.36402615 13.3202577,5.31483742 L13.6095934,5.31147541 Z" id="Stroke-9"/><path d="M21.8718885,5.31147541 C24.0989156,5.31147541 26.1244292,5.9072147 27.9083593,6.898287 C28.9155408,7.45783224 29.6500258,8.02296401 30.0866394,8.44015701 L30.1699831,8.5215776 L28.9180563,9.77350436 L28.8050065,9.66806329 C28.7389622,9.6091982 28.6520158,9.53504874 28.5448248,9.44849028 L28.460646,9.38128966 C28.0586046,9.06388855 27.5860604,8.74460193 27.0485325,8.44597529 C25.5895776,7.6354448 23.9491846,7.13390495 22.1562473,7.08577729 L21.8718885,7.08196721 L21.8718885,5.31147541 Z" id="Stroke-11"/></g><g id="Mouth-Accesory" transform="translate(65.270269, 104.560049) rotate(-9.000000) translate(-65.270269, -104.560049) translate(41.770269, 90.060049)" fill="#000" fill-opacity="0"/><g id="Accessories" transform="translate(64.270269, 92.060049) rotate(-9.000000) translate(-64.270269, -92.060049) translate(35.770269, 82.060049)" fill="#000" fill-opacity="0"/></g><g id="Small Elements" transform="translate(5.000000, 661.000000) scale(0.6296296296296297 0.6296296296296297)"><g id="Small Elements/Donut" stroke="none" stroke-width="1" fill="none" fill-rule="evenodd"><path d="M135,0 C209.558441,0 270,60.4415588 270,135 C270,209.558441 209.558441,270 135,270 C60.4415588,270 0,209.558441 0,135 C0,60.4415588 60.4415588,0 135,0 Z M135,64 C95.7877828,64 64,95.7877828 64,135 C64,174.212217 95.7877828,206 135,206 C174.212217,206 206,174.212217 206,135 C206,95.7877828 174.212217,64 135,64 Z" id="Combined-Shape" fill="#FFB748"/></g></g><g id="Small Elements" transform="translate(547.000000, 246.000000) scale(0.5333333333333333 0.5333333333333333)"><g id="Small Elements/Halfsies" stroke="none" stroke-width="1" fill="none" fill-rule="evenodd"><path d="M149,14 C192.015543,14 230.332189,34.1183725 255.053868,65.4590479 L209.18967,111.32319 C196.634012,91.3074515 174.371067,78 149,78 C109.787783,78 78,109.787783 78,149 C78,174.371067 91.3074515,196.634012 111.32319,209.18967 L65.4590479,255.053868 C34.1183725,230.332189 14,192.015543 14,149 C14,74.4415588 74.4415588,14 149,14 Z" id="Combined-Shape" fill="#BE6FFB"/></g></g><g id="Opened-Mail" transform="translate(82.000000, 59.000000)"><polygon id="Rectangle" fill="#BE6FFB" transform="translate(330.153927, 330.354985) rotate(-315.000000) translate(-330.153927, -330.354985)" points="182.291584 187.683742 566.174777 99.522956 443.771793 438.781752 94.133076 561.187014"/><g id="Paper" transform="translate(62.000000, 247.000000)"><rect id="Rectangle" fill="#E6D3FF" x="0" y="0" width="538" height="413"/><path d="M0,0 L538,0 L538,313 C538,368.228475 493.228475,413 438,413 L0,413 L0,413 L0,0 Z" id="Rectangle-Copy-38" fill="#FFF"/><g id="Writing" transform="translate(46.391248, 47.733668)" fill="#CCA4FF"><rect id="Rectangle-Copy-11" x="0" y="0" width="446.602" height="6.584"/><rect id="Rectangle-Copy-42" x="0" y="146.056" width="446.602" height="6.584"/><rect id="Rectangle-Copy-39" x="0" y="36.514" width="446.602" height="6.584"/><rect id="Rectangle-Copy-43" x="0" y="182.57" width="446.602" height="6.584"/><rect id="Rectangle-Copy-40" x="0" y="73.028" width="446.602" height="6.584"/><rect id="Rectangle-Copy-44" x="0" y="219.084" width="446.602" height="6.584"/><rect id="Rectangle-Copy-41" x="0" y="109.542" width="446.602" height="6.584"/><rect id="Rectangle-Copy-45" x="0" y="255.598" width="446.602" height="6.584"/><rect id="Rectangle-Copy-46" x="236.994" y="308.873" width="209.608" height="6.584"/></g></g><path d="M661,327.000362 L661,687 L0,687 L0,327.000362 L0.259,327 L0.0390897333,327.136447 L333.824548,487.613853 L660.268764,334.465207 L648.337,327 L661,327.000362 Z" id="Combined-Shape" fill="#E6D3FF"/><polygon id="Path-5" fill="#F4ECFF" points="0 687 334 487.613567 0 327"/></g><g transform="translate(715.000000, 853.500000) scale(-1, 1) rotate(-4.000000) translate(-715.000000, -853.500000) translate(263.000000, 424.000000) scale(1 1)" id="Master/Character/Standing"><g id="Master/Character/Standing" stroke="none" stroke-width="1" fill="none" fill-rule="evenodd"><g id="Legs" transform="translate(50.000000, 263.000000) scale(1 1)"><g id="Legs/Jeans Jump" stroke="none" stroke-width="1" fill="none" fill-rule="evenodd"><g id="Group-21" transform="translate(81.000000, 0.000000)"><path d="M140.5798,212.86 L183.6668,162.221 C185.9838,159.499 189.7058,158.86 192.1028,160.827 C199.3538,166.762 207.0388,172.581 214.7908,178.045 C222.5578,183.512 230.4598,188.646 238.3808,193.325 C246.3008,198.018 254.2538,202.19 262.0528,205.755 C269.8368,209.28 277.4888,212.149 284.5298,214.065 C290.2838,215.618 295.6388,216.557 300.0298,216.787 C304.4658,217.061 307.8118,216.635 310.1258,216.033 C311.2678,215.694 312.2288,215.364 313.0848,214.954 C313.9158,214.493 314.7238,214.023 315.5878,213.386 C317.2578,211.996 319.3768,209.99 321.6078,206.453 C321.8508,206.064 322.1988,205.756 322.6448,205.518 C322.7568,205.459 322.8738,205.403 322.9968,205.352 L323.3918,205.122 C323.6648,204.973 323.9608,204.842 324.2768,204.727 C325.5418,204.272 327.1388,204.081 328.9598,204.13 C330.7808,204.178 332.8268,204.465 334.9728,205.005 C337.1078,205.543 339.2868,206.322 341.5028,207.415 L380.7628,226.848 C382.9598,227.932 384.9068,229.383 386.4288,231.061 C387.9418,232.733 389.0758,234.659 389.7738,236.737 C390.4718,238.812 390.7328,241.038 390.5218,243.268 C390.3918,244.39 390.2518,245.481 389.7838,246.612 C389.3558,247.731 388.8028,248.831 388.1248,249.884 C381.9868,259.438 373.9108,268.649 364.0808,276.309 C359.1238,280.104 353.7388,283.444 348.0978,286.262 C342.4298,289.038 336.5118,291.184 330.5578,292.801 C318.6148,295.963 306.6638,296.758 295.4808,296.096 C284.2508,295.457 273.7018,293.419 263.6838,290.721 C251.4888,287.391 240.0948,283.008 229.2088,278.089 C218.3518,273.131 207.9798,267.642 198.0078,261.741 C188.0278,255.846 178.4058,249.581 169.0608,243.004 C159.7158,236.414 150.6568,229.558 141.7588,222.277 C138.7848,219.84 138.2558,215.581 140.5798,212.86" id="Fill-1" fill="#8c6345"/><path d="M263.2359,21.0275 C263.3419,21.9165 263.5079,22.6255 263.6479,23.4215 L264.0969,25.7505 L265.0399,30.3995 C265.3529,32.0045 265.7279,33.3635 266.0979,34.7725 L267.2299,38.9865 C267.9849,41.8975 268.8309,44.3225 269.6679,46.9035 L270.9419,50.7285 L272.2579,54.2555 L273.5899,57.7625 L274.2619,59.5135 L274.9369,61.1375 L277.6629,67.6135 L280.3939,73.6585 C281.3149,75.7235 282.2089,77.5425 283.1139,79.4455 C284.0149,81.3215 284.9319,83.2665 285.8069,85.0075 L288.4649,90.3645 L291.0489,95.4725 L296.0429,105.2895 L300.6899,114.5265 C306.7249,126.5725 311.5199,137.3685 314.9059,147.0835 C318.0889,156.6705 319.8869,164.9795 319.9519,171.5435 L320.0009,172.7895 C320.0279,173.2055 320.0619,173.6235 320.0059,174.0015 C319.9439,174.7775 319.9089,175.5535 319.8989,176.3305 L319.8959,176.9145 C319.8859,177.1065 319.8389,177.2835 319.8139,177.4695 L319.6589,178.5745 L319.5449,179.6845 L319.5029,180.2405 C319.4779,180.4245 319.4169,180.6005 319.3779,180.7795 C319.0069,182.2035 318.9099,183.6685 318.3619,185.0925 C318.1289,185.8095 318.0199,186.5375 317.7569,187.2705 C317.4469,187.9985 317.1619,188.7345 316.8999,189.4795 L316.5239,190.6025 L315.9539,191.7425 C315.5799,192.5075 315.2269,193.2795 314.8929,194.0635 C314.8019,194.2585 314.7469,194.4535 314.6289,194.6525 L314.2689,195.2485 L313.5699,196.4515 C313.1129,197.2525 312.6699,198.0825 312.2489,198.8865 C310.8029,201.2445 309.5569,202.6185 308.8309,203.2675 C308.7369,203.3385 308.6549,203.4205 308.5819,203.5125 C308.5099,203.6115 308.4259,203.5925 308.3659,203.6565 C308.2999,203.6925 308.2569,203.7935 308.1999,203.8115 C308.1419,203.8195 308.0969,203.8415 308.0599,203.8775 C308.0419,203.8955 308.0269,203.9205 308.0129,203.9425 C307.9889,203.9385 307.9689,203.9375 307.9509,203.9405 C307.9149,203.9455 307.8899,203.9675 307.8739,204.0045 C307.8469,204.0185 307.8039,203.9905 307.7839,204.0125 C307.7569,204.0175 307.7629,204.0805 307.7109,204.0515 C307.4689,204.0705 307.1319,204.3385 305.6769,204.4655 C303.0129,204.9005 296.2019,204.5165 287.7789,202.1195 C279.7919,199.9045 270.5149,196.1815 261.0309,191.4325 C251.5199,186.6905 241.7339,180.9065 232.0549,174.5245 L173.2599,264.2485 C186.0029,272.5355 199.2819,280.3385 213.5159,287.3445 C227.7579,294.3255 242.9089,300.5945 259.7539,305.1765 C268.6749,307.5905 278.1509,309.4575 288.2059,310.4635 C298.2329,311.4825 308.9969,311.5045 320.1659,309.9575 C331.2989,308.4825 342.9109,305.1005 353.7739,299.8795 C364.6749,294.6825 374.5719,287.4405 382.8209,279.4015 C391.0969,271.3365 397.7269,262.4795 403.0349,253.6135 L406.5689,247.2455 L408.3069,244.0505 C408.8909,242.9905 409.4639,241.9225 409.9639,240.7775 L413.0389,234.0125 L414.5399,230.6135 L415.8479,227.0705 L418.3899,219.9575 C419.1809,217.5615 419.7979,215.0745 420.4829,212.6285 C421.9349,207.7545 422.7819,202.6955 423.7079,197.6735 C423.8159,197.0445 423.9449,196.4175 424.0319,195.7865 L424.2549,193.8895 L424.6789,190.0895 L425.0749,186.2875 C425.1339,185.6545 425.2119,185.0205 425.2519,184.3875 L425.3289,182.4955 L425.5719,174.9225 C425.6299,173.6535 425.5849,172.4125 425.5389,171.1695 L425.4029,167.4385 C425.3089,162.4155 424.6829,157.6135 424.1639,152.7485 C423.8639,150.3385 423.4199,148.0165 423.0369,145.6495 L422.4289,142.1155 C422.2219,140.9425 421.9379,139.8275 421.6929,138.6815 L420.1389,131.8565 C419.5529,129.6435 418.9319,127.4615 418.3199,125.2665 L417.3909,121.9835 L416.3609,118.8155 L414.2719,112.5005 C408.4109,96.0505 401.3879,81.1465 394.4579,67.5085 C390.9879,60.6315 387.5559,54.1025 384.2989,47.7835 C380.9979,41.4285 377.9959,35.4475 375.2779,29.6855 L373.3169,25.4405 L371.5789,21.3835 L371.1429,20.3725 L370.7779,19.4165 L370.0399,17.5075 L369.3009,15.6095 L368.7169,13.8455 C367.0959,9.1335 262.7679,17.6195 263.2359,21.0275 Z" id="Fill-3" fill="#3E36B9"/><path d="M162.4607,238.2722 C165.6957,233.8382 177.3627,217.8522 188.2407,202.9472 C188.0417,202.8272 187.8377,202.7132 187.6477,202.5742 C182.6657,198.9252 183.1157,190.2032 188.5477,183.2352 C193.9797,176.2632 201.9957,173.4192 206.5527,176.7552 C206.7297,176.8852 206.8837,177.0362 207.0447,177.1802 C208.4697,175.2292 209.2907,174.1022 209.2907,174.1022 C205.0387,170.9912 200.8207,167.7972 196.7157,164.5402 C194.6627,162.9132 192.6307,161.2712 190.6597,159.6372 L187.7727,157.2122 L185.4327,155.1892 L108.3607,240.9462 L111.5247,243.7172 L114.2037,246.0012 C115.9637,247.4892 117.6877,248.9152 119.4157,250.3302 C123.5657,253.7112 131.0637,249.5932 139.1097,245.1922 C147.1767,240.7892 155.7627,236.0812 162.4607,238.2722" id="Fill-6" fill="#D7DBE2"/><path d="M173.1248,264.2819 L232.0688,174.3699 C240.0658,179.6119 248.1278,184.4359 256.0518,188.5979 L205.9338,283.7139 C194.4708,277.6809 183.6098,271.1509 173.1248,264.2819" id="Fill-8" fill="#D7DBE2"/><path d="M32.198,229.1139 L75.344,178.5259 C77.668,175.8069 81.401,175.1839 83.819,177.1729 C91.114,183.1689 98.831,189.0729 106.632,194.6469 C114.442,200.2369 122.399,205.5089 130.399,210.4079 C138.402,215.2799 146.463,219.7899 154.458,223.6919 C158.454,225.6599 162.434,227.4829 166.363,229.1139 C170.291,230.7539 174.185,232.2669 177.971,233.5159 C181.418,234.6649 184.811,235.7039 188.048,236.4779 C188.867,236.6939 189.677,236.8949 190.461,237.0499 L192.826,237.5629 C194.358,237.8309 195.901,238.1469 197.345,238.3229 C200.272,238.7429 203.028,238.9989 205.465,239.0019 C207.905,239.0139 210.16,238.9509 212.009,238.6319 C213.884,238.3409 215.487,237.9579 216.881,237.5099 C218.235,237.0039 219.417,236.4379 220.584,235.7809 C221.745,235.1299 222.849,234.1979 224.083,233.1529 C224.378,232.8499 224.685,232.5609 225.006,232.2839 C225.323,231.9929 225.618,231.5909 225.943,231.2669 L226.434,230.7659 C226.597,230.5909 226.749,230.3619 226.911,230.1669 C227.232,229.7599 227.563,229.3639 227.907,228.9769 C228.469,228.1469 229.44,227.6999 230.725,227.4489 C231.981,227.1179 233.57,227.0639 235.386,227.2419 C239.054,227.3849 243.603,228.3749 247.888,230.8069 L286.052,252.3169 C290.327,254.7289 293.301,258.5679 294.333,263.1139 C294.788,265.4059 294.762,267.8739 294.235,270.3469 C293.636,272.8029 292.46,275.2569 290.804,277.5029 L287.753,281.2459 C287.235,281.8649 286.742,282.4929 286.2,283.0999 L284.538,284.9089 C283.413,286.1039 282.339,287.3229 281.154,288.4819 L277.54,291.9169 C272.562,296.3699 267.167,300.5399 261.261,304.0159 C255.372,307.4949 249.127,310.3909 242.722,312.6299 C236.306,314.8069 229.783,316.3129 223.321,317.2619 C216.844,318.2449 210.483,318.4989 204.257,318.4329 C198.017,318.3699 191.97,317.8029 186.082,316.9619 C180.175,316.1399 174.468,314.9609 168.903,313.5769 C163.317,312.2179 157.927,310.5769 152.636,308.8089 C146.816,306.8739 141.191,304.6919 135.67,302.3859 C130.143,300.0859 124.761,297.6159 119.49,295.0219 C108.926,289.8579 98.818,284.1859 88.999,278.2079 C79.198,272.2079 69.689,265.8949 60.443,259.2799 C51.187,252.6629 42.196,245.7899 33.344,238.5159 C30.386,236.0869 29.87,231.8289 32.198,229.1139" id="SKIN" fill="#b18058"/><path d="M168.4647,3.7584 C167.4737,6.1194 167.0337,9.2364 167.2777,12.6514 C167.8877,20.2974 169.1047,27.2664 170.5787,33.6574 C172.0607,40.0544 173.8047,45.8974 175.6467,51.3474 C177.4927,56.7994 179.4437,61.8584 181.4217,66.5984 C183.3987,71.3464 185.4057,75.8564 187.4017,80.1344 C189.3967,84.4024 191.3857,88.4984 193.3427,92.4484 L199.0997,103.8674 C202.8477,111.2234 206.4167,118.1704 209.6817,124.7974 C216.2187,138.0304 221.5767,150.1534 225.0317,160.9514 C226.7397,166.3304 228.0387,171.3794 228.8127,175.9844 C229.0467,177.1554 229.1537,178.2524 229.3417,179.3774 C229.4377,180.4584 229.6217,181.5694 229.6727,182.6044 C229.8817,184.7274 229.9017,186.7154 229.9007,188.6584 C229.8957,190.5964 229.7237,192.4384 229.5547,194.2624 C229.2827,196.0614 229.0687,197.8494 228.6217,199.6044 C227.8727,203.1334 226.5977,206.6494 224.9637,210.3524 C224.5727,211.2764 224.0497,212.2084 223.6297,213.1524 C223.0897,214.0964 222.6347,215.0484 222.0717,216.0114 L221.2197,217.4634 L220.8077,218.1784 L220.4637,218.6724 C220.0097,219.3074 219.6117,220.1024 219.1757,220.5774 C217.5027,222.8874 216.1567,224.1254 215.2847,224.8344 C214.8027,225.0784 214.4897,225.4124 214.0997,225.5284 C213.7637,225.7564 213.3407,225.8404 212.8427,226.0414 C211.7757,226.3154 210.1187,226.7624 207.2807,226.7724 C206.9247,226.7684 206.5947,226.8014 206.2177,226.7974 C205.8227,226.7724 205.4287,226.7574 205.0337,226.7504 L204.4377,226.7424 L203.7817,226.6844 C203.3457,226.6484 202.9087,226.6194 202.4707,226.5994 C200.6017,226.3724 198.6367,226.1644 196.4317,225.7134 C192.0827,224.8994 187.1557,223.6004 181.9187,221.7844 C173.0147,218.7494 163.3357,214.4134 153.5647,209.2214 C143.7777,204.0264 133.8567,197.9724 124.0667,191.3714 L64.3707,280.4994 C76.9087,288.8404 89.9277,296.7214 103.7077,303.9374 C117.4967,311.1354 132.0307,317.7034 147.8577,323.0064 C157.1507,326.1254 166.9437,328.7634 177.3397,330.6314 C182.5057,331.5974 187.9117,332.2664 193.3897,332.7734 C198.9517,333.1684 204.5717,333.4464 210.4447,333.2074 C222.0727,332.9004 234.4547,330.9184 246.6037,326.8644 C258.7527,322.8024 270.5007,316.4074 280.5867,308.5404 C290.6327,300.6164 298.9697,291.3734 305.6557,281.8854 C307.4177,279.5124 308.8547,277.1164 310.3997,274.7114 L311.5357,272.9074 L312.5307,271.1944 L314.4907,267.7744 C315.7827,265.4814 316.9877,263.0924 318.2187,260.7444 C319.3697,258.3174 320.5667,255.9344 321.6417,253.4484 C325.9807,243.5604 329.5717,233.0704 331.8667,222.2004 C333.0887,216.7864 333.8847,211.2804 334.5337,205.7814 C335.0807,200.2784 335.4297,194.7614 335.4297,189.2994 C335.4267,183.8464 335.2197,178.4144 334.6947,173.1124 C334.4827,170.4344 334.1137,167.8334 333.7957,165.2014 C333.3967,162.6174 333.0357,160.0024 332.5457,157.4704 C330.7107,147.2464 328.0737,137.5504 325.0537,128.3094 C318.9537,109.8564 311.2407,93.3644 303.5987,78.0754 C295.9527,62.8214 288.2197,48.6694 282.0687,35.6944 C279.0227,29.2464 276.3387,23.0654 274.4647,17.6024 C272.5637,12.1494 271.4457,7.3534 271.1917,4.1534 C271.1737,3.4834 270.4857,2.9014 269.5307,2.5324 C268.5477,2.1424 169.4287,1.4324 168.4647,3.7584 Z" id="Fill-12" fill="#694FD9"/><path d="M53.905,254.528 C57.166,250.114 68.924,234.195 79.886,219.351 C79.686,219.231 79.482,219.118 79.292,218.977 C74.319,215.294 74.795,206.564 80.25,199.616 C85.707,192.663 93.76,189.874 98.342,193.265 C98.519,193.395 98.676,193.548 98.838,193.693 C100.273,191.75 101.101,190.628 101.101,190.628 C96.818,187.471 92.593,184.219 88.455,180.928 C86.393,179.281 84.35,177.622 82.366,175.971 L79.454,173.52 L77.072,171.458 L0,257.214 L3.123,259.952 L5.777,262.219 L10.939,266.522 C15.051,269.893 22.536,265.775 30.584,261.385 C38.648,256.999 47.237,252.323 53.905,254.528" id="Fill-15" fill="#D7DBE2"/><path d="M64.2371,280.5329 L124.0831,191.2179 C132.1691,196.6459 140.3421,201.6729 148.4551,206.1709 L96.3421,300.2079 C85.2101,294.0319 74.5481,287.4499 64.2371,280.5329" id="Fill-17" fill="#D7DBE2"/><path d="M271.157,99.3542 L261.157,99.3542 C206.481,99.3542 162.157,55.0302 162.157,0.3542 L370.157,0.3542 C370.157,55.0302 325.833,99.3542 271.157,99.3542" id="Fill-19" fill="#694FD9"/></g></g></g><g id="Body" transform="translate(17.000000, -31.000000) scale(1 1)"><g id="Body/Dress Wave 2" stroke="none" stroke-width="1" fill="none" fill-rule="evenodd"><g id="Right-Arm" transform="translate(402.000000, -22.000000)"><path d="M224.51019,16.2545499 L224.480977,16.1430408 C224.303308,15.4579152 224.123468,14.7733057 223.941468,14.0892288 C222.719468,9.54222878 225.509468,4.72522878 230.284468,3.30222878 C231.133039,3.04937164 231.989583,2.92923133 232.831594,2.9300037 L233.083739,2.93385099 C236.024438,3.02091671 238.758909,4.57931975 240.31775,7.10056491 L240.319402,7.09110066 C240.97573,4.05217878 242.715668,1.76567878 246.193668,0.771928782 C247.106328,0.549988782 247.960527,0.450236382 248.760723,0.460926798 L249.156342,0.4754212 C254.328336,0.787323135 257.172468,5.84077158 258.976512,12.242106 C260.122011,10.0688613 262.091847,8.36179958 264.636068,7.69772878 C265.373868,7.45876878 266.082087,7.34348878 266.762006,7.34321237 L267.266659,7.36443266 C278.0867,8.28553303 281.518209,39.0019883 283.055609,62.2831618 L283.119015,63.2481737 C286.126407,80.3759271 284.295986,100.92372 283.662368,115.309329 C280.525368,155.823329 267.990368,198.660329 239.979368,230.073329 C214.888808,259.711289 177.59927,273.010328 139.876528,273.461799 L138.1616,273.473484 C119.295016,273.50496 100.364698,270.337769 82.8413679,264.408329 C67.8623679,258.928329 51.2833679,255.616329 39.8253679,244.382329 C19.7422279,224.058109 38.3737723,189.69092 64.9806703,189.741797 L65.7976258,189.754157 C66.070753,189.761895 66.3446779,189.773269 66.6193679,189.788329 C79.0683679,190.511329 90.2953679,198.602329 102.105368,201.283329 C110.063368,203.711329 117.970368,205.527329 125.650368,206.573329 C131.151798,207.522379 136.383814,207.952194 141.352697,207.909589 L142.999255,207.877954 C192.104128,206.407849 214.965568,158.215729 217.865368,110.114329 C219.012512,101.827659 218.529429,93.0263387 218.071757,84.3944131 C215.962583,79.8500739 208.818999,80.7947903 208.814368,72.9670288 C209.961368,62.9770288 199.490368,44.6730288 213.663368,41.1410288 C212.677125,35.815686 211.54029,30.5071506 210.257668,25.2258288 C209.203668,20.8728288 212.132668,16.2998288 216.943668,14.9848288 C219.664473,14.239426 222.427434,14.7868757 224.51019,16.2545499 Z" id="SKIN" fill="#b18058"/><path d="M224.51019,16.2545499 L224.480977,16.1430408 C224.303308,15.4579152 224.123468,14.7733057 223.941468,14.0892288 C222.719468,9.54222878 225.509468,4.72522878 230.284468,3.30222878 C231.133039,3.04937164 231.989583,2.92923133 232.831594,2.9300037 L233.083739,2.93385099 C236.024438,3.02091671 238.758909,4.57931975 240.31775,7.10056491 L240.319402,7.09110066 C240.97573,4.05217878 242.715668,1.76567878 246.193668,0.771928782 C247.106328,0.549988782 247.960527,0.450236382 248.760723,0.460926798 L249.156342,0.4754212 C254.328336,0.787323135 257.172468,5.84077158 258.976512,12.242106 C260.122011,10.0688613 262.091847,8.36179958 264.636068,7.69772878 C265.373868,7.45876878 266.082087,7.34348878 266.762006,7.34321237 L267.266659,7.36443266 C278.0867,8.28553303 281.518209,39.0019883 283.055609,62.2831618 L283.119015,63.2481737 C286.126407,80.3759271 284.295986,100.92372 283.662368,115.309329 C280.525368,155.823329 267.990368,198.660329 239.979368,230.073329 C214.888808,259.711289 177.59927,273.010328 139.876528,273.461799 L138.1616,273.473484 C119.295016,273.50496 100.364698,270.337769 82.8413679,264.408329 C67.8623679,258.928329 51.2833679,255.616329 39.8253679,244.382329 C19.7422279,224.058109 38.3737723,189.69092 64.9806703,189.741797 L65.7976258,189.754157 C66.070753,189.761895 66.3446779,189.773269 66.6193679,189.788329 C79.0683679,190.511329 90.2953679,198.602329 102.105368,201.283329 C110.063368,203.711329 117.970368,205.527329 125.650368,206.573329 C131.151798,207.522379 136.383814,207.952194 141.352697,207.909589 L142.999255,207.877954 C192.104128,206.407849 214.965568,158.215729 217.865368,110.114329 C219.012512,101.827659 218.529429,93.0263387 218.071757,84.3944131 C215.962583,79.8500739 208.818999,80.7947903 208.814368,72.9670288 C209.961368,62.9770288 199.490368,44.6730288 213.663368,41.1410288 C212.677125,35.815686 211.54029,30.5071506 210.257668,25.2258288 C209.203668,20.8728288 212.132668,16.2998288 216.943668,14.9848288 C219.664473,14.239426 222.427434,14.7868757 224.51019,16.2545499 Z" id="SKIN-DARKER" fill="#8c6345"/><path d="M108.601532,196.490723 C97.6042315,215.109584 78.4180374,234.799763 51.0429499,255.561262 C33.1981871,253.293189 -3.18759516,218.271442 1,196.490723 C4.09799421,180.377289 1,171 29.5,171 C51.8669714,171 92.2224793,192.269074 108.601532,196.490723 Z" id="Fill-15" fill="#051026"/></g><path d="M302.822489,149 C326.721964,149 367.568864,149 425.363187,149 C445.113127,149.000026 462.212277,162.719457 466.492555,182 C466.492555,182 466.492555,182 466.492555,182 C476.890791,228.838927 500.816621,338.168516 521.749497,366.811901 C531.243089,379.802404 538.597849,400.799926 522.748321,406.632174 C460.811084,429.4236 312.676728,458.773848 256.659648,430.140691 C251.024855,427.260463 248.193038,420.92503 246.891445,410.369851 C238.836595,345.049638 258.397913,257.413168 270.056258,198.774308 C275.374645,172.024018 281.584779,149 302.822489,149 Z" id="body" fill="#0A1B45"/><path d="M334,149 C334,167.225397 354.594902,182 380,182 C405.405098,182 426,167.225397 426,149" id="SKIN" fill="#b18058"/><g id="Left-Arm" transform="translate(116.000000, 149.000000)"><path d="M158.927768,261.652024 L158.926768,261.652024 C147.950768,262.948024 136.348768,259.612024 126.141768,257.556024 C119.140768,255.148024 115.719768,248.243024 108.708768,244.775024 C95.0227683,236.016024 79.7397683,229.599024 64.2127683,221.065024 C42.6397683,209.756024 18.5417683,191.564024 8.10676827,167.268024 C-6.94023173,133.529024 -0.688231726,91.6230238 23.9317683,64.1570238 C52.7587683,32.0470238 95.6917683,20.4820238 136.178768,14.5450238 C154.833768,12.9350238 178.560768,5.92402379 193.229768,20.2770238 C206.565768,31.8240238 205.593768,55.0920238 193.539768,66.9450238 C187.903768,72.9510238 180.394768,76.8170238 172.023768,77.3160238 C153.948768,78.3930238 136.118768,80.6950238 119.724768,84.7550238 C98.9597683,90.5340238 72.1557683,98.6560238 66.7517683,121.155024 C61.8407683,142.300024 78.1857683,153.853024 95.7937683,163.111024 C111.236768,171.501024 128.526768,178.984024 144.554768,189.355024 C158.267768,198.619024 174.823768,210.599024 179.134768,227.722024 C183.632768,243.272024 175.406768,260.079024 158.927768,261.652024" id="SKIN" fill="#b18058"/><path d="M134.948268,277.355124 C122.768268,275.998124 128.590268,265.070124 123.440268,258.053124 C119.847268,249.374124 101.944268,246.472124 108.510268,234.087124 C117.567268,220.827124 133.043268,241.188124 138.721268,248.541124 C143.486268,256.430124 151.019268,278.642124 134.948268,277.355124" id="SKIN" fill="#b18058"/><path d="M148.860368,289.451824 C135.713368,286.061824 145.747368,267.756824 140.964368,258.499824 C139.679368,252.490824 147.936368,246.066824 153.684368,248.471824 C163.311368,254.645824 160.264368,272.769824 159.424368,282.722824 C158.725368,287.636824 153.649368,290.748824 148.860368,289.451824" id="SKIN" fill="#b18058"/><path d="M163.879968,295.383524 C159.115968,294.096524 156.230968,289.093524 157.125968,284.362524 C158.786968,274.970524 159.154968,265.234524 156.860968,255.994524 C154.777968,248.979524 162.123968,240.098524 169.391968,244.587524 C179.211968,249.487524 180.989968,300.915524 163.879968,295.383524" id="SKIN" fill="#b18058"/><path d="M190.887768,252.586624 C177.273768,252.024624 177.084768,231.155624 168.623768,223.197624 C160.782768,212.551624 149.693768,206.212624 148.713768,192.131624 C154.459768,195.607624 160.541768,190.166624 166.426768,194.967624 C177.358768,202.277624 210.012768,242.716624 190.887768,252.586624" id="SKIN" fill="#b18058"/><path d="M181.494168,290.004624 C166.783168,286.913624 182.038168,257.820624 164.188168,232.688624 C160.582168,225.359624 152.605168,221.065624 150.805168,213.163624 C149.214168,205.805624 157.193168,201.142624 163.464168,204.863624 C170.254168,209.169624 174.745168,216.221624 179.472168,223.175624 C188.220168,233.479624 203.726168,290.481624 181.494168,290.004624" id="SKIN" fill="#b18058"/><path d="M148.713768,87.9760238 C142.342566,58.7880159 128.333779,33.9150065 106.687405,13.3569956 C130.239405,7.83899557 146.802531,-4.54747351e-13 190.882136,-4.54747351e-13 C216.597651,-4.54747351e-13 222.965768,18.7940238 221.034768,44.3420238 C219.224768,67.2870238 201.773768,86.7990238 178.951768,87.9760238 C166.391102,88.5253571 156.311768,88.5253571 148.713768,87.9760238 Z" id="Fill-26" fill="#0A1B45"/></g></g></g><g id="Head" transform="translate(338.000000, -61.000000) scale(1 1)"><g id="Head/Bun Loose" stroke="none" stroke-width="1" fill="none" fill-rule="evenodd"><path d="M19.8942067,117.942717 C35.0689622,108.732328 32.9604258,72.1921982 63.8973061,72.0022431 C94.8341863,71.812288 88.7696095,95.6352289 103.744793,123.886685 C118.719976,152.13814 118.547703,186 80.3488761,186 C64.6689057,186 56.7643904,186 35.4814563,186 C-6.85909555,186 -5.51021065,133.362047 19.8942067,117.942717 Z" id="Path-2" fill="#000"/><g id="Head" transform="translate(22.000000, 72.000000)"><g id="head" transform="translate(0.000000, 0.000100)" fill="#b18058"><path d="M13,62 L58,62 L58,113.633 C58,127.538 47.926,138.81 35.5,138.81 C23.074,138.81 13,127.538 13,113.633 L13,62 Z" id="SKIN"/><path d="M60.0525,94 L55.0655,94 C31.8335,94 13.0005,75.167 13.0005,51.935 L13.0005,32.203 C13.0005,14.418 27.4175,0 45.2035,0 L50.7965,0 C68.5825,0 83.0005,14.418 83.0005,32.203 L83.0005,71.052 C83.0005,83.726 72.7265,94 60.0525,94" id="SKIN"/><path d="M25,58.5 C25,65.403 19.404,71 12.5,71 C5.596,71 0,65.403 0,58.5 C0,51.597 5.596,46 12.5,46 C19.404,46 25,51.597 25,58.5" id="SKIN"/></g><path d="M10.067,53.1685 C10.9718309,53.1685 12.2239875,53.3771928 13.5088204,54.0196092 C15.6553998,55.0928989 17.0130325,57.055328 17.10411,59.9021045 L17.109,60.2105 L14.109,60.2105 C14.109,58.3751144 13.4076866,57.3231443 12.1671796,56.7028908 C11.7065142,56.4725581 11.1976823,56.3199085 10.686339,56.2346846 C10.4347302,56.1927498 10.2385731,56.1747448 10.1250097,56.169908 L10.067,56.1685 L10.067,53.1685 Z" id="ear-line" fill="#000"/><path d="M34.7507501,96.3317762 C25.4557924,93.0436693 20.8185822,84.7387742 18.9822222,73.5681961 C26.2532122,85.6702724 39.4406226,93.8133264 54.5439426,93.9968331 L55.0655,94 L58,94 C50.0632106,98.2298391 42.3134606,99.0070978 34.7507501,96.3317762 Z" id="SHADOW" fill="#000" opacity=".12"/></g><path d="M98.9633414,86.1752648 C93.1795162,77.6229815 83.3848925,72 72.2749907,72 L66.6840596,72 C48.9088165,72 34.4987262,86.3949125 34.4987262,104.151433 C34.4987262,104.151433 34.0149918,114.587695 34,117.92634 C34,118.092075 39.4959832,117.92634 39.4959832,117.92634 L46.9918687,89.5897548 C82.9972896,89.5897548 101,89.5897548 101,89.5897548 C100.614109,88.789837 99.9352229,87.6516737 98.9633414,86.1752648 Z" id="Fill-10" fill="#000"/><circle id="Oval" fill="#000" cx="55" cy="53" r="25"/><path d="M72.8086245,72 C89.5888073,72 103.384617,84.7181817 104.999901,100.998998 L35.0000994,100.998998 C36.6152758,84.7181817 50.4101988,72 67.1903817,72 L72.8086245,72 Z" id="Combined-Shape" fill="#000"/></g></g><g id="Expression" transform="translate(385.000000, 34.000000) scale(1 1)" fill="#000"><g id="Expression/Happy" stroke="none" stroke-width="1" fill="none" fill-rule="evenodd"><path d="M20.5607,22 C20.5607,20.343 19.2177,19 17.5607,19 C15.9037,19 14.5607,20.343 14.5607,22 C14.5607,23.657 15.9037,25 17.5607,25 C19.2177,25 20.5607,23.657 20.5607,22" id="Fill-1" fill="#000"/><path d="M46.5607,22 C46.5607,20.343 45.2177,19 43.5607,19 C41.9037,19 40.5607,20.343 40.5607,22 C40.5607,23.657 41.9037,25 43.5607,25 C45.2177,25 46.5607,23.657 46.5607,22" id="Fill-3" fill="#000"/><polygon id="Stroke-5" fill="#000" points="33.1977829 19.396766 36.1476171 18.850434 40.4350211 41.9996 30.5607 41.9996 30.5607 38.9996 36.828 38.999"/><path d="M21.9219,41.586 C21.9219,45.2602625 25.6639817,48.6581933 29.6815435,48.7900329 L29.9229,48.794 L29.9229,51.794 C24.3252295,51.794 19.0961019,47.2280163 18.9261594,41.8552911 L18.9219,41.586 L21.9219,41.586 Z" id="Stroke-7" fill="#000"/><path d="M23.0607,9 L23.0607,12 C19.8342736,12 16.8913939,12.8655529 14.2891644,14.3112359 C13.508469,14.7449556 12.8086718,15.2043948 12.1956619,15.6654963 L11.8964164,15.8960741 C11.548672,16.1706093 11.3051282,16.3844813 11.1717567,16.5115787 L11.1213602,16.5606602 L9.00003983,14.4393398 C9.71719288,13.7221868 11.0118484,12.7000903 12.8322356,11.6887641 C15.7235813,10.0824609 18.9894549,9.08904431 22.5704367,9.00569674 L23.0607,9 Z" id="Stroke-9" fill="#000"/><path d="M37.0607,9 C40.8342736,9 44.2663939,10.0094471 47.2891644,11.6887641 C48.9957774,12.6368824 50.2403215,13.5944668 50.980139,14.3013772 L51.1213602,14.4393398 L49.0000398,16.5606602 L48.8084832,16.3819961 C48.6965748,16.2822525 48.549249,16.1566104 48.3676199,16.0099419 L48.2249836,15.8960741 C47.5437467,15.3582556 46.7430469,14.8172422 45.8322356,14.3112359 C43.3601176,12.937837 40.5805627,12.0880056 37.5425302,12.006456 L37.0607,12 L37.0607,9 Z" id="Stroke-11" fill="#000"/></g></g><g id="Accessories" transform="translate(372.000000, 56.000000) scale(1 1)" fill="#000"><g id="Accessories/None" stroke="none" stroke-width="1" fill="none" fill-rule="evenodd" fill-opacity="0"/></g><g id="Glasses" transform="translate(364.000000, 42.000000) scale(1 1)" fill="#000"><g id="Glasses/None" stroke="none" stroke-width="1" fill="none" fill-rule="evenodd" fill-opacity="0"/></g></g></g><g id="arm" transform="translate(34.419549, 249.590747)"><path d="M118.811506,160.176236 L118.810908,160.17633 C116.156302,160.968856 113.505218,161.187025 110.984913,161.24303 C109.716067,161.274254 108.499732,161.253496 107.34942,161.211826 C106.157038,161.19896 105.08223,161.134261 104.039051,161.102683 C101.979516,161.011293 100.205659,160.995812 98.7977609,160.827044 C97.3734164,160.659035 96.2646647,160.31804 95.1944475,159.449419 C92.8583351,157.542061 89.1283872,155.515983 84.4899909,153.68914 C79.8635464,151.837034 74.4606884,150.130654 68.6122086,148.260537 C61.958385,146.113302 54.6751226,143.800078 46.8680963,140.186665 C42.9765117,138.383604 38.9238945,136.168165 34.8978015,133.380262 C30.8753761,130.607767 26.8684595,127.088661 23.3452468,122.927754 C19.8206371,118.754154 16.8978945,113.875143 14.8209233,108.862175 C12.7171588,103.835001 11.5209047,98.7305114 10.8627479,93.866133 L10.6455624,92.0493687 C10.5724674,91.4484015 10.506612,90.8389075 10.4725179,90.1936329 C10.4027338,88.9162515 10.2824443,87.6642011 10.2894455,86.3647064 C10.25169,83.7864379 10.3647914,81.168901 10.6737095,78.5480249 C11.277997,73.3059587 12.64216,68.073306 14.6412107,63.2308703 C16.6345511,58.3794991 19.2317205,53.9275692 22.1410484,49.9821622 C25.0590128,46.0409224 28.2719763,42.5830931 31.597051,39.5115649 C38.2686634,33.3761793 45.3443399,28.7266073 52.4318233,24.8217804 C59.533435,20.932551 66.6944731,17.8020499 73.8605469,15.1178593 C81.028863,12.4400786 88.209084,10.2093656 95.4022901,8.28532812 C102.050538,6.50787398 108.606178,7.36500596 113.60722,10.0519985 C118.627957,12.7432515 122.087615,17.2389463 123.043186,22.6872134 C123.999204,28.1421748 122.376786,33.5030617 119.227822,37.8375909 C116.062041,42.1821636 111.368307,45.5147464 105.729588,47.0222211 C99.6100133,48.6587462 93.6171692,50.529811 87.8739996,52.6755985 C82.1356186,54.8206275 76.6466084,57.2539574 71.657151,59.9900836 C66.6763204,62.7186934 62.1985968,65.7802868 58.7191616,68.9968041 C56.9796767,70.6007209 55.4957422,72.2336579 54.3053707,73.8373193 C53.1243292,75.445653 52.2473967,77.0138156 51.6183363,78.5470241 C50.9893426,80.0845271 50.5969149,81.5931718 50.4055319,83.2089651 C50.3075553,84.0159937 50.2748897,84.8557284 50.2832124,85.7295614 C50.2613881,86.157371 50.3434778,86.6253027 50.3487034,87.0728132 C50.3487271,87.289906 50.380789,87.5388247 50.416889,87.7938689 L50.5052365,88.5492465 C50.7750421,90.5200377 51.1913952,92.1957862 51.7716248,93.5386921 C52.3556456,94.8939125 53.008848,96.0118541 53.9338563,97.118111 C54.8869873,98.2082287 56.0582159,99.3388337 57.7196418,100.47298 C59.3682129,101.607316 61.3636963,102.758663 63.7309165,103.847443 C68.4410538,106.049761 74.3036353,108.01666 80.7695072,110.077428 C86.4643258,111.910997 92.6501223,113.815019 99.2934578,116.457764 C102.613382,117.785563 106.055466,119.30742 109.593243,121.212644 C113.123961,123.11591 116.757269,125.399606 120.304321,128.262152 C123.53901,130.864825 126.145603,134.305599 127.682551,137.904102 C129.229115,141.509078 129.739201,145.18289 129.28624,148.343184 C129.080614,149.919413 128.605507,151.386417 128.022845,152.67796 C127.390976,153.980372 126.595801,155.127222 125.684034,156.107423 C123.837822,158.075721 121.446046,159.388733 118.811506,160.176236" id="SKIN" fill="#edb98a"/><path d="M105.950395,171.870711 C104.439007,171.90468 103.096489,171.474634 102.054449,170.919507 C101.541111,170.634269 101.122097,170.301496 100.829429,169.929647 C100.504647,169.587485 100.30467,169.212025 100.263835,168.79537 C100.024323,167.031342 99.6412194,165.592639 99.1357673,164.450681 C98.6247284,163.296693 98.0604312,162.356552 97.2280706,161.381992 C96.3721856,160.421613 95.2547353,159.398111 93.7092903,158.341536 C92.1519407,157.291152 90.2214938,156.22114 87.9932371,155.188457 C85.9694833,154.253764 84.9309345,151.237451 86.0146781,148.418209 C86.5566357,147.016877 87.5792202,145.930564 88.761253,145.358971 C89.9562259,144.776103 91.3318153,144.702142 92.5514964,145.259269 C95.189509,146.48105 97.6493509,147.821457 99.8419693,149.303203 C102.024954,150.793856 103.901656,152.438799 105.470869,154.226539 C107.022952,156.026218 108.232849,157.99756 109.170973,160.170617 C110.113125,162.338116 110.724085,164.750567 111.073104,167.329967 C111.139643,167.928282 111.054907,168.516732 110.842237,169.052874 C110.596466,169.604714 110.226259,170.103078 109.757771,170.515531 C108.836357,171.337973 107.450573,171.843437 105.950395,171.870711" id="SKIN" fill="#edb98a"/><path d="M115.427211,177.809254 C113.926774,177.676052 112.613039,177.001596 111.700472,176.078485 C111.240706,175.616251 110.845014,175.101433 110.594754,174.540211 C110.337596,173.981927 110.223693,173.375123 110.201068,172.767392 C110.232831,167.939497 109.422412,163.582013 107.760382,159.987945 C107.33196,159.065028 107.431222,157.987194 107.879515,156.858384 C108.366239,155.720412 109.165528,154.55692 110.406575,153.683853 C111.628506,152.821808 113.096202,152.457737 114.420532,152.765202 C115.770704,153.042129 117.000721,153.978307 117.64896,155.378707 C120.167112,160.821797 121.14261,166.853007 121.110529,172.771355 C121.132749,173.535361 120.938069,174.25869 120.639664,174.904352 C120.335777,175.550268 119.927187,176.11621 119.399091,176.5707 C118.333415,177.481797 116.927649,177.942455 115.427211,177.809254" id="SKIN" fill="#edb98a"/><path d="M124.980989,179.944044 C123.483743,179.784506 122.179906,179.002087 121.277292,177.924878 C120.820518,177.38468 120.491065,176.768965 120.240622,176.101991 C119.988887,175.434607 119.862764,174.719653 119.891033,173.972251 C119.992788,168.180013 119.287912,162.303972 117.036884,156.978475 C116.726195,156.306898 116.605678,155.588596 116.550176,154.889516 C116.492975,154.191321 116.568312,153.477669 116.757406,152.781054 C117.084489,151.42544 117.874416,150.10599 119.138666,149.286443 C120.401813,148.467686 121.937266,148.34934 123.452868,148.946313 C124.180038,149.256723 124.892295,149.744157 125.536527,150.383201 C126.179373,151.021235 126.682158,151.836433 127.09305,152.745521 C128.593675,156.312262 129.562805,159.998239 130.123625,163.604975 C130.685395,167.217711 130.854932,170.759729 130.797724,174.206664 C130.76714,175.086659 130.582476,175.919718 130.277252,176.661786 C129.970232,177.404138 129.497482,178.033748 128.966413,178.550824 C127.891543,179.582073 126.478738,180.102886 124.980989,179.944044" id="SKIN" fill="#edb98a"/><path d="M137.080282,151.708039 C135.657852,152.210697 134.054854,151.770862 132.609,150.785229 C131.856535,150.291863 131.137538,149.657281 130.490092,148.90497 C129.838959,148.152628 129.19058,147.30145 128.67487,146.327168 C126.585014,142.561624 123.899809,139.120387 120.961612,136.185392 C118.0195,133.241178 114.835417,130.795311 111.645584,128.747033 C110.823285,128.200152 110.101283,127.39938 109.443171,126.401527 C108.793697,125.446586 108.211933,124.34193 107.715832,123.305501 C107.225575,122.286598 106.817873,121.312429 106.530964,120.593421 C106.248758,119.884737 106.091696,119.435445 106.091696,119.435445 C107.122865,119.914188 107.991729,120.003511 108.807163,119.836843 C109.625247,119.675291 110.415509,119.322574 111.340412,119.056773 C112.268631,118.800287 113.299509,118.552757 114.672017,118.788631 C115.355668,118.901753 116.107253,119.095136 116.963457,119.457065 C117.828223,119.845928 118.776857,120.342049 119.845808,121.09033 C123.208452,123.431655 126.609955,126.239148 129.777051,129.584997 C132.943729,132.920457 135.845757,136.800906 138.181205,140.970355 C138.825782,142.173303 139.32163,143.397963 139.562289,144.572635 C139.799451,145.748476 139.854448,146.862763 139.74001,147.84091 C139.450203,149.803779 138.496726,151.206329 137.080282,151.708039" id="SKIN" fill="#edb98a"/><path d="M135.013099,175.047067 L135.0125,175.047161 C133.494925,174.991705 132.19904,174.224631 131.195134,173.038619 C130.2003,171.851786 129.589862,170.291033 129.449674,168.503279 C129.228891,165.509351 128.831681,162.459111 128.029812,159.399162 C127.249216,156.345684 126.140093,153.294424 124.655301,150.389379 C123.17678,147.485187 121.322667,144.743188 119.209086,142.299971 C117.097833,139.852081 114.741478,137.700698 112.291383,135.844604 C111.558659,135.297682 110.943776,134.67736 110.453697,133.984995 C109.957785,133.325535 109.583817,132.603095 109.342569,131.854714 C108.860283,130.38252 108.897618,128.832331 109.661436,127.52624 C110.425958,126.232338 111.796915,125.439556 113.467444,125.325646 C114.30308,125.27878 115.209996,125.395286 116.130502,125.675075 C117.056273,125.995851 117.995785,126.473121 118.881354,127.136671 C121.853104,129.388617 124.789661,132.057574 127.452483,135.144424 C130.116464,138.223096 132.485285,141.719979 134.361831,145.405531 C136.246853,149.090357 137.638725,152.935084 138.602669,156.712289 C139.589596,160.506763 140.071711,164.189925 140.332478,167.750089 C140.389658,168.800685 140.326062,169.840275 140.052716,170.72551 C139.78968,171.617722 139.398235,172.415881 138.90884,173.072112 C137.937557,174.393227 136.505582,175.087432 135.013099,175.047067" id="SKIN" fill="#edb98a"/><path d="M101.322959,115.320519 L84.0120029,157.430579 C79.6565294,155.623501 74.3440644,153.91449 68.4855039,152.046585 C68.2770241,152.128805 68.0385397,152.199788 67.7878557,152.263477 C67.5364782,152.326662 67.2737849,152.384258 66.9329922,152.413634 C66.2839008,152.483845 65.5431518,152.513838 64.7019187,152.498245 C63.047348,152.480476 60.9898621,152.278061 58.5790566,151.894215 C56.1423033,151.489878 53.3242401,150.890093 50.0596583,149.958201 C46.7966155,149.020531 43.0793393,147.756282 38.8849827,145.858495 C34.7044784,143.947443 30.0113793,141.434309 25.0804132,137.655655 C22.6267362,135.811813 20.1307046,133.580462 17.7173171,131.084485 C15.2949698,128.574552 13.0008596,125.688835 10.8993595,122.58196 C8.84036646,119.441293 7.00037716,116.067908 5.50639455,112.570225 C4.04913392,109.091326 2.8238766,105.477281 2.01304758,101.950118 C1.54832199,100.151035 1.26183785,98.4313469 0.942288896,96.6578555 C0.78202509,95.7699573 0.695595075,94.9337105 0.577345298,94.0631431 C0.474591593,93.1858163 0.348694509,92.3638155 0.280523504,91.4336561 C0.153511629,89.5780095 -0.0164823499,87.7531558 0.00254488457,85.8239485 C-0.00206460739,84.8689618 -0.00138204393,83.9125219 0.0127824285,82.9521017 C0.0598297626,81.9784782 0.116454126,81.003338 0.182560494,80.0260809 L0.289596407,78.5595628 L0.465970757,77.0814476 C0.59004284,76.0943946 0.719597026,75.1070884 0.867678282,74.1205378 C1.24283261,72.1503006 1.58523644,70.1631105 2.13168577,68.2167882 C3.1151316,64.291664 4.53584703,60.4891644 6.18786016,56.8763525 C6.61063783,55.9815952 7.04305913,55.0896156 7.48361344,54.2024978 C7.93993997,53.3374822 8.41367279,52.4893898 8.88992331,51.6378236 C9.36147059,50.7759323 9.86245314,49.9604242 10.3745997,49.1572931 C10.8870313,48.3559618 11.3937047,47.5260223 11.9296712,46.7609387 C14.0573272,43.6447464 16.353253,40.81617 18.7234244,38.1929308 C23.4829044,33.036287 28.5252597,28.7862519 33.5247623,25.2883893 C38.5340409,21.7631481 43.5237898,18.8855248 48.3916307,16.4546377 C58.1401577,11.5809891 67.4232827,8.36345918 75.9547777,5.95562563 C84.4867292,3.56616991 92.2759545,2.0465008 99.0519137,1.07538501 C108.120127,-1.15915452 116.970672,0.21395646 123.609634,4.03389775 C130.266581,7.84730041 134.744533,14.0808468 135.525933,21.420163 C136.327087,28.7563507 133.989065,35.7354938 129.705122,41.3377286 C125.40366,46.9378182 119.190717,51.1653846 111.830965,52.9792695 C104.883243,55.5932063 97.7643062,58.3929319 90.9783681,61.451108 C87.5962732,62.9849313 84.2912614,64.5754263 81.1799775,66.2268735 C78.0858716,67.886055 75.1460638,69.5896786 72.5612729,71.3188686 C69.9844818,73.0443316 67.6954872,74.7777174 65.9380551,76.3961618 C64.1238731,78.0088344 62.8902879,79.4791191 62.0193416,80.6318207 C61.6241197,81.2085613 61.2872516,81.7120992 61.0319678,82.153515 C60.8145933,82.6018417 60.5545006,82.9819037 60.4257129,83.3774543 C60.4021228,83.426086 60.376547,83.4738021 60.3490804,83.5212027 C60.3293668,83.5710653 60.3210925,83.6234212 60.3033647,83.6741994 C60.2715003,83.7751869 60.2301823,83.8745966 60.1790023,83.9737234 C60.1537603,84.0816571 60.1311977,84.1910114 60.0930057,84.2985361 C60.0509373,84.4048298 60.0074534,84.5138077 59.997917,84.639549 C59.9764662,84.7597973 59.9459419,84.8808677 59.9067527,85.0014655 C59.8730171,85.1255045 59.8783693,85.2716429 59.8498405,85.4053123 C59.7774956,85.6652324 59.7840012,85.9852343 59.7478089,86.2990837 C59.7411029,86.3807114 59.7219407,86.4495519 59.720128,86.5427046 L59.728353,86.8464441 C59.7310746,87.0495795 59.7283142,87.2529681 59.7208602,87.4577152 C59.7179382,87.6562094 59.741067,87.8099872 59.7407764,87.9902296 C59.7519721,88.1538925 59.7272548,88.3619888 59.7506493,88.4941994 C59.784973,88.7728951 59.7597645,89.1096051 59.7983813,89.3224303 C59.8103267,89.4404642 59.8045149,89.5742257 59.8107215,89.6870184 C59.8273124,89.7840214 59.8357135,89.8835515 59.8381005,89.9877242 C59.8310437,90.1020027 59.8443469,90.1859963 59.8564815,90.2664849 C59.8666019,90.3497526 59.8618914,90.4439794 59.8622163,90.5312585 C59.9045463,90.6629301 59.864095,90.8569133 59.9054748,90.9825853 C59.9038758,91.2940308 59.9975809,91.5602463 60.0724568,91.9167747 C60.3132278,92.5846654 60.7815355,93.5037248 61.7779239,94.5531659 C62.7464267,95.6008736 64.100323,96.7535922 65.6445912,97.8724688 C67.189021,98.9962399 68.9101223,100.092644 70.6069756,101.128928 C72.2975297,102.168055 73.9926336,103.146806 75.533078,104.063336 C76.3152053,104.534784 77.047936,104.977155 77.7289043,105.387134 C78.4071746,105.81107 79.062243,106.220231 79.6457394,106.607517 C80.2235638,106.993857 80.7598492,107.365866 81.2266719,107.713822 C81.6943782,108.063483 81.9758246,108.352853 82.2708862,108.646832 C88.0855898,110.516764 94.4398509,112.488814 101.322959,115.320519" id="jacket" fill="#FA3239"/><path d="M68.676521,152.106306 L82.7393914,107.839728 C88.5017154,109.69274 94.8110078,111.655922 101.669185,114.477431 L84.0123801,157.429474 C79.7054763,155.642378 74.4588445,153.95 68.676521,152.106306" id="jacket" fill="#B52935"/></g></g></svg>