<svg viewBox="29.086538461538453 105.70000000000005 793.2692307692307 911.6624999999999" xmlns="http://www.w3.org/2000/svg" xmlns:xlink="http://www.w3.org/1999/xlink" overflow="visible" width="793.2692307692307px" height="911.6624999999999px"><defs><rect id="mastercompswindow-path-1" x="0" y="0" width="828" height="849" rx="50"/></defs><g id="Master/Comps/Window" stroke="none" stroke-width="1" fill="none" fill-rule="evenodd"><g id="Screen" transform="translate(31.000000, 209.000000)"><rect fill="#E1EDF9" width="764" height="640" rx="50"/><path d="M660,141 C696.075997,141 730.968477,146.067236 764.004524,155.52879 L764,590 C764,617.614237 741.614237,640 714,640 L303.179197,640.005261 C290.098289,601.738515 283,560.698204 283,518 C283,309.788649 451.788649,141 660,141 Z" id="Combined-Shape" fill="#98C6F2"/></g><g id="Character"><mask id="mastercompswindow-mask-2" fill="#ffffff"><use xlink:href="#mastercompswindow-path-1" fill="#ffffff"/></mask><g id="Mask"/><g mask="url(#mastercompswindow-mask-2)"><g transform="translate(-6.000000, 178.000000) scale(1 1)" id="Master/Character/Standing"><g id="Master/Character/Standing" stroke="none" stroke-width="1" fill="none" fill-rule="evenodd"><g id="Legs" transform="translate(50.000000, 263.000000) scale(1 1)"><g id="Legs/Pants Stand Forward" stroke="none" stroke-width="1" fill="none" fill-rule="evenodd"><g id="Right-leg" transform="translate(345.827400, 6.000000)"><path d="M17.1726,538.794079 C16.7282355,482.562693 14.6318827,368.338742 14.1735382,314.254612 C14.073681,304.520186 21.9574059,296.547228 31.783353,296.447541 L75.5247949,295.999074 C85.3507421,295.901257 93.3962356,303.710729 93.4960928,313.444157 C94.1581459,366.840448 96.2255359,482.493338 96.8770986,538 C96.9125533,541.563807 17.2085486,542.359879 17.1726,538.794079 Z" id="SKIN-DARKER" fill="#22c024"/><path d="M5.53383916,1.34842064 C2.5315175,1.3793098 0.132657491,4.68046396 0.1726,8.72196148 C0.92894713,105.459828 3.29783387,438.016485 4.0012064,529 L111.1726,527.907919 C110.034615,440.845333 105.594576,95.5842655 104.371667,2.33488083 C104.697376,-0.404622091 71.7514338,-0.733442155 5.53383916,1.34842064 Z" id="Fill-3" fill="#051026"/><polygon id="Fill-5" fill="#FFF" points="97.1726 566.206898 17.4675919 567 17.1726 538.794079 96.8766047 538"/><path d="M52.8126594,553.452382 C54.170628,569.630627 19.7881481,569.981578 20.82217,553.783047 C18.3990887,553.808405 17,553.82362 17,553.82362 L17.3670727,590 L133,590 L132.880651,577.134492 C132.787379,567.798783 101.399314,565.830865 96.8770986,553.040416 C79.8381941,553.187933 65.1500477,553.325255 52.8126594,553.452382 Z" id="Fill-7" fill="#0A1B45"/></g><path d="M243,0 C243,55.228475 289.562386,100 347,100 C404.437614,100 451,55.228475 451,0" id="Waist" fill="#0A1B45"/><g id="Left-Leg" transform="translate(126.999300, 0.000000)"><path d="M13.3051835,561.440501 C11.1111953,546.184832 10.3220497,537.037999 10.9377469,534 C20.1472456,485.625024 25.5921475,459.483817 35.7421653,411.454867 L57.0516115,312.169384 C59.1423194,302.49757 68.6283827,296.334735 78.231262,298.397962 L120.98594,307.584544 C130.590817,309.64976 136.676234,319.144584 134.591517,328.795516 C120.348943,394.794928 106.123343,460.863942 92.6555495,526.806677 C89.8749278,540.410057 86.5002416,557.386193 83.9572458,570.940851" id="SKIN" fill="#8152ff"/><path d="M116.006418,0 C113.763854,3.4799207 112.459231,6.70044364 112.092549,9.66156882 C74.6759301,177.729367 34.9662125,354.281468 0.000699999971,523.074582 L105.209251,544 C139.099717,375.548093 177.579381,199.923839 213.937954,32.0675491 C215.254011,28.0708282 216.244054,20.0484537 211.194835,19.2203762 L116.006418,0 Z" id="Fill-14" fill="#0A1B45"/><path d="M83.3601048,579 L5.0007,565.282628 C6.56007619,556.358409 9.17706398,543 10.9377469,534 L89.0007,549.308775 C87.3371651,557.831154 84.8263391,570.583315 83.3601048,579" id="Fill-17" fill="#FFF"/><path d="M48.0722194,554.707883 C46.3286593,554.3746 44.5836836,554.041064 42.8507073,553.709842 C40.9286966,569.772161 7.239981,563.569099 11.507225,547.716275 C9.13297646,547.262368 7.76225565,547 7.76225565,547 C3.25455188,560.989671 1.0007,577.323004 1.0007,596 L116.379373,596 C116.688869,593.100316 116.895978,591.364496 117.0007,590.79254 C114.31929,579.591514 87.0769642,574.709272 85.8223045,561.925058 C80.9448767,560.993029 64.5719354,557.861817 48.0722194,554.707883 Z" id="Fill-19" fill="#0A1B45"/><path d="M167.0007,9.42973949 L165.045098,9 C127.197745,180.886821 87.3156843,360.037335 52.0007,532.611141 L53.9643125,533 C89.2843034,360.409244 129.149341,181.339493 167.0007,9.42973949" id="Fill-21" fill="#FFF"/></g></g></g><g id="Body" transform="translate(17.000000, -31.000000) scale(1 1)"><g id="Body/Sweats Stride" stroke="none" stroke-width="1" fill="none" fill-rule="evenodd"><g id="Right-Arm" transform="translate(411.000000, 149.000000)"><path d="M293.736566,51.5461992 C256.184566,76.8641992 207.362566,84.4831992 162.789566,77.8571992 C137.178566,73.9061992 112.969566,65.2561992 92.6405663,50.0981992 C82.8545663,43.8171992 77.4755663,33.5551992 67.7695663,27.8221992 C51.6225663,19.5501992 26.4775663,22.6201992 18.2825663,40.6101992 C4.21556631,75.8541992 58.7265663,108.346199 84.5075663,122.138199 C153.587566,155.025199 237.153566,154.091199 305.938566,120.672199 C321.839566,112.784199 336.681566,102.966199 350.044566,91.1601992 C359.288566,83.9871992 408.038566,32.6321992 373.327566,36.8751992 C374.200566,35.3131992 375.370566,33.1401992 376.112566,31.5411992 C380.761566,23.3771992 370.989566,14.4531992 363.483566,19.7081992 C364.441566,9.26319925 348.285566,6.73419925 345.532566,16.6831992 C344.098566,11.1611992 335.828566,8.08419925 331.142566,11.3151992 C327.257566,15.0491992 325.481566,20.6851992 321.855566,24.7811992 C311.015566,16.7861992 305.658566,32.6031992 297.483566,37.4301992 C291.259566,42.4521992 297.624566,48.7331992 293.736566,51.5461992" id="SKIN-DARKER" fill="#22c024"/><path d="M293.736566,51.5461992 C256.184566,76.8641992 207.362566,84.4831992 162.789566,77.8571992 C137.178566,73.9061992 112.969566,65.2561992 92.6405663,50.0981992 C82.8545663,43.8171992 77.4755663,33.5551992 67.7695663,27.8221992 C51.6225663,19.5501992 26.4775663,22.6201992 18.2825663,40.6101992 C4.21556631,75.8541992 58.7265663,108.346199 84.5075663,122.138199 C153.587566,155.025199 237.153566,154.091199 305.938566,120.672199 C321.839566,112.784199 336.681566,102.966199 350.044566,91.1601992 C359.288566,83.9871992 408.038566,32.6321992 373.327566,36.8751992 C374.200566,35.3131992 375.370566,33.1401992 376.112566,31.5411992 C380.761566,23.3771992 370.989566,14.4531992 363.483566,19.7081992 C364.441566,9.26319925 348.285566,6.73419925 345.532566,16.6831992 C344.098566,11.1611992 335.828566,8.08419925 331.142566,11.3151992 C327.257566,15.0491992 325.481566,20.6851992 321.855566,24.7811992 C311.015566,16.7861992 305.658566,32.6031992 297.483566,37.4301992 C291.259566,42.4521992 297.624566,48.7331992 293.736566,51.5461992" id="SKIN-DARKER" fill="#22c024"/><path d="M326.164166,116.314199 C315.609166,122.814199 304.653166,128.302199 293.452166,132.914199 C240.800166,177.013199 134.731166,168.210199 76.5631663,135.240199 C37.1461663,116.279199 -40.7398337,38.2271992 27.2141663,9.67919925 C30.0273181,4.169 42.2411718,4.54747351e-13 42.2411718,4.54747351e-13 C65.8449062,2.00504925 84.5691663,26.1041992 91.2491663,30.5581992 C107.762166,43.1441992 127.868166,52.0571992 148.327166,57.6141992 C186.568166,69.0961992 226.640166,65.1911992 264.964166,63.5351992 C272.607166,60.3861992 279.931166,56.7001992 286.753166,52.5031992 L326.164166,116.314199 Z" id="Fill-4" fill="#2DB386"/><path d="M293.258966,131.367499 L264.649966,62.0384992 C272.139966,58.9424992 279.288966,55.3284992 285.963966,51.2244992 L325.374966,115.035499 C315.014966,121.414499 304.248966,126.826499 293.258966,131.367499" id="Fill-6" fill="#25996F"/></g><g id="Body" transform="translate(238.000000, 149.000000)"><path d="M278.106708,192.298647 C205.538716,197.378937 1.44114734,174.139406 3.75109927,161.20524 C8.33256874,135.552114 16.2642525,95.4663653 27.5461506,40.9479927 C27.5461506,18.3333745 47.7038086,-0.000770909091 72.5687342,-0.000770909091 L211.895593,-0.000770909091 C236.760519,-0.000770909091 256.917117,18.3333745 256.917117,40.9479927 C266.870755,93.2351517 274.102974,132.007446 278.613775,157.264876 C280.224412,166.283349 280.055389,177.961273 278.106708,192.298647 Z" id="Sweat-Body" fill="#34D1A1"/><path d="M0.000317843866,195.189749 C100.650875,230.844295 209.77727,197.117022 284.463162,195.189749 L279.673255,156.30124 C206.510894,158.917513 101.819481,190.863022 3.67459294,157.11744 L0.000317843866,195.189749 Z" id="Bottom" fill="#2DB386"/></g><g id="Left-Arm" transform="translate(102.000000, 149.000000)"><path d="M105.82879,288.114759 C89.81579,247.864759 73.56779,201.499759 87.13379,158.920759 C102.25879,120.262759 144.58579,97.6857586 183.12179,82.5927586 C200.50979,76.0937586 211.01679,58.9337586 206.03479,40.4937586 C193.92679,1.65875861 150.42179,22.9777586 125.15679,36.0317586 C89.11279,54.2847586 55.14179,79.4857586 34.61279,115.776759 C13.32179,152.627759 12.72479,198.484759 21.13879,238.651759 C27.89779,271.689759 39.52279,302.880759 53.64179,333.177759 C60.07979,346.947759 67.03979,360.414759 74.52979,373.652759 C78.59179,381.363759 90.46579,379.348759 91.35379,370.832759 L94.15779,375.608759 C98.55979,383.564759 110.93279,380.167759 110.90679,371.409759 C119.57279,378.282759 130.40179,366.058759 123.19779,357.918759 C130.38779,360.778759 138.45479,351.802759 134.28779,345.195759 C131.47379,340.344759 128.72979,335.403759 126.06879,330.423759 C138.67679,322.469759 122.05479,307.199759 119.63579,297.213759 C115.51379,288.014759 108.01079,293.269759 105.82879,288.114759" id="SKIN" fill="#8152ff"/><path d="M36.17279,308.028659 C32.08479,297.833659 28.26479,287.432659 24.90279,276.741659 C1.06578997,244.645659 -3.98521003,194.839659 2.72778997,154.270659 C10.81279,106.975659 44.49479,66.7966586 84.26979,42.3006586 C108.30579,26.9176586 161.416241,-0.000770909091 202.342324,-0.000770909091 C243.268408,-0.000770909091 218.95779,10.5966586 223.71779,37.2566586 C228.24979,60.1466586 216.36479,84.2796586 194.00379,91.3816586 C161.21079,108.221659 123.09279,127.618659 104.46179,159.862659 C94.71279,177.420659 94.40479,200.722659 95.26479,220.381659 C95.98879,236.308659 97.34979,248.716659 96.38779,254.047659 C99.11979,262.760659 102.31079,271.454659 105.78579,280.117659 L36.17279,308.028659 Z" id="Fill-13" fill="#34D1A1"/><path d="M26.46359,276.686059 L97.92459,253.919059 C100.60959,262.474059 103.76559,271.038059 107.17959,279.559059 L37.56759,307.470059 C33.54359,297.429059 29.77759,287.210059 26.46359,276.686059" id="Fill-16" fill="#2DB386"/></g></g></g><g id="Head" transform="translate(338.000000, -61.000000) scale(1 1)"><g id="Head/Bun" stroke="none" stroke-width="1" fill="none" fill-rule="evenodd"><circle id="Oval" fill="#000" cx="29" cy="70" r="25"/><g id="Head" transform="translate(22.000000, 72.000000)"><g id="head" transform="translate(0.000000, 0.000100)" fill="#8152ff"><path d="M13,62 L58,62 L58,113.633 C58,127.538 47.926,138.81 35.5,138.81 C23.074,138.81 13,127.538 13,113.633 L13,62 Z" id="SKIN"/><path d="M60.0525,94 L55.0655,94 C31.8335,94 13.0005,75.167 13.0005,51.935 L13.0005,32.203 C13.0005,14.418 27.4175,0 45.2035,0 L50.7965,0 C68.5825,0 83.0005,14.418 83.0005,32.203 L83.0005,71.052 C83.0005,83.726 72.7265,94 60.0525,94" id="SKIN"/><path d="M25,58.5 C25,65.403 19.404,71 12.5,71 C5.596,71 0,65.403 0,58.5 C0,51.597 5.596,46 12.5,46 C19.404,46 25,51.597 25,58.5" id="SKIN"/></g><path d="M10.067,53.1685 C10.9718309,53.1685 12.2239875,53.3771928 13.5088204,54.0196092 C15.6553998,55.0928989 17.0130325,57.055328 17.10411,59.9021045 L17.109,60.2105 L14.109,60.2105 C14.109,58.3751144 13.4076866,57.3231443 12.1671796,56.7028908 C11.7065142,56.4725581 11.1976823,56.3199085 10.686339,56.2346846 C10.4347302,56.1927498 10.2385731,56.1747448 10.1250097,56.169908 L10.067,56.1685 L10.067,53.1685 Z" id="ear-line" fill="#000"/><path d="M34.7507501,96.3317762 C25.4557924,93.0436693 20.8185822,84.7387742 18.9822222,73.5681961 C26.2532122,85.6702724 39.4406226,93.8133264 54.5439426,93.9968331 L55.0655,94 L58,94 C50.0632106,98.2298391 42.3134606,99.0070978 34.7507501,96.3317762 Z" id="SHADOW" fill="#000" opacity=".12"/></g><path d="M72.8086245,72 C89.5888073,72 103.384617,84.7181817 104.999901,100.998998 L43.973,100.998 L39.4959832,117.92634 L37.6122668,117.973042 C36.103273,118.003782 34.2071707,118.024615 34.0157661,117.940922 L34,117.92634 L34.0133311,116.935282 C34.0935066,112.893789 34.4987262,104.151433 34.4987262,104.151433 C34.4987262,86.5724777 48.6220557,72.2882344 66.1518229,72.0043074 L66.6840596,72 L72.8086245,72 Z" id="Path" fill="#000"/></g></g><g id="Expression" transform="translate(385.000000, 34.000000) scale(1 1)" fill="#000"><defs><filter id="expressionwink-filter-1"><feColorMatrix in="SourceGraphic" values="0 0 0 0 0.000000 0 0 0 0 0.000000 0 0 0 0 0.000000 0 0 0 1.000000 0"/></filter></defs><g id="Expression/Wink" stroke="none" stroke-width="1" fill="none" fill-rule="evenodd"><g filter="url(#expressionwink-filter-1)" id="Group-17"><g transform="translate(9.000000, 3.000000)"><path d="M37.6862,19.0627 C37.6862,17.4057 36.3432,16.0627 34.6862,16.0627 C33.0292,16.0627 31.6862,17.4057 31.6862,19.0627 C31.6862,20.7197 33.0292,22.0627 34.6862,22.0627 C36.3432,22.0627 37.6862,20.7197 37.6862,19.0627" id="Fill-1" fill="#000"/><path d="M13.0473,38.6487 C13.0473,42.3229625 16.7893817,45.7208933 20.8069435,45.8527329 L21.0483,45.8567 L21.0483,48.8567 C15.4506295,48.8567 10.2215019,44.2907163 10.0515594,38.9179911 L10.0473,38.6487 L13.0473,38.6487 Z" id="Stroke-5" fill="#000" fill-rule="nonzero"/><path d="M2.57564697,9.21147847 C6.2616177,8.06796663 10.3535814,7.81561498 14.5680667,8.99954871 L15.0368326,9.13703524 L14.1597674,12.0059648 C10.4145271,10.8610011 6.75307649,11.056551 3.46455381,12.0767611 C2.87639473,12.2592278 2.35407493,12.4536573 1.90571976,12.6462124 L1.67798076,12.7466018 L1.40843093,12.875962 L0.000169065366,10.227038 C0.505632486,9.95831572 1.38329457,9.5813862 2.57564697,9.21147847 Z" id="Stroke-7" fill="#000" fill-rule="nonzero"/><path d="M27.4327673,1.61074391 C31.7294847,0.539609121 35.85137,0.927023851 39.5454285,2.22070874 C40.6627133,2.61198958 41.5287224,3.00892816 42.1054952,3.32415386 L42.3911858,3.48746626 L40.8460142,6.05893374 L40.6830708,5.96779273 C40.5848397,5.91521377 40.4526078,5.84736079 40.2880352,5.76752086 C39.7889686,5.52540617 39.2078998,5.28115198 38.5538553,5.05210108 C35.5067759,3.98499275 32.1271224,3.6348104 28.6169983,4.41363387 L28.1584327,4.52165609 L27.4327673,1.61074391 Z" id="Stroke-9" fill="#000" fill-rule="nonzero"/><path d="M2.29348496,21.505614 C4.78316311,15.2814186 15.5765131,15.2055138 17.1047395,21.5313094 L17.157071,21.7685258 L14.215329,22.3568742 C13.5401751,18.9811049 6.8011145,18.9218809 5.16179365,22.4285178 L5.07891504,22.619786 L2.29348496,21.505614 Z" id="Stroke-15" fill="#000" fill-rule="nonzero"/></g></g><polygon id="Stroke-5" fill="#000" fill-rule="nonzero" points="33.1977829 19.396766 36.1476171 18.850434 40.4350211 41.9996 30.5607 41.9996 30.5607 38.9996 36.828 38.999"/></g></g><g id="Accessories" transform="translate(372.000000, 56.000000) scale(1 1)" fill="#000"><g id="Accessories/None" stroke="none" stroke-width="1" fill="none" fill-rule="evenodd" fill-opacity="0"/></g><g id="Glasses" transform="translate(364.000000, 42.000000) scale(1 1)" fill="#000"><g id="Glasses/None" stroke="none" stroke-width="1" fill="none" fill-rule="evenodd" fill-opacity="0"/></g></g></g></g></g><g id="Controls" transform="translate(31.000000, 117.000000)"><circle id="Oval" fill="#B7CFF6" cx="20" cy="20" r="20"/><circle id="Oval" fill="#D7E6FF" cx="76" cy="20" r="20"/><circle id="Oval" fill="#D7E6FF" cx="132" cy="20" r="20"/></g><rect id="HANDLE" fill="#AFCDF4" x="182" y="1002" width="462" height="16" rx="8"/><g id="FAB" transform="translate(333.000000, 769.000000)"><circle id="Oval" fill="#FFF" cx="80" cy="80" r="80"/><circle id="Oval" fill="#7689ED" cx="80" cy="80" r="73"/><g id="icon" transform="translate(52.000000, 52.000000) scale(1 1)"><g id="icon/home" stroke="none" stroke-width="1" fill="none" fill-rule="evenodd"><path d="M28.5,5 C27.8564875,5 27.2397555,5.25889795 26.7872857,5.71875 L2.48934659,27.025904 C2.18160085,27.2541168 2,27.6156417 2,28 C2,28.6685552 2.53929337,29.2105263 3.20454545,29.2105263 L9.22727273,29.2105263 L9.22727273,48.5789474 C9.22727273,49.9153684 10.3065455,51 11.6363636,51 L21.2727273,51 C22.6025455,51 23.6818182,49.9153684 23.6818182,48.5789474 L23.6818182,34.0526316 L33.3181818,34.0526316 L33.3181818,48.5789474 C33.3181818,49.9153684 34.3974545,51 35.7272727,51 L45.3636364,51 C46.6934545,51 47.7727273,49.9153684 47.7727273,48.5789474 L47.7727273,29.2105263 L53.7954545,29.2105263 C54.4607066,29.2105263 55,28.6685552 55,28 C55,27.6156417 54.8183992,27.2541168 54.5106534,27.025904 L30.2268291,5.73293592 C30.2221437,5.72818771 30.2174387,5.72345903 30.2127143,5.71875 C29.7602445,5.25889795 29.1435125,5 28.5,5 Z" id="Path" fill="#FFF"/></g></g></g></g></svg>