<svg viewBox="29.086538461538453 26.424999999999955 793.2692307692307 1030.5749999999998" xmlns="http://www.w3.org/2000/svg" overflow="visible" xmlns:xlink="http://www.w3.org/1999/xlink" width="793.2692307692307px" height="1030.5749999999998px"><g id="Master/Comps/User Interface" stroke="none" stroke-width="1" fill="none" fill-rule="evenodd"><g id="UI" transform="translate(31.000000, 36.000000)"><g id="Cards" transform="translate(414.000000, 209.000000)"><g id="Group"><g id="Group-7"><path d="M26.638852,45 L80.361148,45 C89.2763354,45 92.5091978,45.9282561 95.768457,47.671327 C99.0277163,49.414398 101.585602,51.9722837 103.328673,55.231543 C105.071744,58.4908022 106,61.7236646 106,70.638852 L106,163.361148 C106,172.276335 105.071744,175.509198 103.328673,178.768457 C101.585602,182.027716 99.0277163,184.585602 95.768457,186.328673 C92.5091978,188.071744 89.2763354,189 80.361148,189 L26.638852,189 C17.7236646,189 14.4908022,188.071744 11.231543,186.328673 C7.97228371,184.585602 5.41439796,182.027716 3.67132704,178.768457 C1.92825611,175.509198 1,172.276335 1,163.361148 L1,70.638852 C1,61.7236646 1.92825611,58.4908022 3.67132704,55.231543 C5.41439796,51.9722837 7.97228371,49.414398 11.231543,47.671327 C14.4908022,45.9282561 17.7236646,45 26.638852,45 Z" id="Rectangle-2" fill="#BAEBFF"/><path d="M26.638852,544 L80.361148,544 C89.2763354,544 92.5091978,544.928256 95.768457,546.671327 C99.0277163,548.414398 101.585602,550.972284 103.328673,554.231543 C105.071744,557.490802 106,560.723665 106,569.638852 L106,707.361148 C106,716.276335 105.071744,719.509198 103.328673,722.768457 C101.585602,726.027716 99.0277163,728.585602 95.768457,730.328673 C92.5091978,732.071744 89.2763354,733 80.361148,733 L26.638852,733 C17.7236646,733 14.4908022,732.071744 11.231543,730.328673 C7.97228371,728.585602 5.41439796,726.027716 3.67132704,722.768457 C1.92825611,719.509198 1,716.276335 1,707.361148 L1,569.638852 C1,560.723665 1.92825611,557.490802 3.67132704,554.231543 C5.41439796,550.972284 7.97228371,548.414398 11.231543,546.671327 C14.4908022,544.928256 17.7236646,544 26.638852,544 Z" id="Rectangle-2-Copy-9" fill="#B8DBE9"/><path d="M270.638852,367 L324.361148,367 C333.276335,367 336.509198,367.928256 339.768457,369.671327 C343.027716,371.414398 345.585602,373.972284 347.328673,377.231543 C349.071744,380.490802 350,383.723665 350,392.638852 L350,485.361148 C350,494.276335 349.071744,497.509198 347.328673,500.768457 C345.585602,504.027716 343.027716,506.585602 339.768457,508.328673 C336.509198,510.071744 333.276335,511 324.361148,511 L270.638852,511 C261.723665,511 258.490802,510.071744 255.231543,508.328673 C251.972284,506.585602 249.414398,504.027716 247.671327,500.768457 C245.928256,497.509198 245,494.276335 245,485.361148 L245,392.638852 C245,383.723665 245.928256,380.490802 247.671327,377.231543 C249.414398,373.972284 251.972284,371.414398 255.231543,369.671327 C258.490802,367.928256 261.723665,367 270.638852,367 Z" id="Rectangle-2-Copy-8" fill="#B8DBE9"/><path d="M148.638852,45 L202.361148,45 C211.276335,45 214.509198,45.9282561 217.768457,47.671327 C221.027716,49.414398 223.585602,51.9722837 225.328673,55.231543 C227.071744,58.4908022 228,61.7236646 228,70.638852 L228,230.361148 C228,239.276335 227.071744,242.509198 225.328673,245.768457 C223.585602,249.027716 221.027716,251.585602 217.768457,253.328673 C214.509198,255.071744 211.276335,256 202.361148,256 L148.638852,256 C139.723665,256 136.490802,255.071744 133.231543,253.328673 C129.972284,251.585602 127.414398,249.027716 125.671327,245.768457 C123.928256,242.509198 123,239.276335 123,230.361148 L123,70.638852 C123,61.7236646 123.928256,58.4908022 125.671327,55.231543 C127.414398,51.9722837 129.972284,49.414398 133.231543,47.671327 C136.490802,45.9282561 139.723665,45 148.638852,45 Z" id="Rectangle-2-Copy" fill="#8AB8F1"/><path d="M270.638852,178 L324.361148,178 C333.276335,178 336.509198,178.928256 339.768457,180.671327 C343.027716,182.414398 345.585602,184.972284 347.328673,188.231543 C349.071744,191.490802 350,194.723665 350,203.638852 L350,318.361148 C350,327.276335 349.071744,330.509198 347.328673,333.768457 C345.585602,337.027716 343.027716,339.585602 339.768457,341.328673 C336.509198,343.071744 333.276335,344 324.361148,344 L270.638852,344 C261.723665,344 258.490802,343.071744 255.231543,341.328673 C251.972284,339.585602 249.414398,337.027716 247.671327,333.768457 C245.928256,330.509198 245,327.276335 245,318.361148 L245,203.638852 C245,194.723665 245.928256,191.490802 247.671327,188.231543 C249.414398,184.972284 251.972284,182.414398 255.231543,180.671327 C258.490802,178.928256 261.723665,178 270.638852,178 Z" id="Rectangle-2-Copy-4" fill="#B8DBE9"/><path d="M148.638852,278 L202.361148,278 C211.276335,278 214.509198,278.928256 217.768457,280.671327 C221.027716,282.414398 223.585602,284.972284 225.328673,288.231543 C227.071744,291.490802 228,294.723665 228,303.638852 L228,363.361148 C228,372.276335 227.071744,375.509198 225.328673,378.768457 C223.585602,382.027716 221.027716,384.585602 217.768457,386.328673 C214.509198,388.071744 211.276335,389 202.361148,389 L148.638852,389 C139.723665,389 136.490802,388.071744 133.231543,386.328673 C129.972284,384.585602 127.414398,382.027716 125.671327,378.768457 C123.928256,375.509198 123,372.276335 123,363.361148 L123,303.638852 C123,294.723665 123.928256,291.490802 125.671327,288.231543 C127.414398,284.972284 129.972284,282.414398 133.231543,280.671327 C136.490802,278.928256 139.723665,278 148.638852,278 Z" id="Rectangle-2-Copy-5" fill="#B8DBE9"/><path d="M270.638852,45 L324.361148,45 C333.276335,45 336.509198,45.9282561 339.768457,47.671327 C343.027716,49.414398 345.585602,51.9722837 347.328673,55.231543 C349.071744,58.4908022 350,61.7236646 350,70.638852 L350,130.361148 C350,139.276335 349.071744,142.509198 347.328673,145.768457 C345.585602,149.027716 343.027716,151.585602 339.768457,153.328673 C336.509198,155.071744 333.276335,156 324.361148,156 L270.638852,156 C261.723665,156 258.490802,155.071744 255.231543,153.328673 C251.972284,151.585602 249.414398,149.027716 247.671327,145.768457 C245.928256,142.509198 245,139.276335 245,130.361148 L245,70.638852 C245,61.7236646 245.928256,58.4908022 247.671327,55.231543 C249.414398,51.9722837 251.972284,49.414398 255.231543,47.671327 C258.490802,45.9282561 261.723665,45 270.638852,45 Z" id="Rectangle-2-Copy-2" fill="#B8DBE9"/><path d="M26.638852,345 L80.361148,345 C89.2763354,345 92.5091978,345.928256 95.768457,347.671327 C99.0277163,349.414398 101.585602,351.972284 103.328673,355.231543 C105.071744,358.490802 106,361.723665 106,370.638852 L106,496.361148 C106,505.276335 105.071744,508.509198 103.328673,511.768457 C101.585602,515.027716 99.0277163,517.585602 95.768457,519.328673 C92.5091978,521.071744 89.2763354,522 80.361148,522 L26.638852,522 C17.7236646,522 14.4908022,521.071744 11.231543,519.328673 C7.97228371,517.585602 5.41439796,515.027716 3.67132704,511.768457 C1.92825611,508.509198 1,505.276335 1,496.361148 L1,370.638852 C1,361.723665 1.92825611,358.490802 3.67132704,355.231543 C5.41439796,351.972284 7.97228371,349.414398 11.231543,347.671327 C14.4908022,345.928256 17.7236646,345 26.638852,345 Z" id="Rectangle-2-Copy-6" fill="#8AB8F1"/><path d="M26.638852,211 L80.361148,211 C89.2763354,211 92.5091978,211.928256 95.768457,213.671327 C99.0277163,215.414398 101.585602,217.972284 103.328673,221.231543 C105.071744,224.490802 106,227.723665 106,236.638852 L106,296.361148 C106,305.276335 105.071744,308.509198 103.328673,311.768457 C101.585602,315.027716 99.0277163,317.585602 95.768457,319.328673 C92.5091978,321.071744 89.2763354,322 80.361148,322 L26.638852,322 C17.7236646,322 14.4908022,321.071744 11.231543,319.328673 C7.97228371,317.585602 5.41439796,315.027716 3.67132704,311.768457 C1.92825611,308.509198 1,305.276335 1,296.361148 L1,236.638852 C1,227.723665 1.92825611,224.490802 3.67132704,221.231543 C5.41439796,217.972284 7.97228371,215.414398 11.231543,213.671327 C14.4908022,211.928256 17.7236646,211 26.638852,211 Z" id="Rectangle-2-Copy-3" fill="#B8DBE9"/><path d="M270.638852,666 L324.361148,666 C333.276335,666 336.509198,666.928256 339.768457,668.671327 C343.027716,670.414398 345.585602,672.972284 347.328673,676.231543 C349.071744,679.490802 350,682.723665 350,691.638852 L350,751.361148 C350,760.276335 349.071744,763.509198 347.328673,766.768457 C345.585602,770.027716 343.027716,772.585602 339.768457,774.328673 C336.509198,776.071744 333.276335,777 324.361148,777 L270.638852,777 C261.723665,777 258.490802,776.071744 255.231543,774.328673 C251.972284,772.585602 249.414398,770.027716 247.671327,766.768457 C245.928256,763.509198 245,760.276335 245,751.361148 L245,691.638852 C245,682.723665 245.928256,679.490802 247.671327,676.231543 C249.414398,672.972284 251.972284,670.414398 255.231543,668.671327 C258.490802,666.928256 261.723665,666 270.638852,666 Z" id="Rectangle-2-Copy-12" fill="#8AB8F1"/><path d="M6,0 L39,0 C42.3137085,-6.08718376e-16 45,2.6862915 45,6 C45,9.3137085 42.3137085,12 39,12 L6,12 C2.6862915,12 4.05812251e-16,9.3137085 0,6 C-4.05812251e-16,2.6862915 2.6862915,6.08718376e-16 6,0 Z" id="Rectangle" fill="#B8DBE9"/><path d="M73,0 L106,0 C109.313708,-6.08718376e-16 112,2.6862915 112,6 C112,9.3137085 109.313708,12 106,12 L73,12 C69.6862915,12 67,9.3137085 67,6 C67,2.6862915 69.6862915,6.08718376e-16 73,0 Z" id="Rectangle-Copy" fill="#B8DBE9" opacity=".3"/><path d="M139,0 L172,0 C175.313708,-6.08718376e-16 178,2.6862915 178,6 C178,9.3137085 175.313708,12 172,12 L139,12 C135.686292,12 133,9.3137085 133,6 C133,2.6862915 135.686292,6.08718376e-16 139,0 Z" id="Rectangle-Copy-2" fill="#B8DBE9" opacity=".3"/><path d="M206,0 L239,0 C242.313708,-6.08718376e-16 245,2.6862915 245,6 C245,9.3137085 242.313708,12 239,12 L206,12 C202.686292,12 200,9.3137085 200,6 C200,2.6862915 202.686292,6.08718376e-16 206,0 Z" id="Rectangle-Copy-3" fill="#B8DBE9" opacity=".3"/><path d="M272,0 L305,0 C308.313708,-6.08718376e-16 311,2.6862915 311,6 C311,9.3137085 308.313708,12 305,12 L272,12 C268.686292,12 266,9.3137085 266,6 C266,2.6862915 268.686292,6.08718376e-16 272,0 Z" id="Rectangle-Copy-4" fill="#B8DBE9" opacity=".3"/></g></g></g><g id="Profile"><g id="Group-6"><path d="M170,0 L181,0 C208.614237,-5.07265313e-15 231,22.3857625 231,50 L231,61 C231,88.6142375 208.614237,111 181,111 L170,111 C142.385763,111 120,88.6142375 120,61 L120,50 C120,22.3857625 142.385763,5.07265313e-15 170,0 Z" id="Rectangle" fill="#B8DBE9"/><path d="M171.5595,42.18 C169.903657,42.18 168.5625,43.5046 168.5625,45.14 L168.5625,46.62 L164.067,46.62 C162.411157,46.62 161.07,47.9446 161.07,49.58 L161.07,65.86 C161.07,67.4954 162.411157,68.82 164.067,68.82 L188.043,68.82 C189.698842,68.82 191.04,67.4954 191.04,65.86 L191.04,49.58 C191.04,47.9446 189.698842,46.62 188.043,46.62 L183.5475,46.62 L183.5475,45.14 C183.5475,43.5046 182.206342,42.18 180.5505,42.18 L171.5595,42.18 Z M176.61,49.95 C180.894378,49.95 184.38,53.186649 184.38,57.165 C184.38,61.143351 180.894378,64.38 176.61,64.38 C172.325622,64.38 168.84,61.143351 168.84,57.165 C168.84,53.186649 172.325622,49.95 176.61,49.95 Z M186.045,49.95 C186.96408,49.95 187.71,50.69592 187.71,51.615 C187.71,52.53408 186.96408,53.28 186.045,53.28 C185.12592,53.28 184.38,52.53408 184.38,51.615 C184.38,50.69592 185.12592,49.95 186.045,49.95 Z M176.61,52.17 C174.157856,52.17 172.17,54.1578557 172.17,56.61 C172.17,59.0621443 174.157856,61.05 176.61,61.05 C179.062144,61.05 181.05,59.0621443 181.05,56.61 C181.05,54.1578557 179.062144,52.17 176.61,52.17 Z" id="Shape" fill="#70A2DE" fill-rule="nonzero"/><path d="M92.5,144 L125.75,144 C128.787566,144 131.25,146.462434 131.25,149.5 C131.25,152.537566 128.787566,155 125.75,155 L92.5,155 C89.4624339,155 87,152.537566 87,149.5 C87,146.462434 89.4624339,144 92.5,144 Z" id="Rectangle" fill="#8AB8F1"/><path d="M158.875,144 L192.125,144 C195.162566,144 197.625,146.462434 197.625,149.5 C197.625,152.537566 195.162566,155 192.125,155 L158.875,155 C155.837434,155 153.375,152.537566 153.375,149.5 C153.375,146.462434 155.837434,144 158.875,144 Z" id="Rectangle-Copy" fill="#B8DBE9" opacity=".3"/><path d="M225.25,144 L258.5,144 C261.537566,144 264,146.462434 264,149.5 C264,152.537566 261.537566,155 258.5,155 L225.25,155 C222.212434,155 219.75,152.537566 219.75,149.5 C219.75,146.462434 222.212434,144 225.25,144 Z" id="Rectangle-Copy-2" fill="#B8DBE9" opacity=".3"/><path d="M321.310292,266 L343.451613,266 C346.515902,266 349,268.484098 349,271.548387 C349,274.612677 346.515902,277.096774 343.451613,277.096774 L321.310292,277.096774 C318.246002,277.096774 315.761905,274.612677 315.761905,271.548387 C315.761905,268.484098 318.246002,266 321.310292,266 Z" id="Rectangle" fill="#B8DBE9"/><path d="M310.230927,299.290323 L343.451613,299.290323 C346.515902,299.290323 349,301.77442 349,304.83871 C349,307.902999 346.515902,310.387097 343.451613,310.387097 L310.230927,310.387097 C307.166637,310.387097 304.68254,307.902999 304.68254,304.83871 C304.68254,301.77442 307.166637,299.290323 310.230927,299.290323 Z" id="Rectangle" fill="#B8DBE9"/><path d="M332.389657,332.580645 L343.451613,332.580645 C346.515902,332.580645 349,335.064743 349,338.129032 C349,341.193322 346.515902,343.677419 343.451613,343.677419 L332.389657,343.677419 C329.325367,343.677419 326.84127,341.193322 326.84127,338.129032 C326.84127,335.064743 329.325367,332.580645 332.389657,332.580645 Z" id="Rectangle" fill="#B8DBE9"/><path d="M343.460317,365.870968 C346.5198,365.870968 349,368.351168 349,371.41065 L349,371.428059 C349,374.487542 346.5198,376.967742 343.460317,376.967742 C340.400835,376.967742 337.920635,374.487542 337.920635,371.428059 L337.920635,371.41065 C337.920635,368.351168 340.400835,365.870968 343.460317,365.870968 Z" id="Rectangle" fill="#B8DBE9"/><path d="M321.310292,399.16129 L343.451613,399.16129 C346.515902,399.16129 349,401.645388 349,404.709677 C349,407.773967 346.515902,410.258065 343.451613,410.258065 L321.310292,410.258065 C318.246002,410.258065 315.761905,407.773967 315.761905,404.709677 C315.761905,401.645388 318.246002,399.16129 321.310292,399.16129 Z" id="Rectangle" fill="#B8DBE9"/><path d="M332.389657,432.451613 L343.451613,432.451613 C346.515902,432.451613 349,434.93571 349,438 C349,441.06429 346.515902,443.548387 343.451613,443.548387 L332.389657,443.548387 C329.325367,443.548387 326.84127,441.06429 326.84127,438 C326.84127,434.93571 329.325367,432.451613 332.389657,432.451613 Z" id="Rectangle" fill="#B8DBE9"/><path d="M343.460317,465.741935 C346.5198,465.741935 349,468.222136 349,471.281618 L349,471.299027 C349,474.358509 346.5198,476.83871 343.460317,476.83871 C340.400835,476.83871 337.920635,474.358509 337.920635,471.299027 L337.920635,471.281618 C337.920635,468.222136 340.400835,465.741935 343.460317,465.741935 Z" id="Rectangle" fill="#8AB8F1"/><path d="M5.5483871,598.903226 L193.880184,598.903226 C196.944474,598.903226 199.428571,601.387323 199.428571,604.451613 C199.428571,607.515902 196.944474,610 193.880184,610 L5.5483871,610 C2.48409752,610 3.75267243e-16,607.515902 0,604.451613 C-3.75267243e-16,601.387323 2.48409752,598.903226 5.5483871,598.903226 Z" id="Rectangle" fill="#B8DBE9"/><path d="M332.389657,499.032258 L343.451613,499.032258 C346.515902,499.032258 349,501.516356 349,504.580645 C349,507.644935 346.515902,510.129032 343.451613,510.129032 L332.389657,510.129032 C329.325367,510.129032 326.84127,507.644935 326.84127,504.580645 C326.84127,501.516356 329.325367,499.032258 332.389657,499.032258 Z" id="Rectangle" fill="#8AB8F1"/><path d="M321.310292,532.322581 L343.451613,532.322581 C346.515902,532.322581 349,534.806678 349,537.870968 C349,540.935257 346.515902,543.419355 343.451613,543.419355 L321.310292,543.419355 C318.246002,543.419355 315.761905,540.935257 315.761905,537.870968 C315.761905,534.806678 318.246002,532.322581 321.310292,532.322581 Z" id="Rectangle" fill="#B8DBE9"/><path d="M5.5483871,565.612903 L83.0865335,565.612903 C86.1508231,565.612903 88.6349206,568.097001 88.6349206,571.16129 C88.6349206,574.22558 86.1508231,576.709677 83.0865335,576.709677 L5.5483871,576.709677 C2.48409752,576.709677 3.75267243e-16,574.22558 0,571.16129 C-3.75267243e-16,568.097001 2.48409752,565.612903 5.5483871,565.612903 Z" id="Rectangle" fill="#BAEBFF"/><path d="M5.5483871,532.322581 L49.8484383,532.322581 C52.9127279,532.322581 55.3968254,534.806678 55.3968254,537.870968 C55.3968254,540.935257 52.9127279,543.419355 49.8484383,543.419355 L5.5483871,543.419355 C2.48409752,543.419355 3.75267243e-16,540.935257 0,537.870968 C-3.75267243e-16,534.806678 2.48409752,532.322581 5.5483871,532.322581 Z" id="Rectangle" fill="#8AB8F1"/><path d="M5.5483871,499.032258 L38.7690732,499.032258 C41.8333628,499.032258 44.3174603,501.516356 44.3174603,504.580645 C44.3174603,507.644935 41.8333628,510.129032 38.7690732,510.129032 L5.5483871,510.129032 C2.48409752,510.129032 3.75267243e-16,507.644935 0,504.580645 C-3.75267243e-16,501.516356 2.48409752,499.032258 5.5483871,499.032258 Z" id="Rectangle" fill="#B8DBE9"/><path d="M5.5483871,332.580645 L83.0865335,332.580645 C86.1508231,332.580645 88.6349206,335.064743 88.6349206,338.129032 C88.6349206,341.193322 86.1508231,343.677419 83.0865335,343.677419 L5.5483871,343.677419 C2.48409752,343.677419 3.75267243e-16,341.193322 0,338.129032 C-3.75267243e-16,335.064743 2.48409752,332.580645 5.5483871,332.580645 Z" id="Rectangle" fill="#B8DBE9"/><path d="M5.5483871,299.290323 L127.403994,299.290323 C130.468283,299.290323 132.952381,301.77442 132.952381,304.83871 C132.952381,307.902999 130.468283,310.387097 127.403994,310.387097 L5.5483871,310.387097 C2.48409752,310.387097 3.75267243e-16,307.902999 0,304.83871 C-3.75267243e-16,301.77442 2.48409752,299.290323 5.5483871,299.290323 Z" id="Rectangle" fill="#BAEBFF"/><path d="M5.5483871,266 L49.8484383,266 C52.9127279,266 55.3968254,268.484098 55.3968254,271.548387 C55.3968254,274.612677 52.9127279,277.096774 49.8484383,277.096774 L5.5483871,277.096774 C2.48409752,277.096774 3.75267243e-16,274.612677 0,271.548387 C-3.75267243e-16,268.484098 2.48409752,266 5.5483871,266 Z" id="Rectangle" fill="#B8DBE9"/><path d="M22,200 L327,200 C339.150264,200 349,209.849736 349,222 C349,234.150264 339.150264,244 327,244 L22,244 C9.8497355,244 1.48797825e-15,234.150264 0,222 C-1.48797825e-15,209.849736 9.8497355,200 22,200 Z" id="Rectangle-2" fill="#8AB8F1"/><rect id="Rectangle-2" fill="#B8DBE9" x="0" y="701" width="161" height="56" rx="28"/></g><g id="Group-3" transform="translate(0.000000, 266.000000)"/></g></g><g transform="translate(0.000000, 180.000000) scale(1 1)" id="Master/Character/Standing"><g id="Master/Character/Standing" stroke="none" stroke-width="1" fill="none" fill-rule="evenodd"><g id="Legs" transform="translate(50.000000, 263.000000) scale(1 1)"><g id="Legs/Pants Stride" stroke="none" stroke-width="1" fill="none" fill-rule="evenodd"><g id="Right-leg" transform="translate(340.912300, 0.000075)"><path d="M351.570952,557.400568 L292.421642,588.268621 C289.23919,589.928579 285.361168,588.667216 283.759463,585.45079 C246.439243,510.875624 199.230368,417.989682 161.287429,343.131708 C156.535206,333.763189 159.73662,322.39145 168.445702,317.732295 L207.213943,296.98589 C215.92103,292.326735 226.838569,296.144639 231.593785,305.518281 C251.975853,345.704643 292.982488,426.593799 313.314658,466.827296 C327.03044,493.982986 340.71828,521.075146 354.368197,548.438842 C356.005828,551.729043 354.753405,555.740609 351.570952,557.400568" id="SKIN-DARKER" fill="#22c024"/><path d="M86.3018681,0.553047184 L3.58722884,44.8848046 C0.925720594,46.310596 0.289077427,50.4516434 2.16502598,54.1345105 C47.1498124,143.092204 210.139458,465.665446 251.855077,548.999925 L347.0877,498.490422 C306.772296,419.027412 139.536031,92.5806506 95.7585677,7.05572162 C94.3243715,3.06432593 89.8698682,-1.62510275 86.3018681,0.553047184" id="Fill-3" fill="#051026"/><polygon id="Fill-5" fill="#FFF" points="351.0877 540.556344 280.284523 577.999925 267.0877 551.628227 337.798704 513.999925"/><path d="M343.719319,525.999925 C338.839171,528.596035 321.243031,537.953385 304.83617,546.680031 C313.20814,560.743411 282.702962,576.912582 276.474497,561.764307 C274.326992,562.907008 273.0877,563.566616 273.0877,563.566616 L289.211494,595.999925 L392.0877,542.206257 L386.757446,531.444014 C382.48344,522.799949 353.425603,535.562693 343.719319,525.999925" id="Fill-7" fill="#0A1B45"/></g><path d="M243,0 C243,55.228475 289.562386,100 347,100 C404.437614,100 451,55.228475 451,0" id="Path" fill="#0A1B45"/><g id="Left-Leg" transform="translate(15.000400, 0.000075)"><path d="M30.239127,557.161414 L6.48321118,491.091216 C5.21392545,487.532681 6.52914914,483.643194 9.42224179,482.410903 C17.7749608,479.121599 25.640338,474.891582 33.6914643,471.031892 C59.328839,457.46285 83.4372787,440.300156 104.929252,420.190817 C135.662744,390.774378 160.646002,356.076536 180.175626,316.548494 C182.322726,312.342953 185.979787,309.372897 190.199089,307.916068 C200.492187,302.022777 233.664385,326.382352 243.12361,329.170438 C247.552628,331.433896 250.627475,335.548984 251.969663,340.466445 C253.653389,376.004969 183.860649,458.895203 157.588132,483.422914 C141.92229,498.068881 124.074395,512.379639 106.514112,524.333293 C94.3745071,532.319777 81.4759276,540.045543 68.7441229,546.868906 C60.3704323,549.247293 34.5433138,569.214035 30.239127,557.161414" id="SKIN" fill="#8152ff"/><path d="M327.589239,-7.48875118e-05 L234.263966,2.49908329 C229.168425,2.66739829 228.517611,9.87191949 228.971481,14.5112349 C230.778964,179.189353 185.88582,369.76348 39.9996,452.672467 L91.3448955,552.999925 C227.004045,476.171584 302.743354,318.80132 323.872303,161.436382 C326.849451,141.283324 342.647926,1.01301097 327.589239,-7.48875118e-05" id="Fill-12" fill="#0A1B45"/><path d="M44.8850906,557.999925 L13.9996,479.217498 C21.9808145,475.635354 30.8073943,471.323017 38.4599114,466.999925 L74.9996,542.961589 C65.5638745,548.266517 54.7138457,553.5865 44.8850906,557.999925" id="Fill-14" fill="#FFF"/><path d="M62.9996,549.37113 C60.6360448,544.095785 52.1153883,525.069219 44.1695419,507.327972 C31.6000913,515.152677 16.6218644,483.646376 30.4343923,476.662236 C29.3943075,474.338445 28.7933695,472.999925 28.7933695,472.999925 C20.8193856,477.171895 8.37755891,482.485544 -0.00040000003,485.956334 L40.2423423,600.999925 L52.6550265,595.76714 C63.0086442,589.458645 52.9112793,557.402253 62.9996,549.37113" id="Fill-16" fill="#0A1B45"/><path d="M281.629623,1.99992511 L279.631892,2.05201959 C285.059729,189.839841 231.3627,406.728274 64.9996,501.133029 L65.9555146,502.999925 C233.003836,408.206056 287.085428,190.604248 281.629623,1.99992511" id="Fill-18" fill="#FFF"/></g></g></g><g id="Body" transform="translate(17.000000, -31.000000) scale(1 1)"><g id="Body/Dress Stride" stroke="none" stroke-width="1" fill="none" fill-rule="evenodd"><g id="Right-Arm" transform="translate(407.000000, 149.000000)"><path d="M340.660059,13.0003484 L340.919736,13.0057881 C342.306664,13.052311 343.722719,13.378182 345.040338,13.9433634 L345.286207,14.0521296 C348.244341,15.4207362 349.698938,17.4577383 350.040551,19.9308059 C350.051988,20.0136058 350.062178,20.0968945 350.071135,20.1806633 L350.196144,19.9311842 C350.547544,19.233194 350.892189,18.5317477 351.230007,17.8269296 C353.290791,13.7298707 358.256228,12.178948 362.578473,13.7527473 L362.837007,13.8509296 C366.451348,15.263073 368.593896,18.8448101 368.317656,22.4976077 C368.314174,22.5436514 368.310307,22.5897063 368.306055,22.6357684 C370.791217,21.0384704 373.933815,20.5815681 376.848707,21.7665296 C381.766707,23.8325296 383.332707,29.8035296 380.894707,34.5575296 C379.860372,36.2325626 378.804501,38.1391165 377.708883,40.169062 C380.306311,38.7749792 383.385582,38.4144949 386.111407,39.8114296 C399.127603,47.8860226 376.951048,73.6342309 356.999326,92.0248252 C352.800502,96.4733181 347.734365,100.730308 342.168256,104.738558 C338.245557,107.823055 335.0544,110.07202 333.133407,111.12243 C332.194504,111.75627 331.177208,112.258427 330.127323,112.616191 L330.127575,112.616047 L329.975002,112.707284 C310.407797,124.396406 288.278967,133.10075 275.668707,136.90793 C250.931307,144.36713 225.481467,148.13381 199.948827,148.27817 L198.672129,148.282369 C182.074233,148.297732 165.445787,146.78316 148.959707,143.75793 C115.935707,137.65093 82.857707,124.55793 55.567707,103.67893 C42.217707,92.4149296 25.849707,80.0649296 20.250707,62.6099296 C16.220707,48.9689296 22.084707,33.3769296 35.604707,27.7899296 C40.8116945,25.5962546 46.5585878,24.4624828 52.2899075,24.4586635 L52.8108782,24.461431 C60.7979639,24.5516564 68.722082,26.8415796 75.078707,31.5209296 C81.955707,38.0549296 87.674707,45.5709296 95.725707,51.3019296 C114.721707,65.6829296 137.218707,74.4009296 161.091707,78.8819296 C173.117227,81.0807496 185.510559,82.2250772 197.961081,82.2581067 L199.397916,82.2569828 C234.366214,82.1094697 269.691177,73.1842196 298.497707,54.2239296 C298.865387,53.9984458 299.228969,53.768295 299.58886,53.533973 C292.245921,42.2499137 310.562693,36.2854373 315.227107,27.7775296 C318.036336,24.7626754 322.843637,25.5848082 326.239312,27.9448238 L326.449085,28.0928187 C329.218436,24.3499848 331.730998,20.4477039 333.968207,16.3991296 C335.441023,14.0140275 337.980906,12.9781679 340.660059,13.0003484 Z" id="SKIN" fill="#8152ff"/><path d="M340.660059,13.0003484 L340.919736,13.0057881 C342.306664,13.052311 343.722719,13.378182 345.040338,13.9433634 L345.286207,14.0521296 C348.244341,15.4207362 349.698938,17.4577383 350.040551,19.9308059 C350.051988,20.0136058 350.062178,20.0968945 350.071135,20.1806633 L350.196144,19.9311842 C350.547544,19.233194 350.892189,18.5317477 351.230007,17.8269296 C353.290791,13.7298707 358.256228,12.178948 362.578473,13.7527473 L362.837007,13.8509296 C366.451348,15.263073 368.593896,18.8448101 368.317656,22.4976077 C368.314174,22.5436514 368.310307,22.5897063 368.306055,22.6357684 C370.791217,21.0384704 373.933815,20.5815681 376.848707,21.7665296 C381.766707,23.8325296 383.332707,29.8035296 380.894707,34.5575296 C379.860372,36.2325626 378.804501,38.1391165 377.708883,40.169062 C380.306311,38.7749792 383.385582,38.4144949 386.111407,39.8114296 C399.127603,47.8860226 376.951048,73.6342309 356.999326,92.0248252 C352.800502,96.4733181 347.734365,100.730308 342.168256,104.738558 C338.245557,107.823055 335.0544,110.07202 333.133407,111.12243 C332.194504,111.75627 331.177208,112.258427 330.127323,112.616191 L330.127575,112.616047 L329.975002,112.707284 C310.407797,124.396406 288.278967,133.10075 275.668707,136.90793 C250.931307,144.36713 225.481467,148.13381 199.948827,148.27817 L198.672129,148.282369 C182.074233,148.297732 165.445787,146.78316 148.959707,143.75793 C115.935707,137.65093 82.857707,124.55793 55.567707,103.67893 C42.217707,92.4149296 25.849707,80.0649296 20.250707,62.6099296 C16.220707,48.9689296 22.084707,33.3769296 35.604707,27.7899296 C40.8116945,25.5962546 46.5585878,24.4624828 52.2899075,24.4586635 L52.8108782,24.461431 C60.7979639,24.5516564 68.722082,26.8415796 75.078707,31.5209296 C81.955707,38.0549296 87.674707,45.5709296 95.725707,51.3019296 C114.721707,65.6829296 137.218707,74.4009296 161.091707,78.8819296 C173.117227,81.0807496 185.510559,82.2250772 197.961081,82.2581067 L199.397916,82.2569828 C234.366214,82.1094697 269.691177,73.1842196 298.497707,54.2239296 C298.865387,53.9984458 299.228969,53.768295 299.58886,53.533973 C292.245921,42.2499137 310.562693,36.2854373 315.227107,27.7775296 C318.036336,24.7626754 322.843637,25.5848082 326.239312,27.9448238 L326.449085,28.0928187 C329.218436,24.3499848 331.730998,20.4477039 333.968207,16.3991296 C335.441023,14.0140275 337.980906,12.9781679 340.660059,13.0003484 Z" id="SKIN-DARKER" fill="#22c024"/><path d="M37.1520028,90.5321007 C11.0901343,85.4671773 4.01135026,66.6664295 4.57126973,34.1489644 C5.16189047,20.4748209 -13.139233,-4.54747351e-13 24.5,-4.54747351e-13 C62.139233,-4.54747351e-13 78.0013803,38.7276399 100.564523,52.804514 L37.1520028,90.5321007 Z" id="Fill-14" fill="#051026"/></g><g id="Body" transform="translate(245.000000, 149.000000)"><rect id="SKIN" fill="#8152ff" x="45" y="101" width="180" height="48"/><path d="M63.5650629,0 C87.6608079,0 127.452193,0 182.939219,0 C212.905387,-4.15317684e-08 238.277035,22.109402 242.375415,51.7939852 C252.306238,123.722978 272.798035,179.037942 303.850803,217.73888 C314.270599,230.725028 322.342897,251.71551 304.947073,257.545803 C236.967179,280.329588 74.3806905,309.669997 12.8985299,281.046439 C6.71400051,278.167177 3.60590921,271.833868 2.17733074,261.282227 C-6.66335774,195.983912 14.8063811,108.376822 27.602126,49.7576216 C33.4393796,23.0162989 40.2553811,0 63.5650629,0 Z" id="body" fill="#0A1B45"/></g><path d="M334,149 C334,167.225397 354.594902,182 380,182 C405.405098,182 426,167.225397 426,149" id="SKIN" fill="#8152ff"/><g id="Left-Arm" transform="translate(114.000000, 149.000000)"><path d="M74.3438502,347.540423 C86.3638502,357.343423 97.0938502,355.709423 103.62885,353.103423 C110.40285,350.211423 108.62785,340.007423 101.39785,338.764423 C90.0398502,337.809423 80.4458502,338.449423 70.5808502,326.731423 C67.4648502,323.195423 65.4538502,322.029423 64.2718502,322.513423 C60.1978502,329.036423 67.9648502,341.754423 74.3438502,347.540423" id="SKIN" fill="#8152ff"/><path d="M74.3438502,347.540423 C86.3638502,357.343423 97.0938502,355.709423 103.62885,353.103423 C110.40285,350.211423 108.62785,340.007423 101.39785,338.764423 C90.0398502,337.809423 80.4458502,338.449423 70.5808502,326.731423 C67.4648502,323.195423 65.4538502,322.029423 64.2718502,322.513423 C60.1978502,329.036423 67.9648502,341.754423 74.3438502,347.540423" id="SHADOW" fill="#000" opacity=".12"/><path d="M65.4327502,315.775823 L65.4327502,315.775823 C38.8037502,326.810823 21.9167502,305.288823 16.3227502,281.046823 C11.7167502,267.188823 7.65175021,252.355823 4.84675021,237.858823 C-5.64124979,188.952823 -0.280249786,133.061823 32.5367502,93.3988231 C54.1337502,65.7928231 84.0177502,45.3078231 114.91175,30.1448231 C141.15875,17.4578231 179.86175,-3.08017689 193.42875,35.8868231 C197.88775,52.7928231 189.20375,70.9428231 173.02975,77.0238231 C127.94975,94.4168231 76.3267502,121.380823 67.4417502,172.408823 C63.9897502,193.749823 67.1697502,215.869823 72.1647502,236.881823 C78.3177502,265.613823 101.40775,296.470823 65.4327502,315.775823" id="SKIN" fill="#8152ff"/><path d="M147.804771,88.726236 L106.5,31.9670066 C128.404668,18.3076792 153.040482,2.27373675e-13 195.888944,2.27373675e-13 C207.780873,2.27373675e-13 210.239179,15.3674181 213.09775,35.8898231 C216.36075,53.2498231 206.51375,71.1108231 189.75275,76.5798231 C175.561417,81.0871564 161.578757,85.1359608 147.804771,88.726236 Z" id="Fill-23" fill="#0A1B45"/><path d="M82.6250502,270.835323 C73.3400502,261.646323 31.9530502,286.758323 21.0070502,294.480323 C30.3540502,321.843323 48.5280502,351.947323 71.0180502,366.534323 C80.5280502,373.780323 112.02205,385.826323 105.78405,366.609323 C98.7040502,361.083323 63.2780502,331.162323 76.6220502,316.126323 C83.8480502,306.560323 92.4900502,311.154323 99.5690502,316.425323 C106.05505,321.589323 117.97305,313.076323 113.05605,306.059323 C104.25405,295.360323 87.4460502,283.260323 82.6250502,270.835323" id="SKIN" fill="#8152ff"/></g></g></g><g id="Head" transform="translate(338.000000, -61.000000) scale(1 1)"><g id="Head/Long Wavy" stroke="none" stroke-width="1" fill="none" fill-rule="evenodd"><path d="M-14.5,234 L-6.5,234 C16.42,234 35,215.42 35,192.5 L35,143 L-15.226,143 C-37.745,143 -56,161.255 -56,183.774 L-56,192.5 C-56,215.42 -37.42,234 -14.5,234" id="Fill-19" fill="#000"/><path d="M51,132.5 C51,109.028 31.972,90 8.5,90 C-14.972,90 -34,109.028 -34,132.5 C-34,155.972 -14.972,175 8.5,175 C31.972,175 51,155.972 51,132.5" id="Fill-1" fill="#000"/><path d="M127,101.5 C127,78.028 107.972,59 84.5,59 C61.028,59 42,78.028 42,101.5 C42,124.972 61.028,144 84.5,144 C107.972,144 127,124.972 127,101.5" id="Fill-3" fill="#000"/><path d="M122,155 C122,138.432 108.569,125 92,125 C75.431,125 62,138.432 62,155 C62,171.568 75.431,185 92,185 C108.569,185 122,171.568 122,155" id="Fill-5" fill="#000"/><path d="M52.801,171 L72,171 L72,59 L52.801,59 C24.744,59 2,81.744 2,109.801 L2,120.199 C2,148.256 24.744,171 52.801,171" id="Fill-7" fill="#000"/><g id="head" transform="translate(22.000000, 72.000000)"><g fill="#8152ff" id="SKIN"><path d="M13,62 L58,62 L58,113.633 C58,127.538 47.926,138.81 35.5,138.81 C23.074,138.81 13,127.538 13,113.633 L13,62 Z"/><path d="M60.0525,94 L55.0655,94 C31.8335,94 13.0005,75.167 13.0005,51.935 L13.0005,32.203 C13.0005,14.418 27.4175,0 45.2035,0 L50.7965,0 C68.5825,0 83.0005,14.418 83.0005,32.203 L83.0005,71.052 C83.0005,83.726 72.7265,94 60.0525,94"/><path d="M25,58.5 C25,65.403 19.404,71 12.5,71 C5.596,71 0,65.403 0,58.5 C0,51.597 5.596,46 12.5,46 C19.404,46 25,51.597 25,58.5"/></g><path d="M10.067,53.1685 C10.9718309,53.1685 12.2239875,53.3771928 13.5088204,54.0196092 C15.6553998,55.0928989 17.0130325,57.055328 17.10411,59.9021045 L17.109,60.2105 L14.109,60.2105 C14.109,58.3751144 13.4076866,57.3231443 12.1671796,56.7028908 C11.7065142,56.4725581 11.1976823,56.3199085 10.686339,56.2346846 C10.4347302,56.1927498 10.2385731,56.1747448 10.1250097,56.169908 L10.067,56.1685 L10.067,53.1685 Z" id="ear-line" fill="#000"/><path d="M34.7507501,96.3316762 C25.4557924,93.0435693 20.8185822,84.7386742 18.9822222,73.5680961 C26.2532122,85.6701724 39.4406226,93.8132264 54.5439426,93.9967331 L55.0655,93.9999 L58,93.9999 C50.0632106,98.2297391 42.3134606,99.0069978 34.7507501,96.3316762 Z" id="SHADOW" fill="#000" opacity=".12"/></g><path d="M34.3395164,118 C25.3401171,118 19.7014935,96.618 19.0235388,85.952 C18.0946008,71.334 44.8808128,59 60.3367811,59 L86.3260463,59 L102,90.263 L60.0298015,90.263 C53.2572536,107.39 43.3389157,118 34.3395164,118" id="Fill-17" fill="#000"/></g></g><g id="Expression" transform="translate(385.000000, 34.000000) scale(1 1)" fill="#000"><g id="Expression/Happy" stroke="none" stroke-width="1" fill="none" fill-rule="evenodd"><path d="M20.5607,22 C20.5607,20.343 19.2177,19 17.5607,19 C15.9037,19 14.5607,20.343 14.5607,22 C14.5607,23.657 15.9037,25 17.5607,25 C19.2177,25 20.5607,23.657 20.5607,22" id="Fill-1" fill="#000"/><path d="M46.5607,22 C46.5607,20.343 45.2177,19 43.5607,19 C41.9037,19 40.5607,20.343 40.5607,22 C40.5607,23.657 41.9037,25 43.5607,25 C45.2177,25 46.5607,23.657 46.5607,22" id="Fill-3" fill="#000"/><polygon id="Stroke-5" fill="#000" points="33.1977829 19.396766 36.1476171 18.850434 40.4350211 41.9996 30.5607 41.9996 30.5607 38.9996 36.828 38.999"/><path d="M21.9219,41.586 C21.9219,45.2602625 25.6639817,48.6581933 29.6815435,48.7900329 L29.9229,48.794 L29.9229,51.794 C24.3252295,51.794 19.0961019,47.2280163 18.9261594,41.8552911 L18.9219,41.586 L21.9219,41.586 Z" id="Stroke-7" fill="#000"/><path d="M23.0607,9 L23.0607,12 C19.8342736,12 16.8913939,12.8655529 14.2891644,14.3112359 C13.508469,14.7449556 12.8086718,15.2043948 12.1956619,15.6654963 L11.8964164,15.8960741 C11.548672,16.1706093 11.3051282,16.3844813 11.1717567,16.5115787 L11.1213602,16.5606602 L9.00003983,14.4393398 C9.71719288,13.7221868 11.0118484,12.7000903 12.8322356,11.6887641 C15.7235813,10.0824609 18.9894549,9.08904431 22.5704367,9.00569674 L23.0607,9 Z" id="Stroke-9" fill="#000"/><path d="M37.0607,9 C40.8342736,9 44.2663939,10.0094471 47.2891644,11.6887641 C48.9957774,12.6368824 50.2403215,13.5944668 50.980139,14.3013772 L51.1213602,14.4393398 L49.0000398,16.5606602 L48.8084832,16.3819961 C48.6965748,16.2822525 48.549249,16.1566104 48.3676199,16.0099419 L48.2249836,15.8960741 C47.5437467,15.3582556 46.7430469,14.8172422 45.8322356,14.3112359 C43.3601176,12.937837 40.5805627,12.0880056 37.5425302,12.006456 L37.0607,12 L37.0607,9 Z" id="Stroke-11" fill="#000"/></g></g><g id="Accessories" transform="translate(372.000000, 56.000000) scale(1 1)" fill="#000"><g id="Accessories/None" stroke="none" stroke-width="1" fill="none" fill-rule="evenodd" fill-opacity="0"/></g><g id="Glasses" transform="translate(364.000000, 42.000000) scale(1 1)" fill="#000"><g id="Glasses/None" stroke="none" stroke-width="1" fill="none" fill-rule="evenodd" fill-opacity="0"/></g></g></g><g id="Foreground" transform="translate(31.000000, 401.870968)"><path d="M562.638852,254.129032 L616.361148,254.129032 C625.276335,254.129032 628.509198,255.057288 631.768457,256.800359 C635.027716,258.54343 637.585602,261.101316 639.328673,264.360575 C641.071744,267.619834 642,270.852697 642,279.767884 L642,372.49018 C642,381.405368 641.071744,384.63823 639.328673,387.897489 C637.585602,391.156749 635.027716,393.714634 631.768457,395.457705 C628.509198,397.200776 625.276335,398.129032 616.361148,398.129032 L562.638852,398.129032 C553.723665,398.129032 550.490802,397.200776 547.231543,395.457705 C543.972284,393.714634 541.414398,391.156749 539.671327,387.897489 C537.928256,384.63823 537,381.405368 537,372.49018 L537,279.767884 C537,270.852697 537.928256,267.619834 539.671327,264.360575 C541.414398,261.101316 543.972284,258.54343 547.231543,256.800359 C550.490802,255.057288 553.723665,254.129032 562.638852,254.129032 Z" id="Rectangle-2-Copy-7" fill="#B8DBE9" opacity=".906"/><path d="M562.638852,420.129032 L616.361148,420.129032 C625.276335,420.129032 628.509198,421.057288 631.768457,422.800359 C635.027716,424.54343 637.585602,427.101316 639.328673,430.360575 C641.071744,433.619834 642,436.852697 642,445.767884 L642,538.49018 C642,547.405368 641.071744,550.63823 639.328673,553.897489 C637.585602,557.156749 635.027716,559.714634 631.768457,561.457705 C628.509198,563.200776 625.276335,564.129032 616.361148,564.129032 L562.638852,564.129032 C553.723665,564.129032 550.490802,563.200776 547.231543,561.457705 C543.972284,559.714634 541.414398,557.156749 539.671327,553.897489 C537.928256,550.63823 537,547.405368 537,538.49018 L537,445.767884 C537,436.852697 537.928256,433.619834 539.671327,430.360575 C541.414398,427.101316 543.972284,424.54343 547.231543,422.800359 C550.490802,421.057288 553.723665,420.129032 562.638852,420.129032 Z" id="Rectangle-2-Copy-10" fill="#B8DBE9" opacity=".866"/><path d="M684.638852,376.129032 L738.361148,376.129032 C747.276335,376.129032 750.509198,377.057288 753.768457,378.800359 C757.027716,380.54343 759.585602,383.101316 761.328673,386.360575 C763.071744,389.619834 764,392.852697 764,401.767884 L764,461.49018 C764,470.405368 763.071744,473.63823 761.328673,476.897489 C759.585602,480.156749 757.027716,482.714634 753.768457,484.457705 C750.509198,486.200776 747.276335,487.129032 738.361148,487.129032 L684.638852,487.129032 C675.723665,487.129032 672.490802,486.200776 669.231543,484.457705 C665.972284,482.714634 663.414398,480.156749 661.671327,476.897489 C659.928256,473.63823 659,470.405368 659,461.49018 L659,401.767884 C659,392.852697 659.928256,389.619834 661.671327,386.360575 C663.414398,383.101316 665.972284,380.54343 669.231543,378.800359 C672.490802,377.057288 675.723665,376.129032 684.638852,376.129032 Z" id="Rectangle-2-Copy-11" fill="#BAEBFF"/><path d="M343.460317,233.032258 C346.5198,233.032258 349,235.512458 349,238.571941 L349,238.58935 C349,241.648832 346.5198,244.129032 343.460317,244.129032 C340.400835,244.129032 337.920635,241.648832 337.920635,238.58935 L337.920635,238.571941 C337.920635,235.512458 340.400835,233.032258 343.460317,233.032258 Z" id="Rectangle" fill="#B8DBE9"/><path d="M321.310292,199.741935 L343.451613,199.741935 C346.515902,199.741935 349,202.226033 349,205.290323 C349,208.354612 346.515902,210.83871 343.451613,210.83871 L321.310292,210.83871 C318.246002,210.83871 315.761905,208.354612 315.761905,205.290323 C315.761905,202.226033 318.246002,199.741935 321.310292,199.741935 Z" id="Rectangle" fill="#B8DBE9"/><path d="M5.5483871,99.8709677 L193.880184,99.8709677 C196.944474,99.8709677 199.428571,102.355065 199.428571,105.419355 C199.428571,108.483644 196.944474,110.967742 193.880184,110.967742 L5.5483871,110.967742 C2.48409752,110.967742 5.40387746e-13,108.483644 5.40012479e-13,105.419355 C5.39637212e-13,102.355065 2.48409752,99.8709677 5.5483871,99.8709677 Z" id="Rectangle" fill="#B8DBE9" opacity=".89"/><path d="M5.5483871,66.5806452 L72.0071685,66.5806452 C75.071458,66.5806452 77.5555556,69.0647427 77.5555556,72.1290323 C77.5555556,75.1933218 75.071458,77.6774194 72.0071685,77.6774194 L5.5483871,77.6774194 C2.48409752,77.6774194 -4.04634092e-13,75.1933218 -4.05009359e-13,72.1290323 C-4.05384627e-13,69.0647427 2.48409752,66.5806452 5.5483871,66.5806452 Z" id="Rectangle" fill="#B8DBE9"/><path d="M5.5483871,33.2903226 L38.7690732,33.2903226 C41.8333628,33.2903226 44.3174603,35.7744201 44.3174603,38.8387097 C44.3174603,41.9029993 41.8333628,44.3870968 38.7690732,44.3870968 L5.5483871,44.3870968 C2.48409752,44.3870968 1.32553747e-12,41.9029993 1.3251622e-12,38.8387097 C1.32478693e-12,35.7744201 2.48409752,33.2903226 5.5483871,33.2903226 Z" id="Rectangle" fill="#B8DBE9"/><path d="M5.5483871,3.99680289e-13 L160.642089,3.99680289e-13 C163.706379,3.73157243e-13 166.190476,2.48409752 166.190476,5.5483871 C166.190476,8.61267668 163.706379,11.0967742 160.642089,11.0967742 L5.5483871,11.0967742 C2.48409752,11.0967742 -1.39228849e-12,8.61267668 -1.39266376e-12,5.5483871 C-1.39303903e-12,2.48409752 2.48409752,4.0024319e-13 5.5483871,3.99680289e-13 Z" id="Rectangle" fill="#8AB8F1" opacity=".89"/><rect id="Rectangle-2" fill="#BAEBFF" opacity=".908" x="188" y="335.129" width="161" height="56" rx="28"/></g></g></svg>