<svg viewBox="-89.90384615384619 0 1031.25 1109.85" xmlns="http://www.w3.org/2000/svg" overflow="visible" xmlns:xlink="http://www.w3.org/1999/xlink" width="1031.25px" height="1109.85px"><g id="Master/Comps/Social" stroke="none" stroke-width="1" fill="none" fill-rule="evenodd"><g id="Background" transform="translate(412.500000, 562.000000) rotate(-30.000000) translate(-412.500000, -562.000000) translate(27.000000, 33.000000)"><g id="card" transform="translate(200.000000, 0.000000)"><path d="M38.458278,7.51458093e-15 L132.541722,5.18109702e-15 C145.914503,-3.01036657e-15 150.763797,1.39238417 155.652686,4.00699056 C160.541574,6.62159695 164.378403,10.4584256 166.993009,15.3473144 C169.607616,20.2362033 171,25.0854969 171,38.458278 L171,196.541722 C171,209.914503 169.607616,214.763797 166.993009,219.652686 C164.378403,224.541574 160.541574,228.378403 155.652686,230.993009 C150.763797,233.607616 145.914503,235 132.541722,235 L38.458278,235 C25.0854969,235 20.2362033,233.607616 15.3473144,230.993009 C10.4584256,228.378403 6.62159695,224.541574 4.00699056,219.652686 C1.39238417,214.763797 6.01853049e-16,209.914503 -1.03584031e-15,196.541722 L1.03584031e-15,38.458278 C-6.01853049e-16,25.0854969 1.39238417,20.2362033 4.00699056,15.3473144 C6.62159695,10.4584256 10.4584256,6.62159695 15.3473144,4.00699056 C20.2362033,1.39238417 25.0854969,-4.36618793e-15 38.458278,7.51458093e-15 Z" id="Rectangle-2" fill="#F1F1F1"/><path d="M79.7,98 C77.3795,98 75.5,99.8894444 75.5,102.222222 L75.5,104.333333 L69.2,104.333333 C66.8795,104.333333 65,106.222778 65,108.555556 L65,131.777778 C65,134.110556 66.8795,136 69.2,136 L102.8,136 C105.1205,136 107,134.110556 107,131.777778 L107,108.555556 C107,106.222778 105.1205,104.333333 102.8,104.333333 L96.5,104.333333 L96.5,102.222222 C96.5,99.8894444 94.6205,98 92.3,98 L79.7,98 Z M86,108.555556 C91.7897,108.555556 96.5,113.290778 96.5,119.111111 C96.5,124.931444 91.7897,129.666667 86,129.666667 C80.2103,129.666667 75.5,124.931444 75.5,119.111111 C75.5,113.290778 80.2103,108.555556 86,108.555556 Z M100.7,108.555556 C101.8592,108.555556 102.8,109.501333 102.8,110.666667 C102.8,111.832 101.8592,112.777778 100.7,112.777778 C99.5408,112.777778 98.6,111.832 98.6,110.666667 C98.6,109.501333 99.5408,108.555556 100.7,108.555556 Z M86,112.777778 C82.5206061,112.777778 79.7,115.613308 79.7,119.111111 C79.7,122.608915 82.5206061,125.444444 86,125.444444 C89.4793939,125.444444 92.3,122.608915 92.3,119.111111 C92.3,115.613308 89.4793939,112.777778 86,112.777778 Z" id="Shape" fill="#539FFA" fill-rule="nonzero"/><path d="M50.6932524,258 L122.306748,258 C123.675792,258 124.627299,258.232064 125.442114,258.667832 C126.256929,259.103599 126.896401,259.743071 127.332168,260.557886 C127.767936,261.372701 128,262.324208 128,263.693252 L128,264.306748 C128,265.675792 127.767936,266.627299 127.332168,267.442114 C126.896401,268.256929 126.256929,268.896401 125.442114,269.332168 C124.627299,269.767936 123.675792,270 122.306748,270 L50.6932524,270 C49.3242083,270 48.3727006,269.767936 47.5578857,269.332168 C46.7430709,268.896401 46.1035995,268.256929 45.6678318,267.442114 C45.232064,266.627299 45,265.675792 45,264.306748 L45,263.693252 C45,262.324208 45.232064,261.372701 45.6678318,260.557886 C46.1035995,259.743071 46.7430709,259.103599 47.5578857,258.667832 C48.3727006,258.232064 49.3242083,258 50.6932524,258 Z" id="Rectangle-Copy" fill="#BAF2FC"/></g><g id="card" transform="translate(600.000000, 242.000000)"><path d="M38.458278,7.51458093e-15 L132.541722,5.18109702e-15 C145.914503,-3.01036657e-15 150.763797,1.39238417 155.652686,4.00699056 C160.541574,6.62159695 164.378403,10.4584256 166.993009,15.3473144 C169.607616,20.2362033 171,25.0854969 171,38.458278 L171,196.541722 C171,209.914503 169.607616,214.763797 166.993009,219.652686 C164.378403,224.541574 160.541574,228.378403 155.652686,230.993009 C150.763797,233.607616 145.914503,235 132.541722,235 L38.458278,235 C25.0854969,235 20.2362033,233.607616 15.3473144,230.993009 C10.4584256,228.378403 6.62159695,224.541574 4.00699056,219.652686 C1.39238417,214.763797 6.01853049e-16,209.914503 -1.03584031e-15,196.541722 L1.03584031e-15,38.458278 C-6.01853049e-16,25.0854969 1.39238417,20.2362033 4.00699056,15.3473144 C6.62159695,10.4584256 10.4584256,6.62159695 15.3473144,4.00699056 C20.2362033,1.39238417 25.0854969,-4.36618793e-15 38.458278,7.51458093e-15 Z" id="Rectangle-2" fill="#F1F1F1"/><path d="M102.8,101 L69.2,101 C66.8795,101 65,102.845938 65,105.125 L65,129.875 C65,132.154063 66.8795,134 69.2,134 L102.8,134 C105.1205,134 107,132.154063 107,129.875 L107,105.125 C107,102.845938 105.1205,101 102.8,101 Z M81.8,109.25 C82.9592,109.25 83.9,110.174 83.9,111.3125 C83.9,112.451 82.9592,113.375 81.8,113.375 C80.6408,113.375 79.7,112.451 79.7,111.3125 C79.7,110.174 80.6408,109.25 81.8,109.25 Z M100.7,127.8125 L71.3,127.8125 L78.6479,118.533313 L83.9,124.739375 L91.25,115.439562 L100.7,127.8125 Z" id="Shape" fill="#539FFA" fill-rule="nonzero"/><path d="M50.6932524,258 L122.306748,258 C123.675792,258 124.627299,258.232064 125.442114,258.667832 C126.256929,259.103599 126.896401,259.743071 127.332168,260.557886 C127.767936,261.372701 128,262.324208 128,263.693252 L128,264.306748 C128,265.675792 127.767936,266.627299 127.332168,267.442114 C126.896401,268.256929 126.256929,268.896401 125.442114,269.332168 C124.627299,269.767936 123.675792,270 122.306748,270 L50.6932524,270 C49.3242083,270 48.3727006,269.767936 47.5578857,269.332168 C46.7430709,268.896401 46.1035995,268.256929 45.6678318,267.442114 C45.232064,266.627299 45,265.675792 45,264.306748 L45,263.693252 C45,262.324208 45.232064,261.372701 45.6678318,260.557886 C46.1035995,259.743071 46.7430709,259.103599 47.5578857,258.667832 C48.3727006,258.232064 49.3242083,258 50.6932524,258 Z" id="Rectangle-Copy" fill="#BAF2FC"/></g><g id="card" transform="translate(600.000000, 542.000000)"><path d="M38.458278,7.51458093e-15 L132.541722,5.18109702e-15 C145.914503,-3.01036657e-15 150.763797,1.39238417 155.652686,4.00699056 C160.541574,6.62159695 164.378403,10.4584256 166.993009,15.3473144 C169.607616,20.2362033 171,25.0854969 171,38.458278 L171,196.541722 C171,209.914503 169.607616,214.763797 166.993009,219.652686 C164.378403,224.541574 160.541574,228.378403 155.652686,230.993009 C150.763797,233.607616 145.914503,235 132.541722,235 L38.458278,235 C25.0854969,235 20.2362033,233.607616 15.3473144,230.993009 C10.4584256,228.378403 6.62159695,224.541574 4.00699056,219.652686 C1.39238417,214.763797 6.01853049e-16,209.914503 -1.03584031e-15,196.541722 L1.03584031e-15,38.458278 C-6.01853049e-16,25.0854969 1.39238417,20.2362033 4.00699056,15.3473144 C6.62159695,10.4584256 10.4584256,6.62159695 15.3473144,4.00699056 C20.2362033,1.39238417 25.0854969,-4.36618793e-15 38.458278,7.51458093e-15 Z" id="Rectangle-2" fill="#F1F1F1"/><path d="M79.7,98 C77.3795,98 75.5,99.8894444 75.5,102.222222 L75.5,104.333333 L69.2,104.333333 C66.8795,104.333333 65,106.222778 65,108.555556 L65,131.777778 C65,134.110556 66.8795,136 69.2,136 L102.8,136 C105.1205,136 107,134.110556 107,131.777778 L107,108.555556 C107,106.222778 105.1205,104.333333 102.8,104.333333 L96.5,104.333333 L96.5,102.222222 C96.5,99.8894444 94.6205,98 92.3,98 L79.7,98 Z M86,108.555556 C91.7897,108.555556 96.5,113.290778 96.5,119.111111 C96.5,124.931444 91.7897,129.666667 86,129.666667 C80.2103,129.666667 75.5,124.931444 75.5,119.111111 C75.5,113.290778 80.2103,108.555556 86,108.555556 Z M100.7,108.555556 C101.8592,108.555556 102.8,109.501333 102.8,110.666667 C102.8,111.832 101.8592,112.777778 100.7,112.777778 C99.5408,112.777778 98.6,111.832 98.6,110.666667 C98.6,109.501333 99.5408,108.555556 100.7,108.555556 Z M86,112.777778 C82.5206061,112.777778 79.7,115.613308 79.7,119.111111 C79.7,122.608915 82.5206061,125.444444 86,125.444444 C89.4793939,125.444444 92.3,122.608915 92.3,119.111111 C92.3,115.613308 89.4793939,112.777778 86,112.777778 Z" id="Shape" fill="#539FFA" fill-rule="nonzero"/><path d="M50.6932524,258 L122.306748,258 C123.675792,258 124.627299,258.232064 125.442114,258.667832 C126.256929,259.103599 126.896401,259.743071 127.332168,260.557886 C127.767936,261.372701 128,262.324208 128,263.693252 L128,264.306748 C128,265.675792 127.767936,266.627299 127.332168,267.442114 C126.896401,268.256929 126.256929,268.896401 125.442114,269.332168 C124.627299,269.767936 123.675792,270 122.306748,270 L50.6932524,270 C49.3242083,270 48.3727006,269.767936 47.5578857,269.332168 C46.7430709,268.896401 46.1035995,268.256929 45.6678318,267.442114 C45.232064,266.627299 45,265.675792 45,264.306748 L45,263.693252 C45,262.324208 45.232064,261.372701 45.6678318,260.557886 C46.1035995,259.743071 46.7430709,259.103599 47.5578857,258.667832 C48.3727006,258.232064 49.3242083,258 50.6932524,258 Z" id="Rectangle-Copy" fill="#BAF2FC"/></g><g id="card" transform="translate(400.000000, 788.000000)"><path d="M38.458278,7.51458093e-15 L132.541722,5.18109702e-15 C145.914503,-3.01036657e-15 150.763797,1.39238417 155.652686,4.00699056 C160.541574,6.62159695 164.378403,10.4584256 166.993009,15.3473144 C169.607616,20.2362033 171,25.0854969 171,38.458278 L171,196.541722 C171,209.914503 169.607616,214.763797 166.993009,219.652686 C164.378403,224.541574 160.541574,228.378403 155.652686,230.993009 C150.763797,233.607616 145.914503,235 132.541722,235 L38.458278,235 C25.0854969,235 20.2362033,233.607616 15.3473144,230.993009 C10.4584256,228.378403 6.62159695,224.541574 4.00699056,219.652686 C1.39238417,214.763797 6.01853049e-16,209.914503 -1.03584031e-15,196.541722 L1.03584031e-15,38.458278 C-6.01853049e-16,25.0854969 1.39238417,20.2362033 4.00699056,15.3473144 C6.62159695,10.4584256 10.4584256,6.62159695 15.3473144,4.00699056 C20.2362033,1.39238417 25.0854969,-4.36618793e-15 38.458278,7.51458093e-15 Z" id="Rectangle-2" fill="#F1F1F1"/><path d="M102.8,101 L69.2,101 C66.8795,101 65,102.845938 65,105.125 L65,129.875 C65,132.154063 66.8795,134 69.2,134 L102.8,134 C105.1205,134 107,132.154063 107,129.875 L107,105.125 C107,102.845938 105.1205,101 102.8,101 Z M81.8,109.25 C82.9592,109.25 83.9,110.174 83.9,111.3125 C83.9,112.451 82.9592,113.375 81.8,113.375 C80.6408,113.375 79.7,112.451 79.7,111.3125 C79.7,110.174 80.6408,109.25 81.8,109.25 Z M100.7,127.8125 L71.3,127.8125 L78.6479,118.533313 L83.9,124.739375 L91.25,115.439562 L100.7,127.8125 Z" id="Shape" fill="#539FFA" fill-rule="nonzero"/><path d="M50.6932524,258 L122.306748,258 C123.675792,258 124.627299,258.232064 125.442114,258.667832 C126.256929,259.103599 126.896401,259.743071 127.332168,260.557886 C127.767936,261.372701 128,262.324208 128,263.693252 L128,264.306748 C128,265.675792 127.767936,266.627299 127.332168,267.442114 C126.896401,268.256929 126.256929,268.896401 125.442114,269.332168 C124.627299,269.767936 123.675792,270 122.306748,270 L50.6932524,270 C49.3242083,270 48.3727006,269.767936 47.5578857,269.332168 C46.7430709,268.896401 46.1035995,268.256929 45.6678318,267.442114 C45.232064,266.627299 45,265.675792 45,264.306748 L45,263.693252 C45,262.324208 45.232064,261.372701 45.6678318,260.557886 C46.1035995,259.743071 46.7430709,259.103599 47.5578857,258.667832 C48.3727006,258.232064 49.3242083,258 50.6932524,258 Z" id="Rectangle-Copy" fill="#BAF2FC"/></g><g id="card" transform="translate(0.000000, 188.000000)"><path d="M38.458278,7.51458093e-15 L132.541722,5.18109702e-15 C145.914503,-3.01036657e-15 150.763797,1.39238417 155.652686,4.00699056 C160.541574,6.62159695 164.378403,10.4584256 166.993009,15.3473144 C169.607616,20.2362033 171,25.0854969 171,38.458278 L171,196.541722 C171,209.914503 169.607616,214.763797 166.993009,219.652686 C164.378403,224.541574 160.541574,228.378403 155.652686,230.993009 C150.763797,233.607616 145.914503,235 132.541722,235 L38.458278,235 C25.0854969,235 20.2362033,233.607616 15.3473144,230.993009 C10.4584256,228.378403 6.62159695,224.541574 4.00699056,219.652686 C1.39238417,214.763797 6.01853049e-16,209.914503 -1.03584031e-15,196.541722 L1.03584031e-15,38.458278 C-6.01853049e-16,25.0854969 1.39238417,20.2362033 4.00699056,15.3473144 C6.62159695,10.4584256 10.4584256,6.62159695 15.3473144,4.00699056 C20.2362033,1.39238417 25.0854969,-4.36618793e-15 38.458278,7.51458093e-15 Z" id="Rectangle-2" fill="#F1F1F1"/><path d="M79.7,98 C77.3795,98 75.5,99.8894444 75.5,102.222222 L75.5,104.333333 L69.2,104.333333 C66.8795,104.333333 65,106.222778 65,108.555556 L65,131.777778 C65,134.110556 66.8795,136 69.2,136 L102.8,136 C105.1205,136 107,134.110556 107,131.777778 L107,108.555556 C107,106.222778 105.1205,104.333333 102.8,104.333333 L96.5,104.333333 L96.5,102.222222 C96.5,99.8894444 94.6205,98 92.3,98 L79.7,98 Z M86,108.555556 C91.7897,108.555556 96.5,113.290778 96.5,119.111111 C96.5,124.931444 91.7897,129.666667 86,129.666667 C80.2103,129.666667 75.5,124.931444 75.5,119.111111 C75.5,113.290778 80.2103,108.555556 86,108.555556 Z M100.7,108.555556 C101.8592,108.555556 102.8,109.501333 102.8,110.666667 C102.8,111.832 101.8592,112.777778 100.7,112.777778 C99.5408,112.777778 98.6,111.832 98.6,110.666667 C98.6,109.501333 99.5408,108.555556 100.7,108.555556 Z M86,112.777778 C82.5206061,112.777778 79.7,115.613308 79.7,119.111111 C79.7,122.608915 82.5206061,125.444444 86,125.444444 C89.4793939,125.444444 92.3,122.608915 92.3,119.111111 C92.3,115.613308 89.4793939,112.777778 86,112.777778 Z" id="Shape" fill="#539FFA" fill-rule="nonzero"/><path d="M50.6932524,258 L122.306748,258 C123.675792,258 124.627299,258.232064 125.442114,258.667832 C126.256929,259.103599 126.896401,259.743071 127.332168,260.557886 C127.767936,261.372701 128,262.324208 128,263.693252 L128,264.306748 C128,265.675792 127.767936,266.627299 127.332168,267.442114 C126.896401,268.256929 126.256929,268.896401 125.442114,269.332168 C124.627299,269.767936 123.675792,270 122.306748,270 L50.6932524,270 C49.3242083,270 48.3727006,269.767936 47.5578857,269.332168 C46.7430709,268.896401 46.1035995,268.256929 45.6678318,267.442114 C45.232064,266.627299 45,265.675792 45,264.306748 L45,263.693252 C45,262.324208 45.232064,261.372701 45.6678318,260.557886 C46.1035995,259.743071 46.7430709,259.103599 47.5578857,258.667832 C48.3727006,258.232064 49.3242083,258 50.6932524,258 Z" id="Rectangle-Copy" fill="#BAF2FC"/></g><g id="card" transform="translate(400.000000, 400.000000)"><path d="M38.458278,-1.55376046e-15 L132.541722,1.55376046e-15 C145.914503,-9.02779573e-16 150.763797,1.39238417 155.652686,4.00699056 C160.541574,6.62159695 164.378403,10.4584256 166.993009,15.3473144 C169.607616,20.2362033 171,25.0854969 171,38.458278 L171,278.541722 C171,291.914503 169.607616,296.763797 166.993009,301.652686 C164.378403,306.541574 160.541574,310.378403 155.652686,312.993009 C150.763797,315.607616 145.914503,317 132.541722,317 L38.458278,317 C25.0854969,317 20.2362033,315.607616 15.3473144,312.993009 C10.4584256,310.378403 6.62159695,306.541574 4.00699056,301.652686 C1.39238417,296.763797 6.01853049e-16,291.914503 -1.03584031e-15,278.541722 L1.03584031e-15,38.458278 C-6.01853049e-16,25.0854969 1.39238417,20.2362033 4.00699056,15.3473144 C6.62159695,10.4584256 10.4584256,6.62159695 15.3473144,4.00699056 C20.2362033,1.39238417 25.0854969,9.02779573e-16 38.458278,-1.55376046e-15 Z" id="Rectangle-2" fill="#F1F1F1"/><path d="M79.7,139 C77.3795,139 75.5,140.889444 75.5,143.222222 L75.5,145.333333 L69.2,145.333333 C66.8795,145.333333 65,147.222778 65,149.555556 L65,172.777778 C65,175.110556 66.8795,177 69.2,177 L102.8,177 C105.1205,177 107,175.110556 107,172.777778 L107,149.555556 C107,147.222778 105.1205,145.333333 102.8,145.333333 L96.5,145.333333 L96.5,143.222222 C96.5,140.889444 94.6205,139 92.3,139 L79.7,139 Z M86,149.555556 C91.7897,149.555556 96.5,154.290778 96.5,160.111111 C96.5,165.931444 91.7897,170.666667 86,170.666667 C80.2103,170.666667 75.5,165.931444 75.5,160.111111 C75.5,154.290778 80.2103,149.555556 86,149.555556 Z M100.7,149.555556 C101.8592,149.555556 102.8,150.501333 102.8,151.666667 C102.8,152.832 101.8592,153.777778 100.7,153.777778 C99.5408,153.777778 98.6,152.832 98.6,151.666667 C98.6,150.501333 99.5408,149.555556 100.7,149.555556 Z M86,153.777778 C82.5206061,153.777778 79.7,156.613308 79.7,160.111111 C79.7,163.608915 82.5206061,166.444444 86,166.444444 C89.4793939,166.444444 92.3,163.608915 92.3,160.111111 C92.3,156.613308 89.4793939,153.777778 86,153.777778 Z" id="Shape" fill="#539FFA" fill-rule="nonzero"/><path d="M50.6932524,340 L122.306748,340 C123.675792,340 124.627299,340.232064 125.442114,340.667832 C126.256929,341.103599 126.896401,341.743071 127.332168,342.557886 C127.767936,343.372701 128,344.324208 128,345.693252 L128,346.306748 C128,347.675792 127.767936,348.627299 127.332168,349.442114 C126.896401,350.256929 126.256929,350.896401 125.442114,351.332168 C124.627299,351.767936 123.675792,352 122.306748,352 L50.6932524,352 C49.3242083,352 48.3727006,351.767936 47.5578857,351.332168 C46.7430709,350.896401 46.1035995,350.256929 45.6678318,349.442114 C45.232064,348.627299 45,347.675792 45,346.306748 L45,345.693252 C45,344.324208 45.232064,343.372701 45.6678318,342.557886 C46.1035995,341.743071 46.7430709,341.103599 47.5578857,340.667832 C48.3727006,340.232064 49.3242083,340 50.6932524,340 Z" id="Rectangle-Copy" fill="#BAF2FC"/></g><g id="card" transform="translate(200.000000, 306.000000)"><path d="M38.458278,-1.55376046e-15 L132.541722,1.55376046e-15 C145.914503,-9.02779573e-16 150.763797,1.39238417 155.652686,4.00699056 C160.541574,6.62159695 164.378403,10.4584256 166.993009,15.3473144 C169.607616,20.2362033 171,25.0854969 171,38.458278 L171,290.541722 C171,303.914503 169.607616,308.763797 166.993009,313.652686 C164.378403,318.541574 160.541574,322.378403 155.652686,324.993009 C150.763797,327.607616 145.914503,329 132.541722,329 L38.458278,329 C25.0854969,329 20.2362033,327.607616 15.3473144,324.993009 C10.4584256,322.378403 6.62159695,318.541574 4.00699056,313.652686 C1.39238417,308.763797 6.01853049e-16,303.914503 -1.03584031e-15,290.541722 L1.03584031e-15,38.458278 C-6.01853049e-16,25.0854969 1.39238417,20.2362033 4.00699056,15.3473144 C6.62159695,10.4584256 10.4584256,6.62159695 15.3473144,4.00699056 C20.2362033,1.39238417 25.0854969,9.02779573e-16 38.458278,-1.55376046e-15 Z" id="Rectangle-2" fill="#F1F1F1"/><path d="M102.8,148 L69.2,148 C66.8795,148 65,149.845937 65,152.125 L65,176.875 C65,179.154063 66.8795,181 69.2,181 L102.8,181 C105.1205,181 107,179.154063 107,176.875 L107,152.125 C107,149.845937 105.1205,148 102.8,148 Z M81.8,156.25 C82.9592,156.25 83.9,157.174 83.9,158.3125 C83.9,159.451 82.9592,160.375 81.8,160.375 C80.6408,160.375 79.7,159.451 79.7,158.3125 C79.7,157.174 80.6408,156.25 81.8,156.25 Z M100.7,174.8125 L71.3,174.8125 L78.6479,165.533312 L83.9,171.739375 L91.25,162.439562 L100.7,174.8125 Z" id="Shape" fill="#539FFA" fill-rule="nonzero"/><path d="M50.6932524,352 L122.306748,352 C123.675792,352 124.627299,352.232064 125.442114,352.667832 C126.256929,353.103599 126.896401,353.743071 127.332168,354.557886 C127.767936,355.372701 128,356.324208 128,357.693252 L128,358.306748 C128,359.675792 127.767936,360.627299 127.332168,361.442114 C126.896401,362.256929 126.256929,362.896401 125.442114,363.332168 C124.627299,363.767936 123.675792,364 122.306748,364 L50.6932524,364 C49.3242083,364 48.3727006,363.767936 47.5578857,363.332168 C46.7430709,362.896401 46.1035995,362.256929 45.6678318,361.442114 C45.232064,360.627299 45,359.675792 45,358.306748 L45,357.693252 C45,356.324208 45.232064,355.372701 45.6678318,354.557886 C46.1035995,353.743071 46.7430709,353.103599 47.5578857,352.667832 C48.3727006,352.232064 49.3242083,352 50.6932524,352 Z" id="Rectangle-Copy" fill="#BAF2FC"/></g><g id="card" transform="translate(400.000000, 0.000000)"><path d="M38.458278,-1.55376046e-15 L132.541722,1.55376046e-15 C145.914503,-9.02779573e-16 150.763797,1.39238417 155.652686,4.00699056 C160.541574,6.62159695 164.378403,10.4584256 166.993009,15.3473144 C169.607616,20.2362033 171,25.0854969 171,38.458278 L171,290.541722 C171,303.914503 169.607616,308.763797 166.993009,313.652686 C164.378403,318.541574 160.541574,322.378403 155.652686,324.993009 C150.763797,327.607616 145.914503,329 132.541722,329 L38.458278,329 C25.0854969,329 20.2362033,327.607616 15.3473144,324.993009 C10.4584256,322.378403 6.62159695,318.541574 4.00699056,313.652686 C1.39238417,308.763797 6.01853049e-16,303.914503 -1.03584031e-15,290.541722 L1.03584031e-15,38.458278 C-6.01853049e-16,25.0854969 1.39238417,20.2362033 4.00699056,15.3473144 C6.62159695,10.4584256 10.4584256,6.62159695 15.3473144,4.00699056 C20.2362033,1.39238417 25.0854969,9.02779573e-16 38.458278,-1.55376046e-15 Z" id="Rectangle-2" fill="#F1F1F1"/><path d="M102.8,148 L69.2,148 C66.8795,148 65,149.845937 65,152.125 L65,176.875 C65,179.154063 66.8795,181 69.2,181 L102.8,181 C105.1205,181 107,179.154063 107,176.875 L107,152.125 C107,149.845937 105.1205,148 102.8,148 Z M81.8,156.25 C82.9592,156.25 83.9,157.174 83.9,158.3125 C83.9,159.451 82.9592,160.375 81.8,160.375 C80.6408,160.375 79.7,159.451 79.7,158.3125 C79.7,157.174 80.6408,156.25 81.8,156.25 Z M100.7,174.8125 L71.3,174.8125 L78.6479,165.533312 L83.9,171.739375 L91.25,162.439562 L100.7,174.8125 Z" id="Shape" fill="#539FFA" fill-rule="nonzero"/><path d="M50.6932524,352 L122.306748,352 C123.675792,352 124.627299,352.232064 125.442114,352.667832 C126.256929,353.103599 126.896401,353.743071 127.332168,354.557886 C127.767936,355.372701 128,356.324208 128,357.693252 L128,358.306748 C128,359.675792 127.767936,360.627299 127.332168,361.442114 C126.896401,362.256929 126.256929,362.896401 125.442114,363.332168 C124.627299,363.767936 123.675792,364 122.306748,364 L50.6932524,364 C49.3242083,364 48.3727006,363.767936 47.5578857,363.332168 C46.7430709,362.896401 46.1035995,362.256929 45.6678318,361.442114 C45.232064,360.627299 45,359.675792 45,358.306748 L45,357.693252 C45,356.324208 45.232064,355.372701 45.6678318,354.557886 C46.1035995,353.743071 46.7430709,353.103599 47.5578857,352.667832 C48.3727006,352.232064 49.3242083,352 50.6932524,352 Z" id="Rectangle-Copy" fill="#BAF2FC"/></g></g><g transform="translate(439.000000, 558.500000) rotate(-20.000000) translate(-439.000000, -558.500000) translate(-13.000000, 129.000000) scale(1 1)" id="Master/Character/Standing"><g id="Master/Character/Standing" stroke="none" stroke-width="1" fill="none" fill-rule="evenodd"><g id="Legs" transform="translate(50.000000, 263.000000) scale(1 1)"><g id="Legs/Pants Stride" stroke="none" stroke-width="1" fill="none" fill-rule="evenodd"><g id="Right-leg" transform="translate(340.912300, 0.000075)"><path d="M351.570952,557.400568 L292.421642,588.268621 C289.23919,589.928579 285.361168,588.667216 283.759463,585.45079 C246.439243,510.875624 199.230368,417.989682 161.287429,343.131708 C156.535206,333.763189 159.73662,322.39145 168.445702,317.732295 L207.213943,296.98589 C215.92103,292.326735 226.838569,296.144639 231.593785,305.518281 C251.975853,345.704643 292.982488,426.593799 313.314658,466.827296 C327.03044,493.982986 340.71828,521.075146 354.368197,548.438842 C356.005828,551.729043 354.753405,555.740609 351.570952,557.400568" id="SKIN-DARKER" fill="#d29863"/><path d="M86.3018681,0.553047184 L3.58722884,44.8848046 C0.925720594,46.310596 0.289077427,50.4516434 2.16502598,54.1345105 C47.1498124,143.092204 210.139458,465.665446 251.855077,548.999925 L347.0877,498.490422 C306.772296,419.027412 139.536031,92.5806506 95.7585677,7.05572162 C94.3243715,3.06432593 89.8698682,-1.62510275 86.3018681,0.553047184" id="Fill-3" fill="#051026"/><polygon id="Fill-5" fill="#FFF" points="351.0877 540.556344 280.284523 577.999925 267.0877 551.628227 337.798704 513.999925"/><path d="M343.719319,525.999925 C338.839171,528.596035 321.243031,537.953385 304.83617,546.680031 C313.20814,560.743411 282.702962,576.912582 276.474497,561.764307 C274.326992,562.907008 273.0877,563.566616 273.0877,563.566616 L289.211494,595.999925 L392.0877,542.206257 L386.757446,531.444014 C382.48344,522.799949 353.425603,535.562693 343.719319,525.999925" id="Fill-7" fill="#0A1B45"/></g><path d="M243,0 C243,55.228475 289.562386,100 347,100 C404.437614,100 451,55.228475 451,0" id="Path" fill="#0A1B45"/><g id="Left-Leg" transform="translate(15.000400, 0.000075)"><path d="M30.239127,557.161414 L6.48321118,491.091216 C5.21392545,487.532681 6.52914914,483.643194 9.42224179,482.410903 C17.7749608,479.121599 25.640338,474.891582 33.6914643,471.031892 C59.328839,457.46285 83.4372787,440.300156 104.929252,420.190817 C135.662744,390.774378 160.646002,356.076536 180.175626,316.548494 C182.322726,312.342953 185.979787,309.372897 190.199089,307.916068 C200.492187,302.022777 233.664385,326.382352 243.12361,329.170438 C247.552628,331.433896 250.627475,335.548984 251.969663,340.466445 C253.653389,376.004969 183.860649,458.895203 157.588132,483.422914 C141.92229,498.068881 124.074395,512.379639 106.514112,524.333293 C94.3745071,532.319777 81.4759276,540.045543 68.7441229,546.868906 C60.3704323,549.247293 34.5433138,569.214035 30.239127,557.161414" id="SKIN" fill="#edb98a"/><path d="M327.589239,-7.48875118e-05 L234.263966,2.49908329 C229.168425,2.66739829 228.517611,9.87191949 228.971481,14.5112349 C230.778964,179.189353 185.88582,369.76348 39.9996,452.672467 L91.3448955,552.999925 C227.004045,476.171584 302.743354,318.80132 323.872303,161.436382 C326.849451,141.283324 342.647926,1.01301097 327.589239,-7.48875118e-05" id="Fill-12" fill="#0A1B45"/><path d="M44.8850906,557.999925 L13.9996,479.217498 C21.9808145,475.635354 30.8073943,471.323017 38.4599114,466.999925 L74.9996,542.961589 C65.5638745,548.266517 54.7138457,553.5865 44.8850906,557.999925" id="Fill-14" fill="#FFF"/><path d="M62.9996,549.37113 C60.6360448,544.095785 52.1153883,525.069219 44.1695419,507.327972 C31.6000913,515.152677 16.6218644,483.646376 30.4343923,476.662236 C29.3943075,474.338445 28.7933695,472.999925 28.7933695,472.999925 C20.8193856,477.171895 8.37755891,482.485544 -0.00040000003,485.956334 L40.2423423,600.999925 L52.6550265,595.76714 C63.0086442,589.458645 52.9112793,557.402253 62.9996,549.37113" id="Fill-16" fill="#0A1B45"/><path d="M281.629623,1.99992511 L279.631892,2.05201959 C285.059729,189.839841 231.3627,406.728274 64.9996,501.133029 L65.9555146,502.999925 C233.003836,408.206056 287.085428,190.604248 281.629623,1.99992511" id="Fill-18" fill="#FFF"/></g></g></g><g id="Body" transform="translate(17.000000, -31.000000) scale(1 1)"><g id="Body/Tee Stride" stroke="none" stroke-width="1" fill="none" fill-rule="evenodd"><g id="Right-Arm" transform="translate(411.000000, 157.000000)"><path d="M341.286207,6.05212955 C344.343381,7.46655808 345.794655,9.59488783 346.071135,12.1806633 C346.464916,11.4011165 346.851741,10.6161369 347.230007,9.82692955 C349.290791,5.72987073 354.256228,4.17894801 358.578473,5.7527473 L358.837007,5.85092955 C362.496907,7.28087316 364.647676,10.9354507 364.306055,14.6357684 C366.791217,13.0384704 369.933815,12.5815681 372.848707,13.7665296 C377.766707,15.8325296 379.332707,21.8035296 376.894707,26.5575296 C375.860372,28.2325626 374.804501,30.1391165 373.708883,32.169062 C376.306311,30.7749792 379.385582,30.4144949 382.111407,31.8114296 C395.127603,39.8860226 372.951048,65.6342309 352.999326,84.0248252 C348.800502,88.4733181 343.734365,92.7303079 338.168256,96.7385579 C334.245557,99.8230548 331.0544,102.07202 329.133407,103.12243 C328.194504,103.75627 327.177208,104.258427 326.127323,104.616191 C306.522932,116.35111 284.311754,125.090851 271.668707,128.90793 C230.439707,141.33993 187.231707,143.51493 144.959707,135.75793 C111.935707,129.65093 78.857707,116.55793 51.567707,95.6789296 C38.217707,84.4149296 21.849707,72.0649296 16.250707,54.6099296 C12.220707,40.9689296 18.084707,25.3769296 31.604707,19.7899296 C44.227707,14.4719296 60.023707,15.3829296 71.078707,23.5209296 C77.955707,30.0549296 83.674707,37.5709296 91.725707,43.3019296 C110.721707,57.6829296 133.218707,66.4009296 157.091707,70.8819296 C203.343707,79.3389296 255.036707,72.1969296 294.497707,46.2239296 C294.865387,45.9984458 295.228969,45.768295 295.58886,45.533973 C288.245921,34.2499137 306.562693,28.2854373 311.227107,19.7775296 C314.036336,16.7626754 318.843637,17.5848082 322.239312,19.9448238 L322.449085,20.0928187 C325.218436,16.3499848 327.730998,12.4477039 329.968207,8.39912955 C332.248697,4.70606833 337.087481,4.24781926 341.040338,5.9433634" id="SKIN-DARKER" fill="#d29863"/><path d="M341.286207,6.05212955 C344.343381,7.46655808 345.794655,9.59488783 346.071135,12.1806633 C346.464916,11.4011165 346.851741,10.6161369 347.230007,9.82692955 C349.290791,5.72987073 354.256228,4.17894801 358.578473,5.7527473 L358.837007,5.85092955 C362.496907,7.28087316 364.647676,10.9354507 364.306055,14.6357684 C366.791217,13.0384704 369.933815,12.5815681 372.848707,13.7665296 C377.766707,15.8325296 379.332707,21.8035296 376.894707,26.5575296 C375.860372,28.2325626 374.804501,30.1391165 373.708883,32.169062 C376.306311,30.7749792 379.385582,30.4144949 382.111407,31.8114296 C395.127603,39.8860226 372.951048,65.6342309 352.999326,84.0248252 C348.800502,88.4733181 343.734365,92.7303079 338.168256,96.7385579 C334.245557,99.8230548 331.0544,102.07202 329.133407,103.12243 C328.194504,103.75627 327.177208,104.258427 326.127323,104.616191 C306.522932,116.35111 284.311754,125.090851 271.668707,128.90793 C230.439707,141.33993 187.231707,143.51493 144.959707,135.75793 C111.935707,129.65093 78.857707,116.55793 51.567707,95.6789296 C38.217707,84.4149296 21.849707,72.0649296 16.250707,54.6099296 C12.220707,40.9689296 18.084707,25.3769296 31.604707,19.7899296 C44.227707,14.4719296 60.023707,15.3829296 71.078707,23.5209296 C77.955707,30.0549296 83.674707,37.5709296 91.725707,43.3019296 C110.721707,57.6829296 133.218707,66.4009296 157.091707,70.8819296 C203.343707,79.3389296 255.036707,72.1969296 294.497707,46.2239296 C294.865387,45.9984458 295.228969,45.768295 295.58886,45.533973 C288.245921,34.2499137 306.562693,28.2854373 311.227107,19.7775296 C314.036336,16.7626754 318.843637,17.5848082 322.239312,19.9448238 L322.449085,20.0928187 C325.218436,16.3499848 327.730998,12.4477039 329.968207,8.39912955 C332.248697,4.70606833 337.087481,4.24781926 341.040338,5.9433634" id="SKIN-DARKER" fill="#d29863"/><path d="M75.355307,116.92353 C46.745307,101.01153 -0.0736929955,65.3305296 0.572307005,29.3035296 C1.624307,5.91452955 29.478307,-2.54247045 49.042307,0.845529552 C57.649307,2.55352955 65.6332437,2.47741958 70.4592437,10.1364196 C79.4442437,24.7874196 94.302307,40.8405296 111.323307,49.9725296 L75.355307,116.92353 Z" id="Fill-14" fill="#3F8FD4"/></g><path d="M312,149 L448,149 C470.09139,149 488,166.90861 488,189 L488,300 L488,300 L272,300 L272,189 C272,166.90861 289.90861,149 312,149 Z" id="body" fill="#55B0EB"/><path d="M334,149 C334,167.225397 354.594902,182 380,182 C405.405098,182 426,167.225397 426,149" id="SKIN" fill="#edb98a"/><g id="Left-Arm" transform="translate(114.000000, 149.000000)"><path d="M74.3438502,347.540423 C86.3638502,357.343423 97.0938502,355.709423 103.62885,353.103423 C110.40285,350.211423 108.62785,340.007423 101.39785,338.764423 C90.0398502,337.809423 80.4458502,338.449423 70.5808502,326.731423 C67.4648502,323.195423 65.4538502,322.029423 64.2718502,322.513423 C60.1978502,329.036423 67.9648502,341.754423 74.3438502,347.540423" id="SKIN" fill="#edb98a"/><path d="M74.3438502,347.540423 C86.3638502,357.343423 97.0938502,355.709423 103.62885,353.103423 C110.40285,350.211423 108.62785,340.007423 101.39785,338.764423 C90.0398502,337.809423 80.4458502,338.449423 70.5808502,326.731423 C67.4648502,323.195423 65.4538502,322.029423 64.2718502,322.513423 C60.1978502,329.036423 67.9648502,341.754423 74.3438502,347.540423" id="SKIN-DARKER" fill="#d29863"/><path d="M65.4327502,315.775823 L65.4327502,315.775823 C38.8037502,326.810823 21.9167502,305.288823 16.3227502,281.046823 C11.7167502,267.188823 7.65175021,252.355823 4.84675021,237.858823 C-5.64124979,188.952823 -0.280249786,133.061823 32.5367502,93.3988231 C54.1337502,65.7928231 84.0177502,45.3078231 114.91175,30.1448231 C141.15875,17.4578231 179.86175,-3.08017689 193.42875,35.8868231 C197.88775,52.7928231 189.20375,70.9428231 173.02975,77.0238231 C127.94975,94.4168231 76.3267502,121.380823 67.4417502,172.408823 C63.9897502,193.749823 67.1697502,215.869823 72.1647502,236.881823 C78.3177502,265.613823 101.40775,296.470823 65.4327502,315.775823" id="SKIN" fill="#edb98a"/><path d="M90.8417502,37.4348231 C116.849574,24.5066067 142.563862,4.54747351e-13 202.674991,4.54747351e-13 C220.97481,4.54747351e-13 221,9.80366649 221,27.8213053 C221,45.8389442 206.51375,71.1108231 189.75275,76.5798231 C168.46575,83.3408231 147.83775,92.0498231 129.55475,102.836823 L90.8417502,37.4348231 Z" id="Fill-23" fill="#55B0EB"/><path d="M82.6250502,270.835323 C73.3400502,261.646323 31.9530502,286.758323 21.0070502,294.480323 C30.3540502,321.843323 48.5280502,351.947323 71.0180502,366.534323 C80.5280502,373.780323 112.02205,385.826323 105.78405,366.609323 C98.7040502,361.083323 63.2780502,331.162323 76.6220502,316.126323 C83.8480502,306.560323 92.4900502,311.154323 99.5690502,316.425323 C106.05505,321.589323 117.97305,313.076323 113.05605,306.059323 C104.25405,295.360323 87.4460502,283.260323 82.6250502,270.835323" id="SKIN" fill="#edb98a"/></g></g></g><g id="Head" transform="translate(338.000000, -61.000000) scale(1 1)"><g id="Head/Bun" stroke="none" stroke-width="1" fill="none" fill-rule="evenodd"><circle id="Oval" fill="#000" cx="29" cy="70" r="25"/><g id="Head" transform="translate(22.000000, 72.000000)"><g id="head" transform="translate(0.000000, 0.000100)" fill="#edb98a"><path d="M13,62 L58,62 L58,113.633 C58,127.538 47.926,138.81 35.5,138.81 C23.074,138.81 13,127.538 13,113.633 L13,62 Z" id="SKIN"/><path d="M60.0525,94 L55.0655,94 C31.8335,94 13.0005,75.167 13.0005,51.935 L13.0005,32.203 C13.0005,14.418 27.4175,0 45.2035,0 L50.7965,0 C68.5825,0 83.0005,14.418 83.0005,32.203 L83.0005,71.052 C83.0005,83.726 72.7265,94 60.0525,94" id="SKIN"/><path d="M25,58.5 C25,65.403 19.404,71 12.5,71 C5.596,71 0,65.403 0,58.5 C0,51.597 5.596,46 12.5,46 C19.404,46 25,51.597 25,58.5" id="SKIN"/></g><path d="M10.067,53.1685 C10.9718309,53.1685 12.2239875,53.3771928 13.5088204,54.0196092 C15.6553998,55.0928989 17.0130325,57.055328 17.10411,59.9021045 L17.109,60.2105 L14.109,60.2105 C14.109,58.3751144 13.4076866,57.3231443 12.1671796,56.7028908 C11.7065142,56.4725581 11.1976823,56.3199085 10.686339,56.2346846 C10.4347302,56.1927498 10.2385731,56.1747448 10.1250097,56.169908 L10.067,56.1685 L10.067,53.1685 Z" id="ear-line" fill="#000"/><path d="M34.7507501,96.3317762 C25.4557924,93.0436693 20.8185822,84.7387742 18.9822222,73.5681961 C26.2532122,85.6702724 39.4406226,93.8133264 54.5439426,93.9968331 L55.0655,94 L58,94 C50.0632106,98.2298391 42.3134606,99.0070978 34.7507501,96.3317762 Z" id="SHADOW" fill="#000" opacity=".12"/></g><path d="M72.8086245,72 C89.5888073,72 103.384617,84.7181817 104.999901,100.998998 L43.973,100.998 L39.4959832,117.92634 L37.6122668,117.973042 C36.103273,118.003782 34.2071707,118.024615 34.0157661,117.940922 L34,117.92634 L34.0133311,116.935282 C34.0935066,112.893789 34.4987262,104.151433 34.4987262,104.151433 C34.4987262,86.5724777 48.6220557,72.2882344 66.1518229,72.0043074 L66.6840596,72 L72.8086245,72 Z" id="Path" fill="#000"/></g></g><g id="Expression" transform="translate(385.000000, 34.000000) scale(1 1)" fill="#000"><g id="Expression/Happy" stroke="none" stroke-width="1" fill="none" fill-rule="evenodd"><path d="M20.5607,22 C20.5607,20.343 19.2177,19 17.5607,19 C15.9037,19 14.5607,20.343 14.5607,22 C14.5607,23.657 15.9037,25 17.5607,25 C19.2177,25 20.5607,23.657 20.5607,22" id="Fill-1" fill="#000"/><path d="M46.5607,22 C46.5607,20.343 45.2177,19 43.5607,19 C41.9037,19 40.5607,20.343 40.5607,22 C40.5607,23.657 41.9037,25 43.5607,25 C45.2177,25 46.5607,23.657 46.5607,22" id="Fill-3" fill="#000"/><polygon id="Stroke-5" fill="#000" points="33.1977829 19.396766 36.1476171 18.850434 40.4350211 41.9996 30.5607 41.9996 30.5607 38.9996 36.828 38.999"/><path d="M21.9219,41.586 C21.9219,45.2602625 25.6639817,48.6581933 29.6815435,48.7900329 L29.9229,48.794 L29.9229,51.794 C24.3252295,51.794 19.0961019,47.2280163 18.9261594,41.8552911 L18.9219,41.586 L21.9219,41.586 Z" id="Stroke-7" fill="#000"/><path d="M23.0607,9 L23.0607,12 C19.8342736,12 16.8913939,12.8655529 14.2891644,14.3112359 C13.508469,14.7449556 12.8086718,15.2043948 12.1956619,15.6654963 L11.8964164,15.8960741 C11.548672,16.1706093 11.3051282,16.3844813 11.1717567,16.5115787 L11.1213602,16.5606602 L9.00003983,14.4393398 C9.71719288,13.7221868 11.0118484,12.7000903 12.8322356,11.6887641 C15.7235813,10.0824609 18.9894549,9.08904431 22.5704367,9.00569674 L23.0607,9 Z" id="Stroke-9" fill="#000"/><path d="M37.0607,9 C40.8342736,9 44.2663939,10.0094471 47.2891644,11.6887641 C48.9957774,12.6368824 50.2403215,13.5944668 50.980139,14.3013772 L51.1213602,14.4393398 L49.0000398,16.5606602 L48.8084832,16.3819961 C48.6965748,16.2822525 48.549249,16.1566104 48.3676199,16.0099419 L48.2249836,15.8960741 C47.5437467,15.3582556 46.7430469,14.8172422 45.8322356,14.3112359 C43.3601176,12.937837 40.5805627,12.0880056 37.5425302,12.006456 L37.0607,12 L37.0607,9 Z" id="Stroke-11" fill="#000"/></g></g><g id="Accessories" transform="translate(372.000000, 56.000000) scale(1 1)" fill="#000"><g id="Accessories/None" stroke="none" stroke-width="1" fill="none" fill-rule="evenodd" fill-opacity="0"/></g><g id="Glasses" transform="translate(364.000000, 42.000000) scale(1 1)" fill="#000"><g id="Glasses/None" stroke="none" stroke-width="1" fill="none" fill-rule="evenodd" fill-opacity="0"/></g></g></g><path d="M698.913505,572.587514 C714.621742,572.555496 727.963807,568.961495 740.777684,562.967492 C743.005141,561.925579 743.648036,560.626189 743.637495,558.344919 C743.573343,544.73601 741.104467,531.64072 735.421118,519.236482 C729.603055,506.534744 721.15606,495.99421 709.125127,488.675469 C697.099529,481.356729 684.266978,479.489022 670.788865,484.088916 C649.844104,491.236895 637.871859,512.297953 642.704239,533.493752 C645.23447,544.590596 651.623402,553.204724 660.613257,559.917794 C672.389433,568.712023 685.820862,572.506135 698.913505,572.587514 M820.986641,496.695659 C817.82604,500.126999 814.733366,503.623584 811.494183,506.980358 C800.994808,517.853591 790.62596,528.861308 779.853545,539.458915 C770.410368,548.748965 759.775139,556.591647 748.057075,562.85514 C746.421501,563.729952 746.233703,564.916341 746.099181,566.462241 C744.706012,582.524427 739.993747,597.494762 731.332395,611.170855 C720.541334,628.206385 705.502841,640.090245 687.006733,647.790454 C670.740228,654.56259 653.751832,657.565179 636.184059,656.912732 C602.873217,655.677077 572.104974,646.203276 544.336173,627.62584 C528.868807,617.279891 515.223483,604.763557 502.471863,591.247247 C490.310276,578.352759 479.664392,564.270551 469.693782,549.657065 C469.038487,548.695704 468.463106,547.658446 468.027574,546.585237 C467.895716,546.264339 468.261989,545.59325 468.590968,545.288331 C468.793417,545.101918 469.499325,545.155179 469.733739,545.368223 C470.354405,545.930126 470.889829,546.602546 471.373309,547.290945 C481.511739,561.781931 492.115002,575.90009 504.267266,588.799904 C518.037789,603.421379 532.893812,616.76326 549.807621,627.691085 C563.688693,636.658906 578.797776,642.86248 594.646065,647.372355 C605.112143,650.350977 615.751367,652.438808 626.589045,653.368212 C653.084549,655.641125 678.226843,651.236441 700.994357,636.965156 C721.610851,624.042707 734.5516,605.320134 740.51452,581.805403 C741.686593,577.181017 742.227345,572.398179 743.030481,567.681918 C743.113059,567.186591 742.989192,566.653981 742.93858,565.717919 C741.64264,566.253192 740.590438,566.657975 739.562211,567.118683 C726.042085,573.162475 711.935922,576.412727 697.074572,575.636448 C679.514791,574.719027 663.911572,568.873633 651.644764,555.936536 C639.645669,543.281723 635.546078,528.16492 640.665905,511.402352 C645.850995,494.429404 657.790155,483.971607 675.05825,480.146136 C690.034144,476.829307 703.544947,480.886463 715.582667,490.052681 C729.118776,500.358684 737.587002,514.113337 742.413811,530.252751 C744.92844,538.661331 746.292306,547.253662 746.352242,556.041727 C746.358901,557.086974 746.445475,558.130889 746.524057,559.747361 C748.155636,558.932467 749.480877,558.389205 750.690243,557.65154 C759.346267,552.370712 767.393612,546.276323 774.957477,539.522828 C786.018914,529.650902 795.989525,518.711093 806.115967,507.921746 C809.903893,503.885894 813.709134,499.867352 817.49706,495.8315 C818.269563,495.009949 818.992785,494.141794 820.211474,492.759671 C816.07459,492.497361 812.636954,492.649155 809.185999,492.838231 C806.106644,493.006004 803.016634,493.035297 799.931951,493.016656 C798.819814,493.01133 797.198891,493.115189 797.142951,491.591924 C797.084347,489.991431 798.659986,490.141893 799.81208,490.099285 C806.514205,489.854284 813.216331,489.617273 819.918456,489.394908 C820.768209,489.366946 821.625953,489.394908 822.470378,489.492109 C824.570786,489.731784 825.110206,490.215127 824.982343,492.345567 C824.73461,496.482615 824.34969,500.614337 823.955448,504.742065 C823.471968,509.812512 822.909906,514.87497 822.411775,519.945417 C822.298563,521.094523 822.077467,522.197025 820.661657,522.095829 C819.177919,521.990639 819.195234,520.744332 819.30445,519.672454 C819.791926,514.910921 820.32069,510.154714 820.849455,505.397175 C821.162452,502.584994 821.503418,499.77814 821.831066,496.96729 C821.550035,496.876747 821.267672,496.787534 820.986641,496.695659" id="arrow" fill="#55B0EB" transform="translate(646.500000, 568.000000) rotate(-66.000000) translate(-646.500000, -568.000000)"/><g id="Foreground" transform="translate(340.647712, 837.680596) rotate(-30.000000) translate(-340.647712, -837.680596) translate(155.147712, 593.680596)"><g id="card" transform="translate(200.000000, 218.000000)"><path d="M38.458278,7.51458093e-15 L132.541722,5.18109702e-15 C145.914503,-3.01036657e-15 150.763797,1.39238417 155.652686,4.00699056 C160.541574,6.62159695 164.378403,10.4584256 166.993009,15.3473144 C169.607616,20.2362033 171,25.0854969 171,38.458278 L171,196.541722 C171,209.914503 169.607616,214.763797 166.993009,219.652686 C164.378403,224.541574 160.541574,228.378403 155.652686,230.993009 C150.763797,233.607616 145.914503,235 132.541722,235 L38.458278,235 C25.0854969,235 20.2362033,233.607616 15.3473144,230.993009 C10.4584256,228.378403 6.62159695,224.541574 4.00699056,219.652686 C1.39238417,214.763797 6.01853049e-16,209.914503 -1.03584031e-15,196.541722 L1.03584031e-15,38.458278 C-6.01853049e-16,25.0854969 1.39238417,20.2362033 4.00699056,15.3473144 C6.62159695,10.4584256 10.4584256,6.62159695 15.3473144,4.00699056 C20.2362033,1.39238417 25.0854969,-4.36618793e-15 38.458278,7.51458093e-15 Z" id="Rectangle-2" fill="#F1F1F1"/><path d="M79.7,98 C77.3795,98 75.5,99.8894444 75.5,102.222222 L75.5,104.333333 L69.2,104.333333 C66.8795,104.333333 65,106.222778 65,108.555556 L65,131.777778 C65,134.110556 66.8795,136 69.2,136 L102.8,136 C105.1205,136 107,134.110556 107,131.777778 L107,108.555556 C107,106.222778 105.1205,104.333333 102.8,104.333333 L96.5,104.333333 L96.5,102.222222 C96.5,99.8894444 94.6205,98 92.3,98 L79.7,98 Z M86,108.555556 C91.7897,108.555556 96.5,113.290778 96.5,119.111111 C96.5,124.931444 91.7897,129.666667 86,129.666667 C80.2103,129.666667 75.5,124.931444 75.5,119.111111 C75.5,113.290778 80.2103,108.555556 86,108.555556 Z M100.7,108.555556 C101.8592,108.555556 102.8,109.501333 102.8,110.666667 C102.8,111.832 101.8592,112.777778 100.7,112.777778 C99.5408,112.777778 98.6,111.832 98.6,110.666667 C98.6,109.501333 99.5408,108.555556 100.7,108.555556 Z M86,112.777778 C82.5206061,112.777778 79.7,115.613308 79.7,119.111111 C79.7,122.608915 82.5206061,125.444444 86,125.444444 C89.4793939,125.444444 92.3,122.608915 92.3,119.111111 C92.3,115.613308 89.4793939,112.777778 86,112.777778 Z" id="Shape" fill="#539FFA" fill-rule="nonzero"/><path d="M50.6932524,258 L122.306748,258 C123.675792,258 124.627299,258.232064 125.442114,258.667832 C126.256929,259.103599 126.896401,259.743071 127.332168,260.557886 C127.767936,261.372701 128,262.324208 128,263.693252 L128,264.306748 C128,265.675792 127.767936,266.627299 127.332168,267.442114 C126.896401,268.256929 126.256929,268.896401 125.442114,269.332168 C124.627299,269.767936 123.675792,270 122.306748,270 L50.6932524,270 C49.3242083,270 48.3727006,269.767936 47.5578857,269.332168 C46.7430709,268.896401 46.1035995,268.256929 45.6678318,267.442114 C45.232064,266.627299 45,265.675792 45,264.306748 L45,263.693252 C45,262.324208 45.232064,261.372701 45.6678318,260.557886 C46.1035995,259.743071 46.7430709,259.103599 47.5578857,258.667832 C48.3727006,258.232064 49.3242083,258 50.6932524,258 Z" id="Rectangle-Copy" fill="#BAF2FC"/></g><path d="M322.785812,228.49818 C321.203479,227.911729 319.619099,227.329365 318.038811,226.735763 C313.833915,225.156228 309.631064,223.571586 305.427191,221.986943 C305.199097,221.901121 304.964867,221.706999 304.751093,221.728455 C304.380825,221.767279 303.770189,221.865362 303.713933,222.064591 C303.602444,222.465094 303.6587,223.057675 303.902136,223.371334 C304.172166,223.719731 304.711203,223.89444 305.163298,224.064041 C312.27306,226.734741 319.385891,229.394203 326.500768,232.047534 C326.639874,232.098619 326.81478,232.053665 327.121632,232.053665 C328.296876,231.052407 328.334721,229.578107 328.305058,228.124241 C328.184363,222.327166 328.01764,216.532134 327.893877,210.735059 C327.877511,209.92588 328.134244,209.09218 328.011503,208.309565 C327.928653,207.787481 327.481672,207.041646 327.045942,206.915978 C326.148911,206.65749 325.762277,207.374718 325.704998,208.207396 C325.671245,208.694742 325.677382,209.187197 325.688633,209.676587 C325.800123,214.492839 325.920818,219.309091 326.029239,224.126364 C326.050718,225.085732 326.03333,226.047143 326.03333,227.210849 C324.872406,226.864496 324.611582,225.932714 324.151304,225.255332 C317.580578,215.597287 311.149982,205.842181 304.446287,196.27711 C297.593257,186.497483 290.096861,177.216442 281.568419,168.812011 C273.922688,161.276018 265.302191,155.193891 255.245626,151.248121 C245.536826,147.438235 235.497649,146.305179 225.15878,147.375912 C209.102234,149.037181 195.080117,155.681238 181.961168,164.69051 C174.48932,169.82042 166.874275,174.750079 159.251046,179.655218 C157.065237,181.062087 154.660539,182.157339 152.289596,183.248505 C145.782286,186.244104 139.086774,186.664019 132.220447,184.563422 C120.449602,180.962983 110.575102,174.324034 101.942331,165.714244 C98.2866996,162.066807 95.083164,158.045431 92.3532034,153.651138 C89.0698862,148.364908 86.9014649,142.71087 86.5209683,136.448926 C86.478009,135.754176 86.3624281,134.960322 85.5513158,135.084968 C85.0920605,135.156487 84.5305212,135.867584 84.3934606,136.39069 C84.2144636,137.063984 84.3699353,137.842513 84.4558539,138.56587 C85.2792403,145.551171 88.0664799,151.76714 92.118973,157.425265 C101.606839,170.66638 113.910584,180.259038 129.249096,185.947813 C138.379991,189.334719 147.16312,188.722726 155.786687,184.281435 C164.678237,179.699151 172.913123,174.097219 181.055955,168.336925 C190.029332,161.987115 199.412868,156.399487 209.995174,153.09023 C219.938203,149.980202 230.068413,148.57742 240.472744,149.905619 C249.541246,151.064216 257.83648,154.336693 265.582449,159.118207 C273.456273,163.979413 280.041319,170.305723 286.1712,177.140836 C296.726912,188.912761 305.673695,201.888237 314.400568,215.024118 C316.841065,218.696076 319.338841,222.331253 321.799794,225.989928 C322.25189,226.661179 322.652843,227.366146 323.077322,228.054766 C322.980152,228.202911 322.882982,228.350035 322.785812,228.49818" id="arrow" fill="#60D6E1" transform="translate(206.310986, 183.571945) rotate(30.000000) translate(-206.310986, -183.571945)"/><g id="card" transform="translate(0.066204, 0.179745)"><path d="M38.458278,7.51458093e-15 L132.541722,5.18109702e-15 C145.914503,-3.01036657e-15 150.763797,1.39238417 155.652686,4.00699056 C160.541574,6.62159695 164.378403,10.4584256 166.993009,15.3473144 C169.607616,20.2362033 171,25.0854969 171,38.458278 L171,196.541722 C171,209.914503 169.607616,214.763797 166.993009,219.652686 C164.378403,224.541574 160.541574,228.378403 155.652686,230.993009 C150.763797,233.607616 145.914503,235 132.541722,235 L38.458278,235 C25.0854969,235 20.2362033,233.607616 15.3473144,230.993009 C10.4584256,228.378403 6.62159695,224.541574 4.00699056,219.652686 C1.39238417,214.763797 6.01853049e-16,209.914503 -1.03584031e-15,196.541722 L1.03584031e-15,38.458278 C-6.01853049e-16,25.0854969 1.39238417,20.2362033 4.00699056,15.3473144 C6.62159695,10.4584256 10.4584256,6.62159695 15.3473144,4.00699056 C20.2362033,1.39238417 25.0854969,-4.36618793e-15 38.458278,7.51458093e-15 Z" id="Rectangle-2" fill="#F1F1F1"/><path d="M102.8,101 L69.2,101 C66.8795,101 65,102.845938 65,105.125 L65,129.875 C65,132.154063 66.8795,134 69.2,134 L102.8,134 C105.1205,134 107,132.154063 107,129.875 L107,105.125 C107,102.845938 105.1205,101 102.8,101 Z M81.8,109.25 C82.9592,109.25 83.9,110.174 83.9,111.3125 C83.9,112.451 82.9592,113.375 81.8,113.375 C80.6408,113.375 79.7,112.451 79.7,111.3125 C79.7,110.174 80.6408,109.25 81.8,109.25 Z M100.7,127.8125 L71.3,127.8125 L78.6479,118.533313 L83.9,124.739375 L91.25,115.439562 L100.7,127.8125 Z" id="Shape" fill="#539FFA" fill-rule="nonzero"/><path d="M50.6932524,258 L122.306748,258 C123.675792,258 124.627299,258.232064 125.442114,258.667832 C126.256929,259.103599 126.896401,259.743071 127.332168,260.557886 C127.767936,261.372701 128,262.324208 128,263.693252 L128,264.306748 C128,265.675792 127.767936,266.627299 127.332168,267.442114 C126.896401,268.256929 126.256929,268.896401 125.442114,269.332168 C124.627299,269.767936 123.675792,270 122.306748,270 L50.6932524,270 C49.3242083,270 48.3727006,269.767936 47.5578857,269.332168 C46.7430709,268.896401 46.1035995,268.256929 45.6678318,267.442114 C45.232064,266.627299 45,265.675792 45,264.306748 L45,263.693252 C45,262.324208 45.232064,261.372701 45.6678318,260.557886 C46.1035995,259.743071 46.7430709,259.103599 47.5578857,258.667832 C48.3727006,258.232064 49.3242083,258 50.6932524,258 Z" id="Rectangle-Copy" fill="#BAF2FC"/></g></g><path d="M154.264649,186 C154.493461,184.838534 154.738579,183.687438 155,182.546706 L152.751001,182 C152.483972,183.165202 152.233639,184.34079 152,185.526762 L154.264649,186 Z M156.129429,180 C156.403581,178.876196 156.693772,177.762892 157,176.660083 L154.890079,176 C154.576942,177.127691 154.280249,178.265938 154,179.414736 L156.129429,180 Z M157.66739,174 C158.090594,172.914216 158.534798,171.839037 159,170.774457 L156.363809,170 C155.887654,171.089646 155.433051,172.189995 155,173.301043 L157.66739,174 Z M159.504413,168 C159.982389,166.952666 160.480917,165.915999 161,164.889993 L158.531841,164 C158.000121,165.050983 157.489508,166.11278 157,167.185384 L159.504413,168 Z M162.34849,163 C162.878861,161.738252 163.429364,160.4899 164,159.254938 L161.692532,158 C161.107683,159.265721 160.543505,160.545084 160,161.838079 L162.34849,163 Z M165.201441,157 C165.781337,155.786158 166.380856,154.585705 167,153.398634 L164.843833,152 C164.209087,153.216984 163.594475,154.447659 163,155.692018 L165.201441,157 Z M168.061991,152 C168.688918,150.833894 169.334919,149.681121 170,148.541673 L167.986872,147 C167.305035,148.168156 166.642742,149.35 166,150.545524 L168.061991,152 Z M170.929647,146 C171.601256,144.881034 172.291372,143.775307 173,142.682813 L171.122025,141 C170.395754,142.119694 169.688411,143.253024 169,144.399983 L170.929647,146 Z M174.807081,142 C175.520162,140.927451 176.251133,139.86799 177,138.821611 L175.246498,137 C174.479408,138.071841 173.730574,139.157194 173,140.256053 L174.807081,142 Z M178.689478,136 C179.442376,135.178551 180.212548,134.367434 181,133.566648 L179.365196,132 C178.559214,132.819631 177.770813,133.649945 177,134.49094 L178.689478,136 Z M183.5792,132 C184.369498,131.214649 185.176429,130.439462 186,129.674437 L184.475756,128 C183.633617,128.782273 182.808363,129.575062 182,130.378365 L183.5792,132 Z M187.844661,128 C188.876462,127.250183 189.928239,126.510336 191,125.780459 L189.223498,124 C188.128769,124.745518 187.054268,125.501349 186,126.267494 L187.844661,128 Z M192.722266,124 C193.795658,123.284783 194.888234,122.579338 196,121.883664 L194.344643,120 C193.210383,120.709749 192.0955,121.429597 191,122.159545 L192.722266,124 Z M197.608132,120 C198.720365,119.318804 199.850986,118.64716 201,117.985069 L199.456947,116 C198.286097,116.674673 197.13378,117.359206 196,118.053598 L197.608132,120 Z M202.500323,116 C203.649254,115.351873 204.815812,114.71308 206,114.083622 L204.562526,112 C203.357285,112.640649 202.169775,113.290916 201,113.950801 L202.500323,116 Z M208.400998,113 C209.583756,112.383457 210.783423,111.776031 212,111.177724 L210.659405,109 C209.422621,109.608244 208.202819,110.225866 207,110.852866 L208.400998,113 Z M213.305992,110 C214.521121,109.414825 215.752456,108.838545 217,108.271164 L215.751764,106 C214.484922,106.576158 213.234334,107.161448 212,107.755872 L213.305992,110 Z M218.973309,107 C219.969775,106.445369 220.978672,105.899416 222,105.362142 L221.070726,103 C220.034698,103.545007 219.011122,104.098903 218,104.661692 L218.973309,107 Z M224.905912,105 C225.92535,104.475125 226.956713,103.958714 228,103.450768 L227.135955,101 C226.078702,101.514745 225.033384,102.038144 224,102.570199 L224.905912,105 Z M230.822676,103 C231.787277,102.549039 232.849369,102.094136 234,101.639074 L233.290901,99 C232.103448,99.469625 231.003696,99.9406583 230,100.409896 L230.822676,103 Z M236.666743,100 C237.724776,99.7031742 238.837882,99.4083513 240,99.117161 L239.39951,97 C238.215662,97.2966351 237.080504,97.5972988 236,97.9004288 L236.666743,100 Z M242.572294,99 C243.681862,98.7343932 244.825986,98.4731818 246,98.2174856 L245.476662,96 C244.286476,96.2592184 243.126041,96.5241539 242,96.7937039 L242.572294,99 Z M248.499761,97 C249.645738,96.7606924 250.81375,96.527379 252,96.3008891 L251.541424,94 C250.341504,94.2291001 249.159764,94.4651556 248,94.7073423 L248.499761,97 Z M255.437792,96 C256.613003,95.7851787 257.801467,95.577626 259,95.3779803 L258.599943,93 C257.38884,93.2017395 256.187798,93.4114889 255,93.628611 L255.437792,96 Z M261.380199,95 C262.581255,94.8095819 263.788764,94.6275931 265,94.454538 L264.656597,92 C263.43307,92.1748111 262.213296,92.3586485 261,92.5510072 L261.380199,95 Z M267.322809,94 C268.548581,93.8349836 269.775106,93.6795933 271,93.5342383 L270.714912,91 C269.477389,91.1468536 268.238291,91.3038368 267,91.4705386 L267.322809,94 Z M273.262668,94 C274.513578,93.8626132 275.760067,93.7362146 277,93.621146 L276.777707,91 C275.524229,91.1163256 274.264284,91.2440888 273,91.3829444 L273.262668,94 Z M280.197467,93 C281.475132,92.8944874 282.743294,92.8015623 284,92.7215171 L283.847513,90 C282.57569,90.081008 281.292538,90.1750315 280,90.2817723 L280.197467,93 Z M286.122816,93 C287.430774,92.9326538 288.723784,92.8799686 290,92.8422038 L289.929365,90 C288.635579,90.0382848 287.325181,90.0916785 286,90.1599114 L286.122816,93 Z M292.033358,93 C293.367539,92.9810188 294.680547,92.9795013 295.970581,92.9956871 L296,90.0113064 C294.688789,89.9948549 293.354865,89.9963965 292,90.015672 L292.033358,93 Z M299,92.8203252 C300.311678,92.861079 301.595528,92.9209027 302.849785,93 L303,90.1832564 C301.720015,90.1025366 300.410812,90.0415315 299.074102,90 L299,92.8203252 Z M305,92.6164342 C306.270788,92.7231521 307.505589,92.8509506 308.702597,93 L309,90.3935759 C307.770457,90.2404752 306.503667,90.1093661 305.201345,90 L305,92.6164342 Z M311,93.3833948 C312.218857,93.5650328 313.390516,93.7705278 314.512998,94 L315,91.6393123 C313.833901,91.4009234 312.619438,91.1879211 311.358419,91 L311,93.3833948 Z M317,94.1057998 C318.147569,94.3761199 319.230875,94.6741917 320.247567,95 L321,92.94567 C319.920502,92.5997347 318.775458,92.2846759 317.566946,92 L317,94.1057998 Z M323,96.3493878 C324.300349,96.8556095 325.484288,97.4060077 326.548274,98 L328,95.8203104 C326.816274,95.1594706 325.512076,94.5531659 324.09114,94 L323,96.3493878 Z M328,99.7583834 C328.857954,100.453014 329.572687,101.200208 330.1429,102 L332,100.688233 C331.306758,99.7158784 330.449966,98.820173 329.436951,98 L328,99.7583834 Z M332,103.913182 C332.390161,104.872067 332.622479,105.899021 332.692981,107 L335,106.84461 C334.912932,105.484917 334.62267,104.201825 334.133659,103 L332,103.913182 Z M332.710948,110 C332.615742,110.848244 332.439171,111.734495 332.179305,112.658987 L332,113.261077 L334.19185,114 L334.205756,113.955494 C334.603135,112.682036 334.867663,111.455917 335,110.276861 L332.710948,110 Z M330.495602,116 C330.020793,117.079593 329.521908,118.097171 329,119.053014 L331.425898,120 C331.976869,118.99093 332.501828,117.920169 333,116.787456 L330.495602,116 Z M327.848228,121 C327.257861,122.238026 326.641116,123.371175 326,124.400263 L327.998002,126 C328.696442,124.878898 329.364251,123.651928 330,122.318734 L327.848228,121 Z M324.29611,126 C323.55643,126.853533 322.789748,127.584444 322,128.195018 L323.377287,130 C324.288298,129.295673 325.163796,128.461024 326,127.496111 L324.29611,126 Z M319.924087,129 C318.970897,129.613155 317.994037,130.033745 317,130.267921 L317.437865,133 C318.655613,132.713121 319.847369,132.200007 321,131.458559 L319.924087,129 Z M315,130.547354 C313.913193,130.526505 312.817282,130.341681 311.727558,130 L311,132.341681 C312.306179,132.751232 313.630808,132.974629 314.953378,133 L315,130.547354 Z M309,129.84122 C307.875631,129.34472 306.780976,128.725964 305.738365,128 L304,129.890167 C305.188669,130.71783 306.443291,131.427009 307.740883,132 L309,129.84122 Z M304,126.039215 C303.23632,125.107537 302.531993,124.086181 301.903516,123 L300,124.59554 C300.703473,125.811334 301.492106,126.954943 302.348721,128 L304,126.039215 Z M301,120.926677 C300.395348,119.971906 299.900777,118.988529 299.529191,118 L297,118.689357 C297.422168,119.812449 297.98127,120.924137 298.662609,122 L301,120.926677 Z M299,115.608368 C298.860201,114.879728 298.788371,114.161307 298.785998,113.459686 C298.785948,113.096928 298.817641,112.738929 298.88414,112.349716 L296.127851,112 C296.041954,112.502747 295.999925,112.977498 296,113.463344 C296.002822,114.299291 296.087496,115.146182 296.251313,116 L299,115.608368 Z M299.530656,110 C299.885933,109.080464 300.377537,108.078572 301,107.008214 L298.61278,106 C297.936733,107.162497 297.396853,108.262775 297,109.289922 L299.530656,110 Z M302.109648,105 C302.670461,103.887925 303.30192,102.734595 304,101.548215 L301.979239,100 C301.250621,101.23828 300.589506,102.445774 300,103.614746 L302.109648,105 Z M304.897535,100 C305.553903,98.9293792 306.255687,97.840155 307,96.737372 L305.168391,95 C304.401735,96.135885 303.677969,97.2592286 303,98.3650828 L304.897535,100 Z M308.75533,95 C309.471864,93.9668519 310.220809,92.926634 311,91.8828066 L309.299869,90 C308.502037,91.0687989 307.734688,92.1345789 307,93.193903 L308.75533,95 Z M313.642534,90 C314.404497,89.2016108 315.190876,88.4032626 316,87.6069653 L314.4072,86 C313.581299,86.812808 312.778339,87.6279897 312,88.4435381 L313.642534,90 Z M317.546255,85 C318.345569,84.2289402 319.163924,83.461825 320,82.7001733 L318.50084,81 C317.648883,81.7761193 316.814828,82.5579518 316,83.3439768 L317.546255,85 Z M321.824024,81 C322.864125,80.2561444 323.923226,79.5191391 325,78.7901697 L323.233716,77 C322.137473,77.74215 321.059123,78.4925499 320,79.2500101 L321.824024,81 Z M326.719671,77 C327.798046,76.2834075 328.891853,75.5760134 330,74.878773 L328.338471,73 C327.21072,73.7095756 326.097531,74.4295044 325,75.1588263 L326.719671,77 Z M331.620714,73 C332.734791,72.3118863 333.861523,71.6349453 335,70.9699652 L333.438942,69 C332.280351,69.6767288 331.133733,70.3656171 330,71.0658712 L331.620714,73 Z M337.520374,70 C338.670074,69.341601 339.830208,68.696192 341,68.06444 L339.541792,66 C338.35104,66.6430713 337.170184,67.3000085 336,67.9701384 L337.520374,70 Z M342.417767,67 C343.603465,66.3732055 344.797766,65.7611525 346,65.1644193 L344.647805,63 C343.423466,63.6077052 342.207308,64.2309595 341,64.8691776 L342.417767,67 Z M348.312686,64 C349.534938,63.4075577 350.764238,62.8315903 352,62.2726089 L350.757114,60 C349.497826,60.5696226 348.245261,61.156491 347,61.7600857 L348.312686,64 Z M353.962282,61 C354.970432,60.4450256 355.983142,59.9083199 357,59.3903447 L356.097588,57 C355.060558,57.5282507 354.027891,58.0755328 353,58.6413748 L353.962282,61 Z M359.869153,58 C360.909294,57.4869736 361.953033,56.9941215 363,56.5218683 L362.195416,54 C361.126704,54.4820618 360.061442,54.9850769 359,55.5086096 L359.869153,58 Z M364.769626,56 C365.843803,55.5340237 366.920707,55.0902979 368,54.6692204 L367.30028,52 C366.197459,52.4302568 365.097253,52.883584 364,53.3595704 L364.769626,56 Z M371.662062,54 C372.772894,53.6908086 373.885643,53.4000352 375,53.1279643 L374.413807,51 C373.273935,51.2783004 372.135897,51.5756825 371,51.8918503 L371.662062,54 Z M377.544892,52 C378.695538,51.7374423 379.847335,51.4952549 381,51.2737133 L380.537513,49 C379.357163,49.2268626 378.177896,49.4748261 377,49.7436018 L377.544892,52 Z M383.416248,51 C384.610503,50.7922538 385.805174,50.6071101 387,50.4448407 L386.673175,48 C385.448344,48.1663445 384.223862,48.356108 383,48.5690046 L383.416248,51 Z M389.273885,50 C390.516302,49.8576038 391.758421,49.7404224 393,49.6487283 L392.822907,47 C391.548897,47.0940892 390.27451,47.2143147 389,47.3603892 L389.273885,50 Z M395.114931,50 C396.41103,49.9373338 397.706129,49.9029856 399,49.8972333 L398.989422,47 C397.660646,47.0059075 396.330758,47.0411783 395,47.1055203 L395.114931,50 Z M402,49.9139391 C403.30888,49.9290543 404.616617,49.9577414 405.923212,50 L406,47.0871441 C404.67695,47.0443532 403.352759,47.0153052 402.027428,47 L402,49.9139391 Z M408,49.7874488 C409.282302,49.8452922 410.563485,49.9161426 411.843547,50 L412,47.2152401 C410.703736,47.1303213 409.406347,47.0585747 408.107834,47 L408,49.7874488 Z M414,50.6705709 C415.256671,50.7678674 416.512243,50.8776771 417.766717,51 L418,48.3336063 C416.729617,48.2097322 415.458124,48.0985301 414.185521,48 L414,50.6705709 Z M421,50.562374 C422.231928,50.6962033 423.462779,50.8420786 424.692554,51 L425,48.4431718 C423.754646,48.2832498 422.508196,48.1355258 421.260651,48 L421,50.562374 Z M427,51.4620557 C428.208048,51.6297697 429.415041,51.8090843 430.62098,52 L431,49.5447369 C429.778845,49.3514123 428.55661,49.1698333 427.333296,49 L427,51.4620557 Z M433,52.36931 C434.185051,52.5683678 435.36907,52.7785977 436.552057,53 L437,50.638602 C435.80219,50.4144255 434.603317,50.201558 433.403381,50 L433,52.36931 Z M439,53.2830626 C440.16272,53.5112894 441.32443,53.7502684 442.485132,54 L443,51.7258469 C441.824897,51.4730169 440.648749,51.2310678 439.471555,51 L439,53.2830626 Z M445,55.2026666 C446.14124,55.4580859 447.281492,55.7238636 448.420759,56 L449,53.8071217 C447.846776,53.5276022 446.692524,53.2585615 445.537245,53 L445,55.2026666 Z M452,56.1273156 C453.12058,56.4082207 454.240196,56.6991153 455.358847,57 L456,54.8832389 C454.867852,54.578724 453.734694,54.2843108 452.600528,54 L452,56.1273156 Z M458,58.7431875 C459.100507,59.149294 460.200072,59.5682313 461.298696,60 L462,57.2717492 C460.888356,56.8348633 459.775722,56.4109466 458.662098,56 L458,58.7431875 Z M464,59.6562902 C465.081392,60.0918157 466.161863,60.5397187 467.241415,61 L468,58.3593673 C466.907908,57.8937392 465.814846,57.4406166 464.720813,57 L464,59.6562902 Z M469,62.5738181 C470.062945,63.0372606 471.12499,63.5126543 472.186136,64 L473,61.4424372 C471.926801,60.9495559 470.85265,60.4687433 469.777547,60 L469,62.5738181 Z M475,64.4970337 C476.045001,64.9864932 477.089125,65.4874817 478.13237,66 L479,63.5196876 C477.945191,63.0014885 476.889451,62.4949258 475.832779,62 L475,64.4970337 Z M481,66.424366 C482.027853,66.9384402 483.054848,67.4636513 484.080985,68 L485,65.592713 C483.962785,65.0505737 482.924657,64.5196692 481.885617,64 L481,66.424366 Z M487,69.3563721 C488.011205,69.8934943 489.021571,70.44137 490.031101,71 L491,68.6609558 C489.979873,68.0964614 488.958854,67.5428093 487.936942,67 L487,69.3563721 Z M492,72.2921324 C493.243989,72.8510312 494.486956,73.4203202 495.7289,74 L497,71.7253524 C495.745398,71.1397644 494.489705,70.5646467 493.232922,70 L492,72.2921324 Z M498,75.2316595 C499.22467,75.8110644 500.44834,76.400511 501.671012,77 L503,74.7858977 C501.765245,74.1804843 500.529424,73.5851848 499.292538,73 L498,75.2316595 Z M503,78.1745111 C504.206053,78.7732975 505.41113,79.3817936 506.615232,80 L508,77.8430453 C506.784374,77.218922 505.567706,76.6045734 504.349997,76 L503,78.1745111 Z" id="arrow" fill="#52DC82" transform="translate(330.000000, 116.500000) rotate(27.000000) translate(-330.000000, -116.500000)"/></g></svg>