<svg viewBox="55.52884615384619 52.85000000000002 713.9423076923078 964.5124999999999" xmlns="http://www.w3.org/2000/svg" xmlns:xlink="http://www.w3.org/1999/xlink" overflow="visible" width="713.9423076923078px" height="964.5124999999999px"><defs><path d="M642.944213,0 L642.944213,1053 L131.02602,1053 L131.02602,902.717955 L39.2422987,906.134272 C31.6560495,906.399443 25.2914211,900.458648 25.0265035,892.865133 L0.265466928,183.122784 C0.000549267379,175.52927 5.93566118,169.158547 13.5219104,168.893376 L25.7990012,0 L642.944213,0 Z" id="mastercompsphone-path-1"/></defs><g id="Master/Comps/Phone" stroke="none" stroke-width="1" fill="none" fill-rule="evenodd"><g id="Small Elements" opacity=".739" transform="translate(510.000000, 281.000000) scale(0.5481481481481482 0.5481481481481482)"><g id="Small Elements/Halfsies" stroke="none" stroke-width="1" fill="none" fill-rule="evenodd"><path d="M149,14 C192.015543,14 230.332189,34.1183725 255.053868,65.4590479 L209.18967,111.32319 C196.634012,91.3074515 174.371067,78 149,78 C109.787783,78 78,109.787783 78,149 C78,174.371067 91.3074515,196.634012 111.32319,209.18967 L65.4590479,255.053868 C34.1183725,230.332189 14,192.015543 14,149 C14,74.4415588 74.4415588,14 149,14 Z" id="Combined-Shape" fill="#BE6FFB"/></g></g><g id="Small Elements" transform="translate(58.000000, 759.000000) scale(0.9481481481481482 0.9481481481481482)"><g id="Small Elements/Donut" stroke="none" stroke-width="1" fill="none" fill-rule="evenodd"><path d="M135,0 C209.558441,0 270,60.4415588 270,135 C270,209.558441 209.558441,270 135,270 C60.4415588,270 0,209.558441 0,135 C0,60.4415588 60.4415588,0 135,0 Z M135,64 C95.7877828,64 64,95.7877828 64,135 C64,174.212217 95.7877828,206 135,206 C174.212217,206 206,174.212217 206,135 C206,95.7877828 174.212217,64 135,64 Z" id="Combined-Shape" fill="#FFB748"/></g></g><path d="M623.765826,605.166321 C638.695353,600.281758 650.273803,592.740736 660.608276,583.080394 C662.404744,581.401153 662.614639,579.966695 661.899664,577.800335 C657.633267,564.877318 651.238559,553.185882 642.000253,543.145002 C632.541894,532.862812 621.251119,525.448433 607.547407,522.20566 C593.848768,518.961238 581.067134,521.15042 569.670133,529.690145 C551.959328,542.960564 547.081271,566.690447 558.227,585.355562 C564.062505,595.127404 572.800653,601.345638 583.424966,604.95213 C597.342341,609.6769 611.288835,609.134775 623.765826,605.166321 Z M716.412404,495.266205 C714.466836,499.506282 712.606032,503.787421 710.562686,507.980865 C703.937201,521.56641 697.477412,535.239521 690.507078,548.647303 C684.396866,560.400768 676.705684,571.146068 667.496669,580.724085 C666.267355,582.003353 666.385921,583.14441 666.704659,584.564279 L666.749256,584.759665 C670.387763,600.466224 670.53222,616.160029 666.52093,631.843271 C661.52229,651.379644 650.892147,667.329017 635.680799,680.367962 C622.303138,691.835273 607.074064,699.940608 590.164502,704.748834 C558.102171,713.867272 525.912268,714.365063 493.761824,705.277903 C475.854412,700.217999 459.009177,692.530895 442.704897,683.616587 C427.153924,675.111338 412.677445,665.008121 398.679016,654.190958 C397.758716,653.479146 396.890966,652.670458 396.145111,651.784362 C395.920543,651.519917 396.061512,650.768489 396.280164,650.376834 C396.4151,650.136984 397.102916,649.969501 397.391692,650.099679 C398.155618,650.442285 398.872626,650.916339 399.54517,651.421642 C413.66535,662.070441 428.112404,672.22102 443.656155,680.734216 C461.270986,690.38474 479.52277,698.482859 498.985643,703.649184 C514.958535,707.888601 531.245138,709.119587 547.711384,708.511343 C558.58566,708.109984 569.349339,706.807929 579.943785,704.342818 C605.844876,698.316926 628.395495,686.358426 645.638618,665.750079 C661.252813,647.089252 667.774603,625.284116 666.179226,601.077634 C665.86492,596.317391 664.901227,591.601541 664.20765,586.867927 C664.133122,586.371325 663.850732,585.90306 663.513338,585.028452 L661.699952,586.560009 C661.47823,586.749021 661.262561,586.935147 661.050581,587.122218 L660.73508,587.404013 C649.744311,597.329949 637.332936,604.780167 622.959069,608.634291 C605.975226,613.188043 589.329356,612.450403 573.665146,603.937145 C558.342776,595.609626 549.772485,582.499536 549.461811,564.975273 C549.148195,547.230759 557.271374,533.595399 572.512173,524.621025 C585.730138,516.838728 599.833405,516.522245 614.114475,521.519976 C630.172809,527.13868 642.476992,537.603307 652.054913,551.461236 C656.852941,558.403516 660.691595,565.836147 663.444666,573.811336 L663.769816,574.770967 C664.099148,575.762998 664.504072,576.729068 665.078325,578.24214 C666.378233,576.962945 667.470735,576.03675 668.39296,574.961474 C674.993462,567.26425 680.763672,558.981375 685.870391,550.221057 C693.33985,537.414125 699.441877,523.92866 705.738604,510.538139 L712.826575,495.52268 C713.307396,494.502622 713.726946,493.45347 714.458889,491.762398 C710.44342,492.791293 707.220941,493.997946 703.997315,495.244172 C701.599985,496.170117 699.165901,497.006889 696.720051,497.801464 L694.648933,498.466839 C693.6843,498.761526 692.588926,498.956183 692.158566,497.78037 C691.627905,496.330036 693.045582,495.958556 694.118168,495.578319 L694.235808,495.535979 C700.534199,493.231899 706.835058,490.935417 713.140443,488.652865 C713.939966,488.363683 714.76437,488.125219 715.597502,487.956722 L715.981218,487.884416 C717.754118,487.580788 718.366181,487.961871 718.86829,489.894281 C719.9111,493.905402 720.821792,497.95385 721.722383,502.001379 C722.460408,505.315836 723.16412,508.637709 723.87514,511.958451 L724.952357,516.937647 C725.199779,518.065497 725.330197,519.182361 723.95241,519.523628 C722.56431,519.868299 722.170072,518.780724 721.939679,517.760294 L721.912765,517.638261 C720.904987,512.959135 719.938124,508.272316 718.970848,503.584231 C718.399514,500.812967 717.856427,498.038125 717.299438,495.2636 L716.412404,495.266205 L716.412404,495.266205 Z" id="arrow" fill="#55B0EB"/><g id="Phone" transform="translate(153.256932, 151.000000)"><path d="M24.0378358,18.3137908 L349.500243,6.93237522 C362.909824,6.46105422 374.18224,16.8419689 374.865952,30.1924464 L374.88342,30.5979071 C374.883448,30.5987103 374.883476,30.5995134 374.881095,30.6004006 L400.056668,752.550537 C400.526568,766.094842 389.930408,777.457833 376.386317,777.933883 L50.9239098,789.315298 C37.5143289,789.786619 26.241913,779.405704 25.5582017,766.055227 L25.540733,765.649766 C25.5407049,765.648963 25.5406768,765.64816 25.5430582,765.647273 L0.367485065,43.697136 C-0.102414332,30.1528309 10.4937455,18.7898399 24.0378358,18.3137908 Z" id="base" fill="#3F8FD4"/><path d="M33.2868154,11.5876761 L358.749223,0.206260571 C372.158804,-0.265060427 383.43122,10.1158543 384.114931,23.4663317 L384.1324,23.8717925 C384.132428,23.8725956 384.132456,23.8733988 384.130075,23.874286 L409.305648,745.824423 C409.775547,759.368728 399.179387,770.731719 385.635297,771.207768 L60.1728894,782.589183 C46.7633084,783.060504 35.4908926,772.67959 34.8071813,759.329112 L34.7897126,758.923652 C34.7896845,758.922848 34.7896564,758.922045 34.7920378,758.921158 L9.61646466,36.9710213 C9.14656526,23.4267163 19.7427251,12.0637253 33.2868154,11.5876761 Z" id="base" fill="#0A1B45"/><path d="M105.922433,44.4963838 C106.069881,48.7227923 109.552741,52.0454665 113.750399,52.0182944 L113.975942,52.0136203 L281.6821,46.1515638 C285.904451,46.0039743 289.223935,42.5177666 289.196789,38.3160747 L289.192119,38.0903146 L288.534964,19.2537599 L352.767903,17.0085405 C360.352167,16.7434376 366.71513,22.6826989 366.979978,30.2742519 L391.734535,739.833293 C391.999384,747.424846 386.065825,753.793924 378.481561,754.059027 L65.718232,764.99146 C58.133968,765.256562 51.7710052,759.317301 51.5061569,751.725748 L26.7515999,42.1667072 C26.4867516,34.5751542 32.4203103,28.2060762 40.0045744,27.9409733 L105.265277,25.6598291 L105.922433,44.4963838 Z" id="Path" fill="#281883"/></g><g id="Character" transform="translate(180.000000, 10.000000)"><mask id="mastercompsphone-mask-2" fill="#fff"><use xlink:href="#mastercompsphone-path-1"/></mask><g id="Mask"/><g mask="url(#mastercompsphone-mask-2)"><g transform="translate(-304.000000, 66.000000) scale(1.081858407079646 1.081490104772992)" id="Master/Character/Standing"><g id="Master/Character/Standing" stroke="none" stroke-width="1" fill="none" fill-rule="evenodd"><g id="Legs" transform="translate(50.000000, 263.000000) scale(1 1)"><g id="Legs/Pants Stride" stroke="none" stroke-width="1" fill="none" fill-rule="evenodd"><g id="Right-leg" transform="translate(340.912300, 0.000075)"><path d="M351.570952,557.400568 L292.421642,588.268621 C289.23919,589.928579 285.361168,588.667216 283.759463,585.45079 C246.439243,510.875624 199.230368,417.989682 161.287429,343.131708 C156.535206,333.763189 159.73662,322.39145 168.445702,317.732295 L207.213943,296.98589 C215.92103,292.326735 226.838569,296.144639 231.593785,305.518281 C251.975853,345.704643 292.982488,426.593799 313.314658,466.827296 C327.03044,493.982986 340.71828,521.075146 354.368197,548.438842 C356.005828,551.729043 354.753405,555.740609 351.570952,557.400568" id="SKIN-DARKER" fill="#543629"/><path d="M86.3018681,0.553047184 L3.58722884,44.8848046 C0.925720594,46.310596 0.289077427,50.4516434 2.16502598,54.1345105 C47.1498124,143.092204 210.139458,465.665446 251.855077,548.999925 L347.0877,498.490422 C306.772296,419.027412 139.536031,92.5806506 95.7585677,7.05572162 C94.3243715,3.06432593 89.8698682,-1.62510275 86.3018681,0.553047184" id="Fill-3" fill="#051026"/><polygon id="Fill-5" fill="#FFF" points="351.0877 540.556344 280.284523 577.999925 267.0877 551.628227 337.798704 513.999925"/><path d="M343.719319,525.999925 C338.839171,528.596035 321.243031,537.953385 304.83617,546.680031 C313.20814,560.743411 282.702962,576.912582 276.474497,561.764307 C274.326992,562.907008 273.0877,563.566616 273.0877,563.566616 L289.211494,595.999925 L392.0877,542.206257 L386.757446,531.444014 C382.48344,522.799949 353.425603,535.562693 343.719319,525.999925" id="Fill-7" fill="#0A1B45"/></g><path d="M243,0 C243,55.228475 289.562386,100 347,100 C404.437614,100 451,55.228475 451,0" id="Path" fill="#0A1B45"/><g id="Left-Leg" transform="translate(15.000400, 0.000075)"><path d="M30.239127,557.161414 L6.48321118,491.091216 C5.21392545,487.532681 6.52914914,483.643194 9.42224179,482.410903 C17.7749608,479.121599 25.640338,474.891582 33.6914643,471.031892 C59.328839,457.46285 83.4372787,440.300156 104.929252,420.190817 C135.662744,390.774378 160.646002,356.076536 180.175626,316.548494 C182.322726,312.342953 185.979787,309.372897 190.199089,307.916068 C200.492187,302.022777 233.664385,326.382352 243.12361,329.170438 C247.552628,331.433896 250.627475,335.548984 251.969663,340.466445 C253.653389,376.004969 183.860649,458.895203 157.588132,483.422914 C141.92229,498.068881 124.074395,512.379639 106.514112,524.333293 C94.3745071,532.319777 81.4759276,540.045543 68.7441229,546.868906 C60.3704323,549.247293 34.5433138,569.214035 30.239127,557.161414" id="SKIN" fill="#694d3d"/><path d="M327.589239,-7.48875118e-05 L234.263966,2.49908329 C229.168425,2.66739829 228.517611,9.87191949 228.971481,14.5112349 C230.778964,179.189353 185.88582,369.76348 39.9996,452.672467 L91.3448955,552.999925 C227.004045,476.171584 302.743354,318.80132 323.872303,161.436382 C326.849451,141.283324 342.647926,1.01301097 327.589239,-7.48875118e-05" id="Fill-12" fill="#0A1B45"/><path d="M44.8850906,557.999925 L13.9996,479.217498 C21.9808145,475.635354 30.8073943,471.323017 38.4599114,466.999925 L74.9996,542.961589 C65.5638745,548.266517 54.7138457,553.5865 44.8850906,557.999925" id="Fill-14" fill="#FFF"/><path d="M62.9996,549.37113 C60.6360448,544.095785 52.1153883,525.069219 44.1695419,507.327972 C31.6000913,515.152677 16.6218644,483.646376 30.4343923,476.662236 C29.3943075,474.338445 28.7933695,472.999925 28.7933695,472.999925 C20.8193856,477.171895 8.37755891,482.485544 -0.00040000003,485.956334 L40.2423423,600.999925 L52.6550265,595.76714 C63.0086442,589.458645 52.9112793,557.402253 62.9996,549.37113" id="Fill-16" fill="#0A1B45"/><path d="M281.629623,1.99992511 L279.631892,2.05201959 C285.059729,189.839841 231.3627,406.728274 64.9996,501.133029 L65.9555146,502.999925 C233.003836,408.206056 287.085428,190.604248 281.629623,1.99992511" id="Fill-18" fill="#FFF"/></g></g></g><g id="Body" transform="translate(17.000000, -31.000000) scale(1 1)"><g id="Body/Short Tee Grab Up" stroke="none" stroke-width="1" fill="none" fill-rule="evenodd"><g id="Right-Arm" transform="translate(426.000000, 38.000000)"><path d="M365.544261,2.8032 C371.116261,3.8252 373.775261,12.9202 368.235261,15.5172 C364.094123,16.9455422 357.631179,18.5673683 351.295822,20.4525791 C355.214198,22.2360506 358.152876,24.7022416 360.274761,27.0301 C365.055761,32.2411 358.918761,41.2451 351.376761,39.0791 C343.34324,35.3798181 334.274635,31.5365887 324.72152,32.8601117 C324.691276,32.8854696 324.661139,32.910742 324.63108,32.9360493 C320.152484,36.7065541 317.372617,41.251398 317.849261,46.7752 C318.672341,56.57768 325.139151,58.6824848 331.769074,58.7010446 L332.030854,58.7007064 C334.03829,58.6900024 336.054061,58.49499 337.926261,58.2712 C338.315541,58.22608 338.696061,58.2051392 339.067386,58.2067161 L339.344148,58.2120949 C348.053266,58.5144775 351.514211,71.28395 343.894261,74.2622 C328.855261,80.0992 309.119261,80.5192 294.870261,88.3242 L294.849192,88.327636 C266.533564,105.534006 237.751875,121.621899 207.611861,136.2574 C171.966861,153.4614 133.802861,168.6444 94.811861,178.2794 C83.707831,181.18794 70.951378,184.427805 59.4080304,184.576447 L58.5656017,184.581757 C42.3221118,184.575837 28.646141,178.21674 25.649861,155.8154 C24.782861,138.6634 36.128861,122.4534 52.870861,119.5614 C70.444861,116.6894 88.089861,112.2174 105.118861,106.7834 C155.860861,90.4624 204.336861,65.3574 250.602861,37.9204 C254.658176,34.8390649 258.96709,32.2021766 263.381366,30.1892608 C287.866527,14.9770292 312.555679,3.11221479 337.031261,0.5002 C353.349261,-1.1798 362.752261,2.2652 365.544261,2.8032 Z" id="SKIN" fill="#694d3d"/><path d="M365.544261,2.8032 C371.116261,3.8252 373.775261,12.9202 368.235261,15.5172 C364.094123,16.9455422 357.631179,18.5673683 351.295822,20.4525791 C355.214198,22.2360506 358.152876,24.7022416 360.274761,27.0301 C365.055761,32.2411 358.918761,41.2451 351.376761,39.0791 C343.34324,35.3798181 334.274635,31.5365887 324.72152,32.8601117 C324.691276,32.8854696 324.661139,32.910742 324.63108,32.9360493 C320.152484,36.7065541 317.372617,41.251398 317.849261,46.7752 C318.672341,56.57768 325.139151,58.6824848 331.769074,58.7010446 L332.030854,58.7007064 C334.03829,58.6900024 336.054061,58.49499 337.926261,58.2712 C338.315541,58.22608 338.696061,58.2051392 339.067386,58.2067161 L339.344148,58.2120949 C348.053266,58.5144775 351.514211,71.28395 343.894261,74.2622 C328.855261,80.0992 309.119261,80.5192 294.870261,88.3242 L294.849192,88.327636 C266.533564,105.534006 237.751875,121.621899 207.611861,136.2574 C171.966861,153.4614 133.802861,168.6444 94.811861,178.2794 C83.707831,181.18794 70.951378,184.427805 59.4080304,184.576447 L58.5656017,184.581757 C42.3221118,184.575837 28.646141,178.21674 25.649861,155.8154 C24.782861,138.6634 36.128861,122.4534 52.870861,119.5614 C70.444861,116.6894 88.089861,112.2174 105.118861,106.7834 C155.860861,90.4624 204.336861,65.3574 250.602861,37.9204 C254.658176,34.8390649 258.96709,32.2021766 263.381366,30.1892608 C287.866527,14.9770292 312.555679,3.11221479 337.031261,0.5002 C353.349261,-1.1798 362.752261,2.2652 365.544261,2.8032 Z" id="SKIN-DARKER" fill="#543629"/><path d="M99.493161,98.0624 C86.183161,102.2694 76.4121833,105.971434 55.7761833,108.591034 C35.1401833,111.210634 9.52899977,111 9.52899977,111 C-10.6630002,133.936 6.41716096,188.8424 38.138161,196.5224 C64.889161,201.8384 99.439161,188.8654 125.709161,182.0664 L99.493161,98.0624 Z" id="Fill-8" fill="#051026"/></g><g id="body" transform="translate(272.000000, 149.000000)"><rect id="SKIN" fill="#694d3d" x="18" y="101" width="180" height="48"/><path d="M40,0 L176,0 C198.09139,-4.05812251e-15 216,17.90861 216,40 L216,117 L216,117 L0,117 L0,40 C-2.705415e-15,17.90861 17.90861,4.05812251e-15 40,0 Z" fill="#0A1B45"/></g><g id="Left-Arm" transform="translate(210.000000, 149.000000)"><path d="M204.1724,257.334426 L204.1724,257.334426 C207.3734,303.701426 149.4474,293.043426 119.8864,284.852426 C81.3644,274.304426 45.2224,249.433426 24.7034,213.994426 C3.6584,179.134426 -0.3546,134.534426 9.7234,96.0004259 C19.4594,63.7304259 41.5064,-6.30357411 84.8584,23.6194259 C97.7154,34.5644259 101.9254,53.8494259 93.2774,67.8604259 C71.7394,101.354426 60.6794,145.138426 81.5894,180.527426 C93.5944,201.081426 114.4814,214.852426 137.7694,221.321426 C165.8554,230.053426 195.5344,217.853426 204.1724,257.334426" id="SKIN" fill="#694d3d"/><path d="M213.9537,280.141026 C214.7857,285.452026 210.5247,289.833026 205.2047,290.490026 C186.3377,291.552026 153.0167,296.453026 136.3957,286.034026 C130.7407,279.366026 138.4267,270.466026 146.1137,272.111026 C165.1297,274.997026 184.3127,274.887026 203.0187,272.622026 C208.0427,271.965026 213.0767,275.086026 213.9537,280.141026" id="SKIN" fill="#694d3d"/><path d="M213.4283,264.006326 C214.2943,268.873326 210.7393,273.667326 205.3933,274.322326 C196.1803,274.533326 177.9493,281.287326 176.5533,267.307326 C177.4673,254.123326 194.1373,258.905326 203.0503,256.475326 C207.9303,255.883326 212.5523,259.086326 213.4283,264.006326" id="SKIN" fill="#694d3d"/><path d="M212.6343,247.916426 C214.3393,257.609426 203.6073,258.985426 196.4563,259.251426 C189.2803,260.325426 178.7113,261.329426 178.4143,251.311426 C178.3223,241.842426 187.6143,241.692426 194.6683,241.342426 C201.6393,240.295426 210.9093,238.582426 212.6343,247.916426" id="SKIN" fill="#694d3d"/><path d="M200.5796,224.521926 C201.7416,239.198926 181.8856,234.209926 172.7016,235.292926 C168.3146,235.167926 165.0726,230.965926 165.4516,225.975926 C165.8146,221.052926 169.1956,217.181926 173.0286,217.293926 C182.0646,218.951926 198.3106,211.023926 200.5796,224.521926" id="SKIN" fill="#694d3d"/><path d="M231.8375,227.058026 C238.5625,243.813026 186.2965,243.436026 176.2305,244.307253 C171.5925,244.343026 168.0735,240.089026 168.3375,235.138026 C168.6045,230.162026 172.0895,226.344026 176.1895,226.305026 C191.1745,226.255026 206.5345,224.172026 221.7685,220.412026 C225.9425,219.336026 230.4495,222.274026 231.8375,227.058026" id="SKIN" fill="#694d3d"/><path d="M0,89.5969259 C11.181,57.0679259 26.4926686,17.7680023 62,5.7709131 C79.0799533,-2.84217094e-14 100.230641,-2.84217094e-14 100.230641,-2.84217094e-14 C129.947829,37.0461403 100.230641,83.8961172 84.939,112.603926 L0,89.5969259 Z" id="Fill-19" fill="#0A1B45"/></g><path d="M334,149 C334,167.225397 354.594902,182 380,182 C405.405098,182 426,167.225397 426,149" id="SKIN" fill="#694d3d"/></g></g><g id="Head" transform="translate(338.000000, -61.000000) scale(1 1)"><g id="Head/Bun" stroke="none" stroke-width="1" fill="none" fill-rule="evenodd"><circle id="Oval" fill="#000" cx="29" cy="70" r="25"/><g id="Head" transform="translate(22.000000, 72.000000)"><g id="head" transform="translate(0.000000, 0.000100)" fill="#694d3d"><path d="M13,62 L58,62 L58,113.633 C58,127.538 47.926,138.81 35.5,138.81 C23.074,138.81 13,127.538 13,113.633 L13,62 Z" id="SKIN"/><path d="M60.0525,94 L55.0655,94 C31.8335,94 13.0005,75.167 13.0005,51.935 L13.0005,32.203 C13.0005,14.418 27.4175,0 45.2035,0 L50.7965,0 C68.5825,0 83.0005,14.418 83.0005,32.203 L83.0005,71.052 C83.0005,83.726 72.7265,94 60.0525,94" id="SKIN"/><path d="M25,58.5 C25,65.403 19.404,71 12.5,71 C5.596,71 0,65.403 0,58.5 C0,51.597 5.596,46 12.5,46 C19.404,46 25,51.597 25,58.5" id="SKIN"/></g><path d="M10.067,53.1685 C10.9718309,53.1685 12.2239875,53.3771928 13.5088204,54.0196092 C15.6553998,55.0928989 17.0130325,57.055328 17.10411,59.9021045 L17.109,60.2105 L14.109,60.2105 C14.109,58.3751144 13.4076866,57.3231443 12.1671796,56.7028908 C11.7065142,56.4725581 11.1976823,56.3199085 10.686339,56.2346846 C10.4347302,56.1927498 10.2385731,56.1747448 10.1250097,56.169908 L10.067,56.1685 L10.067,53.1685 Z" id="ear-line" fill="#000"/><path d="M34.7507501,96.3317762 C25.4557924,93.0436693 20.8185822,84.7387742 18.9822222,73.5681961 C26.2532122,85.6702724 39.4406226,93.8133264 54.5439426,93.9968331 L55.0655,94 L58,94 C50.0632106,98.2298391 42.3134606,99.0070978 34.7507501,96.3317762 Z" id="SHADOW" fill="#000" opacity=".12"/></g><path d="M72.8086245,72 C89.5888073,72 103.384617,84.7181817 104.999901,100.998998 L43.973,100.998 L39.4959832,117.92634 L37.6122668,117.973042 C36.103273,118.003782 34.2071707,118.024615 34.0157661,117.940922 L34,117.92634 L34.0133311,116.935282 C34.0935066,112.893789 34.4987262,104.151433 34.4987262,104.151433 C34.4987262,86.5724777 48.6220557,72.2882344 66.1518229,72.0043074 L66.6840596,72 L72.8086245,72 Z" id="Path" fill="#000"/></g></g><g id="Expression" transform="translate(385.000000, 34.000000) scale(1 1)" fill="#000"><g id="Expression/Happy" stroke="none" stroke-width="1" fill="none" fill-rule="evenodd"><path d="M20.5607,22 C20.5607,20.343 19.2177,19 17.5607,19 C15.9037,19 14.5607,20.343 14.5607,22 C14.5607,23.657 15.9037,25 17.5607,25 C19.2177,25 20.5607,23.657 20.5607,22" id="Fill-1" fill="#000"/><path d="M46.5607,22 C46.5607,20.343 45.2177,19 43.5607,19 C41.9037,19 40.5607,20.343 40.5607,22 C40.5607,23.657 41.9037,25 43.5607,25 C45.2177,25 46.5607,23.657 46.5607,22" id="Fill-3" fill="#000"/><polygon id="Stroke-5" fill="#000" points="33.1977829 19.396766 36.1476171 18.850434 40.4350211 41.9996 30.5607 41.9996 30.5607 38.9996 36.828 38.999"/><path d="M21.9219,41.586 C21.9219,45.2602625 25.6639817,48.6581933 29.6815435,48.7900329 L29.9229,48.794 L29.9229,51.794 C24.3252295,51.794 19.0961019,47.2280163 18.9261594,41.8552911 L18.9219,41.586 L21.9219,41.586 Z" id="Stroke-7" fill="#000"/><path d="M23.0607,9 L23.0607,12 C19.8342736,12 16.8913939,12.8655529 14.2891644,14.3112359 C13.508469,14.7449556 12.8086718,15.2043948 12.1956619,15.6654963 L11.8964164,15.8960741 C11.548672,16.1706093 11.3051282,16.3844813 11.1717567,16.5115787 L11.1213602,16.5606602 L9.00003983,14.4393398 C9.71719288,13.7221868 11.0118484,12.7000903 12.8322356,11.6887641 C15.7235813,10.0824609 18.9894549,9.08904431 22.5704367,9.00569674 L23.0607,9 Z" id="Stroke-9" fill="#000"/><path d="M37.0607,9 C40.8342736,9 44.2663939,10.0094471 47.2891644,11.6887641 C48.9957774,12.6368824 50.2403215,13.5944668 50.980139,14.3013772 L51.1213602,14.4393398 L49.0000398,16.5606602 L48.8084832,16.3819961 C48.6965748,16.2822525 48.549249,16.1566104 48.3676199,16.0099419 L48.2249836,15.8960741 C47.5437467,15.3582556 46.7430469,14.8172422 45.8322356,14.3112359 C43.3601176,12.937837 40.5805627,12.0880056 37.5425302,12.006456 L37.0607,12 L37.0607,9 Z" id="Stroke-11" fill="#000"/></g></g><g id="Accessories" transform="translate(372.000000, 56.000000) scale(1 1)" fill="#000"><g id="Accessories/None" stroke="none" stroke-width="1" fill="none" fill-rule="evenodd" fill-opacity="0"/></g><g id="Glasses" transform="translate(364.000000, 42.000000) scale(1 1)" fill="#000"><g id="Glasses/None" stroke="none" stroke-width="1" fill="none" fill-rule="evenodd" fill-opacity="0"/></g></g></g></g></g></g></svg>