<svg viewBox="27.375 251.81034482758605 2107.875 875.8620689655172" xmlns="http://www.w3.org/2000/svg" xmlns:xlink="http://www.w3.org/1999/xlink" overflow="visible" width="2107.875px" height="875.8620689655172px"><defs><rect id="mastersceneoffice-hours-path-1" x="0" y="0" width="843" height="393"/></defs><g id="Master/Scene/Office Hours" stroke="none" stroke-width="1" fill="none" fill-rule="evenodd"><g id="Small Elements" transform="translate(314.000000, 359.000000) scale(1 1)"><g id="Small Elements/Big Graph" stroke="none" stroke-width="1" fill="none" fill-rule="evenodd"><g id="Pie-Chart" transform="translate(29.000000, 29.000000)"><path d="M212,107.648233 C212,48.4524698 164.2894,0 106,0 L106,107.648233 L178.4404,186 C199.0468,166.843997 212,138.742426 212,107.648233 Z" id="Value" fill="#F2F2F2"/><path d="M108.926458,106 L2,106 C2,133.6713 13.275395,159.5989 31.1000356,178.4404 C50.7050018,199.0468 78.6235001,212 108.926458,212 C136.83961,212 162.389688,200.8223 182,183.1521 L108.926458,106 Z" id="Value" fill="#AFB9C5"/><path d="M0,106 C0,47.7106 47.7106,0 106,0 L106,106 L0,106 Z M159,0 L116.6,95.4 L212,53 C202.566,28.2702 181.3819,9.434 159,0 Z" id="Value" fill="#902EE9"/></g></g></g><g id="Bottoms" transform="translate(1.000000, 717.000000) scale(0.9689655172413794 0.9679802955665024)"><defs><rect id="bottomscircles-path-1" x="0" y="0" width="870" height="406"/></defs><g id="Bottoms/Circles" stroke="none" stroke-width="1" fill="none" fill-rule="evenodd"><mask id="bottomscircles-mask-2" fill="#ffffff"><use xlink:href="#bottomscircles-path-1" fill="#ffffff"/></mask><g id="Mask"/><path d="M336,35 L642,407 L534.242,407 L336,166 L137.758,407 L30,407 L336,35 Z" id="Combined-Shape" fill="#BE6FFB" mask="url(#bottomscircles-mask-2)"/><circle id="Oval" fill="#902EE9" mask="url(#bottomscircles-mask-2)" cx="605" cy="391" r="217"/><circle id="Oval" fill="#BE6FFB" mask="url(#bottomscircles-mask-2)" cx="336" cy="406" r="108"/></g></g><g id="Plants/Big Plant" transform="translate(1513.000000, 165.000000) scale(1.459051724137931 1.4583333333333333)"><g id="Plants/Big Plant/Big Plant 1" stroke="none" stroke-width="1" fill="none" fill-rule="evenodd"><g id="Group" transform="translate(46.000000, 70.000000)"><path d="M207.727381,304.6152 C207.727381,304.6152 201.167381,281.8972 206.613381,267.2852 C212.059381,252.6712 218.401381,244.0572 231.889381,228.6952 C245.377381,213.3332 243.877381,203.9692 258.489381,186.7352 C273.101381,169.4992 298.203381,165.7532 316.561381,156.7612 C334.919381,147.7692 335.667381,138.0292 347.281381,131.8112 C358.895381,125.5912 374.631381,131.8112 374.631381,131.8112 C374.631381,131.8112 355.899381,137.2792 337.167381,155.6372 C318.435381,173.9952 323.515381,186.5032 308.529381,210.0552 L298.895381,220.2812 L207.727381,304.6152 Z" id="Fill-70" fill="#000"/><path d="M181.298781,334.998 C181.298781,334.998 192.728781,295.732 194.298781,276.25 C195.868781,256.768 196.260781,182.956 178.202781,143.302 C160.140781,103.648 143.258781,91.482 135.014781,81.666 C126.768781,71.848 125.984781,61.246 113.028781,50.646 C100.072781,40.046 78.1187807,39.83 69.8407807,32.586 C60.4187807,24.342 23.9047807,3.534 5.45278072,-2.84217094e-14 C5.45278072,-2.84217094e-14 24.6907807,25.912 31.7567807,53.788 C38.8247807,81.662 29.4027807,95.796 35.2907807,109.932 C41.1807807,124.064 53.3507807,137.022 61.5967807,153.51 C69.8407807,170 76.9087807,213.58 83.5827807,224.182 C130.982781,255.596 164.020781,301.33 183.942781,360.79 L181.298781,334.998 Z" id="Fill-71" fill="#870CF7"/><path d="M175.561381,460.2596 C175.435381,459.5296 162.495381,387.1896 117.457381,383.9316 C93.7873807,382.1696 87.2593807,419.4376 87.1953807,419.8156 L84.3733807,419.3396 C84.4413807,418.9356 86.1033807,409.2916 90.9353807,399.7116 C97.4833807,386.7276 106.725381,380.2976 117.665381,381.0756 C137.303381,382.4976 154.041381,396.6196 166.071381,421.9136 C175.067381,440.8276 178.351381,459.5876 178.381381,459.7756 L175.561381,460.2596 Z" id="Fill-72" fill="#000"/><path d="M184.468581,459.9628 C185.914581,422.2988 185.058581,384.5348 181.242581,347.0488 C177.424581,309.5748 170.516581,272.3708 159.754581,236.2588 C149.012581,200.1568 134.368581,165.1728 115.652581,132.4508 C114.584581,130.3468 113.280581,128.3808 112.052581,126.3728 L108.332581,120.3648 L100.892581,108.3448 C95.6365807,100.5288 90.1405807,92.8668 84.7745807,85.1148 L67.2645807,62.8988 L48.5445807,41.6688 C54.9385807,48.6028 61.4025807,55.4908 67.7525807,62.4828 L85.5805807,84.5088 C91.0565807,92.2048 96.6665807,99.8168 102.038581,107.5888 L109.564581,119.6028 L113.326581,125.6128 C114.568581,127.6228 115.884581,129.5888 116.966581,131.6928 C135.900581,164.4328 150.768581,199.4768 161.724581,235.6668 C172.702581,271.8648 179.814581,309.1808 183.824581,346.7788 C187.840581,384.3928 188.684581,422.2948 187.328581,460.0728 L184.468581,459.9628 Z" id="Fill-73" fill="#000"/><path d="M1.50378072,490.0682 C1.50378072,490.0682 0.80978072,475.3122 9.31578072,466.2862 C17.8217807,457.2602 33.0977807,457.9522 38.6517807,453.4422 C44.2077807,448.9282 46.6377807,441.6362 52.5397807,438.6862 C58.4417807,435.7342 65.7337807,441.6362 78.2317807,435.3862 C90.7297807,429.1362 92.9877807,386.6082 95.7637807,380.8782 C98.5417807,375.1502 119.893781,357.6162 119.893781,357.6162 C119.893781,357.6162 113.123781,361.0122 104.617781,360.7902 C96.1117807,360.5682 76.4957807,346.1602 71.2877807,347.0262 C66.0797807,347.8962 51.1457807,359.8722 48.5457807,363.8662 C45.9437807,367.8602 43.6857807,378.6202 32.0557807,389.2102 C20.4257807,399.8002 13.6557807,405.8762 11.2237807,412.2982 C8.79578072,418.7222 3.41378072,426.0142 3.93378072,431.0462 C4.45578072,436.0822 4.67178072,452.9882 3.67778072,456.5342 C2.68578072,460.0822 -2.51621928,481.0402 1.50378072,490.0682" id="Fill-74" fill="#BE6FFB"/><path d="M87.7673807,419.578 C87.7673807,419.578 88.3813807,417.162 89.5673807,412.854 C92.5193807,402.118 100.055381,382.928 118.055381,384.23 C137.369381,385.626 150.375381,397.402 159.565381,412.754 C159.565381,412.754 153.303381,400.194 154.305381,393.43 C155.307381,386.664 162.697381,378.774 161.445381,371.758 C160.193381,364.742 149.795381,364.368 142.905381,360.86 C136.015381,357.352 132.759381,351.84 125.117381,351.84 C117.475381,351.84 100.939381,373.386 95.9293807,378.022 C90.9193807,382.656 87.7673807,419.578 87.7673807,419.578" id="Fill-75" fill="#870CF7"/><path d="M186.898381,460.0604 L184.900381,459.9744 C189.132381,362.0744 229.004381,279.8824 306.796381,208.7024 L308.146381,210.1804 C230.766381,280.9824 191.106381,362.7184 186.898381,460.0604" id="Fill-76" fill="#000"/><path d="M302.534981,216.4178 C279.742981,234.2718 232.224981,247.9638 218.400981,270.2818 C200.552981,299.0978 206.570981,336.9798 208.966981,348.4158 C227.102981,302.1478 258.716981,259.4658 298.894981,220.2818 C300.244981,218.9638 301.328981,217.7978 302.534981,216.4178" id="Fill-77" fill="#BE6FFB"/><path d="M217.803581,576.494 L153.533581,576.494 C141.297581,576.494 131.377581,566.574 131.377581,554.338 L131.377581,460.018 L239.959581,460.018 L239.959581,554.338 C239.959581,566.574 230.039581,576.494 217.803581,576.494" id="Fill-78" fill="#CCA4FF"/></g></g></g><g id="Chair" transform="translate(1534.500000, 768.500000) scale(-1, 1) translate(-1534.500000, -768.500000) translate(1248.000000, 430.000000) scale(1.0893536121673004 1.0884244372990353)"><g id="Chair/Stool" stroke="none" stroke-width="1" fill="none" fill-rule="evenodd"><g id="Group-13" transform="translate(143.000000, 286.000000)"><path d="M27,336 L12,336 C5.4,336 0,330.343 0,323.429 L60,62.571 C60,55.657 65.4,50 72,50 L87,50 C93.6,50 99,55.657 99,62.571 L39,323.429 C39,330.343 33.6,336 27,336" id="Fill-1" fill="#DBAE84"/><path d="M130.5,336 L115.5,336 C108.9,336 103.5,330.343 103.5,323.429 L103.5,62.571 C103.5,55.657 108.9,50 115.5,50 L130.5,50 C137.1,50 142.5,55.657 142.5,62.571 L142.5,323.429 C142.5,330.343 137.1,336 130.5,336" id="Fill-3" fill="#C99F79"/><path d="M234,336 L219,336 C212.4,336 207,330.343 207,323.429 L147,62.571 C147,55.657 152.4,50 159,50 L174,50 C180.6,50 186,55.657 186,62.571 L246,323.429 C246,330.343 240.6,336 234,336" id="Fill-5" fill="#DBAE84"/><g id="Group-9" fill="#55B0EB"><path d="M218.2568,70 L27.7428,70 C12.4848,70 -0.0002,57.516 -0.0002,42.257 L-0.0002,27.743 C-0.0002,12.484 12.4848,0 27.7428,0 L218.2568,0 C233.5158,0 245.9998,12.484 245.9998,27.743 L245.9998,42.257 C245.9998,57.516 233.5158,70 218.2568,70" id="Fill-7"/></g><g id="Group-12" transform="translate(0.000000, 188.000000)" fill="#55B0EB"><path d="M230.9443,31 L15.0553,31 C6.7753,31 0.0003,24.225 0.0003,15.944 C0.0003,7.664 6.7753,0.889 15.0553,0.889 L230.9443,0.889 C239.2253,0.889 246.0003,7.664 246.0003,15.944 C246.0003,24.225 239.2253,31 230.9443,31" id="Fill-10"/></g></g></g></g><g id="Chair" transform="translate(431.000000, 430.000000) scale(1.0893536121673004 1.0884244372990353)"><g id="Chair/Home" stroke="none" stroke-width="1" fill="none" fill-rule="evenodd"><g id="Group-16" transform="translate(48.000000, 0.000000)"><path d="M349.491,622 L315.409,622 C313.332,622 311.61,620.52 311.468,618.612 L291.72,352.328 C291.72,341.653 301.121,333 312.72,333 C324.318,333 333.72,341.653 333.72,352.328 L353.431,618.117 C353.587,620.217 351.778,622 349.491,622" id="Fill-1" fill="#F38A27"/><path d="M150.4607,621.5 L118.4917,621.5 C115.3977,621.5 112.9767,618.834 113.2737,615.755 L142.6467,311.56 C142.6947,311.06 142.6707,310.556 142.5757,310.063 L83.9227,6.235 C83.2987,3.001 85.7757,0 89.0697,0 L120.8917,0 C123.4037,0 125.5637,1.783 126.0387,4.25 L185.0767,310.507 C185.170775,311 185.1947,311.504 185.1467,312.003 L155.6777,616.763 C155.4177,619.45 153.1597,621.5 150.4607,621.5" id="Fill-3" fill="#F38A27"/><path d="M311.6638,505 L76.7748,505 C68.4948,505 61.7198,498.225 61.7198,489.944 C61.7198,481.664 68.4948,474.889 76.7748,474.889 L311.6638,474.889 C319.9448,474.889 326.7198,481.664 326.7198,489.944 C326.7198,498.225 319.9448,505 311.6638,505" id="Fill-5" fill="#5A328E"/><path d="M312.9763,356 L86.4623,356 C71.2043,356 58.7193,343.516 58.7193,328.257 L58.7193,313.743 C58.7193,298.484 71.2043,286 86.4623,286 L312.9763,286 C328.2353,286 340.7193,298.484 340.7193,313.743 L340.7193,328.257 C340.7193,343.516 328.2353,356 312.9763,356" id="Fill-7" fill="#7243A3"/><path d="M271.8763,622 L237.0723,622 C235.1853,622 233.6203,620.654 233.4913,618.921 L213.7193,352.328 C213.7193,341.653 223.1213,333 234.7193,333 C246.3173,333 255.7193,341.653 255.7193,352.328 L275.4583,618.471 C275.5993,620.38 273.9553,622 271.8763,622" id="Fill-9" fill="#FF9E41"/><path d="M115.8152,176.6211 L83.1472,176.5781 C66.9062,179.6331 51.3972,169.6481 48.5052,154.2751 L30.6922,59.5811 C27.8002,44.2081 38.6212,29.2701 54.8622,26.2151 L87.5302,26.2581 C103.7712,23.2031 119.2802,33.1881 122.1722,48.5611 L139.9852,143.2551 C142.8772,158.6271 132.0552,173.5661 115.8152,176.6211" id="Fill-11" fill="#7243A3"/><g id="Group-15" fill="#FF9E41"><path d="M65.7142,621.5 L35.3962,621.5 C31.8182,621.5 29.0172,618.417 29.3612,614.854 L58.6352,311.678 C58.6912,311.1 58.6632,310.517 58.5532,309.946 L0.1112,7.212 C-0.6098,3.472 2.2562,0 6.0652,0 L36.2142,0 C39.1192,0 41.6172,2.062 42.1672,4.916 L101.0542,310.39 C101.163537,310.96 101.1912,311.543 101.1352,312.122 L71.7492,616.021 C71.4492,619.128 68.8372,621.5 65.7142,621.5" id="Fill-13"/></g></g></g></g><g transform="translate(240.000000, 359.000000) scale(1 1)" id="Master/Character/Sitting"><g id="Master/Character/Sitting" stroke="none" stroke-width="1" fill="none" fill-rule="evenodd"><g id="Legs Sitting" transform="translate(317.000000, 266.000000) scale(1 1)"><g id="Legs Sitting/Red Shorts Relaxed" stroke="none" stroke-width="1" fill="none" fill-rule="evenodd"><g id="Group-17" transform="translate(0.000000, -1.000000)"><path d="M506.97771,311.911352 C503.725101,313.018058 501.135432,314.019601 500.167768,310.974908 C494.183158,292.306134 487.054165,273.451073 479.31668,255.390235 C451.674756,194.275038 416.810224,127.23571 355.796815,98.6476465 C303.93752,75.8204628 247.340209,78.7589919 192,73.1323195 L198.78329,0 C275.12265,5.81195802 360.584503,0.293051683 425.522058,49.2995859 C482.564513,92.8356885 519.480912,157.428246 548.143038,222.938217 C556.9418,243.507921 564.817795,264.322002 571.731858,285.86721 C572.873376,289.460748 570.19869,290.274002 566.953722,291.380708 C566.953722,291.380708 506.97771,311.911352 506.97771,311.911352 Z" id="Fill-1" fill="#d29863"/><g id="Group-5" transform="translate(109.000000, 0.000000)" fill="#CC2935"><path d="M89.7272727,0.7065 C89.7272727,0.7065 -7.26094091,62.6953 0.625513636,64.4993 C48.2535136,97.1823 107.714059,93.3893 161.573332,99.1493 L165.821059,50.4913 C161.47215,46.3943 156.989605,42.3663 152.428786,38.3633 C157.448741,35.3233 162.516423,32.3163 167.662377,29.4003 L167.662377,0.17 C147.019757,1.17 89.7272727,0.7065 89.7272727,0.7065 Z" id="Fill-3"/></g><g id="Group-8" transform="translate(444.000000, 152.000000)" fill="#0A1B45"><path d="M127.150537,111.6694 C113.327241,73.0684 96.6838777,35.8024 76.2565425,0.3954 L0.944894413,48.2124 C22.6408777,86.0114 40.3303022,127.6624 53.1553022,169.9234 C54.056157,169.6484 80.072995,161.6954 81.7380955,161.1864 C81.7123022,159.4994 81.3550173,156.5434 81.2031235,154.8074 C87.0476933,155.1214 92.9161458,155.5604 98.7425648,155.9874 C116.553313,150.5424 152.851168,139.4484 170.531995,134.0424 C170.00371,132.2134 168.925168,128.5214 168.366313,126.7204 C167.123459,108.4064 143.039207,118.5884 127.150537,111.6694" id="Fill-6"/></g><path d="M332.154781,415.875941 C322.269713,415.903674 307.44211,415.945027 287.671973,416 C284.251092,416.006764 281.482263,416.116875 281.468878,412.617351 C279.920016,328.276432 280.157705,231.016169 261.808906,149.804233 C250.562109,100.025816 154.760525,104.441061 105,90.2637868 L124.974578,14 C185.358191,29.4195253 251.840685,38.0181829 302.352695,81.4018641 C318.586103,94.1827326 330.464533,109.08774 335.500245,130.080877 C348.371094,179.516652 350.449628,230.7142 353.593244,281.340174 C355.758782,325.095229 356.774146,368.610042 357,412.282013 C357.013168,415.906663 354.237647,415.81457 350.818678,415.823579 C342.523613,415.846851 336.302314,415.864305 332.154781,415.875941 Z" id="Fill-9" fill="#edb98a"/><path d="M95.9430716,1 L21.8184691,54.258475 C15.7433913,59.8934651 44.5895526,99.5990085 71.8507195,99.5990085 C130.148537,99.5990085 168.535725,103.316257 187.761951,109 L191.724893,81.0735302 C188.016059,76.2760121 184.143937,71.5133887 180.158181,66.791642 C185.682282,64.6610734 191.244578,62.6072731 196.890905,60.6581567 L209,12.8095941 C185.597295,5.6259456 147.911653,1.68941423 95.9430716,1 Z" id="Fill-11" fill="#FA3239"/><path d="M363.624811,391.60829 C363.164284,352.147517 362.076027,312.593756 359.954927,273 L272,278.213309 C274.555829,326.273944 275.650775,375.215462 275.703325,423.47007 C276.640622,423.47407 303.748656,423.591054 305.483754,423.599053 L306.795587,416.760959 L323.201623,423.676043 C341.759333,423.755032 379.577964,423.92101 398,424 L397.985668,411.790617 C397.943628,403.402728 372.963382,400.74508 363.624811,391.60829" id="Fill-13" fill="#0A1B45"/><path d="M104.283654,100 L94.7163462,100 C42.4061346,100 -4.00177669e-11,55.676 -4.00177669e-11,1 L199,1 C199,55.676 156.593865,100 104.283654,100" id="Fill-15" fill="#FA3239"/></g><path d="M56,99 C25.072054,99 -4.00139793e-11,73.927946 -4.00177669e-11,43 L-4.00177669e-11,0 L199,0 C199,54.676 156.593865,99 104.283654,99 L56,99 Z" id="PELVIS-PLUS" fill="#FA3239"/></g></g><g id="Body" transform="translate(41.000000, -31.000000) scale(1 1)"><g id="Body/Short Tee Grab Up" stroke="none" stroke-width="1" fill="none" fill-rule="evenodd"><g id="Right-Arm" transform="translate(426.000000, 38.000000)"><path d="M365.544261,2.8032 C371.116261,3.8252 373.775261,12.9202 368.235261,15.5172 C364.094123,16.9455422 357.631179,18.5673683 351.295822,20.4525791 C355.214198,22.2360506 358.152876,24.7022416 360.274761,27.0301 C365.055761,32.2411 358.918761,41.2451 351.376761,39.0791 C343.34324,35.3798181 334.274635,31.5365887 324.72152,32.8601117 C324.691276,32.8854696 324.661139,32.910742 324.63108,32.9360493 C320.152484,36.7065541 317.372617,41.251398 317.849261,46.7752 C318.672341,56.57768 325.139151,58.6824848 331.769074,58.7010446 L332.030854,58.7007064 C334.03829,58.6900024 336.054061,58.49499 337.926261,58.2712 C338.315541,58.22608 338.696061,58.2051392 339.067386,58.2067161 L339.344148,58.2120949 C348.053266,58.5144775 351.514211,71.28395 343.894261,74.2622 C328.855261,80.0992 309.119261,80.5192 294.870261,88.3242 L294.849192,88.327636 C266.533564,105.534006 237.751875,121.621899 207.611861,136.2574 C171.966861,153.4614 133.802861,168.6444 94.811861,178.2794 C83.707831,181.18794 70.951378,184.427805 59.4080304,184.576447 L58.5656017,184.581757 C42.3221118,184.575837 28.646141,178.21674 25.649861,155.8154 C24.782861,138.6634 36.128861,122.4534 52.870861,119.5614 C70.444861,116.6894 88.089861,112.2174 105.118861,106.7834 C155.860861,90.4624 204.336861,65.3574 250.602861,37.9204 C254.658176,34.8390649 258.96709,32.2021766 263.381366,30.1892608 C287.866527,14.9770292 312.555679,3.11221479 337.031261,0.5002 C353.349261,-1.1798 362.752261,2.2652 365.544261,2.8032 Z" id="SKIN" fill="#edb98a"/><path d="M365.544261,2.8032 C371.116261,3.8252 373.775261,12.9202 368.235261,15.5172 C364.094123,16.9455422 357.631179,18.5673683 351.295822,20.4525791 C355.214198,22.2360506 358.152876,24.7022416 360.274761,27.0301 C365.055761,32.2411 358.918761,41.2451 351.376761,39.0791 C343.34324,35.3798181 334.274635,31.5365887 324.72152,32.8601117 C324.691276,32.8854696 324.661139,32.910742 324.63108,32.9360493 C320.152484,36.7065541 317.372617,41.251398 317.849261,46.7752 C318.672341,56.57768 325.139151,58.6824848 331.769074,58.7010446 L332.030854,58.7007064 C334.03829,58.6900024 336.054061,58.49499 337.926261,58.2712 C338.315541,58.22608 338.696061,58.2051392 339.067386,58.2067161 L339.344148,58.2120949 C348.053266,58.5144775 351.514211,71.28395 343.894261,74.2622 C328.855261,80.0992 309.119261,80.5192 294.870261,88.3242 L294.849192,88.327636 C266.533564,105.534006 237.751875,121.621899 207.611861,136.2574 C171.966861,153.4614 133.802861,168.6444 94.811861,178.2794 C83.707831,181.18794 70.951378,184.427805 59.4080304,184.576447 L58.5656017,184.581757 C42.3221118,184.575837 28.646141,178.21674 25.649861,155.8154 C24.782861,138.6634 36.128861,122.4534 52.870861,119.5614 C70.444861,116.6894 88.089861,112.2174 105.118861,106.7834 C155.860861,90.4624 204.336861,65.3574 250.602861,37.9204 C254.658176,34.8390649 258.96709,32.2021766 263.381366,30.1892608 C287.866527,14.9770292 312.555679,3.11221479 337.031261,0.5002 C353.349261,-1.1798 362.752261,2.2652 365.544261,2.8032 Z" id="SKIN-DARKER" fill="#d29863"/><path d="M99.493161,98.0624 C86.183161,102.2694 76.4121833,105.971434 55.7761833,108.591034 C35.1401833,111.210634 9.52899977,111 9.52899977,111 C-10.6630002,133.936 6.41716096,188.8424 38.138161,196.5224 C64.889161,201.8384 99.439161,188.8654 125.709161,182.0664 L99.493161,98.0624 Z" id="Fill-8" fill="#051026"/></g><g id="body" transform="translate(272.000000, 149.000000)"><rect id="SKIN" fill="#edb98a" x="18" y="101" width="180" height="48"/><path d="M40,0 L176,0 C198.09139,-4.05812251e-15 216,17.90861 216,40 L216,117 L216,117 L0,117 L0,40 C-2.705415e-15,17.90861 17.90861,4.05812251e-15 40,0 Z" fill="#0A1B45"/></g><g id="Left-Arm" transform="translate(210.000000, 149.000000)"><path d="M204.1724,257.334426 L204.1724,257.334426 C207.3734,303.701426 149.4474,293.043426 119.8864,284.852426 C81.3644,274.304426 45.2224,249.433426 24.7034,213.994426 C3.6584,179.134426 -0.3546,134.534426 9.7234,96.0004259 C19.4594,63.7304259 41.5064,-6.30357411 84.8584,23.6194259 C97.7154,34.5644259 101.9254,53.8494259 93.2774,67.8604259 C71.7394,101.354426 60.6794,145.138426 81.5894,180.527426 C93.5944,201.081426 114.4814,214.852426 137.7694,221.321426 C165.8554,230.053426 195.5344,217.853426 204.1724,257.334426" id="SKIN" fill="#edb98a"/><path d="M213.9537,280.141026 C214.7857,285.452026 210.5247,289.833026 205.2047,290.490026 C186.3377,291.552026 153.0167,296.453026 136.3957,286.034026 C130.7407,279.366026 138.4267,270.466026 146.1137,272.111026 C165.1297,274.997026 184.3127,274.887026 203.0187,272.622026 C208.0427,271.965026 213.0767,275.086026 213.9537,280.141026" id="SKIN" fill="#edb98a"/><path d="M213.4283,264.006326 C214.2943,268.873326 210.7393,273.667326 205.3933,274.322326 C196.1803,274.533326 177.9493,281.287326 176.5533,267.307326 C177.4673,254.123326 194.1373,258.905326 203.0503,256.475326 C207.9303,255.883326 212.5523,259.086326 213.4283,264.006326" id="SKIN" fill="#edb98a"/><path d="M212.6343,247.916426 C214.3393,257.609426 203.6073,258.985426 196.4563,259.251426 C189.2803,260.325426 178.7113,261.329426 178.4143,251.311426 C178.3223,241.842426 187.6143,241.692426 194.6683,241.342426 C201.6393,240.295426 210.9093,238.582426 212.6343,247.916426" id="SKIN" fill="#edb98a"/><path d="M200.5796,224.521926 C201.7416,239.198926 181.8856,234.209926 172.7016,235.292926 C168.3146,235.167926 165.0726,230.965926 165.4516,225.975926 C165.8146,221.052926 169.1956,217.181926 173.0286,217.293926 C182.0646,218.951926 198.3106,211.023926 200.5796,224.521926" id="SKIN" fill="#edb98a"/><path d="M231.8375,227.058026 C238.5625,243.813026 186.2965,243.436026 176.2305,244.307253 C171.5925,244.343026 168.0735,240.089026 168.3375,235.138026 C168.6045,230.162026 172.0895,226.344026 176.1895,226.305026 C191.1745,226.255026 206.5345,224.172026 221.7685,220.412026 C225.9425,219.336026 230.4495,222.274026 231.8375,227.058026" id="SKIN" fill="#edb98a"/><path d="M0,89.5969259 C11.181,57.0679259 26.4926686,17.7680023 62,5.7709131 C79.0799533,-2.84217094e-14 100.230641,-2.84217094e-14 100.230641,-2.84217094e-14 C129.947829,37.0461403 100.230641,83.8961172 84.939,112.603926 L0,89.5969259 Z" id="Fill-19" fill="#0A1B45"/></g><path d="M334,149 C334,167.225397 354.594902,182 380,182 C405.405098,182 426,167.225397 426,149" id="SKIN" fill="#edb98a"/></g></g><g id="Head" transform="translate(362.000000, -61.000000) scale(1 1)"><g id="Head/Bald" stroke="none" stroke-width="1" fill="none" fill-rule="evenodd"><g id="Head" transform="translate(22.000000, 72.000000)"><g id="head" transform="translate(0.000000, 0.000100)" fill="#edb98a"><path d="M13,62 L58,62 L58,113.633 C58,127.538 47.926,138.81 35.5,138.81 C23.074,138.81 13,127.538 13,113.633 L13,62 Z" id="SKIN"/><path d="M60.0525,94 L55.0655,94 C31.8335,94 13.0005,75.167 13.0005,51.935 L13.0005,32.203 C13.0005,14.418 27.4175,0 45.2035,0 L50.7965,0 C68.5825,0 83.0005,14.418 83.0005,32.203 L83.0005,71.052 C83.0005,83.726 72.7265,94 60.0525,94" id="SKIN"/><path d="M25,58.5 C25,65.403 19.404,71 12.5,71 C5.596,71 0,65.403 0,58.5 C0,51.597 5.596,46 12.5,46 C19.404,46 25,51.597 25,58.5" id="SKIN"/></g><path d="M10.067,53.1685 C10.9718309,53.1685 12.2239875,53.3771928 13.5088204,54.0196092 C15.6553998,55.0928989 17.0130325,57.055328 17.10411,59.9021045 L17.109,60.2105 L14.109,60.2105 C14.109,58.3751144 13.4076866,57.3231443 12.1671796,56.7028908 C11.7065142,56.4725581 11.1976823,56.3199085 10.686339,56.2346846 C10.4347302,56.1927498 10.2385731,56.1747448 10.1250097,56.169908 L10.067,56.1685 L10.067,53.1685 Z" id="ear-line" fill="#000"/><path d="M34.7507501,96.3317762 C25.4557924,93.0436693 20.8185822,84.7387742 18.9822222,73.5681961 C26.2532122,85.6702724 39.4406226,93.8133264 54.5439426,93.9968331 L55.0655,94 L58,94 C50.0632106,98.2298391 42.3134606,99.0070978 34.7507501,96.3317762 Z" id="SHADOW" fill="#000" opacity=".12"/></g></g></g><g id="Expression" transform="translate(409.000000, 34.000000) scale(1 1)" fill="#000"><g id="Expression/Happy" stroke="none" stroke-width="1" fill="none" fill-rule="evenodd"><path d="M20.5607,22 C20.5607,20.343 19.2177,19 17.5607,19 C15.9037,19 14.5607,20.343 14.5607,22 C14.5607,23.657 15.9037,25 17.5607,25 C19.2177,25 20.5607,23.657 20.5607,22" id="Fill-1" fill="#000"/><path d="M46.5607,22 C46.5607,20.343 45.2177,19 43.5607,19 C41.9037,19 40.5607,20.343 40.5607,22 C40.5607,23.657 41.9037,25 43.5607,25 C45.2177,25 46.5607,23.657 46.5607,22" id="Fill-3" fill="#000"/><polygon id="Stroke-5" fill="#000" points="33.1977829 19.396766 36.1476171 18.850434 40.4350211 41.9996 30.5607 41.9996 30.5607 38.9996 36.828 38.999"/><path d="M21.9219,41.586 C21.9219,45.2602625 25.6639817,48.6581933 29.6815435,48.7900329 L29.9229,48.794 L29.9229,51.794 C24.3252295,51.794 19.0961019,47.2280163 18.9261594,41.8552911 L18.9219,41.586 L21.9219,41.586 Z" id="Stroke-7" fill="#000"/><path d="M23.0607,9 L23.0607,12 C19.8342736,12 16.8913939,12.8655529 14.2891644,14.3112359 C13.508469,14.7449556 12.8086718,15.2043948 12.1956619,15.6654963 L11.8964164,15.8960741 C11.548672,16.1706093 11.3051282,16.3844813 11.1717567,16.5115787 L11.1213602,16.5606602 L9.00003983,14.4393398 C9.71719288,13.7221868 11.0118484,12.7000903 12.8322356,11.6887641 C15.7235813,10.0824609 18.9894549,9.08904431 22.5704367,9.00569674 L23.0607,9 Z" id="Stroke-9" fill="#000"/><path d="M37.0607,9 C40.8342736,9 44.2663939,10.0094471 47.2891644,11.6887641 C48.9957774,12.6368824 50.2403215,13.5944668 50.980139,14.3013772 L51.1213602,14.4393398 L49.0000398,16.5606602 L48.8084832,16.3819961 C48.6965748,16.2822525 48.549249,16.1566104 48.3676199,16.0099419 L48.2249836,15.8960741 C47.5437467,15.3582556 46.7430469,14.8172422 45.8322356,14.3112359 C43.3601176,12.937837 40.5805627,12.0880056 37.5425302,12.006456 L37.0607,12 L37.0607,9 Z" id="Stroke-11" fill="#000"/></g></g><g id="Accessories" transform="translate(396.000000, 56.000000) scale(1 1)" fill="#000"><g id="Accessories/None" stroke="none" stroke-width="1" fill="none" fill-rule="evenodd" fill-opacity="0"/></g><g id="Glasses" transform="translate(388.000000, 42.000000) scale(1 1)" fill="#000"><g id="Glasses/None" stroke="none" stroke-width="1" fill="none" fill-rule="evenodd" fill-opacity="0"/></g></g></g><g transform="translate(1493.000000, 788.500000) scale(-1, 1) translate(-1493.000000, -788.500000) translate(1041.000000, 359.000000) scale(1 1)" id="Master/Character/Sitting"><g id="Master/Character/Sitting" stroke="none" stroke-width="1" fill="none" fill-rule="evenodd"><g id="Legs Sitting" transform="translate(317.000000, 266.000000) scale(1 1)"><g id="Legs Sitting/Red Shorts Straight" stroke="none" stroke-width="1" fill="none" fill-rule="evenodd"><g id="Group-16" transform="translate(84.000000, 1.000000)"><path d="M303.37194,414.958971 C303.37194,414.958971 240.397766,413.0201 240.397766,413.0201 C236.9886,412.92601 234.21758,412.908993 234.329184,409.227441 C236.223589,324.836008 241.247672,237.627858 228.341682,154.378527 C226.408168,143.868385 225.292129,138.407115 215.533941,133.577455 C180.39588,114.435985 141.467101,103.451385 103,92.5538699 L121.87823,16 C164.946846,28.0676446 208.373167,40.8850125 248.434201,62.3547295 C277.032464,77.2721239 294.121216,97.0802375 300.445438,130.365356 C314.543778,201.674164 312.02172,274.500437 311.478009,346.65306 C311.186121,365.917649 310.204579,392.329135 309.647514,411.738864 C309.541633,415.260262 306.783967,415.057066 303.37194,414.958971" id="Fill-1" fill="#22c024"/><path d="M69.9977161,0 L51.5144603,91.8475674 C50.7536109,95.0963495 50.8553745,97.8862922 51.6961131,98.0728203 C89.1554943,98.2515682 126.5,98.2515682 164.581429,132 L179.858333,85.9714314 C176.845369,81.0119765 173.738251,76.0525217 170.543635,71.130971 C175.816321,69.3564597 181.119441,67.6597516 186.479624,66.0198997 L202,19.2571881 C170.066202,8.11836423 130.862065,0 114.550544,0 C114.550544,0 99.6996011,0 69.9977161,0 Z" id="Fill-3" fill="#CC2935"/><g id="Group-7" transform="translate(228.000000, 273.000000)" fill="#0A1B45"><path d="M89.6335908,118.4748 C90.8821754,79.4348 91.6690985,39.6858 91.3104523,0.5228 L3.36774462,1.4528 C3.96676,50.4358 2.05811385,100.0058 0.800944615,149.00001 L30.5323292,149.00001 C30.8966985,146.4878 31.4966677,143.7018 31.9821754,141.3058 L48.2204523,149.00001 C66.7470062,148.9978 104.502145,149.00001 122.893252,149.00001 C122.929498,146.7658 123.050637,141.9118 123.124083,139.6448 C123.369222,131.7268 98.5654062,127.9568 89.6335908,118.4748" id="Fill-5"/></g><path d="M188.069807,411.895882 C184.652528,411.800944 181.874913,411.762969 181.992519,408.096362 C184.293015,334.544374 181.713515,222.493121 175.947931,165.264183 C170.182348,108.035245 90.3599054,106.2414 51,93.8874639 L71.8287667,18 C115.004666,31.3263012 158.520954,45.4141053 198.41726,68.124281 C226.549098,83.6511458 243.341001,104.245703 249.260524,137.336103 C262.398022,206.106212 260.078403,276.240432 259.414835,345.756055 C259.10313,364.988501 258.078137,391.374277 257.485324,410.753627 C257.372499,414.27333 254.610182,414.05847 251.190034,413.955537 L188.069807,411.895882 Z" id="Fill-10" fill="#8152ff"/><path d="M21.2910902,4.16199094 L0.0372395967,91.5874264 C-0.811929517,94.8307055 13.134867,97.3919435 13.9610856,97.5994733 C56.4519916,99.6354583 86.9098188,99.6354583 118.424611,114 L127.244303,88.5506745 C124.399395,83.5067991 121.44356,78.4950055 118.424611,73.4802043 C123.690798,71.8209688 129.000974,70.1978254 134.3494,68.6669174 L151,22.0609469 C138.637568,17.4117475 126.379212,13.1526005 114.115775,9.17135751 C101.616675,5.11360806 70.675113,3.4438192 21.2910902,4.16199094 Z" id="Fill-12" fill="#FA3239"/><path d="M265.112849,390.602493 C266.423951,351.680317 267.256898,312.048868 266.90115,273 L178.730267,273.930733 C179.342306,322.820625 177.329272,372.079619 176,420.994451 L205.808202,420.994451 C206.173513,418.431695 206.777901,415.694363 207.27327,413.270269 L223.542026,420.994451 C243.226724,420.975497 278.966921,421.033356 298.408716,420.967517 C298.417323,420.098634 298.464182,418.101499 298.489046,417.208674 C302.992313,402.155348 276.558931,402.47856 265.112849,390.602493" id="Fill-14" fill="#0A1B45"/></g><path d="M56,99 C25.072054,99 -4.00139793e-11,73.927946 -4.00177669e-11,43 L-4.00177669e-11,0 L199,0 C199,54.676 156.593865,99 104.283654,99 L56,99 Z" id="PELVIS-PLUS" fill="#FA3239"/></g></g><g id="Body" transform="translate(41.000000, -31.000000) scale(1 1)"><g id="Body/Short Tee Wave" stroke="none" stroke-width="1" fill="none" fill-rule="evenodd"><g id="Right-Arm" transform="translate(608.514576, 219.311051) rotate(-12.000000) translate(-608.514576, -219.311051) translate(418.014576, 116.311051)"><path d="M51.2848658,20.7253227 L51.7877664,20.7267019 C65.0228347,20.855282 77.5989158,28.2632147 82.7663058,40.7594347 C110.052246,106.382055 141.655209,140.389849 193.487546,139.968669 L195.629071,139.931971 C214.288364,139.445819 235.541466,134.587355 260.107306,125.229435 C264.350776,123.051945 268.721827,121.320306 273.089722,120.15391 L273.150601,120.138429 C296.238024,110.34552 323.70799,100.283572 346.768806,99.6371347 C364.750806,99.8711347 378.501806,101.187135 380.303806,108.965135 C380.932806,111.718135 380.100806,114.690135 377.247806,115.958135 C375.360119,116.811043 368.334251,118.18447 360.028373,120.281424 L360.028729,120.281394 L360.274115,120.395312 C367.861202,123.957657 372.459426,129.874765 368.266506,136.156735 C366.326306,138.324935 364.308306,139.189095 362.153434,139.237671 L361.829169,139.238901 C354.889307,139.137265 346.517631,130.934138 334.778469,130.635247 L334.225722,130.627087 L334.225722,130.627087 L333.667998,130.630872 C333.367172,130.636176 333.064174,130.646806 332.758973,130.663015 L332.757981,130.664134 L332.536754,130.815841 C327.665776,134.185887 324.391023,138.445048 324.241806,144.039135 C324.079806,150.524135 326.670806,153.956135 330.437806,155.709135 C337.372806,159.279135 350.649806,154.095135 352.487806,164.512135 C354.842806,174.841135 342.702806,175.129135 334.947806,176.441135 C322.631806,178.278135 304.931806,178.612135 294.851806,182.605135 L294.816371,182.606789 L294.816371,182.606789 L294.597499,182.711729 C281.608112,188.918696 265.834046,192.752935 253.802306,196.522435 C233.543606,202.050485 212.205586,205.817985 190.929246,205.96586 L189.768786,205.970325 C172.74981,205.982836 155.783586,203.657155 139.454306,198.041435 C112.315306,188.774435 88.5573058,170.235435 70.2703058,148.750435 C49.1723058,124.082435 33.4783058,94.8334347 21.5723058,65.4884347 C14.2883058,47.7174347 22.9833058,27.6604347 41.2203058,22.2084347 C44.5389058,21.2220347 47.9302658,20.7395147 51.2848658,20.7253227 Z" id="SKIN" fill="#8152ff"/><path d="M51.2848658,20.7253227 L51.7877664,20.7267019 C65.0228347,20.855282 77.5989158,28.2632147 82.7663058,40.7594347 C110.052246,106.382055 141.655209,140.389849 193.487546,139.968669 L195.629071,139.931971 C214.288364,139.445819 235.541466,134.587355 260.107306,125.229435 C264.350776,123.051945 268.721827,121.320306 273.089722,120.15391 L273.150601,120.138429 C296.238024,110.34552 323.70799,100.283572 346.768806,99.6371347 C364.750806,99.8711347 378.501806,101.187135 380.303806,108.965135 C380.932806,111.718135 380.100806,114.690135 377.247806,115.958135 C375.360119,116.811043 368.334251,118.18447 360.028373,120.281424 L360.028729,120.281394 L360.274115,120.395312 C367.861202,123.957657 372.459426,129.874765 368.266506,136.156735 C366.326306,138.324935 364.308306,139.189095 362.153434,139.237671 L361.829169,139.238901 C354.889307,139.137265 346.517631,130.934138 334.778469,130.635247 L334.225722,130.627087 L334.225722,130.627087 L333.667998,130.630872 C333.367172,130.636176 333.064174,130.646806 332.758973,130.663015 L332.757981,130.664134 L332.536754,130.815841 C327.665776,134.185887 324.391023,138.445048 324.241806,144.039135 C324.079806,150.524135 326.670806,153.956135 330.437806,155.709135 C337.372806,159.279135 350.649806,154.095135 352.487806,164.512135 C354.842806,174.841135 342.702806,175.129135 334.947806,176.441135 C322.631806,178.278135 304.931806,178.612135 294.851806,182.605135 L294.816371,182.606789 L294.816371,182.606789 L294.597499,182.711729 C281.608112,188.918696 265.834046,192.752935 253.802306,196.522435 C233.543606,202.050485 212.205586,205.817985 190.929246,205.96586 L189.768786,205.970325 C172.74981,205.982836 155.783586,203.657155 139.454306,198.041435 C112.315306,188.774435 88.5573058,170.235435 70.2703058,148.750435 C49.1723058,124.082435 33.4783058,94.8334347 21.5723058,65.4884347 C14.2883058,47.7174347 22.9833058,27.6604347 41.2203058,22.2084347 C44.5389058,21.2220347 47.9302658,20.7395147 51.2848658,20.7253227 Z" id="SKIN-DARKER" fill="#22c024"/><path d="M113.560306,79.6312347 C113.560306,79.6312347 100.68354,49.5206074 89.7863058,31.2892347 C80.9465019,16.5 60.892919,8.52651283e-14 35.2935333,8.52651283e-14 C35.2935333,8.52651283e-14 13.7891118,1.22610938 4.12511182,23.2061094 C-10.8788882,54.6701094 24.1363058,98.0652347 39.2493058,126.770235 L113.560306,79.6312347 Z" id="Fill-8" fill="#051026"/></g><g id="body" transform="translate(272.000000, 149.000000)"><rect id="SKIN" fill="#8152ff" x="18" y="101" width="180" height="48"/><path d="M40,0 L176,0 C198.09139,-4.05812251e-15 216,17.90861 216,40 L216,117 L216,117 L0,117 L0,40 C-2.705415e-15,17.90861 17.90861,4.05812251e-15 40,0 Z" fill="#0A1B45"/></g><path d="M334,149 C334,167.225397 354.594902,182 380,182 C405.405098,182 426,167.225397 426,149" id="SKIN" fill="#8152ff"/><g id="Left-Arm" transform="translate(21.000000, -40.000000)"><path d="M39.7372203,0.00435699777 C44.7022203,-0.143643002 48.8112203,3.496357 49.0632203,8.250357 C48.9626239,9.02943064 48.9273245,9.89654167 48.94179,10.8346635 C50.4541643,8.60079603 53.0285178,7.08481157 56.0048203,6.953557 C60.9698203,6.728557 65.1648203,10.230557 65.4878203,14.850557 C65.8795347,20.449409 66.3602999,26.0649823 66.9324028,31.6775829 C81.6523929,31.0161755 76.6957002,53.2193756 80.1806203,62.750157 C81.707432,71.4307217 74.8739157,72.3916377 73.8807535,76.1910055 C75.4795376,85.4295746 76.8994789,94.8716161 79.7098203,103.153257 C90.1978203,139.274257 103.87982,178.103257 137.53882,197.313257 C158.60582,208.483257 184.26182,211.061257 208.12582,210.336257 C225.44482,209.837257 243.28282,207.458257 260.99182,203.835257 C277.83782,200.320257 295.00482,211.953257 299.65182,228.278257 C305.06582,246.305257 293.01282,264.811257 274.24282,268.491257 C248.40182,273.792257 220.94382,277.031257 193.92082,276.372257 C162.27582,275.534257 130.10982,269.398257 102.14282,253.077257 C73.4458203,236.746257 52.2768203,209.144257 38.1068203,180.324257 C24.3786975,152.223851 15.7725038,123.39192 9.71134675,93.7232933 C9.64668863,93.4976719 9.58984317,93.2674061 9.54052025,93.033357 C4.91652025,70.281357 1.84052025,47.584357 0.0315202534,24.657357 C-0.385479747,19.377357 3.38552025,14.829357 8.35052025,14.546357 C10.9486155,14.400738 13.3560191,15.4036586 15.1172794,17.1218001 C14.8880895,9.34059653 16.5409108,2.87709885 23.7929203,2.363757 L23.7929203,2.363757 L24.2194268,2.35427419 C27.7919261,2.34567841 30.0837019,4.16078923 31.5681596,7.0332872 C32.5621618,2.96480356 34.9268909,0.171821947 39.7372203,0.00435699777 Z" id="SKIN" fill="#8152ff"/><path d="M213.93742,287.190057 C238.15542,286.148057 261.37342,282.658057 284.02442,277.649057 C309.18742,272.247057 325.64442,246.988057 316.80342,222.825057 C308.83642,201.330057 289.924888,189 289.924888,189 C259.205296,189 222.367655,196.94285 210.31542,199.264057 L213.93742,287.190057 Z" id="Fill-22" fill="#0A1B45"/></g></g></g><g id="Head" transform="translate(362.000000, -61.000000) scale(1 1)"><g id="Head/Short Wavy" stroke="none" stroke-width="1" fill="none" fill-rule="evenodd"><g id="Group-29" transform="translate(-21.000000, 61.000000)"><path d="M56.5,125.9999 L45.275,125.9999 C20.27,125.9999 0,105.7299 0,80.7249 C0,76.4579 3.459,72.9999 7.725,72.9999 L56.5,72.9999 C57.328,72.9999 58,73.6709 58,74.4999 L58,124.4999 C58,125.3289 57.328,125.9999 56.5,125.9999" id="Fill-1" fill="#000"/><path d="M55,97.9999 L49.172,97.9999 C28.642,97.9999 12,81.3569 12,60.8279 C12,56.8919 15.191,53.6999 19.128,53.6999 L55,53.6999 L55,97.9999 Z" id="Fill-3" fill="#000"/><path d="M100.5,125.9999 L111.725,125.9999 C136.73,125.9999 157,105.7299 157,80.7249 C157,76.4579 153.541,72.9999 149.275,72.9999 L100.5,72.9999 C99.672,72.9999 99,73.6709 99,74.4999 L99,124.4999 C99,125.3289 99.672,125.9999 100.5,125.9999" id="Fill-5" fill="#000"/><path d="M106,97.9999 L111.828,97.9999 C132.358,97.9999 149,81.3569 149,60.8279 C149,56.8919 145.809,53.6999 141.872,53.6999 L106,53.6999 L106,97.9999 Z" id="Fill-7" fill="#000"/><path d="M77.8008,104.9999 L81.9998,104.9999 L81.9998,-0.0001 L77.8008,-0.0001 C49.7448,-0.0001 26.9998,22.7439 26.9998,50.8009 L26.9998,54.1989 C26.9998,82.2559 49.7448,104.9999 77.8008,104.9999" id="Fill-9" fill="#000"/><path d="M87.8286,104.9999 L81.8706,104.9999 C73.6576,104.9999 66.9996,98.3419 66.9996,90.1299 L66.9996,14.8699 C66.9996,6.6579 73.6576,-0.0001 81.8706,-0.0001 L87.8286,-0.0001 C114.9846,-0.0001 136.9996,22.0149 136.9996,49.1709 L136.9996,55.8289 C136.9996,82.9849 114.9846,104.9999 87.8286,104.9999" id="Fill-12" fill="#000"/><path d="M89.1992,74.9999 L80.0002,74.9999 L80.0002,-0.0001 L89.1992,-0.0001 C117.2552,-0.0001 140.0002,12.7439 140.0002,40.8009 L140.0002,54.1989 C140.0002,74.9999 117.2552,74.9999 89.1992,74.9999" id="Fill-15" fill="#000"/><path d="M56,72.9999 L101,72.9999 L101,124.6329 C101,138.5379 90.927,149.8099 78.5,149.8099 C66.073,149.8099 56,138.5379 56,124.6329 L56,72.9999 Z" id="SKIN" fill="#8152ff"/><path d="M103.0525,104.9999 L98.0655,104.9999 C74.8335,104.9999 56.0005,86.1669 56.0005,62.9349 L56.0005,43.2029 C56.0005,25.4179 70.4175,10.9999 88.2035,10.9999 L93.7965,10.9999 C111.5825,10.9999 126.0005,25.4179 126.0005,43.2029 L126.0005,82.0519 C126.0005,94.7259 115.7265,104.9999 103.0525,104.9999" id="SKIN" fill="#8152ff"/><path d="M77.7507501,107.331676 C68.4557924,104.043569 63.8185822,95.7386742 61.9822222,84.5680961 C69.2532122,96.6701724 82.4406226,104.813226 97.5439426,104.996733 L98.0655,104.9999 L101,104.9999 C93.0632106,109.229739 85.3134606,110.006998 77.7507501,107.331676 Z" id="SHADOW" fill="#000" opacity=".12"/><path d="M68,69.4999 C68,76.4029 62.404,81.9999 55.5,81.9999 C48.596,81.9999 43,76.4029 43,69.4999 C43,62.5969 48.596,56.9999 55.5,56.9999 C62.404,56.9999 68,62.5969 68,69.4999" id="SKIN" fill="#8152ff"/><path d="M53.0669,64.1684 C53.9717309,64.1684 55.2238875,64.3770928 56.5087204,65.0195092 C58.6552998,66.0927989 60.0129325,68.055228 60.10401,70.9020045 L60.1089,71.2104 L57.1089,71.2104 C57.1089,69.3750144 56.4075866,68.3230443 55.1670796,67.7027908 C54.7064142,67.4724581 54.1975823,67.3198085 53.686239,67.2345846 C53.4346302,67.1926498 53.2384731,67.1746448 53.1249097,67.169808 L53.0669,67.1684 L53.0669,64.1684 Z" id="Stroke-24" fill="#000" fill-rule="nonzero"/><path d="M54,56.9999 L52.464,56.9999 C46.61,51.3079 44.361,39.7079 43.683,28.4489 C42.754,13.0199 69.542,-0.0001 84.999,-0.0001 L84.999,-0.0001 C96.89,-0.0001 108.025,5.8309 114.797,15.6049 L122,25.9999 L80.697,25.9999 C80.697,42.9999 66,56.9999 54,56.9999" id="Fill-26" fill="#000"/></g></g></g><g id="Expression" transform="translate(409.000000, 34.000000) scale(1 1)" fill="#000"><defs><filter id="expressionwink-filter-1"><feColorMatrix in="SourceGraphic" values="0 0 0 0 0.000000 0 0 0 0 0.000000 0 0 0 0 0.000000 0 0 0 1.000000 0"/></filter></defs><g id="Expression/Wink" stroke="none" stroke-width="1" fill="none" fill-rule="evenodd"><g filter="url(#expressionwink-filter-1)" id="Group-17"><g transform="translate(9.000000, 3.000000)"><path d="M37.6862,19.0627 C37.6862,17.4057 36.3432,16.0627 34.6862,16.0627 C33.0292,16.0627 31.6862,17.4057 31.6862,19.0627 C31.6862,20.7197 33.0292,22.0627 34.6862,22.0627 C36.3432,22.0627 37.6862,20.7197 37.6862,19.0627" id="Fill-1" fill="#000"/><path d="M13.0473,38.6487 C13.0473,42.3229625 16.7893817,45.7208933 20.8069435,45.8527329 L21.0483,45.8567 L21.0483,48.8567 C15.4506295,48.8567 10.2215019,44.2907163 10.0515594,38.9179911 L10.0473,38.6487 L13.0473,38.6487 Z" id="Stroke-5" fill="#000" fill-rule="nonzero"/><path d="M2.57564697,9.21147847 C6.2616177,8.06796663 10.3535814,7.81561498 14.5680667,8.99954871 L15.0368326,9.13703524 L14.1597674,12.0059648 C10.4145271,10.8610011 6.75307649,11.056551 3.46455381,12.0767611 C2.87639473,12.2592278 2.35407493,12.4536573 1.90571976,12.6462124 L1.67798076,12.7466018 L1.40843093,12.875962 L0.000169065366,10.227038 C0.505632486,9.95831572 1.38329457,9.5813862 2.57564697,9.21147847 Z" id="Stroke-7" fill="#000" fill-rule="nonzero"/><path d="M27.4327673,1.61074391 C31.7294847,0.539609121 35.85137,0.927023851 39.5454285,2.22070874 C40.6627133,2.61198958 41.5287224,3.00892816 42.1054952,3.32415386 L42.3911858,3.48746626 L40.8460142,6.05893374 L40.6830708,5.96779273 C40.5848397,5.91521377 40.4526078,5.84736079 40.2880352,5.76752086 C39.7889686,5.52540617 39.2078998,5.28115198 38.5538553,5.05210108 C35.5067759,3.98499275 32.1271224,3.6348104 28.6169983,4.41363387 L28.1584327,4.52165609 L27.4327673,1.61074391 Z" id="Stroke-9" fill="#000" fill-rule="nonzero"/><path d="M2.29348496,21.505614 C4.78316311,15.2814186 15.5765131,15.2055138 17.1047395,21.5313094 L17.157071,21.7685258 L14.215329,22.3568742 C13.5401751,18.9811049 6.8011145,18.9218809 5.16179365,22.4285178 L5.07891504,22.619786 L2.29348496,21.505614 Z" id="Stroke-15" fill="#000" fill-rule="nonzero"/></g></g><polygon id="Stroke-5" fill="#000" fill-rule="nonzero" points="33.1977829 19.396766 36.1476171 18.850434 40.4350211 41.9996 30.5607 41.9996 30.5607 38.9996 36.828 38.999"/></g></g><g id="Accessories" transform="translate(396.000000, 56.000000) scale(1 1)" fill="#000"><g id="Accessories/None" stroke="none" stroke-width="1" fill="none" fill-rule="evenodd" fill-opacity="0"/></g><g id="Glasses" transform="translate(388.000000, 42.000000) scale(1 1)" fill="#000"><g id="Glasses/None" stroke="none" stroke-width="1" fill="none" fill-rule="evenodd" fill-opacity="0"/></g></g></g></g></svg>