<svg viewBox="55.52884615384619 92.48750000000007 766.8269230769231 938.0875" xmlns="http://www.w3.org/2000/svg" overflow="visible" xmlns:xlink="http://www.w3.org/1999/xlink" width="766.8269230769231px" height="938.0875px"><g id="Master/Comps/Graphs" stroke="none" stroke-width="1" fill="none" fill-rule="evenodd"><g id="Blob" opacity=".151" transform="translate(2.000000, 147.891534) scale(1.5335892514395393 1.532934131736527)"><g id="Blob/5" stroke="none" stroke-width="1" fill="none" fill-rule="evenodd"><path d="M424.246417,106.725225 C457.994937,159.279427 463.519606,224.220548 447.78631,280.623113 C432.053015,336.905417 394.821552,384.649167 335.371312,430.588996 C275.800972,476.528826 193.771652,520.544474 159.422625,493.365412 C125.073597,466.186351 138.524965,367.572057 119.548929,278.217886 C100.572893,188.863715 49.2895551,108.649406 68.3856925,59.3422591 C87.48183,10.1553736 177.077544,-8.24461047 252.741485,2.81943223 C328.525527,13.7632136 390.497898,54.0507604 424.246417,106.725225 Z" id="blobs-burgers" fill="#FFB749"/></g></g><g id="Small Elements" opacity=".825" transform="translate(483.000000, 65.000000) scale(1 1)"><g id="Small Elements/Squares" stroke="none" stroke-width="1" fill="none" fill-rule="evenodd"><rect id="Rectangle" fill="#902EE9" x="29" y="29" width="106" height="106"/><rect id="Rectangle" fill="#FF9F00" x="135" y="135" width="106" height="106"/></g></g><g transform="translate(-4.000000, 157.000000) scale(1 1)" id="Master/Character/Standing"><g id="Master/Character/Standing" stroke="none" stroke-width="1" fill="none" fill-rule="evenodd"><g id="Legs" transform="translate(50.000000, 263.000000) scale(1 1)"><g id="Legs/Jeans Jump" stroke="none" stroke-width="1" fill="none" fill-rule="evenodd"><g id="Group-21" transform="translate(81.000000, 0.000000)"><path d="M140.5798,212.86 L183.6668,162.221 C185.9838,159.499 189.7058,158.86 192.1028,160.827 C199.3538,166.762 207.0388,172.581 214.7908,178.045 C222.5578,183.512 230.4598,188.646 238.3808,193.325 C246.3008,198.018 254.2538,202.19 262.0528,205.755 C269.8368,209.28 277.4888,212.149 284.5298,214.065 C290.2838,215.618 295.6388,216.557 300.0298,216.787 C304.4658,217.061 307.8118,216.635 310.1258,216.033 C311.2678,215.694 312.2288,215.364 313.0848,214.954 C313.9158,214.493 314.7238,214.023 315.5878,213.386 C317.2578,211.996 319.3768,209.99 321.6078,206.453 C321.8508,206.064 322.1988,205.756 322.6448,205.518 C322.7568,205.459 322.8738,205.403 322.9968,205.352 L323.3918,205.122 C323.6648,204.973 323.9608,204.842 324.2768,204.727 C325.5418,204.272 327.1388,204.081 328.9598,204.13 C330.7808,204.178 332.8268,204.465 334.9728,205.005 C337.1078,205.543 339.2868,206.322 341.5028,207.415 L380.7628,226.848 C382.9598,227.932 384.9068,229.383 386.4288,231.061 C387.9418,232.733 389.0758,234.659 389.7738,236.737 C390.4718,238.812 390.7328,241.038 390.5218,243.268 C390.3918,244.39 390.2518,245.481 389.7838,246.612 C389.3558,247.731 388.8028,248.831 388.1248,249.884 C381.9868,259.438 373.9108,268.649 364.0808,276.309 C359.1238,280.104 353.7388,283.444 348.0978,286.262 C342.4298,289.038 336.5118,291.184 330.5578,292.801 C318.6148,295.963 306.6638,296.758 295.4808,296.096 C284.2508,295.457 273.7018,293.419 263.6838,290.721 C251.4888,287.391 240.0948,283.008 229.2088,278.089 C218.3518,273.131 207.9798,267.642 198.0078,261.741 C188.0278,255.846 178.4058,249.581 169.0608,243.004 C159.7158,236.414 150.6568,229.558 141.7588,222.277 C138.7848,219.84 138.2558,215.581 140.5798,212.86" id="Fill-1" fill="#22c024"/><path d="M263.2359,21.0275 C263.3419,21.9165 263.5079,22.6255 263.6479,23.4215 L264.0969,25.7505 L265.0399,30.3995 C265.3529,32.0045 265.7279,33.3635 266.0979,34.7725 L267.2299,38.9865 C267.9849,41.8975 268.8309,44.3225 269.6679,46.9035 L270.9419,50.7285 L272.2579,54.2555 L273.5899,57.7625 L274.2619,59.5135 L274.9369,61.1375 L277.6629,67.6135 L280.3939,73.6585 C281.3149,75.7235 282.2089,77.5425 283.1139,79.4455 C284.0149,81.3215 284.9319,83.2665 285.8069,85.0075 L288.4649,90.3645 L291.0489,95.4725 L296.0429,105.2895 L300.6899,114.5265 C306.7249,126.5725 311.5199,137.3685 314.9059,147.0835 C318.0889,156.6705 319.8869,164.9795 319.9519,171.5435 L320.0009,172.7895 C320.0279,173.2055 320.0619,173.6235 320.0059,174.0015 C319.9439,174.7775 319.9089,175.5535 319.8989,176.3305 L319.8959,176.9145 C319.8859,177.1065 319.8389,177.2835 319.8139,177.4695 L319.6589,178.5745 L319.5449,179.6845 L319.5029,180.2405 C319.4779,180.4245 319.4169,180.6005 319.3779,180.7795 C319.0069,182.2035 318.9099,183.6685 318.3619,185.0925 C318.1289,185.8095 318.0199,186.5375 317.7569,187.2705 C317.4469,187.9985 317.1619,188.7345 316.8999,189.4795 L316.5239,190.6025 L315.9539,191.7425 C315.5799,192.5075 315.2269,193.2795 314.8929,194.0635 C314.8019,194.2585 314.7469,194.4535 314.6289,194.6525 L314.2689,195.2485 L313.5699,196.4515 C313.1129,197.2525 312.6699,198.0825 312.2489,198.8865 C310.8029,201.2445 309.5569,202.6185 308.8309,203.2675 C308.7369,203.3385 308.6549,203.4205 308.5819,203.5125 C308.5099,203.6115 308.4259,203.5925 308.3659,203.6565 C308.2999,203.6925 308.2569,203.7935 308.1999,203.8115 C308.1419,203.8195 308.0969,203.8415 308.0599,203.8775 C308.0419,203.8955 308.0269,203.9205 308.0129,203.9425 C307.9889,203.9385 307.9689,203.9375 307.9509,203.9405 C307.9149,203.9455 307.8899,203.9675 307.8739,204.0045 C307.8469,204.0185 307.8039,203.9905 307.7839,204.0125 C307.7569,204.0175 307.7629,204.0805 307.7109,204.0515 C307.4689,204.0705 307.1319,204.3385 305.6769,204.4655 C303.0129,204.9005 296.2019,204.5165 287.7789,202.1195 C279.7919,199.9045 270.5149,196.1815 261.0309,191.4325 C251.5199,186.6905 241.7339,180.9065 232.0549,174.5245 L173.2599,264.2485 C186.0029,272.5355 199.2819,280.3385 213.5159,287.3445 C227.7579,294.3255 242.9089,300.5945 259.7539,305.1765 C268.6749,307.5905 278.1509,309.4575 288.2059,310.4635 C298.2329,311.4825 308.9969,311.5045 320.1659,309.9575 C331.2989,308.4825 342.9109,305.1005 353.7739,299.8795 C364.6749,294.6825 374.5719,287.4405 382.8209,279.4015 C391.0969,271.3365 397.7269,262.4795 403.0349,253.6135 L406.5689,247.2455 L408.3069,244.0505 C408.8909,242.9905 409.4639,241.9225 409.9639,240.7775 L413.0389,234.0125 L414.5399,230.6135 L415.8479,227.0705 L418.3899,219.9575 C419.1809,217.5615 419.7979,215.0745 420.4829,212.6285 C421.9349,207.7545 422.7819,202.6955 423.7079,197.6735 C423.8159,197.0445 423.9449,196.4175 424.0319,195.7865 L424.2549,193.8895 L424.6789,190.0895 L425.0749,186.2875 C425.1339,185.6545 425.2119,185.0205 425.2519,184.3875 L425.3289,182.4955 L425.5719,174.9225 C425.6299,173.6535 425.5849,172.4125 425.5389,171.1695 L425.4029,167.4385 C425.3089,162.4155 424.6829,157.6135 424.1639,152.7485 C423.8639,150.3385 423.4199,148.0165 423.0369,145.6495 L422.4289,142.1155 C422.2219,140.9425 421.9379,139.8275 421.6929,138.6815 L420.1389,131.8565 C419.5529,129.6435 418.9319,127.4615 418.3199,125.2665 L417.3909,121.9835 L416.3609,118.8155 L414.2719,112.5005 C408.4109,96.0505 401.3879,81.1465 394.4579,67.5085 C390.9879,60.6315 387.5559,54.1025 384.2989,47.7835 C380.9979,41.4285 377.9959,35.4475 375.2779,29.6855 L373.3169,25.4405 L371.5789,21.3835 L371.1429,20.3725 L370.7779,19.4165 L370.0399,17.5075 L369.3009,15.6095 L368.7169,13.8455 C367.0959,9.1335 262.7679,17.6195 263.2359,21.0275 Z" id="Fill-3" fill="#3E36B9"/><path d="M162.4607,238.2722 C165.6957,233.8382 177.3627,217.8522 188.2407,202.9472 C188.0417,202.8272 187.8377,202.7132 187.6477,202.5742 C182.6657,198.9252 183.1157,190.2032 188.5477,183.2352 C193.9797,176.2632 201.9957,173.4192 206.5527,176.7552 C206.7297,176.8852 206.8837,177.0362 207.0447,177.1802 C208.4697,175.2292 209.2907,174.1022 209.2907,174.1022 C205.0387,170.9912 200.8207,167.7972 196.7157,164.5402 C194.6627,162.9132 192.6307,161.2712 190.6597,159.6372 L187.7727,157.2122 L185.4327,155.1892 L108.3607,240.9462 L111.5247,243.7172 L114.2037,246.0012 C115.9637,247.4892 117.6877,248.9152 119.4157,250.3302 C123.5657,253.7112 131.0637,249.5932 139.1097,245.1922 C147.1767,240.7892 155.7627,236.0812 162.4607,238.2722" id="Fill-6" fill="#D7DBE2"/><path d="M173.1248,264.2819 L232.0688,174.3699 C240.0658,179.6119 248.1278,184.4359 256.0518,188.5979 L205.9338,283.7139 C194.4708,277.6809 183.6098,271.1509 173.1248,264.2819" id="Fill-8" fill="#D7DBE2"/><path d="M32.198,229.1139 L75.344,178.5259 C77.668,175.8069 81.401,175.1839 83.819,177.1729 C91.114,183.1689 98.831,189.0729 106.632,194.6469 C114.442,200.2369 122.399,205.5089 130.399,210.4079 C138.402,215.2799 146.463,219.7899 154.458,223.6919 C158.454,225.6599 162.434,227.4829 166.363,229.1139 C170.291,230.7539 174.185,232.2669 177.971,233.5159 C181.418,234.6649 184.811,235.7039 188.048,236.4779 C188.867,236.6939 189.677,236.8949 190.461,237.0499 L192.826,237.5629 C194.358,237.8309 195.901,238.1469 197.345,238.3229 C200.272,238.7429 203.028,238.9989 205.465,239.0019 C207.905,239.0139 210.16,238.9509 212.009,238.6319 C213.884,238.3409 215.487,237.9579 216.881,237.5099 C218.235,237.0039 219.417,236.4379 220.584,235.7809 C221.745,235.1299 222.849,234.1979 224.083,233.1529 C224.378,232.8499 224.685,232.5609 225.006,232.2839 C225.323,231.9929 225.618,231.5909 225.943,231.2669 L226.434,230.7659 C226.597,230.5909 226.749,230.3619 226.911,230.1669 C227.232,229.7599 227.563,229.3639 227.907,228.9769 C228.469,228.1469 229.44,227.6999 230.725,227.4489 C231.981,227.1179 233.57,227.0639 235.386,227.2419 C239.054,227.3849 243.603,228.3749 247.888,230.8069 L286.052,252.3169 C290.327,254.7289 293.301,258.5679 294.333,263.1139 C294.788,265.4059 294.762,267.8739 294.235,270.3469 C293.636,272.8029 292.46,275.2569 290.804,277.5029 L287.753,281.2459 C287.235,281.8649 286.742,282.4929 286.2,283.0999 L284.538,284.9089 C283.413,286.1039 282.339,287.3229 281.154,288.4819 L277.54,291.9169 C272.562,296.3699 267.167,300.5399 261.261,304.0159 C255.372,307.4949 249.127,310.3909 242.722,312.6299 C236.306,314.8069 229.783,316.3129 223.321,317.2619 C216.844,318.2449 210.483,318.4989 204.257,318.4329 C198.017,318.3699 191.97,317.8029 186.082,316.9619 C180.175,316.1399 174.468,314.9609 168.903,313.5769 C163.317,312.2179 157.927,310.5769 152.636,308.8089 C146.816,306.8739 141.191,304.6919 135.67,302.3859 C130.143,300.0859 124.761,297.6159 119.49,295.0219 C108.926,289.8579 98.818,284.1859 88.999,278.2079 C79.198,272.2079 69.689,265.8949 60.443,259.2799 C51.187,252.6629 42.196,245.7899 33.344,238.5159 C30.386,236.0869 29.87,231.8289 32.198,229.1139" id="SKIN" fill="#8152ff"/><path d="M168.4647,3.7584 C167.4737,6.1194 167.0337,9.2364 167.2777,12.6514 C167.8877,20.2974 169.1047,27.2664 170.5787,33.6574 C172.0607,40.0544 173.8047,45.8974 175.6467,51.3474 C177.4927,56.7994 179.4437,61.8584 181.4217,66.5984 C183.3987,71.3464 185.4057,75.8564 187.4017,80.1344 C189.3967,84.4024 191.3857,88.4984 193.3427,92.4484 L199.0997,103.8674 C202.8477,111.2234 206.4167,118.1704 209.6817,124.7974 C216.2187,138.0304 221.5767,150.1534 225.0317,160.9514 C226.7397,166.3304 228.0387,171.3794 228.8127,175.9844 C229.0467,177.1554 229.1537,178.2524 229.3417,179.3774 C229.4377,180.4584 229.6217,181.5694 229.6727,182.6044 C229.8817,184.7274 229.9017,186.7154 229.9007,188.6584 C229.8957,190.5964 229.7237,192.4384 229.5547,194.2624 C229.2827,196.0614 229.0687,197.8494 228.6217,199.6044 C227.8727,203.1334 226.5977,206.6494 224.9637,210.3524 C224.5727,211.2764 224.0497,212.2084 223.6297,213.1524 C223.0897,214.0964 222.6347,215.0484 222.0717,216.0114 L221.2197,217.4634 L220.8077,218.1784 L220.4637,218.6724 C220.0097,219.3074 219.6117,220.1024 219.1757,220.5774 C217.5027,222.8874 216.1567,224.1254 215.2847,224.8344 C214.8027,225.0784 214.4897,225.4124 214.0997,225.5284 C213.7637,225.7564 213.3407,225.8404 212.8427,226.0414 C211.7757,226.3154 210.1187,226.7624 207.2807,226.7724 C206.9247,226.7684 206.5947,226.8014 206.2177,226.7974 C205.8227,226.7724 205.4287,226.7574 205.0337,226.7504 L204.4377,226.7424 L203.7817,226.6844 C203.3457,226.6484 202.9087,226.6194 202.4707,226.5994 C200.6017,226.3724 198.6367,226.1644 196.4317,225.7134 C192.0827,224.8994 187.1557,223.6004 181.9187,221.7844 C173.0147,218.7494 163.3357,214.4134 153.5647,209.2214 C143.7777,204.0264 133.8567,197.9724 124.0667,191.3714 L64.3707,280.4994 C76.9087,288.8404 89.9277,296.7214 103.7077,303.9374 C117.4967,311.1354 132.0307,317.7034 147.8577,323.0064 C157.1507,326.1254 166.9437,328.7634 177.3397,330.6314 C182.5057,331.5974 187.9117,332.2664 193.3897,332.7734 C198.9517,333.1684 204.5717,333.4464 210.4447,333.2074 C222.0727,332.9004 234.4547,330.9184 246.6037,326.8644 C258.7527,322.8024 270.5007,316.4074 280.5867,308.5404 C290.6327,300.6164 298.9697,291.3734 305.6557,281.8854 C307.4177,279.5124 308.8547,277.1164 310.3997,274.7114 L311.5357,272.9074 L312.5307,271.1944 L314.4907,267.7744 C315.7827,265.4814 316.9877,263.0924 318.2187,260.7444 C319.3697,258.3174 320.5667,255.9344 321.6417,253.4484 C325.9807,243.5604 329.5717,233.0704 331.8667,222.2004 C333.0887,216.7864 333.8847,211.2804 334.5337,205.7814 C335.0807,200.2784 335.4297,194.7614 335.4297,189.2994 C335.4267,183.8464 335.2197,178.4144 334.6947,173.1124 C334.4827,170.4344 334.1137,167.8334 333.7957,165.2014 C333.3967,162.6174 333.0357,160.0024 332.5457,157.4704 C330.7107,147.2464 328.0737,137.5504 325.0537,128.3094 C318.9537,109.8564 311.2407,93.3644 303.5987,78.0754 C295.9527,62.8214 288.2197,48.6694 282.0687,35.6944 C279.0227,29.2464 276.3387,23.0654 274.4647,17.6024 C272.5637,12.1494 271.4457,7.3534 271.1917,4.1534 C271.1737,3.4834 270.4857,2.9014 269.5307,2.5324 C268.5477,2.1424 169.4287,1.4324 168.4647,3.7584 Z" id="Fill-12" fill="#694FD9"/><path d="M53.905,254.528 C57.166,250.114 68.924,234.195 79.886,219.351 C79.686,219.231 79.482,219.118 79.292,218.977 C74.319,215.294 74.795,206.564 80.25,199.616 C85.707,192.663 93.76,189.874 98.342,193.265 C98.519,193.395 98.676,193.548 98.838,193.693 C100.273,191.75 101.101,190.628 101.101,190.628 C96.818,187.471 92.593,184.219 88.455,180.928 C86.393,179.281 84.35,177.622 82.366,175.971 L79.454,173.52 L77.072,171.458 L0,257.214 L3.123,259.952 L5.777,262.219 L10.939,266.522 C15.051,269.893 22.536,265.775 30.584,261.385 C38.648,256.999 47.237,252.323 53.905,254.528" id="Fill-15" fill="#D7DBE2"/><path d="M64.2371,280.5329 L124.0831,191.2179 C132.1691,196.6459 140.3421,201.6729 148.4551,206.1709 L96.3421,300.2079 C85.2101,294.0319 74.5481,287.4499 64.2371,280.5329" id="Fill-17" fill="#D7DBE2"/><path d="M271.157,99.3542 L261.157,99.3542 C206.481,99.3542 162.157,55.0302 162.157,0.3542 L370.157,0.3542 C370.157,55.0302 325.833,99.3542 271.157,99.3542" id="Fill-19" fill="#694FD9"/></g></g></g><g id="Body" transform="translate(17.000000, -31.000000) scale(1 1)"><g id="Body/Sweats Grab Up" stroke="none" stroke-width="1" fill="none" fill-rule="evenodd"><g id="Right-Arm" transform="translate(419.000000, 39.000000)"><path d="M351.9107,74.8252 C336.7217,80.5792 317.0057,80.9132 302.4357,88.5162 C263.8207,111.3102 224.3037,131.6642 181.8237,148.2092 C164.9427,154.9732 145.6647,161.1192 128.1407,166.0712 C114.9227,169.6592 99.6917,172.9812 86.1507,175.3942 C73.6657,177.8342 58.9327,180.4122 48.8577,170.6292 C27.3007,155.1672 37.4937,116.5342 62.9547,112.1392 C74.4747,110.6702 87.6287,108.1722 98.8917,105.3472 C118.6297,100.7112 139.1377,94.0792 158.0007,86.6592 C209.7897,68.1512 257.2237,35.9292 306.7027,11.7412 C325.4037,1.9022 361.0887,-2.5508 374.0117,3.3322 C379.5987,4.3672 382.2467,13.4502 376.6737,16.0302 C374.8387,16.8792 367.8407,18.4152 359.6637,20.9352 C363.5887,22.7232 366.5347,25.2032 368.6497,27.5302 C373.4157,32.7402 367.2647,41.8072 359.7097,39.6192 C353.0907,37.6662 346.3067,31.2492 332.7967,33.4442 C317.9347,46.6412 329.0507,63.1312 346.0567,58.7652 C355.8037,57.6422 359.9737,71.6772 351.9107,74.8252" id="SKIN" fill="#8152ff"/><path d="M351.9107,74.8252 C336.7217,80.5792 317.0057,80.9132 302.4357,88.5162 C263.8207,111.3102 224.3037,131.6642 181.8237,148.2092 C164.9427,154.9732 145.6647,161.1192 128.1407,166.0712 C114.9227,169.6592 99.6917,172.9812 86.1507,175.3942 C73.6657,177.8342 58.9327,180.4122 48.8577,170.6292 C27.3007,155.1672 37.4937,116.5342 62.9547,112.1392 C74.4747,110.6702 87.6287,108.1722 98.8917,105.3472 C118.6297,100.7112 139.1377,94.0792 158.0007,86.6592 C209.7897,68.1512 257.2237,35.9292 306.7027,11.7412 C325.4037,1.9022 361.0887,-2.5508 374.0117,3.3322 C379.5987,4.3672 382.2467,13.4502 376.6737,16.0302 C374.8387,16.8792 367.8407,18.4152 359.6637,20.9352 C363.5887,22.7232 366.5347,25.2032 368.6497,27.5302 C373.4157,32.7402 367.2647,41.8072 359.7097,39.6192 C353.0907,37.6662 346.3067,31.2492 332.7967,33.4442 C317.9347,46.6412 329.0507,63.1312 346.0567,58.7652 C355.8037,57.6422 359.9737,71.6772 351.9107,74.8252" id="SHADOW" fill="#000" opacity=".12"/><path d="M272.5688,22.5511 C265.4068,26.7281 254.4908,33.3281 247.2708,37.2101 C224.3858,35.7111 77.1596165,109.999229 3.26537045,110 C-9.02562955,128.498 17.4238,171.2811 37.4168,183.3081 C51.4398,192.9841 68.4678,190.3621 84.6238,189.7831 C133.2568,185.9861 180.6488,169.5801 223.4138,146.6421 C244.4018,134.3541 268.7578,121.0861 283.9598,102.6251 C291.8508,98.4221 303.2958,91.4131 311.0718,86.9131 L272.5688,22.5511 Z" id="Fill-4" fill="#2DB386"/><path d="M248.2848,38.3662 L284.9948,103.7672 C292.6258,99.6472 304.2718,92.6232 311.8438,88.2022 L273.3408,23.8392 C266.2458,27.9772 255.4328,34.5132 248.2848,38.3662" id="Fill-6" fill="#25996F"/></g><g id="Body" transform="translate(238.000000, 149.000000)"><path d="M278.106708,192.298647 C205.538716,197.378937 1.44114734,174.139406 3.75109927,161.20524 C8.33256874,135.552114 16.2642525,95.4663653 27.5461506,40.9479927 C27.5461506,18.3333745 47.7038086,-0.000770909091 72.5687342,-0.000770909091 L211.895593,-0.000770909091 C236.760519,-0.000770909091 256.917117,18.3333745 256.917117,40.9479927 C266.870755,93.2351517 274.102974,132.007446 278.613775,157.264876 C280.224412,166.283349 280.055389,177.961273 278.106708,192.298647 Z" id="Sweat-Body" fill="#34D1A1"/><path d="M0.000317843866,195.189749 C100.650875,230.844295 209.77727,197.117022 284.463162,195.189749 L279.673255,156.30124 C206.510894,158.917513 101.819481,190.863022 3.67459294,157.11744 L0.000317843866,195.189749 Z" id="Bottom" fill="#2DB386"/></g><g id="Left-Arm" transform="translate(198.000000, 149.000000)"><path d="M177.57385,226.420558 C127.98385,225.145558 79.4318501,188.409558 82.5628501,136.018558 C83.2928501,111.918558 92.0658501,89.6515577 105.28885,68.4875577 C114.12185,54.5405577 109.60685,34.5275577 96.9808501,24.0665577 C46.3648501,-12.3554423 16.7258501,98.4425577 16.5818501,134.350558 C15.8278501,159.619558 21.4828501,185.784558 33.4108501,208.300558 C57.1378501,254.397558 105.65185,283.332558 155.53085,290.349558 C166.92685,292.717558 249.01785,299.185558 220.59485,273.841558 C224.16585,272.100558 226.22185,268.304558 225.55085,264.450558 C225.01485,261.358558 222.93385,258.909558 220.28985,257.720558 C226.42185,254.768558 226.17385,245.142558 220.42485,241.988558 C224.68585,241.300558 229.57085,240.349558 233.78185,239.366558 C239.95085,238.848558 246.10185,234.623558 243.95985,227.502558 C239.06385,213.816558 222.69485,225.480558 212.70185,224.966558 C210.42685,211.465558 194.19585,219.400558 185.15085,217.737558 C181.31785,217.626558 177.93685,221.497558 177.57385,226.420558" id="SKIN" fill="#8152ff"/><path d="M154.62905,296.283458 C142.35005,294.401458 130.03805,291.488458 117.98605,287.128458 C86.1400501,287.753458 54.5780501,263.995458 33.8180501,239.276458 C0.493050112,198.821458 -8.05194989,140.559458 7.51605011,91.1434577 C14.6090501,66.4494577 29.7740501,39.3344577 45.5890501,20.9284577 C61.4040501,2.52245772 88.7834603,-1.76547303e-07 123.93805,-1.76547303e-07 C159.09264,-1.76547303e-07 127.35205,40.9564577 123.93805,57.5644577 C119.74605,70.8244577 111.46705,82.9254577 107.60705,96.2894577 C89.2090501,148.567458 101.99605,182.184458 143.22005,216.501458 C150.37905,219.114458 158.02605,220.924458 165.90005,222.135458 L154.62905,296.283458 Z" id="Fill-12" fill="#34D1A1"/><path d="M118.88245,285.857058 L143.95545,215.172058 C150.94645,217.711058 158.42845,219.460058 166.12545,220.651058 L154.85545,294.798058 C142.79845,292.943058 130.71145,290.109058 118.88245,285.857058" id="Fill-15" fill="#2DB386"/></g></g></g><g id="Head" transform="translate(338.000000, -61.000000) scale(1 1)"><g id="Head/Long Wavy" stroke="none" stroke-width="1" fill="none" fill-rule="evenodd"><path d="M-14.5,234 L-6.5,234 C16.42,234 35,215.42 35,192.5 L35,143 L-15.226,143 C-37.745,143 -56,161.255 -56,183.774 L-56,192.5 C-56,215.42 -37.42,234 -14.5,234" id="Fill-19" fill="#000"/><path d="M51,132.5 C51,109.028 31.972,90 8.5,90 C-14.972,90 -34,109.028 -34,132.5 C-34,155.972 -14.972,175 8.5,175 C31.972,175 51,155.972 51,132.5" id="Fill-1" fill="#000"/><path d="M127,101.5 C127,78.028 107.972,59 84.5,59 C61.028,59 42,78.028 42,101.5 C42,124.972 61.028,144 84.5,144 C107.972,144 127,124.972 127,101.5" id="Fill-3" fill="#000"/><path d="M122,155 C122,138.432 108.569,125 92,125 C75.431,125 62,138.432 62,155 C62,171.568 75.431,185 92,185 C108.569,185 122,171.568 122,155" id="Fill-5" fill="#000"/><path d="M52.801,171 L72,171 L72,59 L52.801,59 C24.744,59 2,81.744 2,109.801 L2,120.199 C2,148.256 24.744,171 52.801,171" id="Fill-7" fill="#000"/><g id="head" transform="translate(22.000000, 72.000000)"><g fill="#8152ff" id="SKIN"><path d="M13,62 L58,62 L58,113.633 C58,127.538 47.926,138.81 35.5,138.81 C23.074,138.81 13,127.538 13,113.633 L13,62 Z"/><path d="M60.0525,94 L55.0655,94 C31.8335,94 13.0005,75.167 13.0005,51.935 L13.0005,32.203 C13.0005,14.418 27.4175,0 45.2035,0 L50.7965,0 C68.5825,0 83.0005,14.418 83.0005,32.203 L83.0005,71.052 C83.0005,83.726 72.7265,94 60.0525,94"/><path d="M25,58.5 C25,65.403 19.404,71 12.5,71 C5.596,71 0,65.403 0,58.5 C0,51.597 5.596,46 12.5,46 C19.404,46 25,51.597 25,58.5"/></g><path d="M10.067,53.1685 C10.9718309,53.1685 12.2239875,53.3771928 13.5088204,54.0196092 C15.6553998,55.0928989 17.0130325,57.055328 17.10411,59.9021045 L17.109,60.2105 L14.109,60.2105 C14.109,58.3751144 13.4076866,57.3231443 12.1671796,56.7028908 C11.7065142,56.4725581 11.1976823,56.3199085 10.686339,56.2346846 C10.4347302,56.1927498 10.2385731,56.1747448 10.1250097,56.169908 L10.067,56.1685 L10.067,53.1685 Z" id="ear-line" fill="#000"/><path d="M34.7507501,96.3316762 C25.4557924,93.0435693 20.8185822,84.7386742 18.9822222,73.5680961 C26.2532122,85.6701724 39.4406226,93.8132264 54.5439426,93.9967331 L55.0655,93.9999 L58,93.9999 C50.0632106,98.2297391 42.3134606,99.0069978 34.7507501,96.3316762 Z" id="SHADOW" fill="#000" opacity=".12"/></g><path d="M34.3395164,118 C25.3401171,118 19.7014935,96.618 19.0235388,85.952 C18.0946008,71.334 44.8808128,59 60.3367811,59 L86.3260463,59 L102,90.263 L60.0298015,90.263 C53.2572536,107.39 43.3389157,118 34.3395164,118" id="Fill-17" fill="#000"/></g></g><g id="Expression" transform="translate(385.000000, 34.000000) scale(1 1)" fill="#000"><defs><filter id="expressionwink-filter-1"><feColorMatrix in="SourceGraphic" values="0 0 0 0 0.000000 0 0 0 0 0.000000 0 0 0 0 0.000000 0 0 0 1.000000 0"/></filter></defs><g id="Expression/Wink" stroke="none" stroke-width="1" fill="none" fill-rule="evenodd"><g filter="url(#expressionwink-filter-1)" id="Group-17"><g transform="translate(9.000000, 3.000000)"><path d="M37.6862,19.0627 C37.6862,17.4057 36.3432,16.0627 34.6862,16.0627 C33.0292,16.0627 31.6862,17.4057 31.6862,19.0627 C31.6862,20.7197 33.0292,22.0627 34.6862,22.0627 C36.3432,22.0627 37.6862,20.7197 37.6862,19.0627" id="Fill-1" fill="#000"/><path d="M13.0473,38.6487 C13.0473,42.3229625 16.7893817,45.7208933 20.8069435,45.8527329 L21.0483,45.8567 L21.0483,48.8567 C15.4506295,48.8567 10.2215019,44.2907163 10.0515594,38.9179911 L10.0473,38.6487 L13.0473,38.6487 Z" id="Stroke-5" fill="#000" fill-rule="nonzero"/><path d="M2.57564697,9.21147847 C6.2616177,8.06796663 10.3535814,7.81561498 14.5680667,8.99954871 L15.0368326,9.13703524 L14.1597674,12.0059648 C10.4145271,10.8610011 6.75307649,11.056551 3.46455381,12.0767611 C2.87639473,12.2592278 2.35407493,12.4536573 1.90571976,12.6462124 L1.67798076,12.7466018 L1.40843093,12.875962 L0.000169065366,10.227038 C0.505632486,9.95831572 1.38329457,9.5813862 2.57564697,9.21147847 Z" id="Stroke-7" fill="#000" fill-rule="nonzero"/><path d="M27.4327673,1.61074391 C31.7294847,0.539609121 35.85137,0.927023851 39.5454285,2.22070874 C40.6627133,2.61198958 41.5287224,3.00892816 42.1054952,3.32415386 L42.3911858,3.48746626 L40.8460142,6.05893374 L40.6830708,5.96779273 C40.5848397,5.91521377 40.4526078,5.84736079 40.2880352,5.76752086 C39.7889686,5.52540617 39.2078998,5.28115198 38.5538553,5.05210108 C35.5067759,3.98499275 32.1271224,3.6348104 28.6169983,4.41363387 L28.1584327,4.52165609 L27.4327673,1.61074391 Z" id="Stroke-9" fill="#000" fill-rule="nonzero"/><path d="M2.29348496,21.505614 C4.78316311,15.2814186 15.5765131,15.2055138 17.1047395,21.5313094 L17.157071,21.7685258 L14.215329,22.3568742 C13.5401751,18.9811049 6.8011145,18.9218809 5.16179365,22.4285178 L5.07891504,22.619786 L2.29348496,21.505614 Z" id="Stroke-15" fill="#000" fill-rule="nonzero"/></g></g><polygon id="Stroke-5" fill="#000" fill-rule="nonzero" points="33.1977829 19.396766 36.1476171 18.850434 40.4350211 41.9996 30.5607 41.9996 30.5607 38.9996 36.828 38.999"/></g></g><g id="Accessories" transform="translate(372.000000, 56.000000) scale(1 1)" fill="#000"><g id="Accessories/N65" stroke="none" stroke-width="1" fill="none" fill-rule="evenodd"><path d="M55.1977784,0.766509801 C61.8672688,0.766509801 65.5931791,6.91877559 68.3190852,9.67622448 C68.5366389,9.86933778 68.7500465,10.0676638 68.9593821,10.2698541 C69.0753941,10.3682311 69.1897807,10.4565674 69.3026336,10.535583 L69.2915753,10.5973925 C73.2112403,14.5427001 75.6165684,19.8776287 75.6165684,25.7499259 C75.6165684,37.9001904 65.3191176,47.7499259 52.6165684,47.7499259 C39.9140192,47.7499259 29.6165684,37.9001904 29.6165684,25.7499259 C29.6165684,17.6330728 34.2120776,10.5428914 41.0501479,6.73002773 L41.0440543,6.69219525 L41.0440543,6.69219525 C46.4836096,4.14573474 47.6906867,0.766509801 55.1977784,0.766509801 Z" id="Clothe" fill="#D8D8D8"/><path d="M32.6165684,20.7333421 C32.6165684,32.8836066 42.9140192,42.7333421 55.6165684,42.7333421 C63.0741024,42.7333421 69.702661,39.3383929 73.9051908,34.0761112 C70.4693708,42.0893844 62.2320375,47.7333421 52.6165684,47.7333421 C39.9140192,47.7333421 29.6165684,37.8836066 29.6165684,25.7333421 C29.6165684,20.7166936 31.3720069,16.0922234 34.3273758,12.3912869 C33.2246542,14.9640107 32.6165684,17.7807509 32.6165684,20.7333421 Z" id="SHADOW" fill="#000" opacity=".12"/><line x1="0" y1="0" x2="34.913" y2="14.229" id="Path-4" stroke="#22252B" stroke-width="2"/><line x1="33.673" y1="28.173" x2="0" y2="28.173" id="Path-5" stroke="#22252B" stroke-width="2"/></g></g><g id="Glasses" transform="translate(364.000000, 42.000000) scale(1 1)" fill="#000"><g id="Glasses/None" stroke="none" stroke-width="1" fill="none" fill-rule="evenodd" fill-opacity="0"/></g></g></g><g id="Small Elements" transform="translate(75.000000, 687.000000) scale(0.8148148148148148 0.8148148148148148)"><g id="Small Elements/Squares" stroke="none" stroke-width="1" fill="none" fill-rule="evenodd"><rect id="Rectangle" fill="#902EE9" x="29" y="29" width="106" height="106"/><rect id="Rectangle" fill="#FF9F00" x="135" y="135" width="106" height="106"/></g></g></g></svg>